<?xml version="1.0" encoding="utf-8" standalone="no"?>
<!DOCTYPE svg PUBLIC "-//W3C//DTD SVG 1.1//EN"
  "http://www.w3.org/Graphics/SVG/1.1/DTD/svg11.dtd">
<!-- Created with matplotlib (https://matplotlib.org/) -->
<svg height="288pt" version="1.1" viewBox="0 0 432 288" width="432pt" xmlns="http://www.w3.org/2000/svg" xmlns:xlink="http://www.w3.org/1999/xlink">
 <defs>
  <style type="text/css">
*{stroke-linecap:butt;stroke-linejoin:round;}
  </style>
 </defs>
 <g id="figure_1">
  <g id="patch_1">
   <path d="M 0 288 
L 432 288 
L 432 0 
L 0 0 
z
" style="fill:#ffffff;"/>
  </g>
  <g id="axes_1">
   <g id="patch_2">
    <path d="M 54 252 
L 388.8 252 
L 388.8 34.56 
L 54 34.56 
z
" style="fill:#ffffff;"/>
   </g>
   <g id="matplotlib.axis_1">
    <g id="xtick_1">
     <g id="line2d_1">
      <defs>
       <path d="M 0 0 
L 0 3.5 
" id="md6fd848a48" style="stroke:#000000;stroke-width:0.8;"/>
      </defs>
      <g>
       <use style="stroke:#000000;stroke-width:0.8;" x="68.608235" xlink:href="#md6fd848a48" y="252"/>
      </g>
     </g>
     <g id="text_1">
      <!-- 0 -->
      <defs>
       <path d="M 31.78125 66.40625 
Q 24.171875 66.40625 20.328125 58.90625 
Q 16.5 51.421875 16.5 36.375 
Q 16.5 21.390625 20.328125 13.890625 
Q 24.171875 6.390625 31.78125 6.390625 
Q 39.453125 6.390625 43.28125 13.890625 
Q 47.125 21.390625 47.125 36.375 
Q 47.125 51.421875 43.28125 58.90625 
Q 39.453125 66.40625 31.78125 66.40625 
z
M 31.78125 74.21875 
Q 44.046875 74.21875 50.515625 64.515625 
Q 56.984375 54.828125 56.984375 36.375 
Q 56.984375 17.96875 50.515625 8.265625 
Q 44.046875 -1.421875 31.78125 -1.421875 
Q 19.53125 -1.421875 13.0625 8.265625 
Q 6.59375 17.96875 6.59375 36.375 
Q 6.59375 54.828125 13.0625 64.515625 
Q 19.53125 74.21875 31.78125 74.21875 
z
" id="DejaVuSans-48"/>
      </defs>
      <g transform="translate(65.426985 266.598437)scale(0.1 -0.1)">
       <use xlink:href="#DejaVuSans-48"/>
      </g>
     </g>
    </g>
    <g id="xtick_2">
     <g id="line2d_2">
      <g>
       <use style="stroke:#000000;stroke-width:0.8;" x="129.602951" xlink:href="#md6fd848a48" y="252"/>
      </g>
     </g>
     <g id="text_2">
      <!-- 100 -->
      <defs>
       <path d="M 12.40625 8.296875 
L 28.515625 8.296875 
L 28.515625 63.921875 
L 10.984375 60.40625 
L 10.984375 69.390625 
L 28.421875 72.90625 
L 38.28125 72.90625 
L 38.28125 8.296875 
L 54.390625 8.296875 
L 54.390625 0 
L 12.40625 0 
z
" id="DejaVuSans-49"/>
      </defs>
      <g transform="translate(120.059201 266.598437)scale(0.1 -0.1)">
       <use xlink:href="#DejaVuSans-49"/>
       <use x="63.623047" xlink:href="#DejaVuSans-48"/>
       <use x="127.246094" xlink:href="#DejaVuSans-48"/>
      </g>
     </g>
    </g>
    <g id="xtick_3">
     <g id="line2d_3">
      <g>
       <use style="stroke:#000000;stroke-width:0.8;" x="190.597668" xlink:href="#md6fd848a48" y="252"/>
      </g>
     </g>
     <g id="text_3">
      <!-- 200 -->
      <defs>
       <path d="M 19.1875 8.296875 
L 53.609375 8.296875 
L 53.609375 0 
L 7.328125 0 
L 7.328125 8.296875 
Q 12.9375 14.109375 22.625 23.890625 
Q 32.328125 33.6875 34.8125 36.53125 
Q 39.546875 41.84375 41.421875 45.53125 
Q 43.3125 49.21875 43.3125 52.78125 
Q 43.3125 58.59375 39.234375 62.25 
Q 35.15625 65.921875 28.609375 65.921875 
Q 23.96875 65.921875 18.8125 64.3125 
Q 13.671875 62.703125 7.8125 59.421875 
L 7.8125 69.390625 
Q 13.765625 71.78125 18.9375 73 
Q 24.125 74.21875 28.421875 74.21875 
Q 39.75 74.21875 46.484375 68.546875 
Q 53.21875 62.890625 53.21875 53.421875 
Q 53.21875 48.921875 51.53125 44.890625 
Q 49.859375 40.875 45.40625 35.40625 
Q 44.1875 33.984375 37.640625 27.21875 
Q 31.109375 20.453125 19.1875 8.296875 
z
" id="DejaVuSans-50"/>
      </defs>
      <g transform="translate(181.053918 266.598437)scale(0.1 -0.1)">
       <use xlink:href="#DejaVuSans-50"/>
       <use x="63.623047" xlink:href="#DejaVuSans-48"/>
       <use x="127.246094" xlink:href="#DejaVuSans-48"/>
      </g>
     </g>
    </g>
    <g id="xtick_4">
     <g id="line2d_4">
      <g>
       <use style="stroke:#000000;stroke-width:0.8;" x="251.592385" xlink:href="#md6fd848a48" y="252"/>
      </g>
     </g>
     <g id="text_4">
      <!-- 300 -->
      <defs>
       <path d="M 40.578125 39.3125 
Q 47.65625 37.796875 51.625 33 
Q 55.609375 28.21875 55.609375 21.1875 
Q 55.609375 10.40625 48.1875 4.484375 
Q 40.765625 -1.421875 27.09375 -1.421875 
Q 22.515625 -1.421875 17.65625 -0.515625 
Q 12.796875 0.390625 7.625 2.203125 
L 7.625 11.71875 
Q 11.71875 9.328125 16.59375 8.109375 
Q 21.484375 6.890625 26.8125 6.890625 
Q 36.078125 6.890625 40.9375 10.546875 
Q 45.796875 14.203125 45.796875 21.1875 
Q 45.796875 27.640625 41.28125 31.265625 
Q 36.765625 34.90625 28.71875 34.90625 
L 20.21875 34.90625 
L 20.21875 43.015625 
L 29.109375 43.015625 
Q 36.375 43.015625 40.234375 45.921875 
Q 44.09375 48.828125 44.09375 54.296875 
Q 44.09375 59.90625 40.109375 62.90625 
Q 36.140625 65.921875 28.71875 65.921875 
Q 24.65625 65.921875 20.015625 65.03125 
Q 15.375 64.15625 9.8125 62.3125 
L 9.8125 71.09375 
Q 15.4375 72.65625 20.34375 73.4375 
Q 25.25 74.21875 29.59375 74.21875 
Q 40.828125 74.21875 47.359375 69.109375 
Q 53.90625 64.015625 53.90625 55.328125 
Q 53.90625 49.265625 50.4375 45.09375 
Q 46.96875 40.921875 40.578125 39.3125 
z
" id="DejaVuSans-51"/>
      </defs>
      <g transform="translate(242.048635 266.598437)scale(0.1 -0.1)">
       <use xlink:href="#DejaVuSans-51"/>
       <use x="63.623047" xlink:href="#DejaVuSans-48"/>
       <use x="127.246094" xlink:href="#DejaVuSans-48"/>
      </g>
     </g>
    </g>
    <g id="xtick_5">
     <g id="line2d_5">
      <g>
       <use style="stroke:#000000;stroke-width:0.8;" x="312.587101" xlink:href="#md6fd848a48" y="252"/>
      </g>
     </g>
     <g id="text_5">
      <!-- 400 -->
      <defs>
       <path d="M 37.796875 64.3125 
L 12.890625 25.390625 
L 37.796875 25.390625 
z
M 35.203125 72.90625 
L 47.609375 72.90625 
L 47.609375 25.390625 
L 58.015625 25.390625 
L 58.015625 17.1875 
L 47.609375 17.1875 
L 47.609375 0 
L 37.796875 0 
L 37.796875 17.1875 
L 4.890625 17.1875 
L 4.890625 26.703125 
z
" id="DejaVuSans-52"/>
      </defs>
      <g transform="translate(303.043351 266.598437)scale(0.1 -0.1)">
       <use xlink:href="#DejaVuSans-52"/>
       <use x="63.623047" xlink:href="#DejaVuSans-48"/>
       <use x="127.246094" xlink:href="#DejaVuSans-48"/>
      </g>
     </g>
    </g>
    <g id="xtick_6">
     <g id="line2d_6">
      <g>
       <use style="stroke:#000000;stroke-width:0.8;" x="373.581818" xlink:href="#md6fd848a48" y="252"/>
      </g>
     </g>
     <g id="text_6">
      <!-- 500 -->
      <defs>
       <path d="M 10.796875 72.90625 
L 49.515625 72.90625 
L 49.515625 64.59375 
L 19.828125 64.59375 
L 19.828125 46.734375 
Q 21.96875 47.46875 24.109375 47.828125 
Q 26.265625 48.1875 28.421875 48.1875 
Q 40.625 48.1875 47.75 41.5 
Q 54.890625 34.8125 54.890625 23.390625 
Q 54.890625 11.625 47.5625 5.09375 
Q 40.234375 -1.421875 26.90625 -1.421875 
Q 22.3125 -1.421875 17.546875 -0.640625 
Q 12.796875 0.140625 7.71875 1.703125 
L 7.71875 11.625 
Q 12.109375 9.234375 16.796875 8.0625 
Q 21.484375 6.890625 26.703125 6.890625 
Q 35.15625 6.890625 40.078125 11.328125 
Q 45.015625 15.765625 45.015625 23.390625 
Q 45.015625 31 40.078125 35.4375 
Q 35.15625 39.890625 26.703125 39.890625 
Q 22.75 39.890625 18.8125 39.015625 
Q 14.890625 38.140625 10.796875 36.28125 
z
" id="DejaVuSans-53"/>
      </defs>
      <g transform="translate(364.038068 266.598437)scale(0.1 -0.1)">
       <use xlink:href="#DejaVuSans-53"/>
       <use x="63.623047" xlink:href="#DejaVuSans-48"/>
       <use x="127.246094" xlink:href="#DejaVuSans-48"/>
      </g>
     </g>
    </g>
   </g>
   <g id="matplotlib.axis_2">
    <g id="ytick_1">
     <g id="line2d_7">
      <defs>
       <path d="M 0 0 
L -3.5 0 
" id="mf01824ab73" style="stroke:#000000;stroke-width:0.8;"/>
      </defs>
      <g>
       <use style="stroke:#000000;stroke-width:0.8;" x="54" xlink:href="#mf01824ab73" y="242.199138"/>
      </g>
     </g>
     <g id="text_7">
      <!-- 0 -->
      <g transform="translate(40.6375 245.998357)scale(0.1 -0.1)">
       <use xlink:href="#DejaVuSans-48"/>
      </g>
     </g>
    </g>
    <g id="ytick_2">
     <g id="line2d_8">
      <g>
       <use style="stroke:#000000;stroke-width:0.8;" x="54" xlink:href="#mf01824ab73" y="214.916448"/>
      </g>
     </g>
     <g id="text_8">
      <!-- 10 -->
      <g transform="translate(34.275 218.715667)scale(0.1 -0.1)">
       <use xlink:href="#DejaVuSans-49"/>
       <use x="63.623047" xlink:href="#DejaVuSans-48"/>
      </g>
     </g>
    </g>
    <g id="ytick_3">
     <g id="line2d_9">
      <g>
       <use style="stroke:#000000;stroke-width:0.8;" x="54" xlink:href="#mf01824ab73" y="187.633758"/>
      </g>
     </g>
     <g id="text_9">
      <!-- 20 -->
      <g transform="translate(34.275 191.432977)scale(0.1 -0.1)">
       <use xlink:href="#DejaVuSans-50"/>
       <use x="63.623047" xlink:href="#DejaVuSans-48"/>
      </g>
     </g>
    </g>
    <g id="ytick_4">
     <g id="line2d_10">
      <g>
       <use style="stroke:#000000;stroke-width:0.8;" x="54" xlink:href="#mf01824ab73" y="160.351068"/>
      </g>
     </g>
     <g id="text_10">
      <!-- 30 -->
      <g transform="translate(34.275 164.150287)scale(0.1 -0.1)">
       <use xlink:href="#DejaVuSans-51"/>
       <use x="63.623047" xlink:href="#DejaVuSans-48"/>
      </g>
     </g>
    </g>
    <g id="ytick_5">
     <g id="line2d_11">
      <g>
       <use style="stroke:#000000;stroke-width:0.8;" x="54" xlink:href="#mf01824ab73" y="133.068378"/>
      </g>
     </g>
     <g id="text_11">
      <!-- 40 -->
      <g transform="translate(34.275 136.867597)scale(0.1 -0.1)">
       <use xlink:href="#DejaVuSans-52"/>
       <use x="63.623047" xlink:href="#DejaVuSans-48"/>
      </g>
     </g>
    </g>
    <g id="ytick_6">
     <g id="line2d_12">
      <g>
       <use style="stroke:#000000;stroke-width:0.8;" x="54" xlink:href="#mf01824ab73" y="105.785688"/>
      </g>
     </g>
     <g id="text_12">
      <!-- 50 -->
      <g transform="translate(34.275 109.584907)scale(0.1 -0.1)">
       <use xlink:href="#DejaVuSans-53"/>
       <use x="63.623047" xlink:href="#DejaVuSans-48"/>
      </g>
     </g>
    </g>
    <g id="ytick_7">
     <g id="line2d_13">
      <g>
       <use style="stroke:#000000;stroke-width:0.8;" x="54" xlink:href="#mf01824ab73" y="78.502999"/>
      </g>
     </g>
     <g id="text_13">
      <!-- 60 -->
      <defs>
       <path d="M 33.015625 40.375 
Q 26.375 40.375 22.484375 35.828125 
Q 18.609375 31.296875 18.609375 23.390625 
Q 18.609375 15.53125 22.484375 10.953125 
Q 26.375 6.390625 33.015625 6.390625 
Q 39.65625 6.390625 43.53125 10.953125 
Q 47.40625 15.53125 47.40625 23.390625 
Q 47.40625 31.296875 43.53125 35.828125 
Q 39.65625 40.375 33.015625 40.375 
z
M 52.59375 71.296875 
L 52.59375 62.3125 
Q 48.875 64.0625 45.09375 64.984375 
Q 41.3125 65.921875 37.59375 65.921875 
Q 27.828125 65.921875 22.671875 59.328125 
Q 17.53125 52.734375 16.796875 39.40625 
Q 19.671875 43.65625 24.015625 45.921875 
Q 28.375 48.1875 33.59375 48.1875 
Q 44.578125 48.1875 50.953125 41.515625 
Q 57.328125 34.859375 57.328125 23.390625 
Q 57.328125 12.15625 50.6875 5.359375 
Q 44.046875 -1.421875 33.015625 -1.421875 
Q 20.359375 -1.421875 13.671875 8.265625 
Q 6.984375 17.96875 6.984375 36.375 
Q 6.984375 53.65625 15.1875 63.9375 
Q 23.390625 74.21875 37.203125 74.21875 
Q 40.921875 74.21875 44.703125 73.484375 
Q 48.484375 72.75 52.59375 71.296875 
z
" id="DejaVuSans-54"/>
      </defs>
      <g transform="translate(34.275 82.302217)scale(0.1 -0.1)">
       <use xlink:href="#DejaVuSans-54"/>
       <use x="63.623047" xlink:href="#DejaVuSans-48"/>
      </g>
     </g>
    </g>
    <g id="ytick_8">
     <g id="line2d_14">
      <g>
       <use style="stroke:#000000;stroke-width:0.8;" x="54" xlink:href="#mf01824ab73" y="51.220309"/>
      </g>
     </g>
     <g id="text_14">
      <!-- 70 -->
      <defs>
       <path d="M 8.203125 72.90625 
L 55.078125 72.90625 
L 55.078125 68.703125 
L 28.609375 0 
L 18.3125 0 
L 43.21875 64.59375 
L 8.203125 64.59375 
z
" id="DejaVuSans-55"/>
      </defs>
      <g transform="translate(34.275 55.019527)scale(0.1 -0.1)">
       <use xlink:href="#DejaVuSans-55"/>
       <use x="63.623047" xlink:href="#DejaVuSans-48"/>
      </g>
     </g>
    </g>
   </g>
   <g id="line2d_15">
    <defs>
     <path d="M 0 3 
C 0.795609 3 1.55874 2.683901 2.12132 2.12132 
C 2.683901 1.55874 3 0.795609 3 0 
C 3 -0.795609 2.683901 -1.55874 2.12132 -2.12132 
C 1.55874 -2.683901 0.795609 -3 0 -3 
C -0.795609 -3 -1.55874 -2.683901 -2.12132 -2.12132 
C -2.683901 -1.55874 -3 -0.795609 -3 0 
C -3 0.795609 -2.683901 1.55874 -2.12132 2.12132 
C -1.55874 2.683901 -0.795609 3 0 3 
z
" id="mdce7821368" style="stroke:#ff0000;"/>
    </defs>
    <g clip-path="url(#pd1e8e931ab)">
     <use style="fill:#ff0000;stroke:#ff0000;" x="69.218182" xlink:href="#mdce7821368" y="242.081809"/>
     <use style="fill:#ff0000;stroke:#ff0000;" x="69.828129" xlink:href="#mdce7821368" y="242.116364"/>
     <use style="fill:#ff0000;stroke:#ff0000;" x="70.438076" xlink:href="#mdce7821368" y="242.106517"/>
     <use style="fill:#ff0000;stroke:#ff0000;" x="71.048023" xlink:href="#mdce7821368" y="242.107401"/>
     <use style="fill:#ff0000;stroke:#ff0000;" x="71.65797" xlink:href="#mdce7821368" y="242.108187"/>
     <use style="fill:#ff0000;stroke:#ff0000;" x="72.267918" xlink:href="#mdce7821368" y="242.106515"/>
     <use style="fill:#ff0000;stroke:#ff0000;" x="72.877865" xlink:href="#mdce7821368" y="242.102689"/>
     <use style="fill:#ff0000;stroke:#ff0000;" x="73.487812" xlink:href="#mdce7821368" y="242.103113"/>
     <use style="fill:#ff0000;stroke:#ff0000;" x="74.097759" xlink:href="#mdce7821368" y="242.100233"/>
     <use style="fill:#ff0000;stroke:#ff0000;" x="74.707706" xlink:href="#mdce7821368" y="242.09951"/>
     <use style="fill:#ff0000;stroke:#ff0000;" x="75.317653" xlink:href="#mdce7821368" y="242.094741"/>
     <use style="fill:#ff0000;stroke:#ff0000;" x="75.927601" xlink:href="#mdce7821368" y="242.095144"/>
     <use style="fill:#ff0000;stroke:#ff0000;" x="76.537548" xlink:href="#mdce7821368" y="242.089833"/>
     <use style="fill:#ff0000;stroke:#ff0000;" x="77.147495" xlink:href="#mdce7821368" y="242.085382"/>
     <use style="fill:#ff0000;stroke:#ff0000;" x="77.757442" xlink:href="#mdce7821368" y="242.085073"/>
     <use style="fill:#ff0000;stroke:#ff0000;" x="78.367389" xlink:href="#mdce7821368" y="242.083174"/>
     <use style="fill:#ff0000;stroke:#ff0000;" x="78.977336" xlink:href="#mdce7821368" y="242.078943"/>
     <use style="fill:#ff0000;stroke:#ff0000;" x="79.587284" xlink:href="#mdce7821368" y="242.073494"/>
     <use style="fill:#ff0000;stroke:#ff0000;" x="80.197231" xlink:href="#mdce7821368" y="242.066374"/>
     <use style="fill:#ff0000;stroke:#ff0000;" x="80.807178" xlink:href="#mdce7821368" y="242.064624"/>
     <use style="fill:#ff0000;stroke:#ff0000;" x="81.417125" xlink:href="#mdce7821368" y="242.063107"/>
     <use style="fill:#ff0000;stroke:#ff0000;" x="82.027072" xlink:href="#mdce7821368" y="242.059427"/>
     <use style="fill:#ff0000;stroke:#ff0000;" x="82.637019" xlink:href="#mdce7821368" y="242.047198"/>
     <use style="fill:#ff0000;stroke:#ff0000;" x="83.246967" xlink:href="#mdce7821368" y="242.046809"/>
     <use style="fill:#ff0000;stroke:#ff0000;" x="83.856914" xlink:href="#mdce7821368" y="242.035114"/>
     <use style="fill:#ff0000;stroke:#ff0000;" x="84.466861" xlink:href="#mdce7821368" y="242.023818"/>
     <use style="fill:#ff0000;stroke:#ff0000;" x="85.076808" xlink:href="#mdce7821368" y="242.029354"/>
     <use style="fill:#ff0000;stroke:#ff0000;" x="85.686755" xlink:href="#mdce7821368" y="242.023247"/>
     <use style="fill:#ff0000;stroke:#ff0000;" x="86.296702" xlink:href="#mdce7821368" y="242.020955"/>
     <use style="fill:#ff0000;stroke:#ff0000;" x="86.90665" xlink:href="#mdce7821368" y="242.014089"/>
     <use style="fill:#ff0000;stroke:#ff0000;" x="87.516597" xlink:href="#mdce7821368" y="242.009164"/>
     <use style="fill:#ff0000;stroke:#ff0000;" x="88.126544" xlink:href="#mdce7821368" y="242.005311"/>
     <use style="fill:#ff0000;stroke:#ff0000;" x="88.736491" xlink:href="#mdce7821368" y="241.990821"/>
     <use style="fill:#ff0000;stroke:#ff0000;" x="89.346438" xlink:href="#mdce7821368" y="241.982978"/>
     <use style="fill:#ff0000;stroke:#ff0000;" x="89.956385" xlink:href="#mdce7821368" y="241.973602"/>
     <use style="fill:#ff0000;stroke:#ff0000;" x="90.566333" xlink:href="#mdce7821368" y="241.968363"/>
     <use style="fill:#ff0000;stroke:#ff0000;" x="91.17628" xlink:href="#mdce7821368" y="241.960954"/>
     <use style="fill:#ff0000;stroke:#ff0000;" x="91.786227" xlink:href="#mdce7821368" y="241.948513"/>
     <use style="fill:#ff0000;stroke:#ff0000;" x="92.396174" xlink:href="#mdce7821368" y="241.941385"/>
     <use style="fill:#ff0000;stroke:#ff0000;" x="93.006121" xlink:href="#mdce7821368" y="241.927534"/>
     <use style="fill:#ff0000;stroke:#ff0000;" x="93.616069" xlink:href="#mdce7821368" y="241.917255"/>
     <use style="fill:#ff0000;stroke:#ff0000;" x="94.226016" xlink:href="#mdce7821368" y="241.907844"/>
     <use style="fill:#ff0000;stroke:#ff0000;" x="94.835963" xlink:href="#mdce7821368" y="241.892769"/>
     <use style="fill:#ff0000;stroke:#ff0000;" x="95.44591" xlink:href="#mdce7821368" y="241.881863"/>
     <use style="fill:#ff0000;stroke:#ff0000;" x="96.055857" xlink:href="#mdce7821368" y="241.871707"/>
     <use style="fill:#ff0000;stroke:#ff0000;" x="96.665804" xlink:href="#mdce7821368" y="241.855804"/>
     <use style="fill:#ff0000;stroke:#ff0000;" x="97.275752" xlink:href="#mdce7821368" y="241.844453"/>
     <use style="fill:#ff0000;stroke:#ff0000;" x="97.885699" xlink:href="#mdce7821368" y="241.831368"/>
     <use style="fill:#ff0000;stroke:#ff0000;" x="98.495646" xlink:href="#mdce7821368" y="241.817576"/>
     <use style="fill:#ff0000;stroke:#ff0000;" x="99.105593" xlink:href="#mdce7821368" y="241.801606"/>
     <use style="fill:#ff0000;stroke:#ff0000;" x="99.71554" xlink:href="#mdce7821368" y="241.786825"/>
     <use style="fill:#ff0000;stroke:#ff0000;" x="100.325487" xlink:href="#mdce7821368" y="241.765782"/>
     <use style="fill:#ff0000;stroke:#ff0000;" x="100.935435" xlink:href="#mdce7821368" y="241.754441"/>
     <use style="fill:#ff0000;stroke:#ff0000;" x="101.545382" xlink:href="#mdce7821368" y="241.73463"/>
     <use style="fill:#ff0000;stroke:#ff0000;" x="102.155329" xlink:href="#mdce7821368" y="241.719339"/>
     <use style="fill:#ff0000;stroke:#ff0000;" x="102.765276" xlink:href="#mdce7821368" y="241.701426"/>
     <use style="fill:#ff0000;stroke:#ff0000;" x="103.375223" xlink:href="#mdce7821368" y="241.683298"/>
     <use style="fill:#ff0000;stroke:#ff0000;" x="103.98517" xlink:href="#mdce7821368" y="241.655651"/>
     <use style="fill:#ff0000;stroke:#ff0000;" x="104.595118" xlink:href="#mdce7821368" y="241.641941"/>
     <use style="fill:#ff0000;stroke:#ff0000;" x="105.205065" xlink:href="#mdce7821368" y="241.62304"/>
     <use style="fill:#ff0000;stroke:#ff0000;" x="105.815012" xlink:href="#mdce7821368" y="241.598222"/>
     <use style="fill:#ff0000;stroke:#ff0000;" x="106.424959" xlink:href="#mdce7821368" y="241.575785"/>
     <use style="fill:#ff0000;stroke:#ff0000;" x="107.034906" xlink:href="#mdce7821368" y="241.558071"/>
     <use style="fill:#ff0000;stroke:#ff0000;" x="107.644853" xlink:href="#mdce7821368" y="241.530116"/>
     <use style="fill:#ff0000;stroke:#ff0000;" x="108.254801" xlink:href="#mdce7821368" y="241.507028"/>
     <use style="fill:#ff0000;stroke:#ff0000;" x="108.864748" xlink:href="#mdce7821368" y="241.485739"/>
     <use style="fill:#ff0000;stroke:#ff0000;" x="109.474695" xlink:href="#mdce7821368" y="241.467212"/>
     <use style="fill:#ff0000;stroke:#ff0000;" x="110.084642" xlink:href="#mdce7821368" y="241.432951"/>
     <use style="fill:#ff0000;stroke:#ff0000;" x="110.694589" xlink:href="#mdce7821368" y="241.390558"/>
     <use style="fill:#ff0000;stroke:#ff0000;" x="111.304536" xlink:href="#mdce7821368" y="241.368137"/>
     <use style="fill:#ff0000;stroke:#ff0000;" x="111.914484" xlink:href="#mdce7821368" y="241.321012"/>
     <use style="fill:#ff0000;stroke:#ff0000;" x="112.524431" xlink:href="#mdce7821368" y="241.29427"/>
     <use style="fill:#ff0000;stroke:#ff0000;" x="113.134378" xlink:href="#mdce7821368" y="241.296484"/>
     <use style="fill:#ff0000;stroke:#ff0000;" x="113.744325" xlink:href="#mdce7821368" y="241.274992"/>
     <use style="fill:#ff0000;stroke:#ff0000;" x="114.354272" xlink:href="#mdce7821368" y="241.222063"/>
     <use style="fill:#ff0000;stroke:#ff0000;" x="114.964219" xlink:href="#mdce7821368" y="241.188694"/>
     <use style="fill:#ff0000;stroke:#ff0000;" x="115.574167" xlink:href="#mdce7821368" y="241.17118"/>
     <use style="fill:#ff0000;stroke:#ff0000;" x="116.184114" xlink:href="#mdce7821368" y="240.586211"/>
     <use style="fill:#ff0000;stroke:#ff0000;" x="116.794061" xlink:href="#mdce7821368" y="241.119288"/>
     <use style="fill:#ff0000;stroke:#ff0000;" x="117.404008" xlink:href="#mdce7821368" y="241.073358"/>
     <use style="fill:#ff0000;stroke:#ff0000;" x="118.013955" xlink:href="#mdce7821368" y="241.040065"/>
     <use style="fill:#ff0000;stroke:#ff0000;" x="118.623902" xlink:href="#mdce7821368" y="241.001313"/>
     <use style="fill:#ff0000;stroke:#ff0000;" x="119.23385" xlink:href="#mdce7821368" y="240.96689"/>
     <use style="fill:#ff0000;stroke:#ff0000;" x="119.843797" xlink:href="#mdce7821368" y="240.938768"/>
     <use style="fill:#ff0000;stroke:#ff0000;" x="120.453744" xlink:href="#mdce7821368" y="240.901613"/>
     <use style="fill:#ff0000;stroke:#ff0000;" x="121.063691" xlink:href="#mdce7821368" y="240.861293"/>
     <use style="fill:#ff0000;stroke:#ff0000;" x="121.673638" xlink:href="#mdce7821368" y="240.824958"/>
     <use style="fill:#ff0000;stroke:#ff0000;" x="122.283585" xlink:href="#mdce7821368" y="240.772299"/>
     <use style="fill:#ff0000;stroke:#ff0000;" x="122.893533" xlink:href="#mdce7821368" y="240.728598"/>
     <use style="fill:#ff0000;stroke:#ff0000;" x="123.50348" xlink:href="#mdce7821368" y="240.68919"/>
     <use style="fill:#ff0000;stroke:#ff0000;" x="124.113427" xlink:href="#mdce7821368" y="240.640794"/>
     <use style="fill:#ff0000;stroke:#ff0000;" x="124.723374" xlink:href="#mdce7821368" y="240.572647"/>
     <use style="fill:#ff0000;stroke:#ff0000;" x="125.333321" xlink:href="#mdce7821368" y="240.572968"/>
     <use style="fill:#ff0000;stroke:#ff0000;" x="125.943268" xlink:href="#mdce7821368" y="240.510653"/>
     <use style="fill:#ff0000;stroke:#ff0000;" x="126.553216" xlink:href="#mdce7821368" y="240.434488"/>
     <use style="fill:#ff0000;stroke:#ff0000;" x="127.163163" xlink:href="#mdce7821368" y="240.397987"/>
     <use style="fill:#ff0000;stroke:#ff0000;" x="127.77311" xlink:href="#mdce7821368" y="240.385598"/>
     <use style="fill:#ff0000;stroke:#ff0000;" x="128.383057" xlink:href="#mdce7821368" y="240.340527"/>
     <use style="fill:#ff0000;stroke:#ff0000;" x="128.993004" xlink:href="#mdce7821368" y="240.256131"/>
     <use style="fill:#ff0000;stroke:#ff0000;" x="129.602951" xlink:href="#mdce7821368" y="240.21025"/>
     <use style="fill:#ff0000;stroke:#ff0000;" x="190.597668" xlink:href="#mdce7821368" y="228.799701"/>
     <use style="fill:#ff0000;stroke:#ff0000;" x="193.647404" xlink:href="#mdce7821368" y="227.965963"/>
     <use style="fill:#ff0000;stroke:#ff0000;" x="196.69714" xlink:href="#mdce7821368" y="226.813389"/>
     <use style="fill:#ff0000;stroke:#ff0000;" x="199.746876" xlink:href="#mdce7821368" y="225.767362"/>
     <use style="fill:#ff0000;stroke:#ff0000;" x="202.796611" xlink:href="#mdce7821368" y="224.626796"/>
     <use style="fill:#ff0000;stroke:#ff0000;" x="205.846347" xlink:href="#mdce7821368" y="223.501533"/>
     <use style="fill:#ff0000;stroke:#ff0000;" x="208.896083" xlink:href="#mdce7821368" y="221.959374"/>
     <use style="fill:#ff0000;stroke:#ff0000;" x="211.945819" xlink:href="#mdce7821368" y="220.87696"/>
     <use style="fill:#ff0000;stroke:#ff0000;" x="214.995555" xlink:href="#mdce7821368" y="219.38419"/>
     <use style="fill:#ff0000;stroke:#ff0000;" x="218.045291" xlink:href="#mdce7821368" y="196.355653"/>
     <use style="fill:#ff0000;stroke:#ff0000;" x="221.095026" xlink:href="#mdce7821368" y="216.254986"/>
     <use style="fill:#ff0000;stroke:#ff0000;" x="224.144762" xlink:href="#mdce7821368" y="214.309554"/>
     <use style="fill:#ff0000;stroke:#ff0000;" x="227.194498" xlink:href="#mdce7821368" y="213.016919"/>
     <use style="fill:#ff0000;stroke:#ff0000;" x="230.244234" xlink:href="#mdce7821368" y="211.513727"/>
     <use style="fill:#ff0000;stroke:#ff0000;" x="233.29397" xlink:href="#mdce7821368" y="210.185151"/>
     <use style="fill:#ff0000;stroke:#ff0000;" x="236.343706" xlink:href="#mdce7821368" y="208.149747"/>
     <use style="fill:#ff0000;stroke:#ff0000;" x="239.393441" xlink:href="#mdce7821368" y="206.349331"/>
     <use style="fill:#ff0000;stroke:#ff0000;" x="242.443177" xlink:href="#mdce7821368" y="204.427375"/>
     <use style="fill:#ff0000;stroke:#ff0000;" x="245.492913" xlink:href="#mdce7821368" y="201.946877"/>
     <use style="fill:#ff0000;stroke:#ff0000;" x="248.542649" xlink:href="#mdce7821368" y="200.49542"/>
     <use style="fill:#ff0000;stroke:#ff0000;" x="251.592385" xlink:href="#mdce7821368" y="198.11877"/>
     <use style="fill:#ff0000;stroke:#ff0000;" x="266.841064" xlink:href="#mdce7821368" y="185.779705"/>
     <use style="fill:#ff0000;stroke:#ff0000;" x="282.089743" xlink:href="#mdce7821368" y="172.211237"/>
     <use style="fill:#ff0000;stroke:#ff0000;" x="297.338422" xlink:href="#mdce7821368" y="157.539702"/>
     <use style="fill:#ff0000;stroke:#ff0000;" x="312.587101" xlink:href="#mdce7821368" y="139.002666"/>
     <use style="fill:#ff0000;stroke:#ff0000;" x="327.835781" xlink:href="#mdce7821368" y="118.315203"/>
     <use style="fill:#ff0000;stroke:#ff0000;" x="343.08446" xlink:href="#mdce7821368" y="96.534101"/>
     <use style="fill:#ff0000;stroke:#ff0000;" x="358.333139" xlink:href="#mdce7821368" y="72.776098"/>
     <use style="fill:#ff0000;stroke:#ff0000;" x="373.581818" xlink:href="#mdce7821368" y="44.571433"/>
    </g>
   </g>
   <g id="line2d_16">
    <path clip-path="url(#pd1e8e931ab)" d="M 69.218182 242.00895 
L 84.466861 242.069933 
L 97.275752 241.895887 
L 108.254801 241.529126 
L 118.623902 240.957496 
L 127.77311 240.241443 
L 129.602951 240.072027 
L 190.597668 227.834723 
L 196.69714 225.739244 
L 202.796611 223.451877 
L 208.896083 220.964023 
L 214.995555 218.267002 
L 221.095026 215.352058 
L 227.194498 212.210356 
L 233.29397 208.832985 
L 239.393441 205.210954 
L 245.492913 201.335193 
L 251.592385 197.196557 
L 266.841064 185.63916 
L 282.089743 172.234659 
L 297.338422 156.833741 
L 312.587101 139.284045 
L 327.835781 119.430165 
L 343.08446 97.113646 
L 358.333139 72.172986 
L 373.581818 44.443636 
L 373.581818 44.443636 
" style="fill:none;stroke:#1f77b4;stroke-linecap:square;stroke-width:1.5;"/>
   </g>
   <g id="patch_3">
    <path d="M 54 252 
L 54 34.56 
" style="fill:none;stroke:#000000;stroke-linecap:square;stroke-linejoin:miter;stroke-width:0.8;"/>
   </g>
   <g id="patch_4">
    <path d="M 388.8 252 
L 388.8 34.56 
" style="fill:none;stroke:#000000;stroke-linecap:square;stroke-linejoin:miter;stroke-width:0.8;"/>
   </g>
   <g id="patch_5">
    <path d="M 54 252 
L 388.8 252 
" style="fill:none;stroke:#000000;stroke-linecap:square;stroke-linejoin:miter;stroke-width:0.8;"/>
   </g>
   <g id="patch_6">
    <path d="M 54 34.56 
L 388.8 34.56 
" style="fill:none;stroke:#000000;stroke-linecap:square;stroke-linejoin:miter;stroke-width:0.8;"/>
   </g>
   <g id="text_15">
    <!-- $f(n)= 1.19133377848647 \cdot 10^{-10} n^{4} + 4.22937082070529 \cdot 10^{-7} n^{3} + 5.36803524779912 \cdot 10^{-5} n^{2} - 0.00264297231697401 n + 0.0722991488194059$ -->
    <defs>
     <path d="M 47.796875 75.984375 
L 46.390625 68.5 
L 37.796875 68.5 
Q 32.90625 68.5 30.6875 66.578125 
Q 28.46875 64.65625 27.390625 59.515625 
L 26.421875 54.6875 
L 41.21875 54.6875 
L 39.890625 47.703125 
L 25.09375 47.703125 
L 15.828125 0 
L 6.78125 0 
L 16.109375 47.703125 
L 7.515625 47.703125 
L 8.796875 54.6875 
L 17.390625 54.6875 
L 18.109375 58.5 
Q 19.96875 68.171875 24.625 72.078125 
Q 29.296875 75.984375 39.3125 75.984375 
z
" id="DejaVuSans-Oblique-102"/>
     <path d="M 31 75.875 
Q 24.46875 64.65625 21.28125 53.65625 
Q 18.109375 42.671875 18.109375 31.390625 
Q 18.109375 20.125 21.3125 9.0625 
Q 24.515625 -2 31 -13.1875 
L 23.1875 -13.1875 
Q 15.875 -1.703125 12.234375 9.375 
Q 8.59375 20.453125 8.59375 31.390625 
Q 8.59375 42.28125 12.203125 53.3125 
Q 15.828125 64.359375 23.1875 75.875 
z
" id="DejaVuSans-40"/>
     <path d="M 55.71875 33.015625 
L 49.3125 0 
L 40.28125 0 
L 46.6875 32.671875 
Q 47.125 34.96875 47.359375 36.71875 
Q 47.609375 38.484375 47.609375 39.5 
Q 47.609375 43.609375 45.015625 45.890625 
Q 42.4375 48.1875 37.796875 48.1875 
Q 30.5625 48.1875 25.34375 43.375 
Q 20.125 38.578125 18.5 30.328125 
L 12.5 0 
L 3.515625 0 
L 14.109375 54.6875 
L 23.09375 54.6875 
L 21.296875 46.09375 
Q 25.046875 50.828125 30.3125 53.40625 
Q 35.59375 56 41.40625 56 
Q 48.640625 56 52.609375 52.09375 
Q 56.59375 48.1875 56.59375 41.109375 
Q 56.59375 39.359375 56.375 37.359375 
Q 56.15625 35.359375 55.71875 33.015625 
z
" id="DejaVuSans-Oblique-110"/>
     <path d="M 8.015625 75.875 
L 15.828125 75.875 
Q 23.140625 64.359375 26.78125 53.3125 
Q 30.421875 42.28125 30.421875 31.390625 
Q 30.421875 20.453125 26.78125 9.375 
Q 23.140625 -1.703125 15.828125 -13.1875 
L 8.015625 -13.1875 
Q 14.5 -2 17.703125 9.0625 
Q 20.90625 20.125 20.90625 31.390625 
Q 20.90625 42.671875 17.703125 53.65625 
Q 14.5 64.65625 8.015625 75.875 
z
" id="DejaVuSans-41"/>
     <path d="M 10.59375 45.40625 
L 73.1875 45.40625 
L 73.1875 37.203125 
L 10.59375 37.203125 
z
M 10.59375 25.484375 
L 73.1875 25.484375 
L 73.1875 17.1875 
L 10.59375 17.1875 
z
" id="DejaVuSans-61"/>
     <path d="M 10.6875 12.40625 
L 21 12.40625 
L 21 0 
L 10.6875 0 
z
" id="DejaVuSans-46"/>
     <path d="M 10.984375 1.515625 
L 10.984375 10.5 
Q 14.703125 8.734375 18.5 7.8125 
Q 22.3125 6.890625 25.984375 6.890625 
Q 35.75 6.890625 40.890625 13.453125 
Q 46.046875 20.015625 46.78125 33.40625 
Q 43.953125 29.203125 39.59375 26.953125 
Q 35.25 24.703125 29.984375 24.703125 
Q 19.046875 24.703125 12.671875 31.3125 
Q 6.296875 37.9375 6.296875 49.421875 
Q 6.296875 60.640625 12.9375 67.421875 
Q 19.578125 74.21875 30.609375 74.21875 
Q 43.265625 74.21875 49.921875 64.515625 
Q 56.59375 54.828125 56.59375 36.375 
Q 56.59375 19.140625 48.40625 8.859375 
Q 40.234375 -1.421875 26.421875 -1.421875 
Q 22.703125 -1.421875 18.890625 -0.6875 
Q 15.09375 0.046875 10.984375 1.515625 
z
M 30.609375 32.421875 
Q 37.25 32.421875 41.125 36.953125 
Q 45.015625 41.5 45.015625 49.421875 
Q 45.015625 57.28125 41.125 61.84375 
Q 37.25 66.40625 30.609375 66.40625 
Q 23.96875 66.40625 20.09375 61.84375 
Q 16.21875 57.28125 16.21875 49.421875 
Q 16.21875 41.5 20.09375 36.953125 
Q 23.96875 32.421875 30.609375 32.421875 
z
" id="DejaVuSans-57"/>
     <path d="M 31.78125 34.625 
Q 24.75 34.625 20.71875 30.859375 
Q 16.703125 27.09375 16.703125 20.515625 
Q 16.703125 13.921875 20.71875 10.15625 
Q 24.75 6.390625 31.78125 6.390625 
Q 38.8125 6.390625 42.859375 10.171875 
Q 46.921875 13.96875 46.921875 20.515625 
Q 46.921875 27.09375 42.890625 30.859375 
Q 38.875 34.625 31.78125 34.625 
z
M 21.921875 38.8125 
Q 15.578125 40.375 12.03125 44.71875 
Q 8.5 49.078125 8.5 55.328125 
Q 8.5 64.0625 14.71875 69.140625 
Q 20.953125 74.21875 31.78125 74.21875 
Q 42.671875 74.21875 48.875 69.140625 
Q 55.078125 64.0625 55.078125 55.328125 
Q 55.078125 49.078125 51.53125 44.71875 
Q 48 40.375 41.703125 38.8125 
Q 48.828125 37.15625 52.796875 32.3125 
Q 56.78125 27.484375 56.78125 20.515625 
Q 56.78125 9.90625 50.3125 4.234375 
Q 43.84375 -1.421875 31.78125 -1.421875 
Q 19.734375 -1.421875 13.25 4.234375 
Q 6.78125 9.90625 6.78125 20.515625 
Q 6.78125 27.484375 10.78125 32.3125 
Q 14.796875 37.15625 21.921875 38.8125 
z
M 18.3125 54.390625 
Q 18.3125 48.734375 21.84375 45.5625 
Q 25.390625 42.390625 31.78125 42.390625 
Q 38.140625 42.390625 41.71875 45.5625 
Q 45.3125 48.734375 45.3125 54.390625 
Q 45.3125 60.0625 41.71875 63.234375 
Q 38.140625 66.40625 31.78125 66.40625 
Q 25.390625 66.40625 21.84375 63.234375 
Q 18.3125 60.0625 18.3125 54.390625 
z
" id="DejaVuSans-56"/>
     <path d="M 10.6875 40.921875 
L 21 40.921875 
L 21 28.515625 
L 10.6875 28.515625 
z
" id="DejaVuSans-8901"/>
     <path d="M 10.59375 35.5 
L 73.1875 35.5 
L 73.1875 27.203125 
L 10.59375 27.203125 
z
" id="DejaVuSans-8722"/>
     <path d="M 46 62.703125 
L 46 35.5 
L 73.1875 35.5 
L 73.1875 27.203125 
L 46 27.203125 
L 46 0 
L 37.796875 0 
L 37.796875 27.203125 
L 10.59375 27.203125 
L 10.59375 35.5 
L 37.796875 35.5 
L 37.796875 62.703125 
z
" id="DejaVuSans-43"/>
    </defs>
    <g transform="translate(-371.24 28.56)scale(0.16 -0.16)">
     <use transform="translate(0 0.765625)" xlink:href="#DejaVuSans-Oblique-102"/>
     <use transform="translate(35.205078 0.765625)" xlink:href="#DejaVuSans-40"/>
     <use transform="translate(74.21875 0.765625)" xlink:href="#DejaVuSans-Oblique-110"/>
     <use transform="translate(137.597656 0.765625)" xlink:href="#DejaVuSans-41"/>
     <use transform="translate(196.09375 0.765625)" xlink:href="#DejaVuSans-61"/>
     <use transform="translate(299.365234 0.765625)" xlink:href="#DejaVuSans-49"/>
     <use transform="translate(362.988281 0.765625)" xlink:href="#DejaVuSans-46"/>
     <use transform="translate(394.775391 0.765625)" xlink:href="#DejaVuSans-49"/>
     <use transform="translate(458.398438 0.765625)" xlink:href="#DejaVuSans-57"/>
     <use transform="translate(522.021484 0.765625)" xlink:href="#DejaVuSans-49"/>
     <use transform="translate(585.644531 0.765625)" xlink:href="#DejaVuSans-51"/>
     <use transform="translate(649.267578 0.765625)" xlink:href="#DejaVuSans-51"/>
     <use transform="translate(712.890625 0.765625)" xlink:href="#DejaVuSans-51"/>
     <use transform="translate(776.513672 0.765625)" xlink:href="#DejaVuSans-55"/>
     <use transform="translate(840.121094 0.765625)" xlink:href="#DejaVuSans-55"/>
     <use transform="translate(903.744141 0.765625)" xlink:href="#DejaVuSans-56"/>
     <use transform="translate(967.367188 0.765625)" xlink:href="#DejaVuSans-52"/>
     <use transform="translate(1030.990234 0.765625)" xlink:href="#DejaVuSans-56"/>
     <use transform="translate(1094.613281 0.765625)" xlink:href="#DejaVuSans-54"/>
     <use transform="translate(1158.236328 0.765625)" xlink:href="#DejaVuSans-52"/>
     <use transform="translate(1221.859375 0.765625)" xlink:href="#DejaVuSans-55"/>
     <use transform="translate(1304.964844 0.765625)" xlink:href="#DejaVuSans-8901"/>
     <use transform="translate(1356.234375 0.765625)" xlink:href="#DejaVuSans-49"/>
     <use transform="translate(1419.857422 0.765625)" xlink:href="#DejaVuSans-48"/>
     <use transform="translate(1484.4375 39.046875)scale(0.7)" xlink:href="#DejaVuSans-8722"/>
     <use transform="translate(1543.089844 39.046875)scale(0.7)" xlink:href="#DejaVuSans-49"/>
     <use transform="translate(1587.625977 39.046875)scale(0.7)" xlink:href="#DejaVuSans-48"/>
     <use transform="translate(1634.896484 0.765625)" xlink:href="#DejaVuSans-Oblique-110"/>
     <use transform="translate(1702.925286 39.046875)scale(0.7)" xlink:href="#DejaVuSans-52"/>
     <use transform="translate(1769.678216 0.765625)" xlink:href="#DejaVuSans-43"/>
     <use transform="translate(1872.949701 0.765625)" xlink:href="#DejaVuSans-52"/>
     <use transform="translate(1936.572747 0.765625)" xlink:href="#DejaVuSans-46"/>
     <use transform="translate(1968.281732 0.765625)" xlink:href="#DejaVuSans-50"/>
     <use transform="translate(2031.904779 0.765625)" xlink:href="#DejaVuSans-50"/>
     <use transform="translate(2095.512201 0.765625)" xlink:href="#DejaVuSans-57"/>
     <use transform="translate(2159.135247 0.765625)" xlink:href="#DejaVuSans-51"/>
     <use transform="translate(2222.758294 0.765625)" xlink:href="#DejaVuSans-55"/>
     <use transform="translate(2286.381341 0.765625)" xlink:href="#DejaVuSans-48"/>
     <use transform="translate(2350.004388 0.765625)" xlink:href="#DejaVuSans-56"/>
     <use transform="translate(2413.627435 0.765625)" xlink:href="#DejaVuSans-50"/>
     <use transform="translate(2477.250482 0.765625)" xlink:href="#DejaVuSans-48"/>
     <use transform="translate(2540.873529 0.765625)" xlink:href="#DejaVuSans-55"/>
     <use transform="translate(2604.496576 0.765625)" xlink:href="#DejaVuSans-48"/>
     <use transform="translate(2668.119622 0.765625)" xlink:href="#DejaVuSans-53"/>
     <use transform="translate(2731.742669 0.765625)" xlink:href="#DejaVuSans-50"/>
     <use transform="translate(2795.350091 0.765625)" xlink:href="#DejaVuSans-57"/>
     <use transform="translate(2878.45556 0.765625)" xlink:href="#DejaVuSans-8901"/>
     <use transform="translate(2929.725091 0.765625)" xlink:href="#DejaVuSans-49"/>
     <use transform="translate(2993.348138 0.765625)" xlink:href="#DejaVuSans-48"/>
     <use transform="translate(3057.928216 39.046875)scale(0.7)" xlink:href="#DejaVuSans-8722"/>
     <use transform="translate(3116.58056 39.046875)scale(0.7)" xlink:href="#DejaVuSans-55"/>
     <use transform="translate(3163.851068 0.765625)" xlink:href="#DejaVuSans-Oblique-110"/>
     <use transform="translate(3231.87987 39.046875)scale(0.7)" xlink:href="#DejaVuSans-51"/>
     <use transform="translate(3298.632799 0.765625)" xlink:href="#DejaVuSans-43"/>
     <use transform="translate(3401.904284 0.765625)" xlink:href="#DejaVuSans-53"/>
     <use transform="translate(3465.527331 0.765625)" xlink:href="#DejaVuSans-46"/>
     <use transform="translate(3497.31444 0.765625)" xlink:href="#DejaVuSans-51"/>
     <use transform="translate(3560.937487 0.765625)" xlink:href="#DejaVuSans-54"/>
     <use transform="translate(3624.560534 0.765625)" xlink:href="#DejaVuSans-56"/>
     <use transform="translate(3688.183581 0.765625)" xlink:href="#DejaVuSans-48"/>
     <use transform="translate(3751.806628 0.765625)" xlink:href="#DejaVuSans-51"/>
     <use transform="translate(3815.429674 0.765625)" xlink:href="#DejaVuSans-53"/>
     <use transform="translate(3879.052721 0.765625)" xlink:href="#DejaVuSans-50"/>
     <use transform="translate(3942.675768 0.765625)" xlink:href="#DejaVuSans-52"/>
     <use transform="translate(4006.298815 0.765625)" xlink:href="#DejaVuSans-55"/>
     <use transform="translate(4069.906237 0.765625)" xlink:href="#DejaVuSans-55"/>
     <use transform="translate(4133.529284 0.765625)" xlink:href="#DejaVuSans-57"/>
     <use transform="translate(4197.152331 0.765625)" xlink:href="#DejaVuSans-57"/>
     <use transform="translate(4260.775378 0.765625)" xlink:href="#DejaVuSans-49"/>
     <use transform="translate(4324.398424 0.765625)" xlink:href="#DejaVuSans-50"/>
     <use transform="translate(4407.503893 0.765625)" xlink:href="#DejaVuSans-8901"/>
     <use transform="translate(4458.773424 0.765625)" xlink:href="#DejaVuSans-49"/>
     <use transform="translate(4522.396471 0.765625)" xlink:href="#DejaVuSans-48"/>
     <use transform="translate(4586.976549 39.046875)scale(0.7)" xlink:href="#DejaVuSans-8722"/>
     <use transform="translate(4645.628893 39.046875)scale(0.7)" xlink:href="#DejaVuSans-53"/>
     <use transform="translate(4692.899401 0.765625)" xlink:href="#DejaVuSans-Oblique-110"/>
     <use transform="translate(4760.928203 39.046875)scale(0.7)" xlink:href="#DejaVuSans-50"/>
     <use transform="translate(4827.681133 0.765625)" xlink:href="#DejaVuSans-8722"/>
     <use transform="translate(4930.952617 0.765625)" xlink:href="#DejaVuSans-48"/>
     <use transform="translate(4994.575664 0.765625)" xlink:href="#DejaVuSans-46"/>
     <use transform="translate(5026.362773 0.765625)" xlink:href="#DejaVuSans-48"/>
     <use transform="translate(5089.98582 0.765625)" xlink:href="#DejaVuSans-48"/>
     <use transform="translate(5153.608867 0.765625)" xlink:href="#DejaVuSans-50"/>
     <use transform="translate(5217.231914 0.765625)" xlink:href="#DejaVuSans-54"/>
     <use transform="translate(5280.854961 0.765625)" xlink:href="#DejaVuSans-52"/>
     <use transform="translate(5344.478008 0.765625)" xlink:href="#DejaVuSans-50"/>
     <use transform="translate(5408.08543 0.765625)" xlink:href="#DejaVuSans-57"/>
     <use transform="translate(5471.708477 0.765625)" xlink:href="#DejaVuSans-55"/>
     <use transform="translate(5535.331523 0.765625)" xlink:href="#DejaVuSans-50"/>
     <use transform="translate(5598.95457 0.765625)" xlink:href="#DejaVuSans-51"/>
     <use transform="translate(5662.577617 0.765625)" xlink:href="#DejaVuSans-49"/>
     <use transform="translate(5726.200664 0.765625)" xlink:href="#DejaVuSans-54"/>
     <use transform="translate(5789.823711 0.765625)" xlink:href="#DejaVuSans-57"/>
     <use transform="translate(5853.446758 0.765625)" xlink:href="#DejaVuSans-55"/>
     <use transform="translate(5917.069805 0.765625)" xlink:href="#DejaVuSans-52"/>
     <use transform="translate(5980.692852 0.765625)" xlink:href="#DejaVuSans-48"/>
     <use transform="translate(6044.315898 0.765625)" xlink:href="#DejaVuSans-49"/>
     <use transform="translate(6107.938945 0.765625)" xlink:href="#DejaVuSans-Oblique-110"/>
     <use transform="translate(6190.800273 0.765625)" xlink:href="#DejaVuSans-43"/>
     <use transform="translate(6294.071758 0.765625)" xlink:href="#DejaVuSans-48"/>
     <use transform="translate(6357.694805 0.765625)" xlink:href="#DejaVuSans-46"/>
     <use transform="translate(6389.481914 0.765625)" xlink:href="#DejaVuSans-48"/>
     <use transform="translate(6453.104961 0.765625)" xlink:href="#DejaVuSans-55"/>
     <use transform="translate(6516.728008 0.765625)" xlink:href="#DejaVuSans-50"/>
     <use transform="translate(6580.351055 0.765625)" xlink:href="#DejaVuSans-50"/>
     <use transform="translate(6643.958477 0.765625)" xlink:href="#DejaVuSans-57"/>
     <use transform="translate(6707.581523 0.765625)" xlink:href="#DejaVuSans-57"/>
     <use transform="translate(6771.20457 0.765625)" xlink:href="#DejaVuSans-49"/>
     <use transform="translate(6834.827617 0.765625)" xlink:href="#DejaVuSans-52"/>
     <use transform="translate(6898.450664 0.765625)" xlink:href="#DejaVuSans-56"/>
     <use transform="translate(6962.073711 0.765625)" xlink:href="#DejaVuSans-56"/>
     <use transform="translate(7025.696758 0.765625)" xlink:href="#DejaVuSans-49"/>
     <use transform="translate(7089.319805 0.765625)" xlink:href="#DejaVuSans-57"/>
     <use transform="translate(7152.942852 0.765625)" xlink:href="#DejaVuSans-52"/>
     <use transform="translate(7216.565898 0.765625)" xlink:href="#DejaVuSans-48"/>
     <use transform="translate(7280.188945 0.765625)" xlink:href="#DejaVuSans-53"/>
     <use transform="translate(7343.733867 0.765625)" xlink:href="#DejaVuSans-57"/>
    </g>
   </g>
   <g id="legend_1">
    <g id="patch_7">
     <path d="M 61 71.91625 
L 159.185938 71.91625 
Q 161.185938 71.91625 161.185938 69.91625 
L 161.185938 41.56 
Q 161.185938 39.56 159.185938 39.56 
L 61 39.56 
Q 59 39.56 59 41.56 
L 59 69.91625 
Q 59 71.91625 61 71.91625 
z
" style="fill:#ffffff;opacity:0.8;stroke:#cccccc;stroke-linejoin:miter;"/>
    </g>
    <g id="line2d_17"/>
    <g id="line2d_18">
     <g>
      <use style="fill:#ff0000;stroke:#ff0000;" x="73" xlink:href="#mdce7821368" y="47.658437"/>
     </g>
    </g>
    <g id="text_16">
     <!-- Original Data -->
     <defs>
      <path d="M 39.40625 66.21875 
Q 28.65625 66.21875 22.328125 58.203125 
Q 16.015625 50.203125 16.015625 36.375 
Q 16.015625 22.609375 22.328125 14.59375 
Q 28.65625 6.59375 39.40625 6.59375 
Q 50.140625 6.59375 56.421875 14.59375 
Q 62.703125 22.609375 62.703125 36.375 
Q 62.703125 50.203125 56.421875 58.203125 
Q 50.140625 66.21875 39.40625 66.21875 
z
M 39.40625 74.21875 
Q 54.734375 74.21875 63.90625 63.9375 
Q 73.09375 53.65625 73.09375 36.375 
Q 73.09375 19.140625 63.90625 8.859375 
Q 54.734375 -1.421875 39.40625 -1.421875 
Q 24.03125 -1.421875 14.8125 8.828125 
Q 5.609375 19.09375 5.609375 36.375 
Q 5.609375 53.65625 14.8125 63.9375 
Q 24.03125 74.21875 39.40625 74.21875 
z
" id="DejaVuSans-79"/>
      <path d="M 41.109375 46.296875 
Q 39.59375 47.171875 37.8125 47.578125 
Q 36.03125 48 33.890625 48 
Q 26.265625 48 22.1875 43.046875 
Q 18.109375 38.09375 18.109375 28.8125 
L 18.109375 0 
L 9.078125 0 
L 9.078125 54.6875 
L 18.109375 54.6875 
L 18.109375 46.1875 
Q 20.953125 51.171875 25.484375 53.578125 
Q 30.03125 56 36.53125 56 
Q 37.453125 56 38.578125 55.875 
Q 39.703125 55.765625 41.0625 55.515625 
z
" id="DejaVuSans-114"/>
      <path d="M 9.421875 54.6875 
L 18.40625 54.6875 
L 18.40625 0 
L 9.421875 0 
z
M 9.421875 75.984375 
L 18.40625 75.984375 
L 18.40625 64.59375 
L 9.421875 64.59375 
z
" id="DejaVuSans-105"/>
      <path d="M 45.40625 27.984375 
Q 45.40625 37.75 41.375 43.109375 
Q 37.359375 48.484375 30.078125 48.484375 
Q 22.859375 48.484375 18.828125 43.109375 
Q 14.796875 37.75 14.796875 27.984375 
Q 14.796875 18.265625 18.828125 12.890625 
Q 22.859375 7.515625 30.078125 7.515625 
Q 37.359375 7.515625 41.375 12.890625 
Q 45.40625 18.265625 45.40625 27.984375 
z
M 54.390625 6.78125 
Q 54.390625 -7.171875 48.1875 -13.984375 
Q 42 -20.796875 29.203125 -20.796875 
Q 24.46875 -20.796875 20.265625 -20.09375 
Q 16.0625 -19.390625 12.109375 -17.921875 
L 12.109375 -9.1875 
Q 16.0625 -11.328125 19.921875 -12.34375 
Q 23.78125 -13.375 27.78125 -13.375 
Q 36.625 -13.375 41.015625 -8.765625 
Q 45.40625 -4.15625 45.40625 5.171875 
L 45.40625 9.625 
Q 42.625 4.78125 38.28125 2.390625 
Q 33.9375 0 27.875 0 
Q 17.828125 0 11.671875 7.65625 
Q 5.515625 15.328125 5.515625 27.984375 
Q 5.515625 40.671875 11.671875 48.328125 
Q 17.828125 56 27.875 56 
Q 33.9375 56 38.28125 53.609375 
Q 42.625 51.21875 45.40625 46.390625 
L 45.40625 54.6875 
L 54.390625 54.6875 
z
" id="DejaVuSans-103"/>
      <path d="M 54.890625 33.015625 
L 54.890625 0 
L 45.90625 0 
L 45.90625 32.71875 
Q 45.90625 40.484375 42.875 44.328125 
Q 39.84375 48.1875 33.796875 48.1875 
Q 26.515625 48.1875 22.3125 43.546875 
Q 18.109375 38.921875 18.109375 30.90625 
L 18.109375 0 
L 9.078125 0 
L 9.078125 54.6875 
L 18.109375 54.6875 
L 18.109375 46.1875 
Q 21.34375 51.125 25.703125 53.5625 
Q 30.078125 56 35.796875 56 
Q 45.21875 56 50.046875 50.171875 
Q 54.890625 44.34375 54.890625 33.015625 
z
" id="DejaVuSans-110"/>
      <path d="M 34.28125 27.484375 
Q 23.390625 27.484375 19.1875 25 
Q 14.984375 22.515625 14.984375 16.5 
Q 14.984375 11.71875 18.140625 8.90625 
Q 21.296875 6.109375 26.703125 6.109375 
Q 34.1875 6.109375 38.703125 11.40625 
Q 43.21875 16.703125 43.21875 25.484375 
L 43.21875 27.484375 
z
M 52.203125 31.203125 
L 52.203125 0 
L 43.21875 0 
L 43.21875 8.296875 
Q 40.140625 3.328125 35.546875 0.953125 
Q 30.953125 -1.421875 24.3125 -1.421875 
Q 15.921875 -1.421875 10.953125 3.296875 
Q 6 8.015625 6 15.921875 
Q 6 25.140625 12.171875 29.828125 
Q 18.359375 34.515625 30.609375 34.515625 
L 43.21875 34.515625 
L 43.21875 35.40625 
Q 43.21875 41.609375 39.140625 45 
Q 35.0625 48.390625 27.6875 48.390625 
Q 23 48.390625 18.546875 47.265625 
Q 14.109375 46.140625 10.015625 43.890625 
L 10.015625 52.203125 
Q 14.9375 54.109375 19.578125 55.046875 
Q 24.21875 56 28.609375 56 
Q 40.484375 56 46.34375 49.84375 
Q 52.203125 43.703125 52.203125 31.203125 
z
" id="DejaVuSans-97"/>
      <path d="M 9.421875 75.984375 
L 18.40625 75.984375 
L 18.40625 0 
L 9.421875 0 
z
" id="DejaVuSans-108"/>
      <path id="DejaVuSans-32"/>
      <path d="M 19.671875 64.796875 
L 19.671875 8.109375 
L 31.59375 8.109375 
Q 46.6875 8.109375 53.6875 14.9375 
Q 60.6875 21.78125 60.6875 36.53125 
Q 60.6875 51.171875 53.6875 57.984375 
Q 46.6875 64.796875 31.59375 64.796875 
z
M 9.8125 72.90625 
L 30.078125 72.90625 
Q 51.265625 72.90625 61.171875 64.09375 
Q 71.09375 55.28125 71.09375 36.53125 
Q 71.09375 17.671875 61.125 8.828125 
Q 51.171875 0 30.078125 0 
L 9.8125 0 
z
" id="DejaVuSans-68"/>
      <path d="M 18.3125 70.21875 
L 18.3125 54.6875 
L 36.8125 54.6875 
L 36.8125 47.703125 
L 18.3125 47.703125 
L 18.3125 18.015625 
Q 18.3125 11.328125 20.140625 9.421875 
Q 21.96875 7.515625 27.59375 7.515625 
L 36.8125 7.515625 
L 36.8125 0 
L 27.59375 0 
Q 17.1875 0 13.234375 3.875 
Q 9.28125 7.765625 9.28125 18.015625 
L 9.28125 47.703125 
L 2.6875 47.703125 
L 2.6875 54.6875 
L 9.28125 54.6875 
L 9.28125 70.21875 
z
" id="DejaVuSans-116"/>
     </defs>
     <g transform="translate(91 51.158437)scale(0.1 -0.1)">
      <use xlink:href="#DejaVuSans-79"/>
      <use x="78.710938" xlink:href="#DejaVuSans-114"/>
      <use x="119.824219" xlink:href="#DejaVuSans-105"/>
      <use x="147.607422" xlink:href="#DejaVuSans-103"/>
      <use x="211.083984" xlink:href="#DejaVuSans-105"/>
      <use x="238.867188" xlink:href="#DejaVuSans-110"/>
      <use x="302.246094" xlink:href="#DejaVuSans-97"/>
      <use x="363.525391" xlink:href="#DejaVuSans-108"/>
      <use x="391.308594" xlink:href="#DejaVuSans-32"/>
      <use x="423.095703" xlink:href="#DejaVuSans-68"/>
      <use x="500.097656" xlink:href="#DejaVuSans-97"/>
      <use x="561.376953" xlink:href="#DejaVuSans-116"/>
      <use x="600.585938" xlink:href="#DejaVuSans-97"/>
     </g>
    </g>
    <g id="line2d_19">
     <path d="M 63 62.336562 
L 83 62.336562 
" style="fill:none;stroke:#1f77b4;stroke-linecap:square;stroke-width:1.5;"/>
    </g>
    <g id="line2d_20"/>
    <g id="text_17">
     <!-- Fitted Curve -->
     <defs>
      <path d="M 9.8125 72.90625 
L 51.703125 72.90625 
L 51.703125 64.59375 
L 19.671875 64.59375 
L 19.671875 43.109375 
L 48.578125 43.109375 
L 48.578125 34.8125 
L 19.671875 34.8125 
L 19.671875 0 
L 9.8125 0 
z
" id="DejaVuSans-70"/>
      <path d="M 56.203125 29.59375 
L 56.203125 25.203125 
L 14.890625 25.203125 
Q 15.484375 15.921875 20.484375 11.0625 
Q 25.484375 6.203125 34.421875 6.203125 
Q 39.59375 6.203125 44.453125 7.46875 
Q 49.3125 8.734375 54.109375 11.28125 
L 54.109375 2.78125 
Q 49.265625 0.734375 44.1875 -0.34375 
Q 39.109375 -1.421875 33.890625 -1.421875 
Q 20.796875 -1.421875 13.15625 6.1875 
Q 5.515625 13.8125 5.515625 26.8125 
Q 5.515625 40.234375 12.765625 48.109375 
Q 20.015625 56 32.328125 56 
Q 43.359375 56 49.78125 48.890625 
Q 56.203125 41.796875 56.203125 29.59375 
z
M 47.21875 32.234375 
Q 47.125 39.59375 43.09375 43.984375 
Q 39.0625 48.390625 32.421875 48.390625 
Q 24.90625 48.390625 20.390625 44.140625 
Q 15.875 39.890625 15.1875 32.171875 
z
" id="DejaVuSans-101"/>
      <path d="M 45.40625 46.390625 
L 45.40625 75.984375 
L 54.390625 75.984375 
L 54.390625 0 
L 45.40625 0 
L 45.40625 8.203125 
Q 42.578125 3.328125 38.25 0.953125 
Q 33.9375 -1.421875 27.875 -1.421875 
Q 17.96875 -1.421875 11.734375 6.484375 
Q 5.515625 14.40625 5.515625 27.296875 
Q 5.515625 40.1875 11.734375 48.09375 
Q 17.96875 56 27.875 56 
Q 33.9375 56 38.25 53.625 
Q 42.578125 51.265625 45.40625 46.390625 
z
M 14.796875 27.296875 
Q 14.796875 17.390625 18.875 11.75 
Q 22.953125 6.109375 30.078125 6.109375 
Q 37.203125 6.109375 41.296875 11.75 
Q 45.40625 17.390625 45.40625 27.296875 
Q 45.40625 37.203125 41.296875 42.84375 
Q 37.203125 48.484375 30.078125 48.484375 
Q 22.953125 48.484375 18.875 42.84375 
Q 14.796875 37.203125 14.796875 27.296875 
z
" id="DejaVuSans-100"/>
      <path d="M 64.40625 67.28125 
L 64.40625 56.890625 
Q 59.421875 61.53125 53.78125 63.8125 
Q 48.140625 66.109375 41.796875 66.109375 
Q 29.296875 66.109375 22.65625 58.46875 
Q 16.015625 50.828125 16.015625 36.375 
Q 16.015625 21.96875 22.65625 14.328125 
Q 29.296875 6.6875 41.796875 6.6875 
Q 48.140625 6.6875 53.78125 8.984375 
Q 59.421875 11.28125 64.40625 15.921875 
L 64.40625 5.609375 
Q 59.234375 2.09375 53.4375 0.328125 
Q 47.65625 -1.421875 41.21875 -1.421875 
Q 24.65625 -1.421875 15.125 8.703125 
Q 5.609375 18.84375 5.609375 36.375 
Q 5.609375 53.953125 15.125 64.078125 
Q 24.65625 74.21875 41.21875 74.21875 
Q 47.75 74.21875 53.53125 72.484375 
Q 59.328125 70.75 64.40625 67.28125 
z
" id="DejaVuSans-67"/>
      <path d="M 8.5 21.578125 
L 8.5 54.6875 
L 17.484375 54.6875 
L 17.484375 21.921875 
Q 17.484375 14.15625 20.5 10.265625 
Q 23.53125 6.390625 29.59375 6.390625 
Q 36.859375 6.390625 41.078125 11.03125 
Q 45.3125 15.671875 45.3125 23.6875 
L 45.3125 54.6875 
L 54.296875 54.6875 
L 54.296875 0 
L 45.3125 0 
L 45.3125 8.40625 
Q 42.046875 3.421875 37.71875 1 
Q 33.40625 -1.421875 27.6875 -1.421875 
Q 18.265625 -1.421875 13.375 4.4375 
Q 8.5 10.296875 8.5 21.578125 
z
M 31.109375 56 
z
" id="DejaVuSans-117"/>
      <path d="M 2.984375 54.6875 
L 12.5 54.6875 
L 29.59375 8.796875 
L 46.6875 54.6875 
L 56.203125 54.6875 
L 35.6875 0 
L 23.484375 0 
z
" id="DejaVuSans-118"/>
     </defs>
     <g transform="translate(91 65.836562)scale(0.1 -0.1)">
      <use xlink:href="#DejaVuSans-70"/>
      <use x="57.410156" xlink:href="#DejaVuSans-105"/>
      <use x="85.193359" xlink:href="#DejaVuSans-116"/>
      <use x="124.402344" xlink:href="#DejaVuSans-116"/>
      <use x="163.611328" xlink:href="#DejaVuSans-101"/>
      <use x="225.134766" xlink:href="#DejaVuSans-100"/>
      <use x="288.611328" xlink:href="#DejaVuSans-32"/>
      <use x="320.398438" xlink:href="#DejaVuSans-67"/>
      <use x="390.222656" xlink:href="#DejaVuSans-117"/>
      <use x="453.601562" xlink:href="#DejaVuSans-114"/>
      <use x="494.714844" xlink:href="#DejaVuSans-118"/>
      <use x="553.894531" xlink:href="#DejaVuSans-101"/>
     </g>
    </g>
   </g>
  </g>
 </g>
 <defs>
  <clipPath id="pd1e8e931ab">
   <rect height="217.44" width="334.8" x="54" y="34.56"/>
  </clipPath>
 </defs>
</svg>
