<?xml version="1.0" encoding="utf-8" standalone="no"?>
<!DOCTYPE svg PUBLIC "-//W3C//DTD SVG 1.1//EN"
  "http://www.w3.org/Graphics/SVG/1.1/DTD/svg11.dtd">
<!-- Created with matplotlib (https://matplotlib.org/) -->
<svg height="288pt" version="1.1" viewBox="0 0 432 288" width="432pt" xmlns="http://www.w3.org/2000/svg" xmlns:xlink="http://www.w3.org/1999/xlink">
 <defs>
  <style type="text/css">
*{stroke-linecap:butt;stroke-linejoin:round;}
  </style>
 </defs>
 <g id="figure_1">
  <g id="patch_1">
   <path d="M 0 288 
L 432 288 
L 432 0 
L 0 0 
z
" style="fill:#ffffff;"/>
  </g>
  <g id="axes_1">
   <g id="patch_2">
    <path d="M 54 252 
L 388.8 252 
L 388.8 34.56 
L 54 34.56 
z
" style="fill:#ffffff;"/>
   </g>
   <g id="matplotlib.axis_1">
    <g id="xtick_1">
     <g id="line2d_1">
      <defs>
       <path d="M 0 0 
L 0 3.5 
" id="m6c21e52e9e" style="stroke:#000000;stroke-width:0.8;"/>
      </defs>
      <g>
       <use style="stroke:#000000;stroke-width:0.8;" x="68.907289" xlink:href="#m6c21e52e9e" y="252"/>
      </g>
     </g>
     <g id="text_1">
      <!-- 0 -->
      <defs>
       <path d="M 31.78125 66.40625 
Q 24.171875 66.40625 20.328125 58.90625 
Q 16.5 51.421875 16.5 36.375 
Q 16.5 21.390625 20.328125 13.890625 
Q 24.171875 6.390625 31.78125 6.390625 
Q 39.453125 6.390625 43.28125 13.890625 
Q 47.125 21.390625 47.125 36.375 
Q 47.125 51.421875 43.28125 58.90625 
Q 39.453125 66.40625 31.78125 66.40625 
z
M 31.78125 74.21875 
Q 44.046875 74.21875 50.515625 64.515625 
Q 56.984375 54.828125 56.984375 36.375 
Q 56.984375 17.96875 50.515625 8.265625 
Q 44.046875 -1.421875 31.78125 -1.421875 
Q 19.53125 -1.421875 13.0625 8.265625 
Q 6.59375 17.96875 6.59375 36.375 
Q 6.59375 54.828125 13.0625 64.515625 
Q 19.53125 74.21875 31.78125 74.21875 
z
" id="DejaVuSans-48"/>
      </defs>
      <g transform="translate(65.726039 266.598437)scale(0.1 -0.1)">
       <use xlink:href="#DejaVuSans-48"/>
      </g>
     </g>
    </g>
    <g id="xtick_2">
     <g id="line2d_2">
      <g>
       <use style="stroke:#000000;stroke-width:0.8;" x="131.085765" xlink:href="#m6c21e52e9e" y="252"/>
      </g>
     </g>
     <g id="text_2">
      <!-- 200 -->
      <defs>
       <path d="M 19.1875 8.296875 
L 53.609375 8.296875 
L 53.609375 0 
L 7.328125 0 
L 7.328125 8.296875 
Q 12.9375 14.109375 22.625 23.890625 
Q 32.328125 33.6875 34.8125 36.53125 
Q 39.546875 41.84375 41.421875 45.53125 
Q 43.3125 49.21875 43.3125 52.78125 
Q 43.3125 58.59375 39.234375 62.25 
Q 35.15625 65.921875 28.609375 65.921875 
Q 23.96875 65.921875 18.8125 64.3125 
Q 13.671875 62.703125 7.8125 59.421875 
L 7.8125 69.390625 
Q 13.765625 71.78125 18.9375 73 
Q 24.125 74.21875 28.421875 74.21875 
Q 39.75 74.21875 46.484375 68.546875 
Q 53.21875 62.890625 53.21875 53.421875 
Q 53.21875 48.921875 51.53125 44.890625 
Q 49.859375 40.875 45.40625 35.40625 
Q 44.1875 33.984375 37.640625 27.21875 
Q 31.109375 20.453125 19.1875 8.296875 
z
" id="DejaVuSans-50"/>
      </defs>
      <g transform="translate(121.542015 266.598437)scale(0.1 -0.1)">
       <use xlink:href="#DejaVuSans-50"/>
       <use x="63.623047" xlink:href="#DejaVuSans-48"/>
       <use x="127.246094" xlink:href="#DejaVuSans-48"/>
      </g>
     </g>
    </g>
    <g id="xtick_3">
     <g id="line2d_3">
      <g>
       <use style="stroke:#000000;stroke-width:0.8;" x="193.26424" xlink:href="#m6c21e52e9e" y="252"/>
      </g>
     </g>
     <g id="text_3">
      <!-- 400 -->
      <defs>
       <path d="M 37.796875 64.3125 
L 12.890625 25.390625 
L 37.796875 25.390625 
z
M 35.203125 72.90625 
L 47.609375 72.90625 
L 47.609375 25.390625 
L 58.015625 25.390625 
L 58.015625 17.1875 
L 47.609375 17.1875 
L 47.609375 0 
L 37.796875 0 
L 37.796875 17.1875 
L 4.890625 17.1875 
L 4.890625 26.703125 
z
" id="DejaVuSans-52"/>
      </defs>
      <g transform="translate(183.72049 266.598437)scale(0.1 -0.1)">
       <use xlink:href="#DejaVuSans-52"/>
       <use x="63.623047" xlink:href="#DejaVuSans-48"/>
       <use x="127.246094" xlink:href="#DejaVuSans-48"/>
      </g>
     </g>
    </g>
    <g id="xtick_4">
     <g id="line2d_4">
      <g>
       <use style="stroke:#000000;stroke-width:0.8;" x="255.442715" xlink:href="#m6c21e52e9e" y="252"/>
      </g>
     </g>
     <g id="text_4">
      <!-- 600 -->
      <defs>
       <path d="M 33.015625 40.375 
Q 26.375 40.375 22.484375 35.828125 
Q 18.609375 31.296875 18.609375 23.390625 
Q 18.609375 15.53125 22.484375 10.953125 
Q 26.375 6.390625 33.015625 6.390625 
Q 39.65625 6.390625 43.53125 10.953125 
Q 47.40625 15.53125 47.40625 23.390625 
Q 47.40625 31.296875 43.53125 35.828125 
Q 39.65625 40.375 33.015625 40.375 
z
M 52.59375 71.296875 
L 52.59375 62.3125 
Q 48.875 64.0625 45.09375 64.984375 
Q 41.3125 65.921875 37.59375 65.921875 
Q 27.828125 65.921875 22.671875 59.328125 
Q 17.53125 52.734375 16.796875 39.40625 
Q 19.671875 43.65625 24.015625 45.921875 
Q 28.375 48.1875 33.59375 48.1875 
Q 44.578125 48.1875 50.953125 41.515625 
Q 57.328125 34.859375 57.328125 23.390625 
Q 57.328125 12.15625 50.6875 5.359375 
Q 44.046875 -1.421875 33.015625 -1.421875 
Q 20.359375 -1.421875 13.671875 8.265625 
Q 6.984375 17.96875 6.984375 36.375 
Q 6.984375 53.65625 15.1875 63.9375 
Q 23.390625 74.21875 37.203125 74.21875 
Q 40.921875 74.21875 44.703125 73.484375 
Q 48.484375 72.75 52.59375 71.296875 
z
" id="DejaVuSans-54"/>
      </defs>
      <g transform="translate(245.898965 266.598437)scale(0.1 -0.1)">
       <use xlink:href="#DejaVuSans-54"/>
       <use x="63.623047" xlink:href="#DejaVuSans-48"/>
       <use x="127.246094" xlink:href="#DejaVuSans-48"/>
      </g>
     </g>
    </g>
    <g id="xtick_5">
     <g id="line2d_5">
      <g>
       <use style="stroke:#000000;stroke-width:0.8;" x="317.62119" xlink:href="#m6c21e52e9e" y="252"/>
      </g>
     </g>
     <g id="text_5">
      <!-- 800 -->
      <defs>
       <path d="M 31.78125 34.625 
Q 24.75 34.625 20.71875 30.859375 
Q 16.703125 27.09375 16.703125 20.515625 
Q 16.703125 13.921875 20.71875 10.15625 
Q 24.75 6.390625 31.78125 6.390625 
Q 38.8125 6.390625 42.859375 10.171875 
Q 46.921875 13.96875 46.921875 20.515625 
Q 46.921875 27.09375 42.890625 30.859375 
Q 38.875 34.625 31.78125 34.625 
z
M 21.921875 38.8125 
Q 15.578125 40.375 12.03125 44.71875 
Q 8.5 49.078125 8.5 55.328125 
Q 8.5 64.0625 14.71875 69.140625 
Q 20.953125 74.21875 31.78125 74.21875 
Q 42.671875 74.21875 48.875 69.140625 
Q 55.078125 64.0625 55.078125 55.328125 
Q 55.078125 49.078125 51.53125 44.71875 
Q 48 40.375 41.703125 38.8125 
Q 48.828125 37.15625 52.796875 32.3125 
Q 56.78125 27.484375 56.78125 20.515625 
Q 56.78125 9.90625 50.3125 4.234375 
Q 43.84375 -1.421875 31.78125 -1.421875 
Q 19.734375 -1.421875 13.25 4.234375 
Q 6.78125 9.90625 6.78125 20.515625 
Q 6.78125 27.484375 10.78125 32.3125 
Q 14.796875 37.15625 21.921875 38.8125 
z
M 18.3125 54.390625 
Q 18.3125 48.734375 21.84375 45.5625 
Q 25.390625 42.390625 31.78125 42.390625 
Q 38.140625 42.390625 41.71875 45.5625 
Q 45.3125 48.734375 45.3125 54.390625 
Q 45.3125 60.0625 41.71875 63.234375 
Q 38.140625 66.40625 31.78125 66.40625 
Q 25.390625 66.40625 21.84375 63.234375 
Q 18.3125 60.0625 18.3125 54.390625 
z
" id="DejaVuSans-56"/>
      </defs>
      <g transform="translate(308.07744 266.598437)scale(0.1 -0.1)">
       <use xlink:href="#DejaVuSans-56"/>
       <use x="63.623047" xlink:href="#DejaVuSans-48"/>
       <use x="127.246094" xlink:href="#DejaVuSans-48"/>
      </g>
     </g>
    </g>
    <g id="xtick_6">
     <g id="line2d_6">
      <g>
       <use style="stroke:#000000;stroke-width:0.8;" x="379.799666" xlink:href="#m6c21e52e9e" y="252"/>
      </g>
     </g>
     <g id="text_6">
      <!-- 1000 -->
      <defs>
       <path d="M 12.40625 8.296875 
L 28.515625 8.296875 
L 28.515625 63.921875 
L 10.984375 60.40625 
L 10.984375 69.390625 
L 28.421875 72.90625 
L 38.28125 72.90625 
L 38.28125 8.296875 
L 54.390625 8.296875 
L 54.390625 0 
L 12.40625 0 
z
" id="DejaVuSans-49"/>
      </defs>
      <g transform="translate(367.074666 266.598437)scale(0.1 -0.1)">
       <use xlink:href="#DejaVuSans-49"/>
       <use x="63.623047" xlink:href="#DejaVuSans-48"/>
       <use x="127.246094" xlink:href="#DejaVuSans-48"/>
       <use x="190.869141" xlink:href="#DejaVuSans-48"/>
      </g>
     </g>
    </g>
   </g>
   <g id="matplotlib.axis_2">
    <g id="ytick_1">
     <g id="line2d_7">
      <defs>
       <path d="M 0 0 
L -3.5 0 
" id="m8a181f4474" style="stroke:#000000;stroke-width:0.8;"/>
      </defs>
      <g>
       <use style="stroke:#000000;stroke-width:0.8;" x="54" xlink:href="#m8a181f4474" y="226.730497"/>
      </g>
     </g>
     <g id="text_7">
      <!-- 0 -->
      <g transform="translate(40.6375 230.529715)scale(0.1 -0.1)">
       <use xlink:href="#DejaVuSans-48"/>
      </g>
     </g>
    </g>
    <g id="ytick_2">
     <g id="line2d_8">
      <g>
       <use style="stroke:#000000;stroke-width:0.8;" x="54" xlink:href="#m8a181f4474" y="199.49168"/>
      </g>
     </g>
     <g id="text_8">
      <!-- 1 -->
      <g transform="translate(40.6375 203.290899)scale(0.1 -0.1)">
       <use xlink:href="#DejaVuSans-49"/>
      </g>
     </g>
    </g>
    <g id="ytick_3">
     <g id="line2d_9">
      <g>
       <use style="stroke:#000000;stroke-width:0.8;" x="54" xlink:href="#m8a181f4474" y="172.252864"/>
      </g>
     </g>
     <g id="text_9">
      <!-- 2 -->
      <g transform="translate(40.6375 176.052083)scale(0.1 -0.1)">
       <use xlink:href="#DejaVuSans-50"/>
      </g>
     </g>
    </g>
    <g id="ytick_4">
     <g id="line2d_10">
      <g>
       <use style="stroke:#000000;stroke-width:0.8;" x="54" xlink:href="#m8a181f4474" y="145.014048"/>
      </g>
     </g>
     <g id="text_10">
      <!-- 3 -->
      <defs>
       <path d="M 40.578125 39.3125 
Q 47.65625 37.796875 51.625 33 
Q 55.609375 28.21875 55.609375 21.1875 
Q 55.609375 10.40625 48.1875 4.484375 
Q 40.765625 -1.421875 27.09375 -1.421875 
Q 22.515625 -1.421875 17.65625 -0.515625 
Q 12.796875 0.390625 7.625 2.203125 
L 7.625 11.71875 
Q 11.71875 9.328125 16.59375 8.109375 
Q 21.484375 6.890625 26.8125 6.890625 
Q 36.078125 6.890625 40.9375 10.546875 
Q 45.796875 14.203125 45.796875 21.1875 
Q 45.796875 27.640625 41.28125 31.265625 
Q 36.765625 34.90625 28.71875 34.90625 
L 20.21875 34.90625 
L 20.21875 43.015625 
L 29.109375 43.015625 
Q 36.375 43.015625 40.234375 45.921875 
Q 44.09375 48.828125 44.09375 54.296875 
Q 44.09375 59.90625 40.109375 62.90625 
Q 36.140625 65.921875 28.71875 65.921875 
Q 24.65625 65.921875 20.015625 65.03125 
Q 15.375 64.15625 9.8125 62.3125 
L 9.8125 71.09375 
Q 15.4375 72.65625 20.34375 73.4375 
Q 25.25 74.21875 29.59375 74.21875 
Q 40.828125 74.21875 47.359375 69.109375 
Q 53.90625 64.015625 53.90625 55.328125 
Q 53.90625 49.265625 50.4375 45.09375 
Q 46.96875 40.921875 40.578125 39.3125 
z
" id="DejaVuSans-51"/>
      </defs>
      <g transform="translate(40.6375 148.813266)scale(0.1 -0.1)">
       <use xlink:href="#DejaVuSans-51"/>
      </g>
     </g>
    </g>
    <g id="ytick_5">
     <g id="line2d_11">
      <g>
       <use style="stroke:#000000;stroke-width:0.8;" x="54" xlink:href="#m8a181f4474" y="117.775231"/>
      </g>
     </g>
     <g id="text_11">
      <!-- 4 -->
      <g transform="translate(40.6375 121.57445)scale(0.1 -0.1)">
       <use xlink:href="#DejaVuSans-52"/>
      </g>
     </g>
    </g>
    <g id="ytick_6">
     <g id="line2d_12">
      <g>
       <use style="stroke:#000000;stroke-width:0.8;" x="54" xlink:href="#m8a181f4474" y="90.536415"/>
      </g>
     </g>
     <g id="text_12">
      <!-- 5 -->
      <defs>
       <path d="M 10.796875 72.90625 
L 49.515625 72.90625 
L 49.515625 64.59375 
L 19.828125 64.59375 
L 19.828125 46.734375 
Q 21.96875 47.46875 24.109375 47.828125 
Q 26.265625 48.1875 28.421875 48.1875 
Q 40.625 48.1875 47.75 41.5 
Q 54.890625 34.8125 54.890625 23.390625 
Q 54.890625 11.625 47.5625 5.09375 
Q 40.234375 -1.421875 26.90625 -1.421875 
Q 22.3125 -1.421875 17.546875 -0.640625 
Q 12.796875 0.140625 7.71875 1.703125 
L 7.71875 11.625 
Q 12.109375 9.234375 16.796875 8.0625 
Q 21.484375 6.890625 26.703125 6.890625 
Q 35.15625 6.890625 40.078125 11.328125 
Q 45.015625 15.765625 45.015625 23.390625 
Q 45.015625 31 40.078125 35.4375 
Q 35.15625 39.890625 26.703125 39.890625 
Q 22.75 39.890625 18.8125 39.015625 
Q 14.890625 38.140625 10.796875 36.28125 
z
" id="DejaVuSans-53"/>
      </defs>
      <g transform="translate(40.6375 94.335634)scale(0.1 -0.1)">
       <use xlink:href="#DejaVuSans-53"/>
      </g>
     </g>
    </g>
    <g id="ytick_7">
     <g id="line2d_13">
      <g>
       <use style="stroke:#000000;stroke-width:0.8;" x="54" xlink:href="#m8a181f4474" y="63.297599"/>
      </g>
     </g>
     <g id="text_13">
      <!-- 6 -->
      <g transform="translate(40.6375 67.096817)scale(0.1 -0.1)">
       <use xlink:href="#DejaVuSans-54"/>
      </g>
     </g>
    </g>
    <g id="ytick_8">
     <g id="line2d_14">
      <g>
       <use style="stroke:#000000;stroke-width:0.8;" x="54" xlink:href="#m8a181f4474" y="36.058782"/>
      </g>
     </g>
     <g id="text_14">
      <!-- 7 -->
      <defs>
       <path d="M 8.203125 72.90625 
L 55.078125 72.90625 
L 55.078125 68.703125 
L 28.609375 0 
L 18.3125 0 
L 43.21875 64.59375 
L 8.203125 64.59375 
z
" id="DejaVuSans-55"/>
      </defs>
      <g transform="translate(40.6375 39.858001)scale(0.1 -0.1)">
       <use xlink:href="#DejaVuSans-55"/>
      </g>
     </g>
    </g>
   </g>
   <g id="line2d_15">
    <defs>
     <path d="M 0 3 
C 0.795609 3 1.55874 2.683901 2.12132 2.12132 
C 2.683901 1.55874 3 0.795609 3 0 
C 3 -0.795609 2.683901 -1.55874 2.12132 -2.12132 
C 1.55874 -2.683901 0.795609 -3 0 -3 
C -0.795609 -3 -1.55874 -2.683901 -2.12132 -2.12132 
C -2.683901 -1.55874 -3 -0.795609 -3 0 
C -3 0.795609 -2.683901 1.55874 -2.12132 2.12132 
C -1.55874 2.683901 -0.795609 3 0 3 
z
" id="m1adb8bc14e" style="stroke:#ff0000;"/>
    </defs>
    <g clip-path="url(#pa96b1dbd78)">
     <use style="fill:#ff0000;stroke:#ff0000;" x="69.218182" xlink:href="#m1adb8bc14e" y="225.71882"/>
     <use style="fill:#ff0000;stroke:#ff0000;" x="69.529074" xlink:href="#m1adb8bc14e" y="226.075585"/>
     <use style="fill:#ff0000;stroke:#ff0000;" x="69.839967" xlink:href="#m1adb8bc14e" y="226.036485"/>
     <use style="fill:#ff0000;stroke:#ff0000;" x="70.150859" xlink:href="#m1adb8bc14e" y="226.015383"/>
     <use style="fill:#ff0000;stroke:#ff0000;" x="70.461751" xlink:href="#m1adb8bc14e" y="226.013794"/>
     <use style="fill:#ff0000;stroke:#ff0000;" x="70.772644" xlink:href="#m1adb8bc14e" y="225.938738"/>
     <use style="fill:#ff0000;stroke:#ff0000;" x="71.083536" xlink:href="#m1adb8bc14e" y="226.02407"/>
     <use style="fill:#ff0000;stroke:#ff0000;" x="71.394428" xlink:href="#m1adb8bc14e" y="226.022152"/>
     <use style="fill:#ff0000;stroke:#ff0000;" x="71.705321" xlink:href="#m1adb8bc14e" y="225.979745"/>
     <use style="fill:#ff0000;stroke:#ff0000;" x="72.016213" xlink:href="#m1adb8bc14e" y="226.007698"/>
     <use style="fill:#ff0000;stroke:#ff0000;" x="72.327106" xlink:href="#m1adb8bc14e" y="226.017533"/>
     <use style="fill:#ff0000;stroke:#ff0000;" x="72.637998" xlink:href="#m1adb8bc14e" y="226.010082"/>
     <use style="fill:#ff0000;stroke:#ff0000;" x="72.94889" xlink:href="#m1adb8bc14e" y="226.01156"/>
     <use style="fill:#ff0000;stroke:#ff0000;" x="73.259783" xlink:href="#m1adb8bc14e" y="225.999182"/>
     <use style="fill:#ff0000;stroke:#ff0000;" x="73.570675" xlink:href="#m1adb8bc14e" y="226.037262"/>
     <use style="fill:#ff0000;stroke:#ff0000;" x="73.881567" xlink:href="#m1adb8bc14e" y="226.010844"/>
     <use style="fill:#ff0000;stroke:#ff0000;" x="74.19246" xlink:href="#m1adb8bc14e" y="226.012433"/>
     <use style="fill:#ff0000;stroke:#ff0000;" x="74.503352" xlink:href="#m1adb8bc14e" y="225.987326"/>
     <use style="fill:#ff0000;stroke:#ff0000;" x="74.814245" xlink:href="#m1adb8bc14e" y="225.994186"/>
     <use style="fill:#ff0000;stroke:#ff0000;" x="75.125137" xlink:href="#m1adb8bc14e" y="225.966415"/>
     <use style="fill:#ff0000;stroke:#ff0000;" x="75.436029" xlink:href="#m1adb8bc14e" y="226.007434"/>
     <use style="fill:#ff0000;stroke:#ff0000;" x="75.746922" xlink:href="#m1adb8bc14e" y="225.917193"/>
     <use style="fill:#ff0000;stroke:#ff0000;" x="76.057814" xlink:href="#m1adb8bc14e" y="225.967616"/>
     <use style="fill:#ff0000;stroke:#ff0000;" x="76.368706" xlink:href="#m1adb8bc14e" y="225.974305"/>
     <use style="fill:#ff0000;stroke:#ff0000;" x="76.679599" xlink:href="#m1adb8bc14e" y="225.963839"/>
     <use style="fill:#ff0000;stroke:#ff0000;" x="76.990491" xlink:href="#m1adb8bc14e" y="225.954002"/>
     <use style="fill:#ff0000;stroke:#ff0000;" x="77.301384" xlink:href="#m1adb8bc14e" y="225.952959"/>
     <use style="fill:#ff0000;stroke:#ff0000;" x="77.612276" xlink:href="#m1adb8bc14e" y="225.890092"/>
     <use style="fill:#ff0000;stroke:#ff0000;" x="77.923168" xlink:href="#m1adb8bc14e" y="225.931677"/>
     <use style="fill:#ff0000;stroke:#ff0000;" x="78.234061" xlink:href="#m1adb8bc14e" y="225.941866"/>
     <use style="fill:#ff0000;stroke:#ff0000;" x="78.544953" xlink:href="#m1adb8bc14e" y="225.92712"/>
     <use style="fill:#ff0000;stroke:#ff0000;" x="78.855845" xlink:href="#m1adb8bc14e" y="225.881078"/>
     <use style="fill:#ff0000;stroke:#ff0000;" x="79.166738" xlink:href="#m1adb8bc14e" y="225.926648"/>
     <use style="fill:#ff0000;stroke:#ff0000;" x="79.47763" xlink:href="#m1adb8bc14e" y="225.926832"/>
     <use style="fill:#ff0000;stroke:#ff0000;" x="79.788523" xlink:href="#m1adb8bc14e" y="225.896179"/>
     <use style="fill:#ff0000;stroke:#ff0000;" x="80.099415" xlink:href="#m1adb8bc14e" y="225.88486"/>
     <use style="fill:#ff0000;stroke:#ff0000;" x="80.410307" xlink:href="#m1adb8bc14e" y="225.904646"/>
     <use style="fill:#ff0000;stroke:#ff0000;" x="80.7212" xlink:href="#m1adb8bc14e" y="225.888668"/>
     <use style="fill:#ff0000;stroke:#ff0000;" x="81.032092" xlink:href="#m1adb8bc14e" y="225.856171"/>
     <use style="fill:#ff0000;stroke:#ff0000;" x="81.342984" xlink:href="#m1adb8bc14e" y="225.828027"/>
     <use style="fill:#ff0000;stroke:#ff0000;" x="81.653877" xlink:href="#m1adb8bc14e" y="225.845548"/>
     <use style="fill:#ff0000;stroke:#ff0000;" x="81.964769" xlink:href="#m1adb8bc14e" y="225.851715"/>
     <use style="fill:#ff0000;stroke:#ff0000;" x="82.275662" xlink:href="#m1adb8bc14e" y="225.866217"/>
     <use style="fill:#ff0000;stroke:#ff0000;" x="82.586554" xlink:href="#m1adb8bc14e" y="225.815978"/>
     <use style="fill:#ff0000;stroke:#ff0000;" x="82.897446" xlink:href="#m1adb8bc14e" y="225.803968"/>
     <use style="fill:#ff0000;stroke:#ff0000;" x="83.208339" xlink:href="#m1adb8bc14e" y="225.778764"/>
     <use style="fill:#ff0000;stroke:#ff0000;" x="83.519231" xlink:href="#m1adb8bc14e" y="225.822026"/>
     <use style="fill:#ff0000;stroke:#ff0000;" x="83.830124" xlink:href="#m1adb8bc14e" y="225.776198"/>
     <use style="fill:#ff0000;stroke:#ff0000;" x="84.141016" xlink:href="#m1adb8bc14e" y="225.775051"/>
     <use style="fill:#ff0000;stroke:#ff0000;" x="84.451908" xlink:href="#m1adb8bc14e" y="225.766792"/>
     <use style="fill:#ff0000;stroke:#ff0000;" x="84.762801" xlink:href="#m1adb8bc14e" y="225.747039"/>
     <use style="fill:#ff0000;stroke:#ff0000;" x="85.073693" xlink:href="#m1adb8bc14e" y="225.752886"/>
     <use style="fill:#ff0000;stroke:#ff0000;" x="85.384585" xlink:href="#m1adb8bc14e" y="225.740151"/>
     <use style="fill:#ff0000;stroke:#ff0000;" x="85.695478" xlink:href="#m1adb8bc14e" y="225.752577"/>
     <use style="fill:#ff0000;stroke:#ff0000;" x="86.00637" xlink:href="#m1adb8bc14e" y="225.716655"/>
     <use style="fill:#ff0000;stroke:#ff0000;" x="86.317263" xlink:href="#m1adb8bc14e" y="225.717677"/>
     <use style="fill:#ff0000;stroke:#ff0000;" x="86.628155" xlink:href="#m1adb8bc14e" y="225.728279"/>
     <use style="fill:#ff0000;stroke:#ff0000;" x="86.939047" xlink:href="#m1adb8bc14e" y="225.714776"/>
     <use style="fill:#ff0000;stroke:#ff0000;" x="87.24994" xlink:href="#m1adb8bc14e" y="225.692719"/>
     <use style="fill:#ff0000;stroke:#ff0000;" x="87.560832" xlink:href="#m1adb8bc14e" y="225.681439"/>
     <use style="fill:#ff0000;stroke:#ff0000;" x="87.871724" xlink:href="#m1adb8bc14e" y="225.690868"/>
     <use style="fill:#ff0000;stroke:#ff0000;" x="88.182617" xlink:href="#m1adb8bc14e" y="225.633864"/>
     <use style="fill:#ff0000;stroke:#ff0000;" x="88.493509" xlink:href="#m1adb8bc14e" y="225.661493"/>
     <use style="fill:#ff0000;stroke:#ff0000;" x="88.804402" xlink:href="#m1adb8bc14e" y="225.630667"/>
     <use style="fill:#ff0000;stroke:#ff0000;" x="89.115294" xlink:href="#m1adb8bc14e" y="225.628026"/>
     <use style="fill:#ff0000;stroke:#ff0000;" x="89.426186" xlink:href="#m1adb8bc14e" y="225.625779"/>
     <use style="fill:#ff0000;stroke:#ff0000;" x="89.737079" xlink:href="#m1adb8bc14e" y="225.608775"/>
     <use style="fill:#ff0000;stroke:#ff0000;" x="90.047971" xlink:href="#m1adb8bc14e" y="225.606443"/>
     <use style="fill:#ff0000;stroke:#ff0000;" x="90.358863" xlink:href="#m1adb8bc14e" y="225.478214"/>
     <use style="fill:#ff0000;stroke:#ff0000;" x="90.669756" xlink:href="#m1adb8bc14e" y="225.565008"/>
     <use style="fill:#ff0000;stroke:#ff0000;" x="90.980648" xlink:href="#m1adb8bc14e" y="225.550396"/>
     <use style="fill:#ff0000;stroke:#ff0000;" x="91.291541" xlink:href="#m1adb8bc14e" y="225.544603"/>
     <use style="fill:#ff0000;stroke:#ff0000;" x="91.602433" xlink:href="#m1adb8bc14e" y="225.514758"/>
     <use style="fill:#ff0000;stroke:#ff0000;" x="91.913325" xlink:href="#m1adb8bc14e" y="225.499461"/>
     <use style="fill:#ff0000;stroke:#ff0000;" x="92.224218" xlink:href="#m1adb8bc14e" y="225.483107"/>
     <use style="fill:#ff0000;stroke:#ff0000;" x="92.53511" xlink:href="#m1adb8bc14e" y="225.467555"/>
     <use style="fill:#ff0000;stroke:#ff0000;" x="92.846002" xlink:href="#m1adb8bc14e" y="225.481219"/>
     <use style="fill:#ff0000;stroke:#ff0000;" x="93.156895" xlink:href="#m1adb8bc14e" y="225.488791"/>
     <use style="fill:#ff0000;stroke:#ff0000;" x="93.467787" xlink:href="#m1adb8bc14e" y="225.463875"/>
     <use style="fill:#ff0000;stroke:#ff0000;" x="93.77868" xlink:href="#m1adb8bc14e" y="225.449051"/>
     <use style="fill:#ff0000;stroke:#ff0000;" x="94.089572" xlink:href="#m1adb8bc14e" y="225.419439"/>
     <use style="fill:#ff0000;stroke:#ff0000;" x="94.400464" xlink:href="#m1adb8bc14e" y="225.405888"/>
     <use style="fill:#ff0000;stroke:#ff0000;" x="94.711357" xlink:href="#m1adb8bc14e" y="225.405708"/>
     <use style="fill:#ff0000;stroke:#ff0000;" x="95.022249" xlink:href="#m1adb8bc14e" y="225.382834"/>
     <use style="fill:#ff0000;stroke:#ff0000;" x="95.333141" xlink:href="#m1adb8bc14e" y="225.365868"/>
     <use style="fill:#ff0000;stroke:#ff0000;" x="95.644034" xlink:href="#m1adb8bc14e" y="225.337337"/>
     <use style="fill:#ff0000;stroke:#ff0000;" x="95.954926" xlink:href="#m1adb8bc14e" y="225.322158"/>
     <use style="fill:#ff0000;stroke:#ff0000;" x="96.265819" xlink:href="#m1adb8bc14e" y="225.344689"/>
     <use style="fill:#ff0000;stroke:#ff0000;" x="96.576711" xlink:href="#m1adb8bc14e" y="225.302218"/>
     <use style="fill:#ff0000;stroke:#ff0000;" x="96.887603" xlink:href="#m1adb8bc14e" y="225.294499"/>
     <use style="fill:#ff0000;stroke:#ff0000;" x="97.198496" xlink:href="#m1adb8bc14e" y="225.282948"/>
     <use style="fill:#ff0000;stroke:#ff0000;" x="97.509388" xlink:href="#m1adb8bc14e" y="225.230987"/>
     <use style="fill:#ff0000;stroke:#ff0000;" x="97.82028" xlink:href="#m1adb8bc14e" y="225.26098"/>
     <use style="fill:#ff0000;stroke:#ff0000;" x="98.131173" xlink:href="#m1adb8bc14e" y="225.224775"/>
     <use style="fill:#ff0000;stroke:#ff0000;" x="98.442065" xlink:href="#m1adb8bc14e" y="225.240211"/>
     <use style="fill:#ff0000;stroke:#ff0000;" x="98.752958" xlink:href="#m1adb8bc14e" y="225.222214"/>
     <use style="fill:#ff0000;stroke:#ff0000;" x="99.06385" xlink:href="#m1adb8bc14e" y="225.211769"/>
     <use style="fill:#ff0000;stroke:#ff0000;" x="99.374742" xlink:href="#m1adb8bc14e" y="225.172221"/>
     <use style="fill:#ff0000;stroke:#ff0000;" x="99.685635" xlink:href="#m1adb8bc14e" y="225.160899"/>
     <use style="fill:#ff0000;stroke:#ff0000;" x="99.996527" xlink:href="#m1adb8bc14e" y="225.157635"/>
     <use style="fill:#ff0000;stroke:#ff0000;" x="100.307419" xlink:href="#m1adb8bc14e" y="225.143982"/>
     <use style="fill:#ff0000;stroke:#ff0000;" x="100.618312" xlink:href="#m1adb8bc14e" y="225.079029"/>
     <use style="fill:#ff0000;stroke:#ff0000;" x="100.929204" xlink:href="#m1adb8bc14e" y="225.078793"/>
     <use style="fill:#ff0000;stroke:#ff0000;" x="101.240097" xlink:href="#m1adb8bc14e" y="225.04115"/>
     <use style="fill:#ff0000;stroke:#ff0000;" x="101.550989" xlink:href="#m1adb8bc14e" y="225.056879"/>
     <use style="fill:#ff0000;stroke:#ff0000;" x="101.861881" xlink:href="#m1adb8bc14e" y="225.027187"/>
     <use style="fill:#ff0000;stroke:#ff0000;" x="102.172774" xlink:href="#m1adb8bc14e" y="225.019373"/>
     <use style="fill:#ff0000;stroke:#ff0000;" x="102.483666" xlink:href="#m1adb8bc14e" y="224.993424"/>
     <use style="fill:#ff0000;stroke:#ff0000;" x="102.794558" xlink:href="#m1adb8bc14e" y="224.963016"/>
     <use style="fill:#ff0000;stroke:#ff0000;" x="103.105451" xlink:href="#m1adb8bc14e" y="225.003685"/>
     <use style="fill:#ff0000;stroke:#ff0000;" x="103.416343" xlink:href="#m1adb8bc14e" y="224.95438"/>
     <use style="fill:#ff0000;stroke:#ff0000;" x="103.727236" xlink:href="#m1adb8bc14e" y="224.919186"/>
     <use style="fill:#ff0000;stroke:#ff0000;" x="104.038128" xlink:href="#m1adb8bc14e" y="224.811726"/>
     <use style="fill:#ff0000;stroke:#ff0000;" x="104.34902" xlink:href="#m1adb8bc14e" y="224.875077"/>
     <use style="fill:#ff0000;stroke:#ff0000;" x="104.659913" xlink:href="#m1adb8bc14e" y="224.886091"/>
     <use style="fill:#ff0000;stroke:#ff0000;" x="104.970805" xlink:href="#m1adb8bc14e" y="224.850444"/>
     <use style="fill:#ff0000;stroke:#ff0000;" x="105.281697" xlink:href="#m1adb8bc14e" y="224.827165"/>
     <use style="fill:#ff0000;stroke:#ff0000;" x="105.59259" xlink:href="#m1adb8bc14e" y="224.838196"/>
     <use style="fill:#ff0000;stroke:#ff0000;" x="105.903482" xlink:href="#m1adb8bc14e" y="224.818224"/>
     <use style="fill:#ff0000;stroke:#ff0000;" x="106.214375" xlink:href="#m1adb8bc14e" y="224.674728"/>
     <use style="fill:#ff0000;stroke:#ff0000;" x="106.525267" xlink:href="#m1adb8bc14e" y="224.743471"/>
     <use style="fill:#ff0000;stroke:#ff0000;" x="106.836159" xlink:href="#m1adb8bc14e" y="224.732554"/>
     <use style="fill:#ff0000;stroke:#ff0000;" x="107.147052" xlink:href="#m1adb8bc14e" y="224.711033"/>
     <use style="fill:#ff0000;stroke:#ff0000;" x="107.457944" xlink:href="#m1adb8bc14e" y="224.681501"/>
     <use style="fill:#ff0000;stroke:#ff0000;" x="107.768836" xlink:href="#m1adb8bc14e" y="224.676838"/>
     <use style="fill:#ff0000;stroke:#ff0000;" x="108.079729" xlink:href="#m1adb8bc14e" y="224.683997"/>
     <use style="fill:#ff0000;stroke:#ff0000;" x="108.390621" xlink:href="#m1adb8bc14e" y="224.574729"/>
     <use style="fill:#ff0000;stroke:#ff0000;" x="108.701514" xlink:href="#m1adb8bc14e" y="224.576299"/>
     <use style="fill:#ff0000;stroke:#ff0000;" x="109.012406" xlink:href="#m1adb8bc14e" y="224.614955"/>
     <use style="fill:#ff0000;stroke:#ff0000;" x="109.323298" xlink:href="#m1adb8bc14e" y="224.594972"/>
     <use style="fill:#ff0000;stroke:#ff0000;" x="109.634191" xlink:href="#m1adb8bc14e" y="224.570627"/>
     <use style="fill:#ff0000;stroke:#ff0000;" x="109.945083" xlink:href="#m1adb8bc14e" y="224.538587"/>
     <use style="fill:#ff0000;stroke:#ff0000;" x="110.255975" xlink:href="#m1adb8bc14e" y="224.478463"/>
     <use style="fill:#ff0000;stroke:#ff0000;" x="110.566868" xlink:href="#m1adb8bc14e" y="224.514855"/>
     <use style="fill:#ff0000;stroke:#ff0000;" x="110.87776" xlink:href="#m1adb8bc14e" y="224.511439"/>
     <use style="fill:#ff0000;stroke:#ff0000;" x="111.188653" xlink:href="#m1adb8bc14e" y="224.472229"/>
     <use style="fill:#ff0000;stroke:#ff0000;" x="111.499545" xlink:href="#m1adb8bc14e" y="224.472209"/>
     <use style="fill:#ff0000;stroke:#ff0000;" x="111.810437" xlink:href="#m1adb8bc14e" y="224.378216"/>
     <use style="fill:#ff0000;stroke:#ff0000;" x="112.12133" xlink:href="#m1adb8bc14e" y="224.357642"/>
     <use style="fill:#ff0000;stroke:#ff0000;" x="112.432222" xlink:href="#m1adb8bc14e" y="224.347219"/>
     <use style="fill:#ff0000;stroke:#ff0000;" x="112.743114" xlink:href="#m1adb8bc14e" y="224.308385"/>
     <use style="fill:#ff0000;stroke:#ff0000;" x="113.054007" xlink:href="#m1adb8bc14e" y="224.312583"/>
     <use style="fill:#ff0000;stroke:#ff0000;" x="113.364899" xlink:href="#m1adb8bc14e" y="224.272909"/>
     <use style="fill:#ff0000;stroke:#ff0000;" x="113.675792" xlink:href="#m1adb8bc14e" y="224.289801"/>
     <use style="fill:#ff0000;stroke:#ff0000;" x="113.986684" xlink:href="#m1adb8bc14e" y="224.289647"/>
     <use style="fill:#ff0000;stroke:#ff0000;" x="114.297576" xlink:href="#m1adb8bc14e" y="224.204439"/>
     <use style="fill:#ff0000;stroke:#ff0000;" x="114.608469" xlink:href="#m1adb8bc14e" y="224.181027"/>
     <use style="fill:#ff0000;stroke:#ff0000;" x="114.919361" xlink:href="#m1adb8bc14e" y="224.128356"/>
     <use style="fill:#ff0000;stroke:#ff0000;" x="115.230254" xlink:href="#m1adb8bc14e" y="224.16054"/>
     <use style="fill:#ff0000;stroke:#ff0000;" x="115.541146" xlink:href="#m1adb8bc14e" y="224.087395"/>
     <use style="fill:#ff0000;stroke:#ff0000;" x="115.852038" xlink:href="#m1adb8bc14e" y="224.127856"/>
     <use style="fill:#ff0000;stroke:#ff0000;" x="116.162931" xlink:href="#m1adb8bc14e" y="224.087852"/>
     <use style="fill:#ff0000;stroke:#ff0000;" x="116.473823" xlink:href="#m1adb8bc14e" y="224.057212"/>
     <use style="fill:#ff0000;stroke:#ff0000;" x="116.784715" xlink:href="#m1adb8bc14e" y="224.031042"/>
     <use style="fill:#ff0000;stroke:#ff0000;" x="117.095608" xlink:href="#m1adb8bc14e" y="224.027139"/>
     <use style="fill:#ff0000;stroke:#ff0000;" x="117.4065" xlink:href="#m1adb8bc14e" y="224.012296"/>
     <use style="fill:#ff0000;stroke:#ff0000;" x="117.717393" xlink:href="#m1adb8bc14e" y="224.022266"/>
     <use style="fill:#ff0000;stroke:#ff0000;" x="118.028285" xlink:href="#m1adb8bc14e" y="223.925277"/>
     <use style="fill:#ff0000;stroke:#ff0000;" x="118.339177" xlink:href="#m1adb8bc14e" y="223.943461"/>
     <use style="fill:#ff0000;stroke:#ff0000;" x="118.65007" xlink:href="#m1adb8bc14e" y="223.901508"/>
     <use style="fill:#ff0000;stroke:#ff0000;" x="118.960962" xlink:href="#m1adb8bc14e" y="223.923532"/>
     <use style="fill:#ff0000;stroke:#ff0000;" x="119.271854" xlink:href="#m1adb8bc14e" y="223.820752"/>
     <use style="fill:#ff0000;stroke:#ff0000;" x="119.582747" xlink:href="#m1adb8bc14e" y="223.801203"/>
     <use style="fill:#ff0000;stroke:#ff0000;" x="119.893639" xlink:href="#m1adb8bc14e" y="223.789509"/>
     <use style="fill:#ff0000;stroke:#ff0000;" x="120.204532" xlink:href="#m1adb8bc14e" y="223.815808"/>
     <use style="fill:#ff0000;stroke:#ff0000;" x="120.515424" xlink:href="#m1adb8bc14e" y="223.790764"/>
     <use style="fill:#ff0000;stroke:#ff0000;" x="120.826316" xlink:href="#m1adb8bc14e" y="223.672493"/>
     <use style="fill:#ff0000;stroke:#ff0000;" x="121.137209" xlink:href="#m1adb8bc14e" y="223.687532"/>
     <use style="fill:#ff0000;stroke:#ff0000;" x="121.448101" xlink:href="#m1adb8bc14e" y="223.624893"/>
     <use style="fill:#ff0000;stroke:#ff0000;" x="121.758993" xlink:href="#m1adb8bc14e" y="223.632028"/>
     <use style="fill:#ff0000;stroke:#ff0000;" x="122.069886" xlink:href="#m1adb8bc14e" y="223.594894"/>
     <use style="fill:#ff0000;stroke:#ff0000;" x="122.380778" xlink:href="#m1adb8bc14e" y="223.553846"/>
     <use style="fill:#ff0000;stroke:#ff0000;" x="122.691671" xlink:href="#m1adb8bc14e" y="223.550447"/>
     <use style="fill:#ff0000;stroke:#ff0000;" x="123.002563" xlink:href="#m1adb8bc14e" y="223.513707"/>
     <use style="fill:#ff0000;stroke:#ff0000;" x="123.313455" xlink:href="#m1adb8bc14e" y="223.523048"/>
     <use style="fill:#ff0000;stroke:#ff0000;" x="123.624348" xlink:href="#m1adb8bc14e" y="223.448974"/>
     <use style="fill:#ff0000;stroke:#ff0000;" x="123.93524" xlink:href="#m1adb8bc14e" y="223.436443"/>
     <use style="fill:#ff0000;stroke:#ff0000;" x="124.246132" xlink:href="#m1adb8bc14e" y="223.482409"/>
     <use style="fill:#ff0000;stroke:#ff0000;" x="124.557025" xlink:href="#m1adb8bc14e" y="223.417211"/>
     <use style="fill:#ff0000;stroke:#ff0000;" x="124.867917" xlink:href="#m1adb8bc14e" y="223.241693"/>
     <use style="fill:#ff0000;stroke:#ff0000;" x="125.17881" xlink:href="#m1adb8bc14e" y="223.338795"/>
     <use style="fill:#ff0000;stroke:#ff0000;" x="125.489702" xlink:href="#m1adb8bc14e" y="223.320222"/>
     <use style="fill:#ff0000;stroke:#ff0000;" x="125.800594" xlink:href="#m1adb8bc14e" y="223.312487"/>
     <use style="fill:#ff0000;stroke:#ff0000;" x="126.111487" xlink:href="#m1adb8bc14e" y="223.331401"/>
     <use style="fill:#ff0000;stroke:#ff0000;" x="126.422379" xlink:href="#m1adb8bc14e" y="223.265439"/>
     <use style="fill:#ff0000;stroke:#ff0000;" x="126.733271" xlink:href="#m1adb8bc14e" y="223.185137"/>
     <use style="fill:#ff0000;stroke:#ff0000;" x="127.044164" xlink:href="#m1adb8bc14e" y="223.277418"/>
     <use style="fill:#ff0000;stroke:#ff0000;" x="127.355056" xlink:href="#m1adb8bc14e" y="223.128666"/>
     <use style="fill:#ff0000;stroke:#ff0000;" x="127.665949" xlink:href="#m1adb8bc14e" y="223.033436"/>
     <use style="fill:#ff0000;stroke:#ff0000;" x="127.976841" xlink:href="#m1adb8bc14e" y="223.132993"/>
     <use style="fill:#ff0000;stroke:#ff0000;" x="128.287733" xlink:href="#m1adb8bc14e" y="223.012594"/>
     <use style="fill:#ff0000;stroke:#ff0000;" x="128.598626" xlink:href="#m1adb8bc14e" y="222.967528"/>
     <use style="fill:#ff0000;stroke:#ff0000;" x="128.909518" xlink:href="#m1adb8bc14e" y="222.932219"/>
     <use style="fill:#ff0000;stroke:#ff0000;" x="129.22041" xlink:href="#m1adb8bc14e" y="222.775509"/>
     <use style="fill:#ff0000;stroke:#ff0000;" x="129.531303" xlink:href="#m1adb8bc14e" y="222.960956"/>
     <use style="fill:#ff0000;stroke:#ff0000;" x="129.842195" xlink:href="#m1adb8bc14e" y="222.911319"/>
     <use style="fill:#ff0000;stroke:#ff0000;" x="130.153088" xlink:href="#m1adb8bc14e" y="222.790054"/>
     <use style="fill:#ff0000;stroke:#ff0000;" x="130.46398" xlink:href="#m1adb8bc14e" y="222.781297"/>
     <use style="fill:#ff0000;stroke:#ff0000;" x="130.774872" xlink:href="#m1adb8bc14e" y="222.795645"/>
     <use style="fill:#ff0000;stroke:#ff0000;" x="131.085765" xlink:href="#m1adb8bc14e" y="222.701996"/>
     <use style="fill:#ff0000;stroke:#ff0000;" x="132.640227" xlink:href="#m1adb8bc14e" y="222.536677"/>
     <use style="fill:#ff0000;stroke:#ff0000;" x="134.194688" xlink:href="#m1adb8bc14e" y="222.342347"/>
     <use style="fill:#ff0000;stroke:#ff0000;" x="135.74915" xlink:href="#m1adb8bc14e" y="222.255273"/>
     <use style="fill:#ff0000;stroke:#ff0000;" x="137.303612" xlink:href="#m1adb8bc14e" y="222.021694"/>
     <use style="fill:#ff0000;stroke:#ff0000;" x="138.858074" xlink:href="#m1adb8bc14e" y="221.906551"/>
     <use style="fill:#ff0000;stroke:#ff0000;" x="140.412536" xlink:href="#m1adb8bc14e" y="221.635716"/>
     <use style="fill:#ff0000;stroke:#ff0000;" x="141.966998" xlink:href="#m1adb8bc14e" y="221.576226"/>
     <use style="fill:#ff0000;stroke:#ff0000;" x="143.52146" xlink:href="#m1adb8bc14e" y="221.233032"/>
     <use style="fill:#ff0000;stroke:#ff0000;" x="145.075922" xlink:href="#m1adb8bc14e" y="221.002285"/>
     <use style="fill:#ff0000;stroke:#ff0000;" x="146.630384" xlink:href="#m1adb8bc14e" y="220.85251"/>
     <use style="fill:#ff0000;stroke:#ff0000;" x="148.184845" xlink:href="#m1adb8bc14e" y="220.583263"/>
     <use style="fill:#ff0000;stroke:#ff0000;" x="149.739307" xlink:href="#m1adb8bc14e" y="220.289509"/>
     <use style="fill:#ff0000;stroke:#ff0000;" x="151.293769" xlink:href="#m1adb8bc14e" y="220.020648"/>
     <use style="fill:#ff0000;stroke:#ff0000;" x="152.848231" xlink:href="#m1adb8bc14e" y="219.857517"/>
     <use style="fill:#ff0000;stroke:#ff0000;" x="154.402693" xlink:href="#m1adb8bc14e" y="219.546045"/>
     <use style="fill:#ff0000;stroke:#ff0000;" x="155.957155" xlink:href="#m1adb8bc14e" y="219.2361"/>
     <use style="fill:#ff0000;stroke:#ff0000;" x="157.511617" xlink:href="#m1adb8bc14e" y="218.918454"/>
     <use style="fill:#ff0000;stroke:#ff0000;" x="159.066079" xlink:href="#m1adb8bc14e" y="218.869866"/>
     <use style="fill:#ff0000;stroke:#ff0000;" x="160.62054" xlink:href="#m1adb8bc14e" y="218.582353"/>
     <use style="fill:#ff0000;stroke:#ff0000;" x="162.175002" xlink:href="#m1adb8bc14e" y="218.21387"/>
     <use style="fill:#ff0000;stroke:#ff0000;" x="163.729464" xlink:href="#m1adb8bc14e" y="217.775665"/>
     <use style="fill:#ff0000;stroke:#ff0000;" x="165.283926" xlink:href="#m1adb8bc14e" y="217.585087"/>
     <use style="fill:#ff0000;stroke:#ff0000;" x="166.838388" xlink:href="#m1adb8bc14e" y="217.036742"/>
     <use style="fill:#ff0000;stroke:#ff0000;" x="168.39285" xlink:href="#m1adb8bc14e" y="216.851974"/>
     <use style="fill:#ff0000;stroke:#ff0000;" x="169.947312" xlink:href="#m1adb8bc14e" y="216.420311"/>
     <use style="fill:#ff0000;stroke:#ff0000;" x="171.501774" xlink:href="#m1adb8bc14e" y="216.233365"/>
     <use style="fill:#ff0000;stroke:#ff0000;" x="173.056235" xlink:href="#m1adb8bc14e" y="215.692363"/>
     <use style="fill:#ff0000;stroke:#ff0000;" x="174.610697" xlink:href="#m1adb8bc14e" y="215.497213"/>
     <use style="fill:#ff0000;stroke:#ff0000;" x="176.165159" xlink:href="#m1adb8bc14e" y="214.971721"/>
     <use style="fill:#ff0000;stroke:#ff0000;" x="177.719621" xlink:href="#m1adb8bc14e" y="214.768955"/>
     <use style="fill:#ff0000;stroke:#ff0000;" x="179.274083" xlink:href="#m1adb8bc14e" y="214.645184"/>
     <use style="fill:#ff0000;stroke:#ff0000;" x="180.828545" xlink:href="#m1adb8bc14e" y="213.80213"/>
     <use style="fill:#ff0000;stroke:#ff0000;" x="182.383007" xlink:href="#m1adb8bc14e" y="213.657436"/>
     <use style="fill:#ff0000;stroke:#ff0000;" x="183.937469" xlink:href="#m1adb8bc14e" y="213.055567"/>
     <use style="fill:#ff0000;stroke:#ff0000;" x="185.491931" xlink:href="#m1adb8bc14e" y="212.812278"/>
     <use style="fill:#ff0000;stroke:#ff0000;" x="187.046392" xlink:href="#m1adb8bc14e" y="211.979967"/>
     <use style="fill:#ff0000;stroke:#ff0000;" x="188.600854" xlink:href="#m1adb8bc14e" y="212.071735"/>
     <use style="fill:#ff0000;stroke:#ff0000;" x="190.155316" xlink:href="#m1adb8bc14e" y="211.513016"/>
     <use style="fill:#ff0000;stroke:#ff0000;" x="191.709778" xlink:href="#m1adb8bc14e" y="210.85825"/>
     <use style="fill:#ff0000;stroke:#ff0000;" x="193.26424" xlink:href="#m1adb8bc14e" y="210.510899"/>
     <use style="fill:#ff0000;stroke:#ff0000;" x="194.818702" xlink:href="#m1adb8bc14e" y="209.821288"/>
     <use style="fill:#ff0000;stroke:#ff0000;" x="196.373164" xlink:href="#m1adb8bc14e" y="209.410824"/>
     <use style="fill:#ff0000;stroke:#ff0000;" x="197.927626" xlink:href="#m1adb8bc14e" y="208.962033"/>
     <use style="fill:#ff0000;stroke:#ff0000;" x="199.482087" xlink:href="#m1adb8bc14e" y="208.475716"/>
     <use style="fill:#ff0000;stroke:#ff0000;" x="201.036549" xlink:href="#m1adb8bc14e" y="208.131279"/>
     <use style="fill:#ff0000;stroke:#ff0000;" x="202.591011" xlink:href="#m1adb8bc14e" y="207.371611"/>
     <use style="fill:#ff0000;stroke:#ff0000;" x="204.145473" xlink:href="#m1adb8bc14e" y="206.770394"/>
     <use style="fill:#ff0000;stroke:#ff0000;" x="205.699935" xlink:href="#m1adb8bc14e" y="206.336269"/>
     <use style="fill:#ff0000;stroke:#ff0000;" x="207.254397" xlink:href="#m1adb8bc14e" y="205.625862"/>
     <use style="fill:#ff0000;stroke:#ff0000;" x="208.808859" xlink:href="#m1adb8bc14e" y="205.323166"/>
     <use style="fill:#ff0000;stroke:#ff0000;" x="210.363321" xlink:href="#m1adb8bc14e" y="204.927149"/>
     <use style="fill:#ff0000;stroke:#ff0000;" x="211.917783" xlink:href="#m1adb8bc14e" y="204.073546"/>
     <use style="fill:#ff0000;stroke:#ff0000;" x="213.472244" xlink:href="#m1adb8bc14e" y="203.129814"/>
     <use style="fill:#ff0000;stroke:#ff0000;" x="215.026706" xlink:href="#m1adb8bc14e" y="202.004864"/>
     <use style="fill:#ff0000;stroke:#ff0000;" x="216.581168" xlink:href="#m1adb8bc14e" y="201.054582"/>
     <use style="fill:#ff0000;stroke:#ff0000;" x="218.13563" xlink:href="#m1adb8bc14e" y="200.845729"/>
     <use style="fill:#ff0000;stroke:#ff0000;" x="219.690092" xlink:href="#m1adb8bc14e" y="199.612874"/>
     <use style="fill:#ff0000;stroke:#ff0000;" x="221.244554" xlink:href="#m1adb8bc14e" y="199.188029"/>
     <use style="fill:#ff0000;stroke:#ff0000;" x="222.799016" xlink:href="#m1adb8bc14e" y="199.072271"/>
     <use style="fill:#ff0000;stroke:#ff0000;" x="224.353478" xlink:href="#m1adb8bc14e" y="196.967166"/>
     <use style="fill:#ff0000;stroke:#ff0000;" x="232.125787" xlink:href="#m1adb8bc14e" y="192.969013"/>
     <use style="fill:#ff0000;stroke:#ff0000;" x="239.898096" xlink:href="#m1adb8bc14e" y="189.385338"/>
     <use style="fill:#ff0000;stroke:#ff0000;" x="247.670406" xlink:href="#m1adb8bc14e" y="182.477889"/>
     <use style="fill:#ff0000;stroke:#ff0000;" x="255.442715" xlink:href="#m1adb8bc14e" y="179.951781"/>
     <use style="fill:#ff0000;stroke:#ff0000;" x="263.215025" xlink:href="#m1adb8bc14e" y="174.672758"/>
     <use style="fill:#ff0000;stroke:#ff0000;" x="270.987334" xlink:href="#m1adb8bc14e" y="168.149762"/>
     <use style="fill:#ff0000;stroke:#ff0000;" x="278.759643" xlink:href="#m1adb8bc14e" y="162.63507"/>
     <use style="fill:#ff0000;stroke:#ff0000;" x="286.531953" xlink:href="#m1adb8bc14e" y="154.903952"/>
     <use style="fill:#ff0000;stroke:#ff0000;" x="294.304262" xlink:href="#m1adb8bc14e" y="149.466678"/>
     <use style="fill:#ff0000;stroke:#ff0000;" x="302.076572" xlink:href="#m1adb8bc14e" y="142.67695"/>
     <use style="fill:#ff0000;stroke:#ff0000;" x="309.848881" xlink:href="#m1adb8bc14e" y="135.295195"/>
     <use style="fill:#ff0000;stroke:#ff0000;" x="317.62119" xlink:href="#m1adb8bc14e" y="127.686803"/>
     <use style="fill:#ff0000;stroke:#ff0000;" x="348.710428" xlink:href="#m1adb8bc14e" y="92.068672"/>
     <use style="fill:#ff0000;stroke:#ff0000;" x="361.146123" xlink:href="#m1adb8bc14e" y="76.160047"/>
     <use style="fill:#ff0000;stroke:#ff0000;" x="373.581818" xlink:href="#m1adb8bc14e" y="60.206317"/>
    </g>
   </g>
   <g id="line2d_16">
    <path clip-path="url(#pa96b1dbd78)" d="M 69.218182 225.474014 
L 78.544953 225.709522 
L 87.871724 225.715667 
L 97.198496 225.492449 
L 106.525267 225.039867 
L 115.852038 224.357921 
L 125.17881 223.446612 
L 134.194688 222.347658 
L 143.52146 220.985267 
L 152.848231 219.393514 
L 162.175002 217.572397 
L 171.501774 215.521916 
L 180.828545 213.242072 
L 190.155316 210.732865 
L 199.482087 207.994294 
L 208.808859 205.02636 
L 218.13563 201.829063 
L 224.353478 199.570107 
L 232.125787 196.60306 
L 239.898096 193.476733 
L 247.670406 190.191126 
L 255.442715 186.746238 
L 263.215025 183.142071 
L 270.987334 179.378623 
L 278.759643 175.455895 
L 286.531953 171.373888 
L 294.304262 167.132599 
L 302.076572 162.732031 
L 309.848881 158.172183 
L 317.62119 153.453054 
L 348.710428 132.983739 
L 361.146123 124.082437 
L 373.581818 114.773379 
L 373.581818 114.773379 
" style="fill:none;stroke:#1f77b4;stroke-linecap:square;stroke-width:1.5;"/>
   </g>
   <g id="line2d_17">
    <path clip-path="url(#pa96b1dbd78)" d="M 69.218182 226.177504 
L 91.913325 225.445891 
L 105.903482 224.77599 
L 117.717393 223.993065 
L 128.287733 223.073183 
L 137.303612 222.092151 
L 146.630384 220.857815 
L 155.957155 219.371891 
L 163.729464 217.92072 
L 171.501774 216.258278 
L 179.274083 214.36795 
L 187.046392 212.233119 
L 194.818702 209.837168 
L 202.591011 207.163481 
L 208.808859 204.813396 
L 215.026706 202.266417 
L 221.244554 199.514038 
L 224.353478 198.058165 
L 232.125787 194.177541 
L 239.898096 189.939422 
L 247.670406 185.327192 
L 255.442715 180.324235 
L 263.215025 174.913934 
L 270.987334 169.079673 
L 278.759643 162.804836 
L 286.531953 156.072806 
L 294.304262 148.866967 
L 302.076572 141.170702 
L 309.848881 132.967395 
L 317.62119 124.240429 
L 348.710428 83.763657 
L 361.146123 64.914305 
L 373.581818 44.443636 
L 373.581818 44.443636 
" style="fill:none;stroke:#ff7f0e;stroke-linecap:square;stroke-width:1.5;"/>
   </g>
   <g id="line2d_18">
    <path clip-path="url(#pa96b1dbd78)" d="M 69.218182 225.994177 
L 80.099415 225.881479 
L 91.602433 225.539438 
L 103.416343 224.963635 
L 114.919361 224.184308 
L 126.111487 223.205758 
L 135.74915 222.169921 
L 137.303612 223.290798 
L 146.630384 222.06103 
L 155.957155 220.608679 
L 157.511617 221.648937 
L 165.283926 220.205882 
L 168.39285 219.572396 
L 169.947312 220.549067 
L 177.719621 218.764005 
L 179.274083 219.684274 
L 183.937469 218.464068 
L 185.491931 219.342039 
L 190.155316 217.988884 
L 191.709778 218.820459 
L 194.818702 217.833978 
L 196.373164 218.627893 
L 199.482087 217.563525 
L 201.036549 218.317186 
L 204.145473 217.169623 
L 205.699935 217.880316 
L 207.254397 217.269794 
L 208.808859 217.950271 
L 211.917783 216.651586 
L 213.472244 217.284295 
L 215.026706 216.594144 
L 216.581168 217.193325 
L 218.13563 216.468955 
L 219.690092 217.033217 
L 221.244554 216.27322 
L 224.353478 217.310338 
L 232.125787 216.949915 
L 239.898096 216.064078 
L 247.670406 215.908264 
L 255.442715 216.42879 
L 263.215025 217.569124 
L 270.987334 217.963615 
L 278.759643 217.550026 
L 286.531953 218.875806 
L 294.304262 219.260482 
L 302.076572 221.245798 
L 309.848881 222.14558 
L 317.62119 223.189603 
L 348.710428 232.403534 
L 361.146123 236.873021 
L 373.581818 242.116364 
L 373.581818 242.116364 
" style="fill:none;stroke:#2ca02c;stroke-linecap:square;stroke-width:1.5;"/>
   </g>
   <g id="line2d_19">
    <path clip-path="url(#pa96b1dbd78)" d="M 69.218182 228.796875 
L 90.669756 226.250824 
L 111.188653 223.593366 
L 130.774872 220.836073 
L 149.739307 217.943448 
L 168.39285 214.866682 
L 185.491931 211.828679 
L 202.591011 208.566684 
L 219.690092 205.064181 
L 232.125787 202.355768 
L 247.670406 198.767126 
L 263.215025 194.938732 
L 278.759643 190.854568 
L 294.304262 186.497546 
L 309.848881 181.849437 
L 317.62119 179.410198 
L 348.710428 168.824819 
L 361.146123 164.192128 
L 373.581818 159.313446 
L 373.581818 159.313446 
" style="fill:none;stroke:#d62728;stroke-linecap:square;stroke-width:1.5;"/>
   </g>
   <g id="patch_3">
    <path d="M 54 252 
L 54 34.56 
" style="fill:none;stroke:#000000;stroke-linecap:square;stroke-linejoin:miter;stroke-width:0.8;"/>
   </g>
   <g id="patch_4">
    <path d="M 388.8 252 
L 388.8 34.56 
" style="fill:none;stroke:#000000;stroke-linecap:square;stroke-linejoin:miter;stroke-width:0.8;"/>
   </g>
   <g id="patch_5">
    <path d="M 54 252 
L 388.8 252 
" style="fill:none;stroke:#000000;stroke-linecap:square;stroke-linejoin:miter;stroke-width:0.8;"/>
   </g>
   <g id="patch_6">
    <path d="M 54 34.56 
L 388.8 34.56 
" style="fill:none;stroke:#000000;stroke-linecap:square;stroke-linejoin:miter;stroke-width:0.8;"/>
   </g>
   <g id="legend_1">
    <g id="patch_7">
     <path d="M 61 115.950625 
L 159.185938 115.950625 
Q 161.185938 115.950625 161.185938 113.950625 
L 161.185938 41.56 
Q 161.185938 39.56 159.185938 39.56 
L 61 39.56 
Q 59 39.56 59 41.56 
L 59 113.950625 
Q 59 115.950625 61 115.950625 
z
" style="fill:#ffffff;opacity:0.8;stroke:#cccccc;stroke-linejoin:miter;"/>
    </g>
    <g id="line2d_20"/>
    <g id="line2d_21">
     <g>
      <use style="fill:#ff0000;stroke:#ff0000;" x="73" xlink:href="#m1adb8bc14e" y="47.658437"/>
     </g>
    </g>
    <g id="text_15">
     <!-- Original Data -->
     <defs>
      <path d="M 39.40625 66.21875 
Q 28.65625 66.21875 22.328125 58.203125 
Q 16.015625 50.203125 16.015625 36.375 
Q 16.015625 22.609375 22.328125 14.59375 
Q 28.65625 6.59375 39.40625 6.59375 
Q 50.140625 6.59375 56.421875 14.59375 
Q 62.703125 22.609375 62.703125 36.375 
Q 62.703125 50.203125 56.421875 58.203125 
Q 50.140625 66.21875 39.40625 66.21875 
z
M 39.40625 74.21875 
Q 54.734375 74.21875 63.90625 63.9375 
Q 73.09375 53.65625 73.09375 36.375 
Q 73.09375 19.140625 63.90625 8.859375 
Q 54.734375 -1.421875 39.40625 -1.421875 
Q 24.03125 -1.421875 14.8125 8.828125 
Q 5.609375 19.09375 5.609375 36.375 
Q 5.609375 53.65625 14.8125 63.9375 
Q 24.03125 74.21875 39.40625 74.21875 
z
" id="DejaVuSans-79"/>
      <path d="M 41.109375 46.296875 
Q 39.59375 47.171875 37.8125 47.578125 
Q 36.03125 48 33.890625 48 
Q 26.265625 48 22.1875 43.046875 
Q 18.109375 38.09375 18.109375 28.8125 
L 18.109375 0 
L 9.078125 0 
L 9.078125 54.6875 
L 18.109375 54.6875 
L 18.109375 46.1875 
Q 20.953125 51.171875 25.484375 53.578125 
Q 30.03125 56 36.53125 56 
Q 37.453125 56 38.578125 55.875 
Q 39.703125 55.765625 41.0625 55.515625 
z
" id="DejaVuSans-114"/>
      <path d="M 9.421875 54.6875 
L 18.40625 54.6875 
L 18.40625 0 
L 9.421875 0 
z
M 9.421875 75.984375 
L 18.40625 75.984375 
L 18.40625 64.59375 
L 9.421875 64.59375 
z
" id="DejaVuSans-105"/>
      <path d="M 45.40625 27.984375 
Q 45.40625 37.75 41.375 43.109375 
Q 37.359375 48.484375 30.078125 48.484375 
Q 22.859375 48.484375 18.828125 43.109375 
Q 14.796875 37.75 14.796875 27.984375 
Q 14.796875 18.265625 18.828125 12.890625 
Q 22.859375 7.515625 30.078125 7.515625 
Q 37.359375 7.515625 41.375 12.890625 
Q 45.40625 18.265625 45.40625 27.984375 
z
M 54.390625 6.78125 
Q 54.390625 -7.171875 48.1875 -13.984375 
Q 42 -20.796875 29.203125 -20.796875 
Q 24.46875 -20.796875 20.265625 -20.09375 
Q 16.0625 -19.390625 12.109375 -17.921875 
L 12.109375 -9.1875 
Q 16.0625 -11.328125 19.921875 -12.34375 
Q 23.78125 -13.375 27.78125 -13.375 
Q 36.625 -13.375 41.015625 -8.765625 
Q 45.40625 -4.15625 45.40625 5.171875 
L 45.40625 9.625 
Q 42.625 4.78125 38.28125 2.390625 
Q 33.9375 0 27.875 0 
Q 17.828125 0 11.671875 7.65625 
Q 5.515625 15.328125 5.515625 27.984375 
Q 5.515625 40.671875 11.671875 48.328125 
Q 17.828125 56 27.875 56 
Q 33.9375 56 38.28125 53.609375 
Q 42.625 51.21875 45.40625 46.390625 
L 45.40625 54.6875 
L 54.390625 54.6875 
z
" id="DejaVuSans-103"/>
      <path d="M 54.890625 33.015625 
L 54.890625 0 
L 45.90625 0 
L 45.90625 32.71875 
Q 45.90625 40.484375 42.875 44.328125 
Q 39.84375 48.1875 33.796875 48.1875 
Q 26.515625 48.1875 22.3125 43.546875 
Q 18.109375 38.921875 18.109375 30.90625 
L 18.109375 0 
L 9.078125 0 
L 9.078125 54.6875 
L 18.109375 54.6875 
L 18.109375 46.1875 
Q 21.34375 51.125 25.703125 53.5625 
Q 30.078125 56 35.796875 56 
Q 45.21875 56 50.046875 50.171875 
Q 54.890625 44.34375 54.890625 33.015625 
z
" id="DejaVuSans-110"/>
      <path d="M 34.28125 27.484375 
Q 23.390625 27.484375 19.1875 25 
Q 14.984375 22.515625 14.984375 16.5 
Q 14.984375 11.71875 18.140625 8.90625 
Q 21.296875 6.109375 26.703125 6.109375 
Q 34.1875 6.109375 38.703125 11.40625 
Q 43.21875 16.703125 43.21875 25.484375 
L 43.21875 27.484375 
z
M 52.203125 31.203125 
L 52.203125 0 
L 43.21875 0 
L 43.21875 8.296875 
Q 40.140625 3.328125 35.546875 0.953125 
Q 30.953125 -1.421875 24.3125 -1.421875 
Q 15.921875 -1.421875 10.953125 3.296875 
Q 6 8.015625 6 15.921875 
Q 6 25.140625 12.171875 29.828125 
Q 18.359375 34.515625 30.609375 34.515625 
L 43.21875 34.515625 
L 43.21875 35.40625 
Q 43.21875 41.609375 39.140625 45 
Q 35.0625 48.390625 27.6875 48.390625 
Q 23 48.390625 18.546875 47.265625 
Q 14.109375 46.140625 10.015625 43.890625 
L 10.015625 52.203125 
Q 14.9375 54.109375 19.578125 55.046875 
Q 24.21875 56 28.609375 56 
Q 40.484375 56 46.34375 49.84375 
Q 52.203125 43.703125 52.203125 31.203125 
z
" id="DejaVuSans-97"/>
      <path d="M 9.421875 75.984375 
L 18.40625 75.984375 
L 18.40625 0 
L 9.421875 0 
z
" id="DejaVuSans-108"/>
      <path id="DejaVuSans-32"/>
      <path d="M 19.671875 64.796875 
L 19.671875 8.109375 
L 31.59375 8.109375 
Q 46.6875 8.109375 53.6875 14.9375 
Q 60.6875 21.78125 60.6875 36.53125 
Q 60.6875 51.171875 53.6875 57.984375 
Q 46.6875 64.796875 31.59375 64.796875 
z
M 9.8125 72.90625 
L 30.078125 72.90625 
Q 51.265625 72.90625 61.171875 64.09375 
Q 71.09375 55.28125 71.09375 36.53125 
Q 71.09375 17.671875 61.125 8.828125 
Q 51.171875 0 30.078125 0 
L 9.8125 0 
z
" id="DejaVuSans-68"/>
      <path d="M 18.3125 70.21875 
L 18.3125 54.6875 
L 36.8125 54.6875 
L 36.8125 47.703125 
L 18.3125 47.703125 
L 18.3125 18.015625 
Q 18.3125 11.328125 20.140625 9.421875 
Q 21.96875 7.515625 27.59375 7.515625 
L 36.8125 7.515625 
L 36.8125 0 
L 27.59375 0 
Q 17.1875 0 13.234375 3.875 
Q 9.28125 7.765625 9.28125 18.015625 
L 9.28125 47.703125 
L 2.6875 47.703125 
L 2.6875 54.6875 
L 9.28125 54.6875 
L 9.28125 70.21875 
z
" id="DejaVuSans-116"/>
     </defs>
     <g transform="translate(91 51.158437)scale(0.1 -0.1)">
      <use xlink:href="#DejaVuSans-79"/>
      <use x="78.710938" xlink:href="#DejaVuSans-114"/>
      <use x="119.824219" xlink:href="#DejaVuSans-105"/>
      <use x="147.607422" xlink:href="#DejaVuSans-103"/>
      <use x="211.083984" xlink:href="#DejaVuSans-105"/>
      <use x="238.867188" xlink:href="#DejaVuSans-110"/>
      <use x="302.246094" xlink:href="#DejaVuSans-97"/>
      <use x="363.525391" xlink:href="#DejaVuSans-108"/>
      <use x="391.308594" xlink:href="#DejaVuSans-32"/>
      <use x="423.095703" xlink:href="#DejaVuSans-68"/>
      <use x="500.097656" xlink:href="#DejaVuSans-97"/>
      <use x="561.376953" xlink:href="#DejaVuSans-116"/>
      <use x="600.585938" xlink:href="#DejaVuSans-97"/>
     </g>
    </g>
    <g id="line2d_22">
     <path d="M 63 62.336562 
L 83 62.336562 
" style="fill:none;stroke:#1f77b4;stroke-linecap:square;stroke-width:1.5;"/>
    </g>
    <g id="line2d_23"/>
    <g id="text_16">
     <!-- Cuadratic -->
     <defs>
      <path d="M 64.40625 67.28125 
L 64.40625 56.890625 
Q 59.421875 61.53125 53.78125 63.8125 
Q 48.140625 66.109375 41.796875 66.109375 
Q 29.296875 66.109375 22.65625 58.46875 
Q 16.015625 50.828125 16.015625 36.375 
Q 16.015625 21.96875 22.65625 14.328125 
Q 29.296875 6.6875 41.796875 6.6875 
Q 48.140625 6.6875 53.78125 8.984375 
Q 59.421875 11.28125 64.40625 15.921875 
L 64.40625 5.609375 
Q 59.234375 2.09375 53.4375 0.328125 
Q 47.65625 -1.421875 41.21875 -1.421875 
Q 24.65625 -1.421875 15.125 8.703125 
Q 5.609375 18.84375 5.609375 36.375 
Q 5.609375 53.953125 15.125 64.078125 
Q 24.65625 74.21875 41.21875 74.21875 
Q 47.75 74.21875 53.53125 72.484375 
Q 59.328125 70.75 64.40625 67.28125 
z
" id="DejaVuSans-67"/>
      <path d="M 8.5 21.578125 
L 8.5 54.6875 
L 17.484375 54.6875 
L 17.484375 21.921875 
Q 17.484375 14.15625 20.5 10.265625 
Q 23.53125 6.390625 29.59375 6.390625 
Q 36.859375 6.390625 41.078125 11.03125 
Q 45.3125 15.671875 45.3125 23.6875 
L 45.3125 54.6875 
L 54.296875 54.6875 
L 54.296875 0 
L 45.3125 0 
L 45.3125 8.40625 
Q 42.046875 3.421875 37.71875 1 
Q 33.40625 -1.421875 27.6875 -1.421875 
Q 18.265625 -1.421875 13.375 4.4375 
Q 8.5 10.296875 8.5 21.578125 
z
M 31.109375 56 
z
" id="DejaVuSans-117"/>
      <path d="M 45.40625 46.390625 
L 45.40625 75.984375 
L 54.390625 75.984375 
L 54.390625 0 
L 45.40625 0 
L 45.40625 8.203125 
Q 42.578125 3.328125 38.25 0.953125 
Q 33.9375 -1.421875 27.875 -1.421875 
Q 17.96875 -1.421875 11.734375 6.484375 
Q 5.515625 14.40625 5.515625 27.296875 
Q 5.515625 40.1875 11.734375 48.09375 
Q 17.96875 56 27.875 56 
Q 33.9375 56 38.25 53.625 
Q 42.578125 51.265625 45.40625 46.390625 
z
M 14.796875 27.296875 
Q 14.796875 17.390625 18.875 11.75 
Q 22.953125 6.109375 30.078125 6.109375 
Q 37.203125 6.109375 41.296875 11.75 
Q 45.40625 17.390625 45.40625 27.296875 
Q 45.40625 37.203125 41.296875 42.84375 
Q 37.203125 48.484375 30.078125 48.484375 
Q 22.953125 48.484375 18.875 42.84375 
Q 14.796875 37.203125 14.796875 27.296875 
z
" id="DejaVuSans-100"/>
      <path d="M 48.78125 52.59375 
L 48.78125 44.1875 
Q 44.96875 46.296875 41.140625 47.34375 
Q 37.3125 48.390625 33.40625 48.390625 
Q 24.65625 48.390625 19.8125 42.84375 
Q 14.984375 37.3125 14.984375 27.296875 
Q 14.984375 17.28125 19.8125 11.734375 
Q 24.65625 6.203125 33.40625 6.203125 
Q 37.3125 6.203125 41.140625 7.25 
Q 44.96875 8.296875 48.78125 10.40625 
L 48.78125 2.09375 
Q 45.015625 0.34375 40.984375 -0.53125 
Q 36.96875 -1.421875 32.421875 -1.421875 
Q 20.0625 -1.421875 12.78125 6.34375 
Q 5.515625 14.109375 5.515625 27.296875 
Q 5.515625 40.671875 12.859375 48.328125 
Q 20.21875 56 33.015625 56 
Q 37.15625 56 41.109375 55.140625 
Q 45.0625 54.296875 48.78125 52.59375 
z
" id="DejaVuSans-99"/>
     </defs>
     <g transform="translate(91 65.836562)scale(0.1 -0.1)">
      <use xlink:href="#DejaVuSans-67"/>
      <use x="69.824219" xlink:href="#DejaVuSans-117"/>
      <use x="133.203125" xlink:href="#DejaVuSans-97"/>
      <use x="194.482422" xlink:href="#DejaVuSans-100"/>
      <use x="257.958984" xlink:href="#DejaVuSans-114"/>
      <use x="299.072266" xlink:href="#DejaVuSans-97"/>
      <use x="360.351562" xlink:href="#DejaVuSans-116"/>
      <use x="399.560547" xlink:href="#DejaVuSans-105"/>
      <use x="427.34375" xlink:href="#DejaVuSans-99"/>
     </g>
    </g>
    <g id="line2d_24">
     <path d="M 63 77.014687 
L 83 77.014687 
" style="fill:none;stroke:#ff7f0e;stroke-linecap:square;stroke-width:1.5;"/>
    </g>
    <g id="line2d_25"/>
    <g id="text_17">
     <!-- Cubic -->
     <defs>
      <path d="M 48.6875 27.296875 
Q 48.6875 37.203125 44.609375 42.84375 
Q 40.53125 48.484375 33.40625 48.484375 
Q 26.265625 48.484375 22.1875 42.84375 
Q 18.109375 37.203125 18.109375 27.296875 
Q 18.109375 17.390625 22.1875 11.75 
Q 26.265625 6.109375 33.40625 6.109375 
Q 40.53125 6.109375 44.609375 11.75 
Q 48.6875 17.390625 48.6875 27.296875 
z
M 18.109375 46.390625 
Q 20.953125 51.265625 25.265625 53.625 
Q 29.59375 56 35.59375 56 
Q 45.5625 56 51.78125 48.09375 
Q 58.015625 40.1875 58.015625 27.296875 
Q 58.015625 14.40625 51.78125 6.484375 
Q 45.5625 -1.421875 35.59375 -1.421875 
Q 29.59375 -1.421875 25.265625 0.953125 
Q 20.953125 3.328125 18.109375 8.203125 
L 18.109375 0 
L 9.078125 0 
L 9.078125 75.984375 
L 18.109375 75.984375 
z
" id="DejaVuSans-98"/>
     </defs>
     <g transform="translate(91 80.514687)scale(0.1 -0.1)">
      <use xlink:href="#DejaVuSans-67"/>
      <use x="69.824219" xlink:href="#DejaVuSans-117"/>
      <use x="133.203125" xlink:href="#DejaVuSans-98"/>
      <use x="196.679688" xlink:href="#DejaVuSans-105"/>
      <use x="224.462891" xlink:href="#DejaVuSans-99"/>
     </g>
    </g>
    <g id="line2d_26">
     <path d="M 63 91.692813 
L 83 91.692813 
" style="fill:none;stroke:#2ca02c;stroke-linecap:square;stroke-width:1.5;"/>
    </g>
    <g id="line2d_27"/>
    <g id="text_18">
     <!-- Fourth -->
     <defs>
      <path d="M 9.8125 72.90625 
L 51.703125 72.90625 
L 51.703125 64.59375 
L 19.671875 64.59375 
L 19.671875 43.109375 
L 48.578125 43.109375 
L 48.578125 34.8125 
L 19.671875 34.8125 
L 19.671875 0 
L 9.8125 0 
z
" id="DejaVuSans-70"/>
      <path d="M 30.609375 48.390625 
Q 23.390625 48.390625 19.1875 42.75 
Q 14.984375 37.109375 14.984375 27.296875 
Q 14.984375 17.484375 19.15625 11.84375 
Q 23.34375 6.203125 30.609375 6.203125 
Q 37.796875 6.203125 41.984375 11.859375 
Q 46.1875 17.53125 46.1875 27.296875 
Q 46.1875 37.015625 41.984375 42.703125 
Q 37.796875 48.390625 30.609375 48.390625 
z
M 30.609375 56 
Q 42.328125 56 49.015625 48.375 
Q 55.71875 40.765625 55.71875 27.296875 
Q 55.71875 13.875 49.015625 6.21875 
Q 42.328125 -1.421875 30.609375 -1.421875 
Q 18.84375 -1.421875 12.171875 6.21875 
Q 5.515625 13.875 5.515625 27.296875 
Q 5.515625 40.765625 12.171875 48.375 
Q 18.84375 56 30.609375 56 
z
" id="DejaVuSans-111"/>
      <path d="M 54.890625 33.015625 
L 54.890625 0 
L 45.90625 0 
L 45.90625 32.71875 
Q 45.90625 40.484375 42.875 44.328125 
Q 39.84375 48.1875 33.796875 48.1875 
Q 26.515625 48.1875 22.3125 43.546875 
Q 18.109375 38.921875 18.109375 30.90625 
L 18.109375 0 
L 9.078125 0 
L 9.078125 75.984375 
L 18.109375 75.984375 
L 18.109375 46.1875 
Q 21.34375 51.125 25.703125 53.5625 
Q 30.078125 56 35.796875 56 
Q 45.21875 56 50.046875 50.171875 
Q 54.890625 44.34375 54.890625 33.015625 
z
" id="DejaVuSans-104"/>
     </defs>
     <g transform="translate(91 95.192813)scale(0.1 -0.1)">
      <use xlink:href="#DejaVuSans-70"/>
      <use x="57.472656" xlink:href="#DejaVuSans-111"/>
      <use x="118.654297" xlink:href="#DejaVuSans-117"/>
      <use x="182.033203" xlink:href="#DejaVuSans-114"/>
      <use x="223.146484" xlink:href="#DejaVuSans-116"/>
      <use x="262.355469" xlink:href="#DejaVuSans-104"/>
     </g>
    </g>
    <g id="line2d_28">
     <path d="M 63 106.370937 
L 83 106.370937 
" style="fill:none;stroke:#d62728;stroke-linecap:square;stroke-width:1.5;"/>
    </g>
    <g id="line2d_29"/>
    <g id="text_19">
     <!-- Exp -->
     <defs>
      <path d="M 9.8125 72.90625 
L 55.90625 72.90625 
L 55.90625 64.59375 
L 19.671875 64.59375 
L 19.671875 43.015625 
L 54.390625 43.015625 
L 54.390625 34.71875 
L 19.671875 34.71875 
L 19.671875 8.296875 
L 56.78125 8.296875 
L 56.78125 0 
L 9.8125 0 
z
" id="DejaVuSans-69"/>
      <path d="M 54.890625 54.6875 
L 35.109375 28.078125 
L 55.90625 0 
L 45.3125 0 
L 29.390625 21.484375 
L 13.484375 0 
L 2.875 0 
L 24.125 28.609375 
L 4.6875 54.6875 
L 15.28125 54.6875 
L 29.78125 35.203125 
L 44.28125 54.6875 
z
" id="DejaVuSans-120"/>
      <path d="M 18.109375 8.203125 
L 18.109375 -20.796875 
L 9.078125 -20.796875 
L 9.078125 54.6875 
L 18.109375 54.6875 
L 18.109375 46.390625 
Q 20.953125 51.265625 25.265625 53.625 
Q 29.59375 56 35.59375 56 
Q 45.5625 56 51.78125 48.09375 
Q 58.015625 40.1875 58.015625 27.296875 
Q 58.015625 14.40625 51.78125 6.484375 
Q 45.5625 -1.421875 35.59375 -1.421875 
Q 29.59375 -1.421875 25.265625 0.953125 
Q 20.953125 3.328125 18.109375 8.203125 
z
M 48.6875 27.296875 
Q 48.6875 37.203125 44.609375 42.84375 
Q 40.53125 48.484375 33.40625 48.484375 
Q 26.265625 48.484375 22.1875 42.84375 
Q 18.109375 37.203125 18.109375 27.296875 
Q 18.109375 17.390625 22.1875 11.75 
Q 26.265625 6.109375 33.40625 6.109375 
Q 40.53125 6.109375 44.609375 11.75 
Q 48.6875 17.390625 48.6875 27.296875 
z
" id="DejaVuSans-112"/>
     </defs>
     <g transform="translate(91 109.870937)scale(0.1 -0.1)">
      <use xlink:href="#DejaVuSans-69"/>
      <use x="63.183594" xlink:href="#DejaVuSans-120"/>
      <use x="122.363281" xlink:href="#DejaVuSans-112"/>
     </g>
    </g>
   </g>
  </g>
 </g>
 <defs>
  <clipPath id="pa96b1dbd78">
   <rect height="217.44" width="334.8" x="54" y="34.56"/>
  </clipPath>
 </defs>
</svg>
