<?xml version="1.0" encoding="utf-8" standalone="no"?>
<!DOCTYPE svg PUBLIC "-//W3C//DTD SVG 1.1//EN"
  "http://www.w3.org/Graphics/SVG/1.1/DTD/svg11.dtd">
<!-- Created with matplotlib (https://matplotlib.org/) -->
<svg height="288pt" version="1.1" viewBox="0 0 432 288" width="432pt" xmlns="http://www.w3.org/2000/svg" xmlns:xlink="http://www.w3.org/1999/xlink">
 <defs>
  <style type="text/css">
*{stroke-linecap:butt;stroke-linejoin:round;}
  </style>
 </defs>
 <g id="figure_1">
  <g id="patch_1">
   <path d="M 0 288 
L 432 288 
L 432 0 
L 0 0 
z
" style="fill:#ffffff;"/>
  </g>
  <g id="axes_1">
   <g id="patch_2">
    <path d="M 54 252 
L 388.8 252 
L 388.8 34.56 
L 54 34.56 
z
" style="fill:#ffffff;"/>
   </g>
   <g id="matplotlib.axis_1">
    <g id="xtick_1">
     <g id="line2d_1">
      <defs>
       <path d="M 0 0 
L 0 3.5 
" id="m82de868161" style="stroke:#000000;stroke-width:0.8;"/>
      </defs>
      <g>
       <use style="stroke:#000000;stroke-width:0.8;" x="68.913514" xlink:href="#m82de868161" y="252"/>
      </g>
     </g>
     <g id="text_1">
      <!-- 0 -->
      <defs>
       <path d="M 31.78125 66.40625 
Q 24.171875 66.40625 20.328125 58.90625 
Q 16.5 51.421875 16.5 36.375 
Q 16.5 21.390625 20.328125 13.890625 
Q 24.171875 6.390625 31.78125 6.390625 
Q 39.453125 6.390625 43.28125 13.890625 
Q 47.125 21.390625 47.125 36.375 
Q 47.125 51.421875 43.28125 58.90625 
Q 39.453125 66.40625 31.78125 66.40625 
z
M 31.78125 74.21875 
Q 44.046875 74.21875 50.515625 64.515625 
Q 56.984375 54.828125 56.984375 36.375 
Q 56.984375 17.96875 50.515625 8.265625 
Q 44.046875 -1.421875 31.78125 -1.421875 
Q 19.53125 -1.421875 13.0625 8.265625 
Q 6.59375 17.96875 6.59375 36.375 
Q 6.59375 54.828125 13.0625 64.515625 
Q 19.53125 74.21875 31.78125 74.21875 
z
" id="DejaVuSans-48"/>
      </defs>
      <g transform="translate(65.732264 266.598437)scale(0.1 -0.1)">
       <use xlink:href="#DejaVuSans-48"/>
      </g>
     </g>
    </g>
    <g id="xtick_2">
     <g id="line2d_2">
      <g>
       <use style="stroke:#000000;stroke-width:0.8;" x="129.847174" xlink:href="#m82de868161" y="252"/>
      </g>
     </g>
     <g id="text_2">
      <!-- 200 -->
      <defs>
       <path d="M 19.1875 8.296875 
L 53.609375 8.296875 
L 53.609375 0 
L 7.328125 0 
L 7.328125 8.296875 
Q 12.9375 14.109375 22.625 23.890625 
Q 32.328125 33.6875 34.8125 36.53125 
Q 39.546875 41.84375 41.421875 45.53125 
Q 43.3125 49.21875 43.3125 52.78125 
Q 43.3125 58.59375 39.234375 62.25 
Q 35.15625 65.921875 28.609375 65.921875 
Q 23.96875 65.921875 18.8125 64.3125 
Q 13.671875 62.703125 7.8125 59.421875 
L 7.8125 69.390625 
Q 13.765625 71.78125 18.9375 73 
Q 24.125 74.21875 28.421875 74.21875 
Q 39.75 74.21875 46.484375 68.546875 
Q 53.21875 62.890625 53.21875 53.421875 
Q 53.21875 48.921875 51.53125 44.890625 
Q 49.859375 40.875 45.40625 35.40625 
Q 44.1875 33.984375 37.640625 27.21875 
Q 31.109375 20.453125 19.1875 8.296875 
z
" id="DejaVuSans-50"/>
      </defs>
      <g transform="translate(120.303424 266.598437)scale(0.1 -0.1)">
       <use xlink:href="#DejaVuSans-50"/>
       <use x="63.623047" xlink:href="#DejaVuSans-48"/>
       <use x="127.246094" xlink:href="#DejaVuSans-48"/>
      </g>
     </g>
    </g>
    <g id="xtick_3">
     <g id="line2d_3">
      <g>
       <use style="stroke:#000000;stroke-width:0.8;" x="190.780835" xlink:href="#m82de868161" y="252"/>
      </g>
     </g>
     <g id="text_3">
      <!-- 400 -->
      <defs>
       <path d="M 37.796875 64.3125 
L 12.890625 25.390625 
L 37.796875 25.390625 
z
M 35.203125 72.90625 
L 47.609375 72.90625 
L 47.609375 25.390625 
L 58.015625 25.390625 
L 58.015625 17.1875 
L 47.609375 17.1875 
L 47.609375 0 
L 37.796875 0 
L 37.796875 17.1875 
L 4.890625 17.1875 
L 4.890625 26.703125 
z
" id="DejaVuSans-52"/>
      </defs>
      <g transform="translate(181.237085 266.598437)scale(0.1 -0.1)">
       <use xlink:href="#DejaVuSans-52"/>
       <use x="63.623047" xlink:href="#DejaVuSans-48"/>
       <use x="127.246094" xlink:href="#DejaVuSans-48"/>
      </g>
     </g>
    </g>
    <g id="xtick_4">
     <g id="line2d_4">
      <g>
       <use style="stroke:#000000;stroke-width:0.8;" x="251.714496" xlink:href="#m82de868161" y="252"/>
      </g>
     </g>
     <g id="text_4">
      <!-- 600 -->
      <defs>
       <path d="M 33.015625 40.375 
Q 26.375 40.375 22.484375 35.828125 
Q 18.609375 31.296875 18.609375 23.390625 
Q 18.609375 15.53125 22.484375 10.953125 
Q 26.375 6.390625 33.015625 6.390625 
Q 39.65625 6.390625 43.53125 10.953125 
Q 47.40625 15.53125 47.40625 23.390625 
Q 47.40625 31.296875 43.53125 35.828125 
Q 39.65625 40.375 33.015625 40.375 
z
M 52.59375 71.296875 
L 52.59375 62.3125 
Q 48.875 64.0625 45.09375 64.984375 
Q 41.3125 65.921875 37.59375 65.921875 
Q 27.828125 65.921875 22.671875 59.328125 
Q 17.53125 52.734375 16.796875 39.40625 
Q 19.671875 43.65625 24.015625 45.921875 
Q 28.375 48.1875 33.59375 48.1875 
Q 44.578125 48.1875 50.953125 41.515625 
Q 57.328125 34.859375 57.328125 23.390625 
Q 57.328125 12.15625 50.6875 5.359375 
Q 44.046875 -1.421875 33.015625 -1.421875 
Q 20.359375 -1.421875 13.671875 8.265625 
Q 6.984375 17.96875 6.984375 36.375 
Q 6.984375 53.65625 15.1875 63.9375 
Q 23.390625 74.21875 37.203125 74.21875 
Q 40.921875 74.21875 44.703125 73.484375 
Q 48.484375 72.75 52.59375 71.296875 
z
" id="DejaVuSans-54"/>
      </defs>
      <g transform="translate(242.170746 266.598437)scale(0.1 -0.1)">
       <use xlink:href="#DejaVuSans-54"/>
       <use x="63.623047" xlink:href="#DejaVuSans-48"/>
       <use x="127.246094" xlink:href="#DejaVuSans-48"/>
      </g>
     </g>
    </g>
    <g id="xtick_5">
     <g id="line2d_5">
      <g>
       <use style="stroke:#000000;stroke-width:0.8;" x="312.648157" xlink:href="#m82de868161" y="252"/>
      </g>
     </g>
     <g id="text_5">
      <!-- 800 -->
      <defs>
       <path d="M 31.78125 34.625 
Q 24.75 34.625 20.71875 30.859375 
Q 16.703125 27.09375 16.703125 20.515625 
Q 16.703125 13.921875 20.71875 10.15625 
Q 24.75 6.390625 31.78125 6.390625 
Q 38.8125 6.390625 42.859375 10.171875 
Q 46.921875 13.96875 46.921875 20.515625 
Q 46.921875 27.09375 42.890625 30.859375 
Q 38.875 34.625 31.78125 34.625 
z
M 21.921875 38.8125 
Q 15.578125 40.375 12.03125 44.71875 
Q 8.5 49.078125 8.5 55.328125 
Q 8.5 64.0625 14.71875 69.140625 
Q 20.953125 74.21875 31.78125 74.21875 
Q 42.671875 74.21875 48.875 69.140625 
Q 55.078125 64.0625 55.078125 55.328125 
Q 55.078125 49.078125 51.53125 44.71875 
Q 48 40.375 41.703125 38.8125 
Q 48.828125 37.15625 52.796875 32.3125 
Q 56.78125 27.484375 56.78125 20.515625 
Q 56.78125 9.90625 50.3125 4.234375 
Q 43.84375 -1.421875 31.78125 -1.421875 
Q 19.734375 -1.421875 13.25 4.234375 
Q 6.78125 9.90625 6.78125 20.515625 
Q 6.78125 27.484375 10.78125 32.3125 
Q 14.796875 37.15625 21.921875 38.8125 
z
M 18.3125 54.390625 
Q 18.3125 48.734375 21.84375 45.5625 
Q 25.390625 42.390625 31.78125 42.390625 
Q 38.140625 42.390625 41.71875 45.5625 
Q 45.3125 48.734375 45.3125 54.390625 
Q 45.3125 60.0625 41.71875 63.234375 
Q 38.140625 66.40625 31.78125 66.40625 
Q 25.390625 66.40625 21.84375 63.234375 
Q 18.3125 60.0625 18.3125 54.390625 
z
" id="DejaVuSans-56"/>
      </defs>
      <g transform="translate(303.104407 266.598437)scale(0.1 -0.1)">
       <use xlink:href="#DejaVuSans-56"/>
       <use x="63.623047" xlink:href="#DejaVuSans-48"/>
       <use x="127.246094" xlink:href="#DejaVuSans-48"/>
      </g>
     </g>
    </g>
    <g id="xtick_6">
     <g id="line2d_6">
      <g>
       <use style="stroke:#000000;stroke-width:0.8;" x="373.581818" xlink:href="#m82de868161" y="252"/>
      </g>
     </g>
     <g id="text_6">
      <!-- 1000 -->
      <defs>
       <path d="M 12.40625 8.296875 
L 28.515625 8.296875 
L 28.515625 63.921875 
L 10.984375 60.40625 
L 10.984375 69.390625 
L 28.421875 72.90625 
L 38.28125 72.90625 
L 38.28125 8.296875 
L 54.390625 8.296875 
L 54.390625 0 
L 12.40625 0 
z
" id="DejaVuSans-49"/>
      </defs>
      <g transform="translate(360.856818 266.598437)scale(0.1 -0.1)">
       <use xlink:href="#DejaVuSans-49"/>
       <use x="63.623047" xlink:href="#DejaVuSans-48"/>
       <use x="127.246094" xlink:href="#DejaVuSans-48"/>
       <use x="190.869141" xlink:href="#DejaVuSans-48"/>
      </g>
     </g>
    </g>
   </g>
   <g id="matplotlib.axis_2">
    <g id="ytick_1">
     <g id="line2d_7">
      <defs>
       <path d="M 0 0 
L -3.5 0 
" id="m8f2329242c" style="stroke:#000000;stroke-width:0.8;"/>
      </defs>
      <g>
       <use style="stroke:#000000;stroke-width:0.8;" x="54" xlink:href="#m8f2329242c" y="241.953397"/>
      </g>
     </g>
     <g id="text_7">
      <!-- 0 -->
      <g transform="translate(40.6375 245.752616)scale(0.1 -0.1)">
       <use xlink:href="#DejaVuSans-48"/>
      </g>
     </g>
    </g>
    <g id="ytick_2">
     <g id="line2d_8">
      <g>
       <use style="stroke:#000000;stroke-width:0.8;" x="54" xlink:href="#m8f2329242c" y="211.059822"/>
      </g>
     </g>
     <g id="text_8">
      <!-- 100 -->
      <g transform="translate(27.9125 214.859041)scale(0.1 -0.1)">
       <use xlink:href="#DejaVuSans-49"/>
       <use x="63.623047" xlink:href="#DejaVuSans-48"/>
       <use x="127.246094" xlink:href="#DejaVuSans-48"/>
      </g>
     </g>
    </g>
    <g id="ytick_3">
     <g id="line2d_9">
      <g>
       <use style="stroke:#000000;stroke-width:0.8;" x="54" xlink:href="#m8f2329242c" y="180.166247"/>
      </g>
     </g>
     <g id="text_9">
      <!-- 200 -->
      <g transform="translate(27.9125 183.965466)scale(0.1 -0.1)">
       <use xlink:href="#DejaVuSans-50"/>
       <use x="63.623047" xlink:href="#DejaVuSans-48"/>
       <use x="127.246094" xlink:href="#DejaVuSans-48"/>
      </g>
     </g>
    </g>
    <g id="ytick_4">
     <g id="line2d_10">
      <g>
       <use style="stroke:#000000;stroke-width:0.8;" x="54" xlink:href="#m8f2329242c" y="149.272672"/>
      </g>
     </g>
     <g id="text_10">
      <!-- 300 -->
      <defs>
       <path d="M 40.578125 39.3125 
Q 47.65625 37.796875 51.625 33 
Q 55.609375 28.21875 55.609375 21.1875 
Q 55.609375 10.40625 48.1875 4.484375 
Q 40.765625 -1.421875 27.09375 -1.421875 
Q 22.515625 -1.421875 17.65625 -0.515625 
Q 12.796875 0.390625 7.625 2.203125 
L 7.625 11.71875 
Q 11.71875 9.328125 16.59375 8.109375 
Q 21.484375 6.890625 26.8125 6.890625 
Q 36.078125 6.890625 40.9375 10.546875 
Q 45.796875 14.203125 45.796875 21.1875 
Q 45.796875 27.640625 41.28125 31.265625 
Q 36.765625 34.90625 28.71875 34.90625 
L 20.21875 34.90625 
L 20.21875 43.015625 
L 29.109375 43.015625 
Q 36.375 43.015625 40.234375 45.921875 
Q 44.09375 48.828125 44.09375 54.296875 
Q 44.09375 59.90625 40.109375 62.90625 
Q 36.140625 65.921875 28.71875 65.921875 
Q 24.65625 65.921875 20.015625 65.03125 
Q 15.375 64.15625 9.8125 62.3125 
L 9.8125 71.09375 
Q 15.4375 72.65625 20.34375 73.4375 
Q 25.25 74.21875 29.59375 74.21875 
Q 40.828125 74.21875 47.359375 69.109375 
Q 53.90625 64.015625 53.90625 55.328125 
Q 53.90625 49.265625 50.4375 45.09375 
Q 46.96875 40.921875 40.578125 39.3125 
z
" id="DejaVuSans-51"/>
      </defs>
      <g transform="translate(27.9125 153.071891)scale(0.1 -0.1)">
       <use xlink:href="#DejaVuSans-51"/>
       <use x="63.623047" xlink:href="#DejaVuSans-48"/>
       <use x="127.246094" xlink:href="#DejaVuSans-48"/>
      </g>
     </g>
    </g>
    <g id="ytick_5">
     <g id="line2d_11">
      <g>
       <use style="stroke:#000000;stroke-width:0.8;" x="54" xlink:href="#m8f2329242c" y="118.379097"/>
      </g>
     </g>
     <g id="text_11">
      <!-- 400 -->
      <g transform="translate(27.9125 122.178316)scale(0.1 -0.1)">
       <use xlink:href="#DejaVuSans-52"/>
       <use x="63.623047" xlink:href="#DejaVuSans-48"/>
       <use x="127.246094" xlink:href="#DejaVuSans-48"/>
      </g>
     </g>
    </g>
    <g id="ytick_6">
     <g id="line2d_12">
      <g>
       <use style="stroke:#000000;stroke-width:0.8;" x="54" xlink:href="#m8f2329242c" y="87.485522"/>
      </g>
     </g>
     <g id="text_12">
      <!-- 500 -->
      <defs>
       <path d="M 10.796875 72.90625 
L 49.515625 72.90625 
L 49.515625 64.59375 
L 19.828125 64.59375 
L 19.828125 46.734375 
Q 21.96875 47.46875 24.109375 47.828125 
Q 26.265625 48.1875 28.421875 48.1875 
Q 40.625 48.1875 47.75 41.5 
Q 54.890625 34.8125 54.890625 23.390625 
Q 54.890625 11.625 47.5625 5.09375 
Q 40.234375 -1.421875 26.90625 -1.421875 
Q 22.3125 -1.421875 17.546875 -0.640625 
Q 12.796875 0.140625 7.71875 1.703125 
L 7.71875 11.625 
Q 12.109375 9.234375 16.796875 8.0625 
Q 21.484375 6.890625 26.703125 6.890625 
Q 35.15625 6.890625 40.078125 11.328125 
Q 45.015625 15.765625 45.015625 23.390625 
Q 45.015625 31 40.078125 35.4375 
Q 35.15625 39.890625 26.703125 39.890625 
Q 22.75 39.890625 18.8125 39.015625 
Q 14.890625 38.140625 10.796875 36.28125 
z
" id="DejaVuSans-53"/>
      </defs>
      <g transform="translate(27.9125 91.284741)scale(0.1 -0.1)">
       <use xlink:href="#DejaVuSans-53"/>
       <use x="63.623047" xlink:href="#DejaVuSans-48"/>
       <use x="127.246094" xlink:href="#DejaVuSans-48"/>
      </g>
     </g>
    </g>
    <g id="ytick_7">
     <g id="line2d_13">
      <g>
       <use style="stroke:#000000;stroke-width:0.8;" x="54" xlink:href="#m8f2329242c" y="56.591947"/>
      </g>
     </g>
     <g id="text_13">
      <!-- 600 -->
      <g transform="translate(27.9125 60.391166)scale(0.1 -0.1)">
       <use xlink:href="#DejaVuSans-54"/>
       <use x="63.623047" xlink:href="#DejaVuSans-48"/>
       <use x="127.246094" xlink:href="#DejaVuSans-48"/>
      </g>
     </g>
    </g>
   </g>
   <g id="line2d_14">
    <defs>
     <path d="M 0 3 
C 0.795609 3 1.55874 2.683901 2.12132 2.12132 
C 2.683901 1.55874 3 0.795609 3 0 
C 3 -0.795609 2.683901 -1.55874 2.12132 -2.12132 
C 1.55874 -2.683901 0.795609 -3 0 -3 
C -0.795609 -3 -1.55874 -2.683901 -2.12132 -2.12132 
C -2.683901 -1.55874 -3 -0.795609 -3 0 
C -3 0.795609 -2.683901 1.55874 -2.12132 2.12132 
C -1.55874 2.683901 -0.795609 3 0 3 
z
" id="m9deb9efca0" style="stroke:#ff0000;"/>
    </defs>
    <g clip-path="url(#pb3cac36979)">
     <use style="fill:#ff0000;stroke:#ff0000;" x="69.218182" xlink:href="#m9deb9efca0" y="241.928201"/>
     <use style="fill:#ff0000;stroke:#ff0000;" x="69.52285" xlink:href="#m9deb9efca0" y="241.944449"/>
     <use style="fill:#ff0000;stroke:#ff0000;" x="69.827518" xlink:href="#m9deb9efca0" y="241.943846"/>
     <use style="fill:#ff0000;stroke:#ff0000;" x="70.132187" xlink:href="#m9deb9efca0" y="241.943637"/>
     <use style="fill:#ff0000;stroke:#ff0000;" x="70.436855" xlink:href="#m9deb9efca0" y="241.942541"/>
     <use style="fill:#ff0000;stroke:#ff0000;" x="70.741523" xlink:href="#m9deb9efca0" y="241.942777"/>
     <use style="fill:#ff0000;stroke:#ff0000;" x="71.046192" xlink:href="#m9deb9efca0" y="241.942224"/>
     <use style="fill:#ff0000;stroke:#ff0000;" x="71.35086" xlink:href="#m9deb9efca0" y="241.942004"/>
     <use style="fill:#ff0000;stroke:#ff0000;" x="71.655528" xlink:href="#m9deb9efca0" y="241.941198"/>
     <use style="fill:#ff0000;stroke:#ff0000;" x="71.960197" xlink:href="#m9deb9efca0" y="241.940738"/>
     <use style="fill:#ff0000;stroke:#ff0000;" x="72.264865" xlink:href="#m9deb9efca0" y="241.940021"/>
     <use style="fill:#ff0000;stroke:#ff0000;" x="72.569533" xlink:href="#m9deb9efca0" y="241.93923"/>
     <use style="fill:#ff0000;stroke:#ff0000;" x="72.874201" xlink:href="#m9deb9efca0" y="241.938184"/>
     <use style="fill:#ff0000;stroke:#ff0000;" x="73.17887" xlink:href="#m9deb9efca0" y="241.937792"/>
     <use style="fill:#ff0000;stroke:#ff0000;" x="73.483538" xlink:href="#m9deb9efca0" y="241.937073"/>
     <use style="fill:#ff0000;stroke:#ff0000;" x="73.788206" xlink:href="#m9deb9efca0" y="241.936285"/>
     <use style="fill:#ff0000;stroke:#ff0000;" x="74.092875" xlink:href="#m9deb9efca0" y="241.935327"/>
     <use style="fill:#ff0000;stroke:#ff0000;" x="74.397543" xlink:href="#m9deb9efca0" y="241.934189"/>
     <use style="fill:#ff0000;stroke:#ff0000;" x="74.702211" xlink:href="#m9deb9efca0" y="241.933183"/>
     <use style="fill:#ff0000;stroke:#ff0000;" x="75.00688" xlink:href="#m9deb9efca0" y="241.931959"/>
     <use style="fill:#ff0000;stroke:#ff0000;" x="75.311548" xlink:href="#m9deb9efca0" y="241.930341"/>
     <use style="fill:#ff0000;stroke:#ff0000;" x="75.616216" xlink:href="#m9deb9efca0" y="241.929064"/>
     <use style="fill:#ff0000;stroke:#ff0000;" x="75.920885" xlink:href="#m9deb9efca0" y="241.927893"/>
     <use style="fill:#ff0000;stroke:#ff0000;" x="76.225553" xlink:href="#m9deb9efca0" y="241.925535"/>
     <use style="fill:#ff0000;stroke:#ff0000;" x="76.530221" xlink:href="#m9deb9efca0" y="241.924855"/>
     <use style="fill:#ff0000;stroke:#ff0000;" x="76.834889" xlink:href="#m9deb9efca0" y="241.923436"/>
     <use style="fill:#ff0000;stroke:#ff0000;" x="77.139558" xlink:href="#m9deb9efca0" y="241.92155"/>
     <use style="fill:#ff0000;stroke:#ff0000;" x="77.444226" xlink:href="#m9deb9efca0" y="241.919943"/>
     <use style="fill:#ff0000;stroke:#ff0000;" x="77.748894" xlink:href="#m9deb9efca0" y="241.91792"/>
     <use style="fill:#ff0000;stroke:#ff0000;" x="78.053563" xlink:href="#m9deb9efca0" y="241.916686"/>
     <use style="fill:#ff0000;stroke:#ff0000;" x="78.358231" xlink:href="#m9deb9efca0" y="241.914676"/>
     <use style="fill:#ff0000;stroke:#ff0000;" x="78.662899" xlink:href="#m9deb9efca0" y="241.912709"/>
     <use style="fill:#ff0000;stroke:#ff0000;" x="78.967568" xlink:href="#m9deb9efca0" y="241.910499"/>
     <use style="fill:#ff0000;stroke:#ff0000;" x="79.272236" xlink:href="#m9deb9efca0" y="241.909459"/>
     <use style="fill:#ff0000;stroke:#ff0000;" x="79.576904" xlink:href="#m9deb9efca0" y="241.906871"/>
     <use style="fill:#ff0000;stroke:#ff0000;" x="79.881572" xlink:href="#m9deb9efca0" y="241.904097"/>
     <use style="fill:#ff0000;stroke:#ff0000;" x="80.186241" xlink:href="#m9deb9efca0" y="241.902489"/>
     <use style="fill:#ff0000;stroke:#ff0000;" x="80.490909" xlink:href="#m9deb9efca0" y="241.900624"/>
     <use style="fill:#ff0000;stroke:#ff0000;" x="80.795577" xlink:href="#m9deb9efca0" y="241.898126"/>
     <use style="fill:#ff0000;stroke:#ff0000;" x="81.100246" xlink:href="#m9deb9efca0" y="241.89646"/>
     <use style="fill:#ff0000;stroke:#ff0000;" x="81.404914" xlink:href="#m9deb9efca0" y="241.893143"/>
     <use style="fill:#ff0000;stroke:#ff0000;" x="81.709582" xlink:href="#m9deb9efca0" y="241.890517"/>
     <use style="fill:#ff0000;stroke:#ff0000;" x="82.014251" xlink:href="#m9deb9efca0" y="241.888468"/>
     <use style="fill:#ff0000;stroke:#ff0000;" x="82.318919" xlink:href="#m9deb9efca0" y="241.886155"/>
     <use style="fill:#ff0000;stroke:#ff0000;" x="82.623587" xlink:href="#m9deb9efca0" y="241.883632"/>
     <use style="fill:#ff0000;stroke:#ff0000;" x="82.928256" xlink:href="#m9deb9efca0" y="241.880293"/>
     <use style="fill:#ff0000;stroke:#ff0000;" x="83.232924" xlink:href="#m9deb9efca0" y="241.876747"/>
     <use style="fill:#ff0000;stroke:#ff0000;" x="83.537592" xlink:href="#m9deb9efca0" y="241.874019"/>
     <use style="fill:#ff0000;stroke:#ff0000;" x="83.84226" xlink:href="#m9deb9efca0" y="241.871547"/>
     <use style="fill:#ff0000;stroke:#ff0000;" x="84.146929" xlink:href="#m9deb9efca0" y="241.867463"/>
     <use style="fill:#ff0000;stroke:#ff0000;" x="84.451597" xlink:href="#m9deb9efca0" y="241.862806"/>
     <use style="fill:#ff0000;stroke:#ff0000;" x="84.756265" xlink:href="#m9deb9efca0" y="241.861619"/>
     <use style="fill:#ff0000;stroke:#ff0000;" x="85.060934" xlink:href="#m9deb9efca0" y="241.858307"/>
     <use style="fill:#ff0000;stroke:#ff0000;" x="85.365602" xlink:href="#m9deb9efca0" y="241.854806"/>
     <use style="fill:#ff0000;stroke:#ff0000;" x="85.67027" xlink:href="#m9deb9efca0" y="241.851521"/>
     <use style="fill:#ff0000;stroke:#ff0000;" x="85.974939" xlink:href="#m9deb9efca0" y="241.847172"/>
     <use style="fill:#ff0000;stroke:#ff0000;" x="86.279607" xlink:href="#m9deb9efca0" y="241.841826"/>
     <use style="fill:#ff0000;stroke:#ff0000;" x="86.584275" xlink:href="#m9deb9efca0" y="241.839319"/>
     <use style="fill:#ff0000;stroke:#ff0000;" x="86.888943" xlink:href="#m9deb9efca0" y="241.834382"/>
     <use style="fill:#ff0000;stroke:#ff0000;" x="87.193612" xlink:href="#m9deb9efca0" y="241.83041"/>
     <use style="fill:#ff0000;stroke:#ff0000;" x="87.49828" xlink:href="#m9deb9efca0" y="241.826353"/>
     <use style="fill:#ff0000;stroke:#ff0000;" x="87.802948" xlink:href="#m9deb9efca0" y="241.821626"/>
     <use style="fill:#ff0000;stroke:#ff0000;" x="88.107617" xlink:href="#m9deb9efca0" y="241.818333"/>
     <use style="fill:#ff0000;stroke:#ff0000;" x="88.412285" xlink:href="#m9deb9efca0" y="241.813204"/>
     <use style="fill:#ff0000;stroke:#ff0000;" x="88.716953" xlink:href="#m9deb9efca0" y="241.809522"/>
     <use style="fill:#ff0000;stroke:#ff0000;" x="89.021622" xlink:href="#m9deb9efca0" y="241.80465"/>
     <use style="fill:#ff0000;stroke:#ff0000;" x="89.32629" xlink:href="#m9deb9efca0" y="241.800778"/>
     <use style="fill:#ff0000;stroke:#ff0000;" x="89.630958" xlink:href="#m9deb9efca0" y="241.796333"/>
     <use style="fill:#ff0000;stroke:#ff0000;" x="89.935627" xlink:href="#m9deb9efca0" y="241.791804"/>
     <use style="fill:#ff0000;stroke:#ff0000;" x="90.240295" xlink:href="#m9deb9efca0" y="241.785863"/>
     <use style="fill:#ff0000;stroke:#ff0000;" x="90.544963" xlink:href="#m9deb9efca0" y="241.781438"/>
     <use style="fill:#ff0000;stroke:#ff0000;" x="90.849631" xlink:href="#m9deb9efca0" y="241.774597"/>
     <use style="fill:#ff0000;stroke:#ff0000;" x="91.1543" xlink:href="#m9deb9efca0" y="241.771844"/>
     <use style="fill:#ff0000;stroke:#ff0000;" x="91.458968" xlink:href="#m9deb9efca0" y="241.766915"/>
     <use style="fill:#ff0000;stroke:#ff0000;" x="91.763636" xlink:href="#m9deb9efca0" y="241.761461"/>
     <use style="fill:#ff0000;stroke:#ff0000;" x="92.068305" xlink:href="#m9deb9efca0" y="241.755828"/>
     <use style="fill:#ff0000;stroke:#ff0000;" x="92.372973" xlink:href="#m9deb9efca0" y="241.749675"/>
     <use style="fill:#ff0000;stroke:#ff0000;" x="92.677641" xlink:href="#m9deb9efca0" y="241.745256"/>
     <use style="fill:#ff0000;stroke:#ff0000;" x="92.98231" xlink:href="#m9deb9efca0" y="241.739661"/>
     <use style="fill:#ff0000;stroke:#ff0000;" x="93.286978" xlink:href="#m9deb9efca0" y="241.732698"/>
     <use style="fill:#ff0000;stroke:#ff0000;" x="93.591646" xlink:href="#m9deb9efca0" y="241.726447"/>
     <use style="fill:#ff0000;stroke:#ff0000;" x="93.896314" xlink:href="#m9deb9efca0" y="241.722747"/>
     <use style="fill:#ff0000;stroke:#ff0000;" x="94.200983" xlink:href="#m9deb9efca0" y="241.71508"/>
     <use style="fill:#ff0000;stroke:#ff0000;" x="94.505651" xlink:href="#m9deb9efca0" y="241.708815"/>
     <use style="fill:#ff0000;stroke:#ff0000;" x="94.810319" xlink:href="#m9deb9efca0" y="241.703202"/>
     <use style="fill:#ff0000;stroke:#ff0000;" x="95.114988" xlink:href="#m9deb9efca0" y="241.692063"/>
     <use style="fill:#ff0000;stroke:#ff0000;" x="95.419656" xlink:href="#m9deb9efca0" y="241.688734"/>
     <use style="fill:#ff0000;stroke:#ff0000;" x="95.724324" xlink:href="#m9deb9efca0" y="241.681373"/>
     <use style="fill:#ff0000;stroke:#ff0000;" x="96.028993" xlink:href="#m9deb9efca0" y="241.675274"/>
     <use style="fill:#ff0000;stroke:#ff0000;" x="96.333661" xlink:href="#m9deb9efca0" y="241.668528"/>
     <use style="fill:#ff0000;stroke:#ff0000;" x="96.638329" xlink:href="#m9deb9efca0" y="241.657704"/>
     <use style="fill:#ff0000;stroke:#ff0000;" x="96.942998" xlink:href="#m9deb9efca0" y="241.654845"/>
     <use style="fill:#ff0000;stroke:#ff0000;" x="97.247666" xlink:href="#m9deb9efca0" y="241.643648"/>
     <use style="fill:#ff0000;stroke:#ff0000;" x="97.552334" xlink:href="#m9deb9efca0" y="241.637489"/>
     <use style="fill:#ff0000;stroke:#ff0000;" x="97.857002" xlink:href="#m9deb9efca0" y="241.629086"/>
     <use style="fill:#ff0000;stroke:#ff0000;" x="98.161671" xlink:href="#m9deb9efca0" y="241.620895"/>
     <use style="fill:#ff0000;stroke:#ff0000;" x="98.466339" xlink:href="#m9deb9efca0" y="241.617776"/>
     <use style="fill:#ff0000;stroke:#ff0000;" x="98.771007" xlink:href="#m9deb9efca0" y="241.606674"/>
     <use style="fill:#ff0000;stroke:#ff0000;" x="99.075676" xlink:href="#m9deb9efca0" y="241.600561"/>
     <use style="fill:#ff0000;stroke:#ff0000;" x="99.380344" xlink:href="#m9deb9efca0" y="241.590412"/>
     <use style="fill:#ff0000;stroke:#ff0000;" x="99.685012" xlink:href="#m9deb9efca0" y="241.580943"/>
     <use style="fill:#ff0000;stroke:#ff0000;" x="99.989681" xlink:href="#m9deb9efca0" y="241.576143"/>
     <use style="fill:#ff0000;stroke:#ff0000;" x="100.294349" xlink:href="#m9deb9efca0" y="241.5693"/>
     <use style="fill:#ff0000;stroke:#ff0000;" x="100.599017" xlink:href="#m9deb9efca0" y="241.559775"/>
     <use style="fill:#ff0000;stroke:#ff0000;" x="100.903686" xlink:href="#m9deb9efca0" y="241.551741"/>
     <use style="fill:#ff0000;stroke:#ff0000;" x="101.208354" xlink:href="#m9deb9efca0" y="241.543279"/>
     <use style="fill:#ff0000;stroke:#ff0000;" x="101.513022" xlink:href="#m9deb9efca0" y="241.526234"/>
     <use style="fill:#ff0000;stroke:#ff0000;" x="101.81769" xlink:href="#m9deb9efca0" y="241.526488"/>
     <use style="fill:#ff0000;stroke:#ff0000;" x="102.122359" xlink:href="#m9deb9efca0" y="241.51108"/>
     <use style="fill:#ff0000;stroke:#ff0000;" x="102.427027" xlink:href="#m9deb9efca0" y="241.499563"/>
     <use style="fill:#ff0000;stroke:#ff0000;" x="102.731695" xlink:href="#m9deb9efca0" y="241.487276"/>
     <use style="fill:#ff0000;stroke:#ff0000;" x="103.036364" xlink:href="#m9deb9efca0" y="241.470537"/>
     <use style="fill:#ff0000;stroke:#ff0000;" x="103.341032" xlink:href="#m9deb9efca0" y="241.464429"/>
     <use style="fill:#ff0000;stroke:#ff0000;" x="103.6457" xlink:href="#m9deb9efca0" y="241.460112"/>
     <use style="fill:#ff0000;stroke:#ff0000;" x="103.950369" xlink:href="#m9deb9efca0" y="241.447773"/>
     <use style="fill:#ff0000;stroke:#ff0000;" x="104.255037" xlink:href="#m9deb9efca0" y="241.425205"/>
     <use style="fill:#ff0000;stroke:#ff0000;" x="104.559705" xlink:href="#m9deb9efca0" y="241.4005"/>
     <use style="fill:#ff0000;stroke:#ff0000;" x="104.864373" xlink:href="#m9deb9efca0" y="241.395739"/>
     <use style="fill:#ff0000;stroke:#ff0000;" x="105.169042" xlink:href="#m9deb9efca0" y="241.382353"/>
     <use style="fill:#ff0000;stroke:#ff0000;" x="105.47371" xlink:href="#m9deb9efca0" y="241.363946"/>
     <use style="fill:#ff0000;stroke:#ff0000;" x="105.778378" xlink:href="#m9deb9efca0" y="241.381414"/>
     <use style="fill:#ff0000;stroke:#ff0000;" x="106.083047" xlink:href="#m9deb9efca0" y="241.364173"/>
     <use style="fill:#ff0000;stroke:#ff0000;" x="106.387715" xlink:href="#m9deb9efca0" y="241.361945"/>
     <use style="fill:#ff0000;stroke:#ff0000;" x="106.692383" xlink:href="#m9deb9efca0" y="241.337537"/>
     <use style="fill:#ff0000;stroke:#ff0000;" x="106.997052" xlink:href="#m9deb9efca0" y="241.336034"/>
     <use style="fill:#ff0000;stroke:#ff0000;" x="107.30172" xlink:href="#m9deb9efca0" y="241.313783"/>
     <use style="fill:#ff0000;stroke:#ff0000;" x="107.606388" xlink:href="#m9deb9efca0" y="241.288621"/>
     <use style="fill:#ff0000;stroke:#ff0000;" x="107.911057" xlink:href="#m9deb9efca0" y="241.301095"/>
     <use style="fill:#ff0000;stroke:#ff0000;" x="108.215725" xlink:href="#m9deb9efca0" y="241.236156"/>
     <use style="fill:#ff0000;stroke:#ff0000;" x="108.520393" xlink:href="#m9deb9efca0" y="241.255487"/>
     <use style="fill:#ff0000;stroke:#ff0000;" x="108.825061" xlink:href="#m9deb9efca0" y="241.268084"/>
     <use style="fill:#ff0000;stroke:#ff0000;" x="109.12973" xlink:href="#m9deb9efca0" y="241.251784"/>
     <use style="fill:#ff0000;stroke:#ff0000;" x="109.434398" xlink:href="#m9deb9efca0" y="241.230666"/>
     <use style="fill:#ff0000;stroke:#ff0000;" x="109.739066" xlink:href="#m9deb9efca0" y="241.229447"/>
     <use style="fill:#ff0000;stroke:#ff0000;" x="110.043735" xlink:href="#m9deb9efca0" y="241.21242"/>
     <use style="fill:#ff0000;stroke:#ff0000;" x="110.348403" xlink:href="#m9deb9efca0" y="241.200391"/>
     <use style="fill:#ff0000;stroke:#ff0000;" x="110.653071" xlink:href="#m9deb9efca0" y="241.115367"/>
     <use style="fill:#ff0000;stroke:#ff0000;" x="110.95774" xlink:href="#m9deb9efca0" y="241.181179"/>
     <use style="fill:#ff0000;stroke:#ff0000;" x="111.262408" xlink:href="#m9deb9efca0" y="241.167381"/>
     <use style="fill:#ff0000;stroke:#ff0000;" x="111.567076" xlink:href="#m9deb9efca0" y="241.136713"/>
     <use style="fill:#ff0000;stroke:#ff0000;" x="111.871744" xlink:href="#m9deb9efca0" y="241.145496"/>
     <use style="fill:#ff0000;stroke:#ff0000;" x="112.176413" xlink:href="#m9deb9efca0" y="241.130636"/>
     <use style="fill:#ff0000;stroke:#ff0000;" x="112.481081" xlink:href="#m9deb9efca0" y="241.115005"/>
     <use style="fill:#ff0000;stroke:#ff0000;" x="112.785749" xlink:href="#m9deb9efca0" y="241.093466"/>
     <use style="fill:#ff0000;stroke:#ff0000;" x="113.090418" xlink:href="#m9deb9efca0" y="241.080016"/>
     <use style="fill:#ff0000;stroke:#ff0000;" x="113.395086" xlink:href="#m9deb9efca0" y="241.047516"/>
     <use style="fill:#ff0000;stroke:#ff0000;" x="113.699754" xlink:href="#m9deb9efca0" y="241.051976"/>
     <use style="fill:#ff0000;stroke:#ff0000;" x="114.004423" xlink:href="#m9deb9efca0" y="241.044336"/>
     <use style="fill:#ff0000;stroke:#ff0000;" x="114.309091" xlink:href="#m9deb9efca0" y="241.009856"/>
     <use style="fill:#ff0000;stroke:#ff0000;" x="114.613759" xlink:href="#m9deb9efca0" y="241.003995"/>
     <use style="fill:#ff0000;stroke:#ff0000;" x="114.918428" xlink:href="#m9deb9efca0" y="240.973271"/>
     <use style="fill:#ff0000;stroke:#ff0000;" x="115.223096" xlink:href="#m9deb9efca0" y="240.978534"/>
     <use style="fill:#ff0000;stroke:#ff0000;" x="115.527764" xlink:href="#m9deb9efca0" y="240.950284"/>
     <use style="fill:#ff0000;stroke:#ff0000;" x="115.832432" xlink:href="#m9deb9efca0" y="240.945965"/>
     <use style="fill:#ff0000;stroke:#ff0000;" x="116.137101" xlink:href="#m9deb9efca0" y="240.935899"/>
     <use style="fill:#ff0000;stroke:#ff0000;" x="116.441769" xlink:href="#m9deb9efca0" y="240.904553"/>
     <use style="fill:#ff0000;stroke:#ff0000;" x="116.746437" xlink:href="#m9deb9efca0" y="240.88303"/>
     <use style="fill:#ff0000;stroke:#ff0000;" x="117.051106" xlink:href="#m9deb9efca0" y="240.889522"/>
     <use style="fill:#ff0000;stroke:#ff0000;" x="117.355774" xlink:href="#m9deb9efca0" y="240.863745"/>
     <use style="fill:#ff0000;stroke:#ff0000;" x="117.660442" xlink:href="#m9deb9efca0" y="240.839925"/>
     <use style="fill:#ff0000;stroke:#ff0000;" x="117.965111" xlink:href="#m9deb9efca0" y="240.837791"/>
     <use style="fill:#ff0000;stroke:#ff0000;" x="118.269779" xlink:href="#m9deb9efca0" y="240.795729"/>
     <use style="fill:#ff0000;stroke:#ff0000;" x="118.574447" xlink:href="#m9deb9efca0" y="240.78382"/>
     <use style="fill:#ff0000;stroke:#ff0000;" x="118.879115" xlink:href="#m9deb9efca0" y="240.776459"/>
     <use style="fill:#ff0000;stroke:#ff0000;" x="119.183784" xlink:href="#m9deb9efca0" y="240.760479"/>
     <use style="fill:#ff0000;stroke:#ff0000;" x="119.488452" xlink:href="#m9deb9efca0" y="240.730795"/>
     <use style="fill:#ff0000;stroke:#ff0000;" x="119.79312" xlink:href="#m9deb9efca0" y="240.723044"/>
     <use style="fill:#ff0000;stroke:#ff0000;" x="120.097789" xlink:href="#m9deb9efca0" y="240.705337"/>
     <use style="fill:#ff0000;stroke:#ff0000;" x="120.402457" xlink:href="#m9deb9efca0" y="240.687875"/>
     <use style="fill:#ff0000;stroke:#ff0000;" x="120.707125" xlink:href="#m9deb9efca0" y="240.679871"/>
     <use style="fill:#ff0000;stroke:#ff0000;" x="121.011794" xlink:href="#m9deb9efca0" y="240.651847"/>
     <use style="fill:#ff0000;stroke:#ff0000;" x="121.316462" xlink:href="#m9deb9efca0" y="240.62269"/>
     <use style="fill:#ff0000;stroke:#ff0000;" x="121.62113" xlink:href="#m9deb9efca0" y="240.619946"/>
     <use style="fill:#ff0000;stroke:#ff0000;" x="121.925799" xlink:href="#m9deb9efca0" y="240.59118"/>
     <use style="fill:#ff0000;stroke:#ff0000;" x="122.230467" xlink:href="#m9deb9efca0" y="240.578844"/>
     <use style="fill:#ff0000;stroke:#ff0000;" x="122.535135" xlink:href="#m9deb9efca0" y="240.55692"/>
     <use style="fill:#ff0000;stroke:#ff0000;" x="122.839803" xlink:href="#m9deb9efca0" y="240.554738"/>
     <use style="fill:#ff0000;stroke:#ff0000;" x="123.144472" xlink:href="#m9deb9efca0" y="240.498979"/>
     <use style="fill:#ff0000;stroke:#ff0000;" x="123.44914" xlink:href="#m9deb9efca0" y="240.476767"/>
     <use style="fill:#ff0000;stroke:#ff0000;" x="123.753808" xlink:href="#m9deb9efca0" y="240.48037"/>
     <use style="fill:#ff0000;stroke:#ff0000;" x="124.058477" xlink:href="#m9deb9efca0" y="240.423038"/>
     <use style="fill:#ff0000;stroke:#ff0000;" x="124.363145" xlink:href="#m9deb9efca0" y="240.432429"/>
     <use style="fill:#ff0000;stroke:#ff0000;" x="124.667813" xlink:href="#m9deb9efca0" y="240.401249"/>
     <use style="fill:#ff0000;stroke:#ff0000;" x="124.972482" xlink:href="#m9deb9efca0" y="240.406027"/>
     <use style="fill:#ff0000;stroke:#ff0000;" x="125.27715" xlink:href="#m9deb9efca0" y="240.358791"/>
     <use style="fill:#ff0000;stroke:#ff0000;" x="125.581818" xlink:href="#m9deb9efca0" y="240.338638"/>
     <use style="fill:#ff0000;stroke:#ff0000;" x="125.886486" xlink:href="#m9deb9efca0" y="240.3325"/>
     <use style="fill:#ff0000;stroke:#ff0000;" x="126.191155" xlink:href="#m9deb9efca0" y="240.307131"/>
     <use style="fill:#ff0000;stroke:#ff0000;" x="126.495823" xlink:href="#m9deb9efca0" y="240.29728"/>
     <use style="fill:#ff0000;stroke:#ff0000;" x="126.800491" xlink:href="#m9deb9efca0" y="240.241719"/>
     <use style="fill:#ff0000;stroke:#ff0000;" x="127.10516" xlink:href="#m9deb9efca0" y="240.231181"/>
     <use style="fill:#ff0000;stroke:#ff0000;" x="127.409828" xlink:href="#m9deb9efca0" y="240.170394"/>
     <use style="fill:#ff0000;stroke:#ff0000;" x="127.714496" xlink:href="#m9deb9efca0" y="240.144608"/>
     <use style="fill:#ff0000;stroke:#ff0000;" x="128.019165" xlink:href="#m9deb9efca0" y="240.157301"/>
     <use style="fill:#ff0000;stroke:#ff0000;" x="128.323833" xlink:href="#m9deb9efca0" y="240.130567"/>
     <use style="fill:#ff0000;stroke:#ff0000;" x="128.628501" xlink:href="#m9deb9efca0" y="240.085911"/>
     <use style="fill:#ff0000;stroke:#ff0000;" x="128.93317" xlink:href="#m9deb9efca0" y="239.980066"/>
     <use style="fill:#ff0000;stroke:#ff0000;" x="129.237838" xlink:href="#m9deb9efca0" y="240.068958"/>
     <use style="fill:#ff0000;stroke:#ff0000;" x="129.542506" xlink:href="#m9deb9efca0" y="240.019199"/>
     <use style="fill:#ff0000;stroke:#ff0000;" x="129.847174" xlink:href="#m9deb9efca0" y="239.987871"/>
     <use style="fill:#ff0000;stroke:#ff0000;" x="131.370516" xlink:href="#m9deb9efca0" y="239.879307"/>
     <use style="fill:#ff0000;stroke:#ff0000;" x="132.893857" xlink:href="#m9deb9efca0" y="239.758599"/>
     <use style="fill:#ff0000;stroke:#ff0000;" x="134.417199" xlink:href="#m9deb9efca0" y="239.561734"/>
     <use style="fill:#ff0000;stroke:#ff0000;" x="135.940541" xlink:href="#m9deb9efca0" y="239.451294"/>
     <use style="fill:#ff0000;stroke:#ff0000;" x="137.463882" xlink:href="#m9deb9efca0" y="239.294005"/>
     <use style="fill:#ff0000;stroke:#ff0000;" x="138.987224" xlink:href="#m9deb9efca0" y="239.169868"/>
     <use style="fill:#ff0000;stroke:#ff0000;" x="140.510565" xlink:href="#m9deb9efca0" y="238.942691"/>
     <use style="fill:#ff0000;stroke:#ff0000;" x="142.033907" xlink:href="#m9deb9efca0" y="238.799366"/>
     <use style="fill:#ff0000;stroke:#ff0000;" x="143.557248" xlink:href="#m9deb9efca0" y="238.537394"/>
     <use style="fill:#ff0000;stroke:#ff0000;" x="145.08059" xlink:href="#m9deb9efca0" y="238.503931"/>
     <use style="fill:#ff0000;stroke:#ff0000;" x="146.603931" xlink:href="#m9deb9efca0" y="238.198658"/>
     <use style="fill:#ff0000;stroke:#ff0000;" x="148.127273" xlink:href="#m9deb9efca0" y="238.093239"/>
     <use style="fill:#ff0000;stroke:#ff0000;" x="149.650614" xlink:href="#m9deb9efca0" y="237.889359"/>
     <use style="fill:#ff0000;stroke:#ff0000;" x="151.173956" xlink:href="#m9deb9efca0" y="237.673268"/>
     <use style="fill:#ff0000;stroke:#ff0000;" x="152.697297" xlink:href="#m9deb9efca0" y="237.408335"/>
     <use style="fill:#ff0000;stroke:#ff0000;" x="154.220639" xlink:href="#m9deb9efca0" y="237.31564"/>
     <use style="fill:#ff0000;stroke:#ff0000;" x="155.74398" xlink:href="#m9deb9efca0" y="237.046233"/>
     <use style="fill:#ff0000;stroke:#ff0000;" x="157.267322" xlink:href="#m9deb9efca0" y="236.762741"/>
     <use style="fill:#ff0000;stroke:#ff0000;" x="158.790663" xlink:href="#m9deb9efca0" y="236.528733"/>
     <use style="fill:#ff0000;stroke:#ff0000;" x="160.314005" xlink:href="#m9deb9efca0" y="236.23612"/>
     <use style="fill:#ff0000;stroke:#ff0000;" x="167.930713" xlink:href="#m9deb9efca0" y="234.979353"/>
     <use style="fill:#ff0000;stroke:#ff0000;" x="175.54742" xlink:href="#m9deb9efca0" y="233.266894"/>
     <use style="fill:#ff0000;stroke:#ff0000;" x="183.164128" xlink:href="#m9deb9efca0" y="231.52671"/>
     <use style="fill:#ff0000;stroke:#ff0000;" x="190.780835" xlink:href="#m9deb9efca0" y="229.470475"/>
     <use style="fill:#ff0000;stroke:#ff0000;" x="198.397543" xlink:href="#m9deb9efca0" y="227.13204"/>
     <use style="fill:#ff0000;stroke:#ff0000;" x="206.014251" xlink:href="#m9deb9efca0" y="224.450534"/>
     <use style="fill:#ff0000;stroke:#ff0000;" x="213.630958" xlink:href="#m9deb9efca0" y="221.166527"/>
     <use style="fill:#ff0000;stroke:#ff0000;" x="221.247666" xlink:href="#m9deb9efca0" y="217.309233"/>
     <use style="fill:#ff0000;stroke:#ff0000;" x="251.714496" xlink:href="#m9deb9efca0" y="198.888167"/>
     <use style="fill:#ff0000;stroke:#ff0000;" x="282.181327" xlink:href="#m9deb9efca0" y="174.187906"/>
     <use style="fill:#ff0000;stroke:#ff0000;" x="312.648157" xlink:href="#m9deb9efca0" y="137.780055"/>
     <use style="fill:#ff0000;stroke:#ff0000;" x="343.114988" xlink:href="#m9deb9efca0" y="98.349731"/>
     <use style="fill:#ff0000;stroke:#ff0000;" x="373.581818" xlink:href="#m9deb9efca0" y="44.443636"/>
    </g>
   </g>
   <g id="line2d_15">
    <path clip-path="url(#pb3cac36979)" d="M 69.218182 242.116364 
L 116.137101 240.924937 
L 126.800491 240.314027 
L 135.940541 239.587151 
L 145.08059 238.63291 
L 152.697297 237.637336 
L 160.314005 236.437148 
L 167.930713 235.011632 
L 175.54742 233.340398 
L 183.164128 231.403382 
L 190.780835 229.18084 
L 198.397543 226.653356 
L 206.014251 223.801836 
L 213.630958 220.607509 
L 221.247666 217.051931 
L 251.714496 198.859522 
L 282.181327 173.495647 
L 312.648157 139.935272 
L 343.114988 97.236297 
L 373.581818 44.539555 
L 373.581818 44.539555 
" style="fill:none;stroke:#1f77b4;stroke-linecap:square;stroke-width:1.5;"/>
   </g>
   <g id="patch_3">
    <path d="M 54 252 
L 54 34.56 
" style="fill:none;stroke:#000000;stroke-linecap:square;stroke-linejoin:miter;stroke-width:0.8;"/>
   </g>
   <g id="patch_4">
    <path d="M 388.8 252 
L 388.8 34.56 
" style="fill:none;stroke:#000000;stroke-linecap:square;stroke-linejoin:miter;stroke-width:0.8;"/>
   </g>
   <g id="patch_5">
    <path d="M 54 252 
L 388.8 252 
" style="fill:none;stroke:#000000;stroke-linecap:square;stroke-linejoin:miter;stroke-width:0.8;"/>
   </g>
   <g id="patch_6">
    <path d="M 54 34.56 
L 388.8 34.56 
" style="fill:none;stroke:#000000;stroke-linecap:square;stroke-linejoin:miter;stroke-width:0.8;"/>
   </g>
   <g id="text_14">
    <!-- $f(n)= - 1.11853039237592 \cdot 10^{-10} n^{4} + 8.43809542692674 \cdot 10^{-7} n^{3} - 0.000115463304889226 n^{2} + 0.0230698833218502 n - 0.550464442634305$ -->
    <defs>
     <path d="M 47.796875 75.984375 
L 46.390625 68.5 
L 37.796875 68.5 
Q 32.90625 68.5 30.6875 66.578125 
Q 28.46875 64.65625 27.390625 59.515625 
L 26.421875 54.6875 
L 41.21875 54.6875 
L 39.890625 47.703125 
L 25.09375 47.703125 
L 15.828125 0 
L 6.78125 0 
L 16.109375 47.703125 
L 7.515625 47.703125 
L 8.796875 54.6875 
L 17.390625 54.6875 
L 18.109375 58.5 
Q 19.96875 68.171875 24.625 72.078125 
Q 29.296875 75.984375 39.3125 75.984375 
z
" id="DejaVuSans-Oblique-102"/>
     <path d="M 31 75.875 
Q 24.46875 64.65625 21.28125 53.65625 
Q 18.109375 42.671875 18.109375 31.390625 
Q 18.109375 20.125 21.3125 9.0625 
Q 24.515625 -2 31 -13.1875 
L 23.1875 -13.1875 
Q 15.875 -1.703125 12.234375 9.375 
Q 8.59375 20.453125 8.59375 31.390625 
Q 8.59375 42.28125 12.203125 53.3125 
Q 15.828125 64.359375 23.1875 75.875 
z
" id="DejaVuSans-40"/>
     <path d="M 55.71875 33.015625 
L 49.3125 0 
L 40.28125 0 
L 46.6875 32.671875 
Q 47.125 34.96875 47.359375 36.71875 
Q 47.609375 38.484375 47.609375 39.5 
Q 47.609375 43.609375 45.015625 45.890625 
Q 42.4375 48.1875 37.796875 48.1875 
Q 30.5625 48.1875 25.34375 43.375 
Q 20.125 38.578125 18.5 30.328125 
L 12.5 0 
L 3.515625 0 
L 14.109375 54.6875 
L 23.09375 54.6875 
L 21.296875 46.09375 
Q 25.046875 50.828125 30.3125 53.40625 
Q 35.59375 56 41.40625 56 
Q 48.640625 56 52.609375 52.09375 
Q 56.59375 48.1875 56.59375 41.109375 
Q 56.59375 39.359375 56.375 37.359375 
Q 56.15625 35.359375 55.71875 33.015625 
z
" id="DejaVuSans-Oblique-110"/>
     <path d="M 8.015625 75.875 
L 15.828125 75.875 
Q 23.140625 64.359375 26.78125 53.3125 
Q 30.421875 42.28125 30.421875 31.390625 
Q 30.421875 20.453125 26.78125 9.375 
Q 23.140625 -1.703125 15.828125 -13.1875 
L 8.015625 -13.1875 
Q 14.5 -2 17.703125 9.0625 
Q 20.90625 20.125 20.90625 31.390625 
Q 20.90625 42.671875 17.703125 53.65625 
Q 14.5 64.65625 8.015625 75.875 
z
" id="DejaVuSans-41"/>
     <path d="M 10.59375 45.40625 
L 73.1875 45.40625 
L 73.1875 37.203125 
L 10.59375 37.203125 
z
M 10.59375 25.484375 
L 73.1875 25.484375 
L 73.1875 17.1875 
L 10.59375 17.1875 
z
" id="DejaVuSans-61"/>
     <path d="M 10.59375 35.5 
L 73.1875 35.5 
L 73.1875 27.203125 
L 10.59375 27.203125 
z
" id="DejaVuSans-8722"/>
     <path d="M 10.6875 12.40625 
L 21 12.40625 
L 21 0 
L 10.6875 0 
z
" id="DejaVuSans-46"/>
     <path d="M 10.984375 1.515625 
L 10.984375 10.5 
Q 14.703125 8.734375 18.5 7.8125 
Q 22.3125 6.890625 25.984375 6.890625 
Q 35.75 6.890625 40.890625 13.453125 
Q 46.046875 20.015625 46.78125 33.40625 
Q 43.953125 29.203125 39.59375 26.953125 
Q 35.25 24.703125 29.984375 24.703125 
Q 19.046875 24.703125 12.671875 31.3125 
Q 6.296875 37.9375 6.296875 49.421875 
Q 6.296875 60.640625 12.9375 67.421875 
Q 19.578125 74.21875 30.609375 74.21875 
Q 43.265625 74.21875 49.921875 64.515625 
Q 56.59375 54.828125 56.59375 36.375 
Q 56.59375 19.140625 48.40625 8.859375 
Q 40.234375 -1.421875 26.421875 -1.421875 
Q 22.703125 -1.421875 18.890625 -0.6875 
Q 15.09375 0.046875 10.984375 1.515625 
z
M 30.609375 32.421875 
Q 37.25 32.421875 41.125 36.953125 
Q 45.015625 41.5 45.015625 49.421875 
Q 45.015625 57.28125 41.125 61.84375 
Q 37.25 66.40625 30.609375 66.40625 
Q 23.96875 66.40625 20.09375 61.84375 
Q 16.21875 57.28125 16.21875 49.421875 
Q 16.21875 41.5 20.09375 36.953125 
Q 23.96875 32.421875 30.609375 32.421875 
z
" id="DejaVuSans-57"/>
     <path d="M 8.203125 72.90625 
L 55.078125 72.90625 
L 55.078125 68.703125 
L 28.609375 0 
L 18.3125 0 
L 43.21875 64.59375 
L 8.203125 64.59375 
z
" id="DejaVuSans-55"/>
     <path d="M 10.6875 40.921875 
L 21 40.921875 
L 21 28.515625 
L 10.6875 28.515625 
z
" id="DejaVuSans-8901"/>
     <path d="M 46 62.703125 
L 46 35.5 
L 73.1875 35.5 
L 73.1875 27.203125 
L 46 27.203125 
L 46 0 
L 37.796875 0 
L 37.796875 27.203125 
L 10.59375 27.203125 
L 10.59375 35.5 
L 37.796875 35.5 
L 37.796875 62.703125 
z
" id="DejaVuSans-43"/>
    </defs>
    <g transform="translate(-366.84 28.56)scale(0.16 -0.16)">
     <use transform="translate(0 0.765625)" xlink:href="#DejaVuSans-Oblique-102"/>
     <use transform="translate(35.205078 0.765625)" xlink:href="#DejaVuSans-40"/>
     <use transform="translate(74.21875 0.765625)" xlink:href="#DejaVuSans-Oblique-110"/>
     <use transform="translate(137.597656 0.765625)" xlink:href="#DejaVuSans-41"/>
     <use transform="translate(196.09375 0.765625)" xlink:href="#DejaVuSans-61"/>
     <use transform="translate(318.847656 0.765625)" xlink:href="#DejaVuSans-8722"/>
     <use transform="translate(422.119141 0.765625)" xlink:href="#DejaVuSans-49"/>
     <use transform="translate(485.742188 0.765625)" xlink:href="#DejaVuSans-46"/>
     <use transform="translate(517.529297 0.765625)" xlink:href="#DejaVuSans-49"/>
     <use transform="translate(581.152344 0.765625)" xlink:href="#DejaVuSans-49"/>
     <use transform="translate(644.775391 0.765625)" xlink:href="#DejaVuSans-56"/>
     <use transform="translate(708.398438 0.765625)" xlink:href="#DejaVuSans-53"/>
     <use transform="translate(772.021484 0.765625)" xlink:href="#DejaVuSans-51"/>
     <use transform="translate(835.644531 0.765625)" xlink:href="#DejaVuSans-48"/>
     <use transform="translate(899.267578 0.765625)" xlink:href="#DejaVuSans-51"/>
     <use transform="translate(962.890625 0.765625)" xlink:href="#DejaVuSans-57"/>
     <use transform="translate(1026.498047 0.765625)" xlink:href="#DejaVuSans-50"/>
     <use transform="translate(1090.121094 0.765625)" xlink:href="#DejaVuSans-51"/>
     <use transform="translate(1153.744141 0.765625)" xlink:href="#DejaVuSans-55"/>
     <use transform="translate(1217.367188 0.765625)" xlink:href="#DejaVuSans-53"/>
     <use transform="translate(1280.912109 0.765625)" xlink:href="#DejaVuSans-57"/>
     <use transform="translate(1344.519531 0.765625)" xlink:href="#DejaVuSans-50"/>
     <use transform="translate(1427.625 0.765625)" xlink:href="#DejaVuSans-8901"/>
     <use transform="translate(1478.894531 0.765625)" xlink:href="#DejaVuSans-49"/>
     <use transform="translate(1542.517578 0.765625)" xlink:href="#DejaVuSans-48"/>
     <use transform="translate(1607.097656 39.046875)scale(0.7)" xlink:href="#DejaVuSans-8722"/>
     <use transform="translate(1665.75 39.046875)scale(0.7)" xlink:href="#DejaVuSans-49"/>
     <use transform="translate(1710.286133 39.046875)scale(0.7)" xlink:href="#DejaVuSans-48"/>
     <use transform="translate(1757.556641 0.765625)" xlink:href="#DejaVuSans-Oblique-110"/>
     <use transform="translate(1825.585443 39.046875)scale(0.7)" xlink:href="#DejaVuSans-52"/>
     <use transform="translate(1892.338372 0.765625)" xlink:href="#DejaVuSans-43"/>
     <use transform="translate(1995.609857 0.765625)" xlink:href="#DejaVuSans-56"/>
     <use transform="translate(2059.232904 0.765625)" xlink:href="#DejaVuSans-46"/>
     <use transform="translate(2091.020013 0.765625)" xlink:href="#DejaVuSans-52"/>
     <use transform="translate(2154.64306 0.765625)" xlink:href="#DejaVuSans-51"/>
     <use transform="translate(2218.266107 0.765625)" xlink:href="#DejaVuSans-56"/>
     <use transform="translate(2281.889154 0.765625)" xlink:href="#DejaVuSans-48"/>
     <use transform="translate(2345.512201 0.765625)" xlink:href="#DejaVuSans-57"/>
     <use transform="translate(2409.135247 0.765625)" xlink:href="#DejaVuSans-53"/>
     <use transform="translate(2472.758294 0.765625)" xlink:href="#DejaVuSans-52"/>
     <use transform="translate(2536.381341 0.765625)" xlink:href="#DejaVuSans-50"/>
     <use transform="translate(2600.004388 0.765625)" xlink:href="#DejaVuSans-54"/>
     <use transform="translate(2663.627435 0.765625)" xlink:href="#DejaVuSans-57"/>
     <use transform="translate(2727.234857 0.765625)" xlink:href="#DejaVuSans-50"/>
     <use transform="translate(2790.857904 0.765625)" xlink:href="#DejaVuSans-54"/>
     <use transform="translate(2854.480951 0.765625)" xlink:href="#DejaVuSans-55"/>
     <use transform="translate(2918.103997 0.765625)" xlink:href="#DejaVuSans-52"/>
     <use transform="translate(3001.209466 0.765625)" xlink:href="#DejaVuSans-8901"/>
     <use transform="translate(3052.478997 0.765625)" xlink:href="#DejaVuSans-49"/>
     <use transform="translate(3116.102044 0.765625)" xlink:href="#DejaVuSans-48"/>
     <use transform="translate(3180.682122 39.046875)scale(0.7)" xlink:href="#DejaVuSans-8722"/>
     <use transform="translate(3239.334466 39.046875)scale(0.7)" xlink:href="#DejaVuSans-55"/>
     <use transform="translate(3286.604974 0.765625)" xlink:href="#DejaVuSans-Oblique-110"/>
     <use transform="translate(3354.633776 39.046875)scale(0.7)" xlink:href="#DejaVuSans-51"/>
     <use transform="translate(3421.386706 0.765625)" xlink:href="#DejaVuSans-8722"/>
     <use transform="translate(3524.65819 0.765625)" xlink:href="#DejaVuSans-48"/>
     <use transform="translate(3588.281237 0.765625)" xlink:href="#DejaVuSans-46"/>
     <use transform="translate(3620.068346 0.765625)" xlink:href="#DejaVuSans-48"/>
     <use transform="translate(3683.691393 0.765625)" xlink:href="#DejaVuSans-48"/>
     <use transform="translate(3747.31444 0.765625)" xlink:href="#DejaVuSans-48"/>
     <use transform="translate(3810.937487 0.765625)" xlink:href="#DejaVuSans-49"/>
     <use transform="translate(3874.560534 0.765625)" xlink:href="#DejaVuSans-49"/>
     <use transform="translate(3938.183581 0.765625)" xlink:href="#DejaVuSans-53"/>
     <use transform="translate(4001.806628 0.765625)" xlink:href="#DejaVuSans-52"/>
     <use transform="translate(4065.429674 0.765625)" xlink:href="#DejaVuSans-54"/>
     <use transform="translate(4129.052721 0.765625)" xlink:href="#DejaVuSans-51"/>
     <use transform="translate(4192.675768 0.765625)" xlink:href="#DejaVuSans-51"/>
     <use transform="translate(4256.298815 0.765625)" xlink:href="#DejaVuSans-48"/>
     <use transform="translate(4319.921862 0.765625)" xlink:href="#DejaVuSans-52"/>
     <use transform="translate(4383.544909 0.765625)" xlink:href="#DejaVuSans-56"/>
     <use transform="translate(4447.167956 0.765625)" xlink:href="#DejaVuSans-56"/>
     <use transform="translate(4510.791003 0.765625)" xlink:href="#DejaVuSans-57"/>
     <use transform="translate(4574.398424 0.765625)" xlink:href="#DejaVuSans-50"/>
     <use transform="translate(4638.021471 0.765625)" xlink:href="#DejaVuSans-50"/>
     <use transform="translate(4701.644518 0.765625)" xlink:href="#DejaVuSans-54"/>
     <use transform="translate(4765.267565 0.765625)" xlink:href="#DejaVuSans-Oblique-110"/>
     <use transform="translate(4833.296367 39.046875)scale(0.7)" xlink:href="#DejaVuSans-50"/>
     <use transform="translate(4900.049297 0.765625)" xlink:href="#DejaVuSans-43"/>
     <use transform="translate(5003.320781 0.765625)" xlink:href="#DejaVuSans-48"/>
     <use transform="translate(5066.943828 0.765625)" xlink:href="#DejaVuSans-46"/>
     <use transform="translate(5098.730937 0.765625)" xlink:href="#DejaVuSans-48"/>
     <use transform="translate(5162.353984 0.765625)" xlink:href="#DejaVuSans-50"/>
     <use transform="translate(5225.977031 0.765625)" xlink:href="#DejaVuSans-51"/>
     <use transform="translate(5289.600078 0.765625)" xlink:href="#DejaVuSans-48"/>
     <use transform="translate(5353.223125 0.765625)" xlink:href="#DejaVuSans-54"/>
     <use transform="translate(5416.846172 0.765625)" xlink:href="#DejaVuSans-57"/>
     <use transform="translate(5480.469219 0.765625)" xlink:href="#DejaVuSans-56"/>
     <use transform="translate(5544.092266 0.765625)" xlink:href="#DejaVuSans-56"/>
     <use transform="translate(5607.715312 0.765625)" xlink:href="#DejaVuSans-51"/>
     <use transform="translate(5671.338359 0.765625)" xlink:href="#DejaVuSans-51"/>
     <use transform="translate(5734.961406 0.765625)" xlink:href="#DejaVuSans-50"/>
     <use transform="translate(5798.584453 0.765625)" xlink:href="#DejaVuSans-49"/>
     <use transform="translate(5862.2075 0.765625)" xlink:href="#DejaVuSans-56"/>
     <use transform="translate(5925.830547 0.765625)" xlink:href="#DejaVuSans-53"/>
     <use transform="translate(5989.453594 0.765625)" xlink:href="#DejaVuSans-48"/>
     <use transform="translate(6053.076641 0.765625)" xlink:href="#DejaVuSans-50"/>
     <use transform="translate(6116.699687 0.765625)" xlink:href="#DejaVuSans-Oblique-110"/>
     <use transform="translate(6199.561016 0.765625)" xlink:href="#DejaVuSans-8722"/>
     <use transform="translate(6302.8325 0.765625)" xlink:href="#DejaVuSans-48"/>
     <use transform="translate(6366.455547 0.765625)" xlink:href="#DejaVuSans-46"/>
     <use transform="translate(6398.242656 0.765625)" xlink:href="#DejaVuSans-53"/>
     <use transform="translate(6461.865703 0.765625)" xlink:href="#DejaVuSans-53"/>
     <use transform="translate(6525.48875 0.765625)" xlink:href="#DejaVuSans-48"/>
     <use transform="translate(6589.111797 0.765625)" xlink:href="#DejaVuSans-52"/>
     <use transform="translate(6652.734844 0.765625)" xlink:href="#DejaVuSans-54"/>
     <use transform="translate(6716.357891 0.765625)" xlink:href="#DejaVuSans-52"/>
     <use transform="translate(6779.980937 0.765625)" xlink:href="#DejaVuSans-52"/>
     <use transform="translate(6843.603984 0.765625)" xlink:href="#DejaVuSans-52"/>
     <use transform="translate(6907.227031 0.765625)" xlink:href="#DejaVuSans-50"/>
     <use transform="translate(6970.850078 0.765625)" xlink:href="#DejaVuSans-54"/>
     <use transform="translate(7034.473125 0.765625)" xlink:href="#DejaVuSans-51"/>
     <use transform="translate(7098.096172 0.765625)" xlink:href="#DejaVuSans-52"/>
     <use transform="translate(7161.719219 0.765625)" xlink:href="#DejaVuSans-51"/>
     <use transform="translate(7225.342266 0.765625)" xlink:href="#DejaVuSans-48"/>
     <use transform="translate(7288.965312 0.765625)" xlink:href="#DejaVuSans-53"/>
    </g>
   </g>
   <g id="legend_1">
    <g id="patch_7">
     <path d="M 61 71.91625 
L 159.185938 71.91625 
Q 161.185938 71.91625 161.185938 69.91625 
L 161.185938 41.56 
Q 161.185938 39.56 159.185938 39.56 
L 61 39.56 
Q 59 39.56 59 41.56 
L 59 69.91625 
Q 59 71.91625 61 71.91625 
z
" style="fill:#ffffff;opacity:0.8;stroke:#cccccc;stroke-linejoin:miter;"/>
    </g>
    <g id="line2d_16"/>
    <g id="line2d_17">
     <g>
      <use style="fill:#ff0000;stroke:#ff0000;" x="73" xlink:href="#m9deb9efca0" y="47.658437"/>
     </g>
    </g>
    <g id="text_15">
     <!-- Original Data -->
     <defs>
      <path d="M 39.40625 66.21875 
Q 28.65625 66.21875 22.328125 58.203125 
Q 16.015625 50.203125 16.015625 36.375 
Q 16.015625 22.609375 22.328125 14.59375 
Q 28.65625 6.59375 39.40625 6.59375 
Q 50.140625 6.59375 56.421875 14.59375 
Q 62.703125 22.609375 62.703125 36.375 
Q 62.703125 50.203125 56.421875 58.203125 
Q 50.140625 66.21875 39.40625 66.21875 
z
M 39.40625 74.21875 
Q 54.734375 74.21875 63.90625 63.9375 
Q 73.09375 53.65625 73.09375 36.375 
Q 73.09375 19.140625 63.90625 8.859375 
Q 54.734375 -1.421875 39.40625 -1.421875 
Q 24.03125 -1.421875 14.8125 8.828125 
Q 5.609375 19.09375 5.609375 36.375 
Q 5.609375 53.65625 14.8125 63.9375 
Q 24.03125 74.21875 39.40625 74.21875 
z
" id="DejaVuSans-79"/>
      <path d="M 41.109375 46.296875 
Q 39.59375 47.171875 37.8125 47.578125 
Q 36.03125 48 33.890625 48 
Q 26.265625 48 22.1875 43.046875 
Q 18.109375 38.09375 18.109375 28.8125 
L 18.109375 0 
L 9.078125 0 
L 9.078125 54.6875 
L 18.109375 54.6875 
L 18.109375 46.1875 
Q 20.953125 51.171875 25.484375 53.578125 
Q 30.03125 56 36.53125 56 
Q 37.453125 56 38.578125 55.875 
Q 39.703125 55.765625 41.0625 55.515625 
z
" id="DejaVuSans-114"/>
      <path d="M 9.421875 54.6875 
L 18.40625 54.6875 
L 18.40625 0 
L 9.421875 0 
z
M 9.421875 75.984375 
L 18.40625 75.984375 
L 18.40625 64.59375 
L 9.421875 64.59375 
z
" id="DejaVuSans-105"/>
      <path d="M 45.40625 27.984375 
Q 45.40625 37.75 41.375 43.109375 
Q 37.359375 48.484375 30.078125 48.484375 
Q 22.859375 48.484375 18.828125 43.109375 
Q 14.796875 37.75 14.796875 27.984375 
Q 14.796875 18.265625 18.828125 12.890625 
Q 22.859375 7.515625 30.078125 7.515625 
Q 37.359375 7.515625 41.375 12.890625 
Q 45.40625 18.265625 45.40625 27.984375 
z
M 54.390625 6.78125 
Q 54.390625 -7.171875 48.1875 -13.984375 
Q 42 -20.796875 29.203125 -20.796875 
Q 24.46875 -20.796875 20.265625 -20.09375 
Q 16.0625 -19.390625 12.109375 -17.921875 
L 12.109375 -9.1875 
Q 16.0625 -11.328125 19.921875 -12.34375 
Q 23.78125 -13.375 27.78125 -13.375 
Q 36.625 -13.375 41.015625 -8.765625 
Q 45.40625 -4.15625 45.40625 5.171875 
L 45.40625 9.625 
Q 42.625 4.78125 38.28125 2.390625 
Q 33.9375 0 27.875 0 
Q 17.828125 0 11.671875 7.65625 
Q 5.515625 15.328125 5.515625 27.984375 
Q 5.515625 40.671875 11.671875 48.328125 
Q 17.828125 56 27.875 56 
Q 33.9375 56 38.28125 53.609375 
Q 42.625 51.21875 45.40625 46.390625 
L 45.40625 54.6875 
L 54.390625 54.6875 
z
" id="DejaVuSans-103"/>
      <path d="M 54.890625 33.015625 
L 54.890625 0 
L 45.90625 0 
L 45.90625 32.71875 
Q 45.90625 40.484375 42.875 44.328125 
Q 39.84375 48.1875 33.796875 48.1875 
Q 26.515625 48.1875 22.3125 43.546875 
Q 18.109375 38.921875 18.109375 30.90625 
L 18.109375 0 
L 9.078125 0 
L 9.078125 54.6875 
L 18.109375 54.6875 
L 18.109375 46.1875 
Q 21.34375 51.125 25.703125 53.5625 
Q 30.078125 56 35.796875 56 
Q 45.21875 56 50.046875 50.171875 
Q 54.890625 44.34375 54.890625 33.015625 
z
" id="DejaVuSans-110"/>
      <path d="M 34.28125 27.484375 
Q 23.390625 27.484375 19.1875 25 
Q 14.984375 22.515625 14.984375 16.5 
Q 14.984375 11.71875 18.140625 8.90625 
Q 21.296875 6.109375 26.703125 6.109375 
Q 34.1875 6.109375 38.703125 11.40625 
Q 43.21875 16.703125 43.21875 25.484375 
L 43.21875 27.484375 
z
M 52.203125 31.203125 
L 52.203125 0 
L 43.21875 0 
L 43.21875 8.296875 
Q 40.140625 3.328125 35.546875 0.953125 
Q 30.953125 -1.421875 24.3125 -1.421875 
Q 15.921875 -1.421875 10.953125 3.296875 
Q 6 8.015625 6 15.921875 
Q 6 25.140625 12.171875 29.828125 
Q 18.359375 34.515625 30.609375 34.515625 
L 43.21875 34.515625 
L 43.21875 35.40625 
Q 43.21875 41.609375 39.140625 45 
Q 35.0625 48.390625 27.6875 48.390625 
Q 23 48.390625 18.546875 47.265625 
Q 14.109375 46.140625 10.015625 43.890625 
L 10.015625 52.203125 
Q 14.9375 54.109375 19.578125 55.046875 
Q 24.21875 56 28.609375 56 
Q 40.484375 56 46.34375 49.84375 
Q 52.203125 43.703125 52.203125 31.203125 
z
" id="DejaVuSans-97"/>
      <path d="M 9.421875 75.984375 
L 18.40625 75.984375 
L 18.40625 0 
L 9.421875 0 
z
" id="DejaVuSans-108"/>
      <path id="DejaVuSans-32"/>
      <path d="M 19.671875 64.796875 
L 19.671875 8.109375 
L 31.59375 8.109375 
Q 46.6875 8.109375 53.6875 14.9375 
Q 60.6875 21.78125 60.6875 36.53125 
Q 60.6875 51.171875 53.6875 57.984375 
Q 46.6875 64.796875 31.59375 64.796875 
z
M 9.8125 72.90625 
L 30.078125 72.90625 
Q 51.265625 72.90625 61.171875 64.09375 
Q 71.09375 55.28125 71.09375 36.53125 
Q 71.09375 17.671875 61.125 8.828125 
Q 51.171875 0 30.078125 0 
L 9.8125 0 
z
" id="DejaVuSans-68"/>
      <path d="M 18.3125 70.21875 
L 18.3125 54.6875 
L 36.8125 54.6875 
L 36.8125 47.703125 
L 18.3125 47.703125 
L 18.3125 18.015625 
Q 18.3125 11.328125 20.140625 9.421875 
Q 21.96875 7.515625 27.59375 7.515625 
L 36.8125 7.515625 
L 36.8125 0 
L 27.59375 0 
Q 17.1875 0 13.234375 3.875 
Q 9.28125 7.765625 9.28125 18.015625 
L 9.28125 47.703125 
L 2.6875 47.703125 
L 2.6875 54.6875 
L 9.28125 54.6875 
L 9.28125 70.21875 
z
" id="DejaVuSans-116"/>
     </defs>
     <g transform="translate(91 51.158437)scale(0.1 -0.1)">
      <use xlink:href="#DejaVuSans-79"/>
      <use x="78.710938" xlink:href="#DejaVuSans-114"/>
      <use x="119.824219" xlink:href="#DejaVuSans-105"/>
      <use x="147.607422" xlink:href="#DejaVuSans-103"/>
      <use x="211.083984" xlink:href="#DejaVuSans-105"/>
      <use x="238.867188" xlink:href="#DejaVuSans-110"/>
      <use x="302.246094" xlink:href="#DejaVuSans-97"/>
      <use x="363.525391" xlink:href="#DejaVuSans-108"/>
      <use x="391.308594" xlink:href="#DejaVuSans-32"/>
      <use x="423.095703" xlink:href="#DejaVuSans-68"/>
      <use x="500.097656" xlink:href="#DejaVuSans-97"/>
      <use x="561.376953" xlink:href="#DejaVuSans-116"/>
      <use x="600.585938" xlink:href="#DejaVuSans-97"/>
     </g>
    </g>
    <g id="line2d_18">
     <path d="M 63 62.336562 
L 83 62.336562 
" style="fill:none;stroke:#1f77b4;stroke-linecap:square;stroke-width:1.5;"/>
    </g>
    <g id="line2d_19"/>
    <g id="text_16">
     <!-- Fitted Curve -->
     <defs>
      <path d="M 9.8125 72.90625 
L 51.703125 72.90625 
L 51.703125 64.59375 
L 19.671875 64.59375 
L 19.671875 43.109375 
L 48.578125 43.109375 
L 48.578125 34.8125 
L 19.671875 34.8125 
L 19.671875 0 
L 9.8125 0 
z
" id="DejaVuSans-70"/>
      <path d="M 56.203125 29.59375 
L 56.203125 25.203125 
L 14.890625 25.203125 
Q 15.484375 15.921875 20.484375 11.0625 
Q 25.484375 6.203125 34.421875 6.203125 
Q 39.59375 6.203125 44.453125 7.46875 
Q 49.3125 8.734375 54.109375 11.28125 
L 54.109375 2.78125 
Q 49.265625 0.734375 44.1875 -0.34375 
Q 39.109375 -1.421875 33.890625 -1.421875 
Q 20.796875 -1.421875 13.15625 6.1875 
Q 5.515625 13.8125 5.515625 26.8125 
Q 5.515625 40.234375 12.765625 48.109375 
Q 20.015625 56 32.328125 56 
Q 43.359375 56 49.78125 48.890625 
Q 56.203125 41.796875 56.203125 29.59375 
z
M 47.21875 32.234375 
Q 47.125 39.59375 43.09375 43.984375 
Q 39.0625 48.390625 32.421875 48.390625 
Q 24.90625 48.390625 20.390625 44.140625 
Q 15.875 39.890625 15.1875 32.171875 
z
" id="DejaVuSans-101"/>
      <path d="M 45.40625 46.390625 
L 45.40625 75.984375 
L 54.390625 75.984375 
L 54.390625 0 
L 45.40625 0 
L 45.40625 8.203125 
Q 42.578125 3.328125 38.25 0.953125 
Q 33.9375 -1.421875 27.875 -1.421875 
Q 17.96875 -1.421875 11.734375 6.484375 
Q 5.515625 14.40625 5.515625 27.296875 
Q 5.515625 40.1875 11.734375 48.09375 
Q 17.96875 56 27.875 56 
Q 33.9375 56 38.25 53.625 
Q 42.578125 51.265625 45.40625 46.390625 
z
M 14.796875 27.296875 
Q 14.796875 17.390625 18.875 11.75 
Q 22.953125 6.109375 30.078125 6.109375 
Q 37.203125 6.109375 41.296875 11.75 
Q 45.40625 17.390625 45.40625 27.296875 
Q 45.40625 37.203125 41.296875 42.84375 
Q 37.203125 48.484375 30.078125 48.484375 
Q 22.953125 48.484375 18.875 42.84375 
Q 14.796875 37.203125 14.796875 27.296875 
z
" id="DejaVuSans-100"/>
      <path d="M 64.40625 67.28125 
L 64.40625 56.890625 
Q 59.421875 61.53125 53.78125 63.8125 
Q 48.140625 66.109375 41.796875 66.109375 
Q 29.296875 66.109375 22.65625 58.46875 
Q 16.015625 50.828125 16.015625 36.375 
Q 16.015625 21.96875 22.65625 14.328125 
Q 29.296875 6.6875 41.796875 6.6875 
Q 48.140625 6.6875 53.78125 8.984375 
Q 59.421875 11.28125 64.40625 15.921875 
L 64.40625 5.609375 
Q 59.234375 2.09375 53.4375 0.328125 
Q 47.65625 -1.421875 41.21875 -1.421875 
Q 24.65625 -1.421875 15.125 8.703125 
Q 5.609375 18.84375 5.609375 36.375 
Q 5.609375 53.953125 15.125 64.078125 
Q 24.65625 74.21875 41.21875 74.21875 
Q 47.75 74.21875 53.53125 72.484375 
Q 59.328125 70.75 64.40625 67.28125 
z
" id="DejaVuSans-67"/>
      <path d="M 8.5 21.578125 
L 8.5 54.6875 
L 17.484375 54.6875 
L 17.484375 21.921875 
Q 17.484375 14.15625 20.5 10.265625 
Q 23.53125 6.390625 29.59375 6.390625 
Q 36.859375 6.390625 41.078125 11.03125 
Q 45.3125 15.671875 45.3125 23.6875 
L 45.3125 54.6875 
L 54.296875 54.6875 
L 54.296875 0 
L 45.3125 0 
L 45.3125 8.40625 
Q 42.046875 3.421875 37.71875 1 
Q 33.40625 -1.421875 27.6875 -1.421875 
Q 18.265625 -1.421875 13.375 4.4375 
Q 8.5 10.296875 8.5 21.578125 
z
M 31.109375 56 
z
" id="DejaVuSans-117"/>
      <path d="M 2.984375 54.6875 
L 12.5 54.6875 
L 29.59375 8.796875 
L 46.6875 54.6875 
L 56.203125 54.6875 
L 35.6875 0 
L 23.484375 0 
z
" id="DejaVuSans-118"/>
     </defs>
     <g transform="translate(91 65.836562)scale(0.1 -0.1)">
      <use xlink:href="#DejaVuSans-70"/>
      <use x="57.410156" xlink:href="#DejaVuSans-105"/>
      <use x="85.193359" xlink:href="#DejaVuSans-116"/>
      <use x="124.402344" xlink:href="#DejaVuSans-116"/>
      <use x="163.611328" xlink:href="#DejaVuSans-101"/>
      <use x="225.134766" xlink:href="#DejaVuSans-100"/>
      <use x="288.611328" xlink:href="#DejaVuSans-32"/>
      <use x="320.398438" xlink:href="#DejaVuSans-67"/>
      <use x="390.222656" xlink:href="#DejaVuSans-117"/>
      <use x="453.601562" xlink:href="#DejaVuSans-114"/>
      <use x="494.714844" xlink:href="#DejaVuSans-118"/>
      <use x="553.894531" xlink:href="#DejaVuSans-101"/>
     </g>
    </g>
   </g>
  </g>
 </g>
 <defs>
  <clipPath id="pb3cac36979">
   <rect height="217.44" width="334.8" x="54" y="34.56"/>
  </clipPath>
 </defs>
</svg>
