<?xml version="1.0" encoding="utf-8" standalone="no"?>
<!DOCTYPE svg PUBLIC "-//W3C//DTD SVG 1.1//EN"
  "http://www.w3.org/Graphics/SVG/1.1/DTD/svg11.dtd">
<!-- Created with matplotlib (https://matplotlib.org/) -->
<svg height="288pt" version="1.1" viewBox="0 0 432 288" width="432pt" xmlns="http://www.w3.org/2000/svg" xmlns:xlink="http://www.w3.org/1999/xlink">
 <defs>
  <style type="text/css">
*{stroke-linecap:butt;stroke-linejoin:round;}
  </style>
 </defs>
 <g id="figure_1">
  <g id="patch_1">
   <path d="M 0 288 
L 432 288 
L 432 0 
L 0 0 
z
" style="fill:#ffffff;"/>
  </g>
  <g id="axes_1">
   <g id="patch_2">
    <path d="M 54 252 
L 388.8 252 
L 388.8 34.56 
L 54 34.56 
z
" style="fill:#ffffff;"/>
   </g>
   <g id="matplotlib.axis_1">
    <g id="xtick_1">
     <g id="line2d_1">
      <defs>
       <path d="M 0 0 
L 0 3.5 
" id="mf0ddc7b139" style="stroke:#000000;stroke-width:0.8;"/>
      </defs>
      <g>
       <use style="stroke:#000000;stroke-width:0.8;" x="68.913514" xlink:href="#mf0ddc7b139" y="252"/>
      </g>
     </g>
     <g id="text_1">
      <!-- 0 -->
      <defs>
       <path d="M 31.78125 66.40625 
Q 24.171875 66.40625 20.328125 58.90625 
Q 16.5 51.421875 16.5 36.375 
Q 16.5 21.390625 20.328125 13.890625 
Q 24.171875 6.390625 31.78125 6.390625 
Q 39.453125 6.390625 43.28125 13.890625 
Q 47.125 21.390625 47.125 36.375 
Q 47.125 51.421875 43.28125 58.90625 
Q 39.453125 66.40625 31.78125 66.40625 
z
M 31.78125 74.21875 
Q 44.046875 74.21875 50.515625 64.515625 
Q 56.984375 54.828125 56.984375 36.375 
Q 56.984375 17.96875 50.515625 8.265625 
Q 44.046875 -1.421875 31.78125 -1.421875 
Q 19.53125 -1.421875 13.0625 8.265625 
Q 6.59375 17.96875 6.59375 36.375 
Q 6.59375 54.828125 13.0625 64.515625 
Q 19.53125 74.21875 31.78125 74.21875 
z
" id="DejaVuSans-48"/>
      </defs>
      <g transform="translate(65.732264 266.598437)scale(0.1 -0.1)">
       <use xlink:href="#DejaVuSans-48"/>
      </g>
     </g>
    </g>
    <g id="xtick_2">
     <g id="line2d_2">
      <g>
       <use style="stroke:#000000;stroke-width:0.8;" x="129.847174" xlink:href="#mf0ddc7b139" y="252"/>
      </g>
     </g>
     <g id="text_2">
      <!-- 200 -->
      <defs>
       <path d="M 19.1875 8.296875 
L 53.609375 8.296875 
L 53.609375 0 
L 7.328125 0 
L 7.328125 8.296875 
Q 12.9375 14.109375 22.625 23.890625 
Q 32.328125 33.6875 34.8125 36.53125 
Q 39.546875 41.84375 41.421875 45.53125 
Q 43.3125 49.21875 43.3125 52.78125 
Q 43.3125 58.59375 39.234375 62.25 
Q 35.15625 65.921875 28.609375 65.921875 
Q 23.96875 65.921875 18.8125 64.3125 
Q 13.671875 62.703125 7.8125 59.421875 
L 7.8125 69.390625 
Q 13.765625 71.78125 18.9375 73 
Q 24.125 74.21875 28.421875 74.21875 
Q 39.75 74.21875 46.484375 68.546875 
Q 53.21875 62.890625 53.21875 53.421875 
Q 53.21875 48.921875 51.53125 44.890625 
Q 49.859375 40.875 45.40625 35.40625 
Q 44.1875 33.984375 37.640625 27.21875 
Q 31.109375 20.453125 19.1875 8.296875 
z
" id="DejaVuSans-50"/>
      </defs>
      <g transform="translate(120.303424 266.598437)scale(0.1 -0.1)">
       <use xlink:href="#DejaVuSans-50"/>
       <use x="63.623047" xlink:href="#DejaVuSans-48"/>
       <use x="127.246094" xlink:href="#DejaVuSans-48"/>
      </g>
     </g>
    </g>
    <g id="xtick_3">
     <g id="line2d_3">
      <g>
       <use style="stroke:#000000;stroke-width:0.8;" x="190.780835" xlink:href="#mf0ddc7b139" y="252"/>
      </g>
     </g>
     <g id="text_3">
      <!-- 400 -->
      <defs>
       <path d="M 37.796875 64.3125 
L 12.890625 25.390625 
L 37.796875 25.390625 
z
M 35.203125 72.90625 
L 47.609375 72.90625 
L 47.609375 25.390625 
L 58.015625 25.390625 
L 58.015625 17.1875 
L 47.609375 17.1875 
L 47.609375 0 
L 37.796875 0 
L 37.796875 17.1875 
L 4.890625 17.1875 
L 4.890625 26.703125 
z
" id="DejaVuSans-52"/>
      </defs>
      <g transform="translate(181.237085 266.598437)scale(0.1 -0.1)">
       <use xlink:href="#DejaVuSans-52"/>
       <use x="63.623047" xlink:href="#DejaVuSans-48"/>
       <use x="127.246094" xlink:href="#DejaVuSans-48"/>
      </g>
     </g>
    </g>
    <g id="xtick_4">
     <g id="line2d_4">
      <g>
       <use style="stroke:#000000;stroke-width:0.8;" x="251.714496" xlink:href="#mf0ddc7b139" y="252"/>
      </g>
     </g>
     <g id="text_4">
      <!-- 600 -->
      <defs>
       <path d="M 33.015625 40.375 
Q 26.375 40.375 22.484375 35.828125 
Q 18.609375 31.296875 18.609375 23.390625 
Q 18.609375 15.53125 22.484375 10.953125 
Q 26.375 6.390625 33.015625 6.390625 
Q 39.65625 6.390625 43.53125 10.953125 
Q 47.40625 15.53125 47.40625 23.390625 
Q 47.40625 31.296875 43.53125 35.828125 
Q 39.65625 40.375 33.015625 40.375 
z
M 52.59375 71.296875 
L 52.59375 62.3125 
Q 48.875 64.0625 45.09375 64.984375 
Q 41.3125 65.921875 37.59375 65.921875 
Q 27.828125 65.921875 22.671875 59.328125 
Q 17.53125 52.734375 16.796875 39.40625 
Q 19.671875 43.65625 24.015625 45.921875 
Q 28.375 48.1875 33.59375 48.1875 
Q 44.578125 48.1875 50.953125 41.515625 
Q 57.328125 34.859375 57.328125 23.390625 
Q 57.328125 12.15625 50.6875 5.359375 
Q 44.046875 -1.421875 33.015625 -1.421875 
Q 20.359375 -1.421875 13.671875 8.265625 
Q 6.984375 17.96875 6.984375 36.375 
Q 6.984375 53.65625 15.1875 63.9375 
Q 23.390625 74.21875 37.203125 74.21875 
Q 40.921875 74.21875 44.703125 73.484375 
Q 48.484375 72.75 52.59375 71.296875 
z
" id="DejaVuSans-54"/>
      </defs>
      <g transform="translate(242.170746 266.598437)scale(0.1 -0.1)">
       <use xlink:href="#DejaVuSans-54"/>
       <use x="63.623047" xlink:href="#DejaVuSans-48"/>
       <use x="127.246094" xlink:href="#DejaVuSans-48"/>
      </g>
     </g>
    </g>
    <g id="xtick_5">
     <g id="line2d_5">
      <g>
       <use style="stroke:#000000;stroke-width:0.8;" x="312.648157" xlink:href="#mf0ddc7b139" y="252"/>
      </g>
     </g>
     <g id="text_5">
      <!-- 800 -->
      <defs>
       <path d="M 31.78125 34.625 
Q 24.75 34.625 20.71875 30.859375 
Q 16.703125 27.09375 16.703125 20.515625 
Q 16.703125 13.921875 20.71875 10.15625 
Q 24.75 6.390625 31.78125 6.390625 
Q 38.8125 6.390625 42.859375 10.171875 
Q 46.921875 13.96875 46.921875 20.515625 
Q 46.921875 27.09375 42.890625 30.859375 
Q 38.875 34.625 31.78125 34.625 
z
M 21.921875 38.8125 
Q 15.578125 40.375 12.03125 44.71875 
Q 8.5 49.078125 8.5 55.328125 
Q 8.5 64.0625 14.71875 69.140625 
Q 20.953125 74.21875 31.78125 74.21875 
Q 42.671875 74.21875 48.875 69.140625 
Q 55.078125 64.0625 55.078125 55.328125 
Q 55.078125 49.078125 51.53125 44.71875 
Q 48 40.375 41.703125 38.8125 
Q 48.828125 37.15625 52.796875 32.3125 
Q 56.78125 27.484375 56.78125 20.515625 
Q 56.78125 9.90625 50.3125 4.234375 
Q 43.84375 -1.421875 31.78125 -1.421875 
Q 19.734375 -1.421875 13.25 4.234375 
Q 6.78125 9.90625 6.78125 20.515625 
Q 6.78125 27.484375 10.78125 32.3125 
Q 14.796875 37.15625 21.921875 38.8125 
z
M 18.3125 54.390625 
Q 18.3125 48.734375 21.84375 45.5625 
Q 25.390625 42.390625 31.78125 42.390625 
Q 38.140625 42.390625 41.71875 45.5625 
Q 45.3125 48.734375 45.3125 54.390625 
Q 45.3125 60.0625 41.71875 63.234375 
Q 38.140625 66.40625 31.78125 66.40625 
Q 25.390625 66.40625 21.84375 63.234375 
Q 18.3125 60.0625 18.3125 54.390625 
z
" id="DejaVuSans-56"/>
      </defs>
      <g transform="translate(303.104407 266.598437)scale(0.1 -0.1)">
       <use xlink:href="#DejaVuSans-56"/>
       <use x="63.623047" xlink:href="#DejaVuSans-48"/>
       <use x="127.246094" xlink:href="#DejaVuSans-48"/>
      </g>
     </g>
    </g>
    <g id="xtick_6">
     <g id="line2d_6">
      <g>
       <use style="stroke:#000000;stroke-width:0.8;" x="373.581818" xlink:href="#mf0ddc7b139" y="252"/>
      </g>
     </g>
     <g id="text_6">
      <!-- 1000 -->
      <defs>
       <path d="M 12.40625 8.296875 
L 28.515625 8.296875 
L 28.515625 63.921875 
L 10.984375 60.40625 
L 10.984375 69.390625 
L 28.421875 72.90625 
L 38.28125 72.90625 
L 38.28125 8.296875 
L 54.390625 8.296875 
L 54.390625 0 
L 12.40625 0 
z
" id="DejaVuSans-49"/>
      </defs>
      <g transform="translate(360.856818 266.598437)scale(0.1 -0.1)">
       <use xlink:href="#DejaVuSans-49"/>
       <use x="63.623047" xlink:href="#DejaVuSans-48"/>
       <use x="127.246094" xlink:href="#DejaVuSans-48"/>
       <use x="190.869141" xlink:href="#DejaVuSans-48"/>
      </g>
     </g>
    </g>
   </g>
   <g id="matplotlib.axis_2">
    <g id="ytick_1">
     <g id="line2d_7">
      <defs>
       <path d="M 0 0 
L -3.5 0 
" id="m292073071b" style="stroke:#000000;stroke-width:0.8;"/>
      </defs>
      <g>
       <use style="stroke:#000000;stroke-width:0.8;" x="54" xlink:href="#m292073071b" y="242.101133"/>
      </g>
     </g>
     <g id="text_7">
      <!-- 0 -->
      <g transform="translate(40.6375 245.900352)scale(0.1 -0.1)">
       <use xlink:href="#DejaVuSans-48"/>
      </g>
     </g>
    </g>
    <g id="ytick_2">
     <g id="line2d_8">
      <g>
       <use style="stroke:#000000;stroke-width:0.8;" x="54" xlink:href="#m292073071b" y="211.264709"/>
      </g>
     </g>
     <g id="text_8">
      <!-- 100 -->
      <g transform="translate(27.9125 215.063927)scale(0.1 -0.1)">
       <use xlink:href="#DejaVuSans-49"/>
       <use x="63.623047" xlink:href="#DejaVuSans-48"/>
       <use x="127.246094" xlink:href="#DejaVuSans-48"/>
      </g>
     </g>
    </g>
    <g id="ytick_3">
     <g id="line2d_9">
      <g>
       <use style="stroke:#000000;stroke-width:0.8;" x="54" xlink:href="#m292073071b" y="180.428284"/>
      </g>
     </g>
     <g id="text_9">
      <!-- 200 -->
      <g transform="translate(27.9125 184.227503)scale(0.1 -0.1)">
       <use xlink:href="#DejaVuSans-50"/>
       <use x="63.623047" xlink:href="#DejaVuSans-48"/>
       <use x="127.246094" xlink:href="#DejaVuSans-48"/>
      </g>
     </g>
    </g>
    <g id="ytick_4">
     <g id="line2d_10">
      <g>
       <use style="stroke:#000000;stroke-width:0.8;" x="54" xlink:href="#m292073071b" y="149.591859"/>
      </g>
     </g>
     <g id="text_10">
      <!-- 300 -->
      <defs>
       <path d="M 40.578125 39.3125 
Q 47.65625 37.796875 51.625 33 
Q 55.609375 28.21875 55.609375 21.1875 
Q 55.609375 10.40625 48.1875 4.484375 
Q 40.765625 -1.421875 27.09375 -1.421875 
Q 22.515625 -1.421875 17.65625 -0.515625 
Q 12.796875 0.390625 7.625 2.203125 
L 7.625 11.71875 
Q 11.71875 9.328125 16.59375 8.109375 
Q 21.484375 6.890625 26.8125 6.890625 
Q 36.078125 6.890625 40.9375 10.546875 
Q 45.796875 14.203125 45.796875 21.1875 
Q 45.796875 27.640625 41.28125 31.265625 
Q 36.765625 34.90625 28.71875 34.90625 
L 20.21875 34.90625 
L 20.21875 43.015625 
L 29.109375 43.015625 
Q 36.375 43.015625 40.234375 45.921875 
Q 44.09375 48.828125 44.09375 54.296875 
Q 44.09375 59.90625 40.109375 62.90625 
Q 36.140625 65.921875 28.71875 65.921875 
Q 24.65625 65.921875 20.015625 65.03125 
Q 15.375 64.15625 9.8125 62.3125 
L 9.8125 71.09375 
Q 15.4375 72.65625 20.34375 73.4375 
Q 25.25 74.21875 29.59375 74.21875 
Q 40.828125 74.21875 47.359375 69.109375 
Q 53.90625 64.015625 53.90625 55.328125 
Q 53.90625 49.265625 50.4375 45.09375 
Q 46.96875 40.921875 40.578125 39.3125 
z
" id="DejaVuSans-51"/>
      </defs>
      <g transform="translate(27.9125 153.391078)scale(0.1 -0.1)">
       <use xlink:href="#DejaVuSans-51"/>
       <use x="63.623047" xlink:href="#DejaVuSans-48"/>
       <use x="127.246094" xlink:href="#DejaVuSans-48"/>
      </g>
     </g>
    </g>
    <g id="ytick_5">
     <g id="line2d_11">
      <g>
       <use style="stroke:#000000;stroke-width:0.8;" x="54" xlink:href="#m292073071b" y="118.755435"/>
      </g>
     </g>
     <g id="text_11">
      <!-- 400 -->
      <g transform="translate(27.9125 122.554654)scale(0.1 -0.1)">
       <use xlink:href="#DejaVuSans-52"/>
       <use x="63.623047" xlink:href="#DejaVuSans-48"/>
       <use x="127.246094" xlink:href="#DejaVuSans-48"/>
      </g>
     </g>
    </g>
    <g id="ytick_6">
     <g id="line2d_12">
      <g>
       <use style="stroke:#000000;stroke-width:0.8;" x="54" xlink:href="#m292073071b" y="87.91901"/>
      </g>
     </g>
     <g id="text_12">
      <!-- 500 -->
      <defs>
       <path d="M 10.796875 72.90625 
L 49.515625 72.90625 
L 49.515625 64.59375 
L 19.828125 64.59375 
L 19.828125 46.734375 
Q 21.96875 47.46875 24.109375 47.828125 
Q 26.265625 48.1875 28.421875 48.1875 
Q 40.625 48.1875 47.75 41.5 
Q 54.890625 34.8125 54.890625 23.390625 
Q 54.890625 11.625 47.5625 5.09375 
Q 40.234375 -1.421875 26.90625 -1.421875 
Q 22.3125 -1.421875 17.546875 -0.640625 
Q 12.796875 0.140625 7.71875 1.703125 
L 7.71875 11.625 
Q 12.109375 9.234375 16.796875 8.0625 
Q 21.484375 6.890625 26.703125 6.890625 
Q 35.15625 6.890625 40.078125 11.328125 
Q 45.015625 15.765625 45.015625 23.390625 
Q 45.015625 31 40.078125 35.4375 
Q 35.15625 39.890625 26.703125 39.890625 
Q 22.75 39.890625 18.8125 39.015625 
Q 14.890625 38.140625 10.796875 36.28125 
z
" id="DejaVuSans-53"/>
      </defs>
      <g transform="translate(27.9125 91.718229)scale(0.1 -0.1)">
       <use xlink:href="#DejaVuSans-53"/>
       <use x="63.623047" xlink:href="#DejaVuSans-48"/>
       <use x="127.246094" xlink:href="#DejaVuSans-48"/>
      </g>
     </g>
    </g>
    <g id="ytick_7">
     <g id="line2d_13">
      <g>
       <use style="stroke:#000000;stroke-width:0.8;" x="54" xlink:href="#m292073071b" y="57.082586"/>
      </g>
     </g>
     <g id="text_13">
      <!-- 600 -->
      <g transform="translate(27.9125 60.881804)scale(0.1 -0.1)">
       <use xlink:href="#DejaVuSans-54"/>
       <use x="63.623047" xlink:href="#DejaVuSans-48"/>
       <use x="127.246094" xlink:href="#DejaVuSans-48"/>
      </g>
     </g>
    </g>
   </g>
   <g id="line2d_14">
    <defs>
     <path d="M 0 3 
C 0.795609 3 1.55874 2.683901 2.12132 2.12132 
C 2.683901 1.55874 3 0.795609 3 0 
C 3 -0.795609 2.683901 -1.55874 2.12132 -2.12132 
C 1.55874 -2.683901 0.795609 -3 0 -3 
C -0.795609 -3 -1.55874 -2.683901 -2.12132 -2.12132 
C -2.683901 -1.55874 -3 -0.795609 -3 0 
C -3 0.795609 -2.683901 1.55874 -2.12132 2.12132 
C -1.55874 2.683901 -0.795609 3 0 3 
z
" id="m72bae57e88" style="stroke:#ff0000;"/>
    </defs>
    <g clip-path="url(#p7b014fe3e2)">
     <use style="fill:#ff0000;stroke:#ff0000;" x="69.218182" xlink:href="#m72bae57e88" y="242.075984"/>
     <use style="fill:#ff0000;stroke:#ff0000;" x="69.52285" xlink:href="#m72bae57e88" y="242.092202"/>
     <use style="fill:#ff0000;stroke:#ff0000;" x="69.827518" xlink:href="#m72bae57e88" y="242.0916"/>
     <use style="fill:#ff0000;stroke:#ff0000;" x="70.132187" xlink:href="#m72bae57e88" y="242.091391"/>
     <use style="fill:#ff0000;stroke:#ff0000;" x="70.436855" xlink:href="#m72bae57e88" y="242.090297"/>
     <use style="fill:#ff0000;stroke:#ff0000;" x="70.741523" xlink:href="#m72bae57e88" y="242.090533"/>
     <use style="fill:#ff0000;stroke:#ff0000;" x="71.046192" xlink:href="#m72bae57e88" y="242.089981"/>
     <use style="fill:#ff0000;stroke:#ff0000;" x="71.35086" xlink:href="#m72bae57e88" y="242.089761"/>
     <use style="fill:#ff0000;stroke:#ff0000;" x="71.655528" xlink:href="#m72bae57e88" y="242.088957"/>
     <use style="fill:#ff0000;stroke:#ff0000;" x="71.960197" xlink:href="#m72bae57e88" y="242.088497"/>
     <use style="fill:#ff0000;stroke:#ff0000;" x="72.264865" xlink:href="#m72bae57e88" y="242.087782"/>
     <use style="fill:#ff0000;stroke:#ff0000;" x="72.569533" xlink:href="#m72bae57e88" y="242.086992"/>
     <use style="fill:#ff0000;stroke:#ff0000;" x="72.874201" xlink:href="#m72bae57e88" y="242.085949"/>
     <use style="fill:#ff0000;stroke:#ff0000;" x="73.17887" xlink:href="#m72bae57e88" y="242.085557"/>
     <use style="fill:#ff0000;stroke:#ff0000;" x="73.483538" xlink:href="#m72bae57e88" y="242.08484"/>
     <use style="fill:#ff0000;stroke:#ff0000;" x="73.788206" xlink:href="#m72bae57e88" y="242.084053"/>
     <use style="fill:#ff0000;stroke:#ff0000;" x="74.092875" xlink:href="#m72bae57e88" y="242.083097"/>
     <use style="fill:#ff0000;stroke:#ff0000;" x="74.397543" xlink:href="#m72bae57e88" y="242.08196"/>
     <use style="fill:#ff0000;stroke:#ff0000;" x="74.702211" xlink:href="#m72bae57e88" y="242.080956"/>
     <use style="fill:#ff0000;stroke:#ff0000;" x="75.00688" xlink:href="#m72bae57e88" y="242.079735"/>
     <use style="fill:#ff0000;stroke:#ff0000;" x="75.311548" xlink:href="#m72bae57e88" y="242.07812"/>
     <use style="fill:#ff0000;stroke:#ff0000;" x="75.616216" xlink:href="#m72bae57e88" y="242.076845"/>
     <use style="fill:#ff0000;stroke:#ff0000;" x="75.920885" xlink:href="#m72bae57e88" y="242.075677"/>
     <use style="fill:#ff0000;stroke:#ff0000;" x="76.225553" xlink:href="#m72bae57e88" y="242.073322"/>
     <use style="fill:#ff0000;stroke:#ff0000;" x="76.530221" xlink:href="#m72bae57e88" y="242.072644"/>
     <use style="fill:#ff0000;stroke:#ff0000;" x="76.834889" xlink:href="#m72bae57e88" y="242.071227"/>
     <use style="fill:#ff0000;stroke:#ff0000;" x="77.139558" xlink:href="#m72bae57e88" y="242.069345"/>
     <use style="fill:#ff0000;stroke:#ff0000;" x="77.444226" xlink:href="#m72bae57e88" y="242.067741"/>
     <use style="fill:#ff0000;stroke:#ff0000;" x="77.748894" xlink:href="#m72bae57e88" y="242.065721"/>
     <use style="fill:#ff0000;stroke:#ff0000;" x="78.053563" xlink:href="#m72bae57e88" y="242.06449"/>
     <use style="fill:#ff0000;stroke:#ff0000;" x="78.358231" xlink:href="#m72bae57e88" y="242.062484"/>
     <use style="fill:#ff0000;stroke:#ff0000;" x="78.662899" xlink:href="#m72bae57e88" y="242.060521"/>
     <use style="fill:#ff0000;stroke:#ff0000;" x="78.967568" xlink:href="#m72bae57e88" y="242.058315"/>
     <use style="fill:#ff0000;stroke:#ff0000;" x="79.272236" xlink:href="#m72bae57e88" y="242.057276"/>
     <use style="fill:#ff0000;stroke:#ff0000;" x="79.576904" xlink:href="#m72bae57e88" y="242.054693"/>
     <use style="fill:#ff0000;stroke:#ff0000;" x="79.881572" xlink:href="#m72bae57e88" y="242.051924"/>
     <use style="fill:#ff0000;stroke:#ff0000;" x="80.186241" xlink:href="#m72bae57e88" y="242.050319"/>
     <use style="fill:#ff0000;stroke:#ff0000;" x="80.490909" xlink:href="#m72bae57e88" y="242.048458"/>
     <use style="fill:#ff0000;stroke:#ff0000;" x="80.795577" xlink:href="#m72bae57e88" y="242.045964"/>
     <use style="fill:#ff0000;stroke:#ff0000;" x="81.100246" xlink:href="#m72bae57e88" y="242.044301"/>
     <use style="fill:#ff0000;stroke:#ff0000;" x="81.404914" xlink:href="#m72bae57e88" y="242.040991"/>
     <use style="fill:#ff0000;stroke:#ff0000;" x="81.709582" xlink:href="#m72bae57e88" y="242.038369"/>
     <use style="fill:#ff0000;stroke:#ff0000;" x="82.014251" xlink:href="#m72bae57e88" y="242.036324"/>
     <use style="fill:#ff0000;stroke:#ff0000;" x="82.318919" xlink:href="#m72bae57e88" y="242.034015"/>
     <use style="fill:#ff0000;stroke:#ff0000;" x="82.623587" xlink:href="#m72bae57e88" y="242.031497"/>
     <use style="fill:#ff0000;stroke:#ff0000;" x="82.928256" xlink:href="#m72bae57e88" y="242.028164"/>
     <use style="fill:#ff0000;stroke:#ff0000;" x="83.232924" xlink:href="#m72bae57e88" y="242.024625"/>
     <use style="fill:#ff0000;stroke:#ff0000;" x="83.537592" xlink:href="#m72bae57e88" y="242.021902"/>
     <use style="fill:#ff0000;stroke:#ff0000;" x="83.84226" xlink:href="#m72bae57e88" y="242.019435"/>
     <use style="fill:#ff0000;stroke:#ff0000;" x="84.146929" xlink:href="#m72bae57e88" y="242.015358"/>
     <use style="fill:#ff0000;stroke:#ff0000;" x="84.451597" xlink:href="#m72bae57e88" y="242.01071"/>
     <use style="fill:#ff0000;stroke:#ff0000;" x="84.756265" xlink:href="#m72bae57e88" y="242.009525"/>
     <use style="fill:#ff0000;stroke:#ff0000;" x="85.060934" xlink:href="#m72bae57e88" y="242.006219"/>
     <use style="fill:#ff0000;stroke:#ff0000;" x="85.365602" xlink:href="#m72bae57e88" y="242.002725"/>
     <use style="fill:#ff0000;stroke:#ff0000;" x="85.67027" xlink:href="#m72bae57e88" y="241.999446"/>
     <use style="fill:#ff0000;stroke:#ff0000;" x="85.974939" xlink:href="#m72bae57e88" y="241.995104"/>
     <use style="fill:#ff0000;stroke:#ff0000;" x="86.279607" xlink:href="#m72bae57e88" y="241.989769"/>
     <use style="fill:#ff0000;stroke:#ff0000;" x="86.584275" xlink:href="#m72bae57e88" y="241.987267"/>
     <use style="fill:#ff0000;stroke:#ff0000;" x="86.888943" xlink:href="#m72bae57e88" y="241.982339"/>
     <use style="fill:#ff0000;stroke:#ff0000;" x="87.193612" xlink:href="#m72bae57e88" y="241.978374"/>
     <use style="fill:#ff0000;stroke:#ff0000;" x="87.49828" xlink:href="#m72bae57e88" y="241.974324"/>
     <use style="fill:#ff0000;stroke:#ff0000;" x="87.802948" xlink:href="#m72bae57e88" y="241.969606"/>
     <use style="fill:#ff0000;stroke:#ff0000;" x="88.107617" xlink:href="#m72bae57e88" y="241.966319"/>
     <use style="fill:#ff0000;stroke:#ff0000;" x="88.412285" xlink:href="#m72bae57e88" y="241.9612"/>
     <use style="fill:#ff0000;stroke:#ff0000;" x="88.716953" xlink:href="#m72bae57e88" y="241.957525"/>
     <use style="fill:#ff0000;stroke:#ff0000;" x="89.021622" xlink:href="#m72bae57e88" y="241.952662"/>
     <use style="fill:#ff0000;stroke:#ff0000;" x="89.32629" xlink:href="#m72bae57e88" y="241.948797"/>
     <use style="fill:#ff0000;stroke:#ff0000;" x="89.630958" xlink:href="#m72bae57e88" y="241.94436"/>
     <use style="fill:#ff0000;stroke:#ff0000;" x="89.935627" xlink:href="#m72bae57e88" y="241.939839"/>
     <use style="fill:#ff0000;stroke:#ff0000;" x="90.240295" xlink:href="#m72bae57e88" y="241.933909"/>
     <use style="fill:#ff0000;stroke:#ff0000;" x="90.544963" xlink:href="#m72bae57e88" y="241.929493"/>
     <use style="fill:#ff0000;stroke:#ff0000;" x="90.849631" xlink:href="#m72bae57e88" y="241.922663"/>
     <use style="fill:#ff0000;stroke:#ff0000;" x="91.1543" xlink:href="#m72bae57e88" y="241.919916"/>
     <use style="fill:#ff0000;stroke:#ff0000;" x="91.458968" xlink:href="#m72bae57e88" y="241.914996"/>
     <use style="fill:#ff0000;stroke:#ff0000;" x="91.763636" xlink:href="#m72bae57e88" y="241.909552"/>
     <use style="fill:#ff0000;stroke:#ff0000;" x="92.068305" xlink:href="#m72bae57e88" y="241.903929"/>
     <use style="fill:#ff0000;stroke:#ff0000;" x="92.372973" xlink:href="#m72bae57e88" y="241.897788"/>
     <use style="fill:#ff0000;stroke:#ff0000;" x="92.677641" xlink:href="#m72bae57e88" y="241.893377"/>
     <use style="fill:#ff0000;stroke:#ff0000;" x="92.98231" xlink:href="#m72bae57e88" y="241.887792"/>
     <use style="fill:#ff0000;stroke:#ff0000;" x="93.286978" xlink:href="#m72bae57e88" y="241.880843"/>
     <use style="fill:#ff0000;stroke:#ff0000;" x="93.591646" xlink:href="#m72bae57e88" y="241.874603"/>
     <use style="fill:#ff0000;stroke:#ff0000;" x="93.896314" xlink:href="#m72bae57e88" y="241.87091"/>
     <use style="fill:#ff0000;stroke:#ff0000;" x="94.200983" xlink:href="#m72bae57e88" y="241.863257"/>
     <use style="fill:#ff0000;stroke:#ff0000;" x="94.505651" xlink:href="#m72bae57e88" y="241.857004"/>
     <use style="fill:#ff0000;stroke:#ff0000;" x="94.810319" xlink:href="#m72bae57e88" y="241.851401"/>
     <use style="fill:#ff0000;stroke:#ff0000;" x="95.114988" xlink:href="#m72bae57e88" y="241.840283"/>
     <use style="fill:#ff0000;stroke:#ff0000;" x="95.419656" xlink:href="#m72bae57e88" y="241.83696"/>
     <use style="fill:#ff0000;stroke:#ff0000;" x="95.724324" xlink:href="#m72bae57e88" y="241.829612"/>
     <use style="fill:#ff0000;stroke:#ff0000;" x="96.028993" xlink:href="#m72bae57e88" y="241.823525"/>
     <use style="fill:#ff0000;stroke:#ff0000;" x="96.333661" xlink:href="#m72bae57e88" y="241.816791"/>
     <use style="fill:#ff0000;stroke:#ff0000;" x="96.638329" xlink:href="#m72bae57e88" y="241.805988"/>
     <use style="fill:#ff0000;stroke:#ff0000;" x="96.942998" xlink:href="#m72bae57e88" y="241.803133"/>
     <use style="fill:#ff0000;stroke:#ff0000;" x="97.247666" xlink:href="#m72bae57e88" y="241.791957"/>
     <use style="fill:#ff0000;stroke:#ff0000;" x="97.552334" xlink:href="#m72bae57e88" y="241.785809"/>
     <use style="fill:#ff0000;stroke:#ff0000;" x="97.857002" xlink:href="#m72bae57e88" y="241.777422"/>
     <use style="fill:#ff0000;stroke:#ff0000;" x="98.161671" xlink:href="#m72bae57e88" y="241.769246"/>
     <use style="fill:#ff0000;stroke:#ff0000;" x="98.466339" xlink:href="#m72bae57e88" y="241.766133"/>
     <use style="fill:#ff0000;stroke:#ff0000;" x="98.771007" xlink:href="#m72bae57e88" y="241.755051"/>
     <use style="fill:#ff0000;stroke:#ff0000;" x="99.075676" xlink:href="#m72bae57e88" y="241.74895"/>
     <use style="fill:#ff0000;stroke:#ff0000;" x="99.380344" xlink:href="#m72bae57e88" y="241.738819"/>
     <use style="fill:#ff0000;stroke:#ff0000;" x="99.685012" xlink:href="#m72bae57e88" y="241.729368"/>
     <use style="fill:#ff0000;stroke:#ff0000;" x="99.989681" xlink:href="#m72bae57e88" y="241.724577"/>
     <use style="fill:#ff0000;stroke:#ff0000;" x="100.294349" xlink:href="#m72bae57e88" y="241.717747"/>
     <use style="fill:#ff0000;stroke:#ff0000;" x="100.599017" xlink:href="#m72bae57e88" y="241.708239"/>
     <use style="fill:#ff0000;stroke:#ff0000;" x="100.903686" xlink:href="#m72bae57e88" y="241.70022"/>
     <use style="fill:#ff0000;stroke:#ff0000;" x="101.208354" xlink:href="#m72bae57e88" y="241.691774"/>
     <use style="fill:#ff0000;stroke:#ff0000;" x="101.513022" xlink:href="#m72bae57e88" y="241.67476"/>
     <use style="fill:#ff0000;stroke:#ff0000;" x="101.81769" xlink:href="#m72bae57e88" y="241.675014"/>
     <use style="fill:#ff0000;stroke:#ff0000;" x="102.122359" xlink:href="#m72bae57e88" y="241.659634"/>
     <use style="fill:#ff0000;stroke:#ff0000;" x="102.427027" xlink:href="#m72bae57e88" y="241.648139"/>
     <use style="fill:#ff0000;stroke:#ff0000;" x="102.731695" xlink:href="#m72bae57e88" y="241.635874"/>
     <use style="fill:#ff0000;stroke:#ff0000;" x="103.036364" xlink:href="#m72bae57e88" y="241.619167"/>
     <use style="fill:#ff0000;stroke:#ff0000;" x="103.341032" xlink:href="#m72bae57e88" y="241.61307"/>
     <use style="fill:#ff0000;stroke:#ff0000;" x="103.6457" xlink:href="#m72bae57e88" y="241.60876"/>
     <use style="fill:#ff0000;stroke:#ff0000;" x="103.950369" xlink:href="#m72bae57e88" y="241.596444"/>
     <use style="fill:#ff0000;stroke:#ff0000;" x="104.255037" xlink:href="#m72bae57e88" y="241.573919"/>
     <use style="fill:#ff0000;stroke:#ff0000;" x="104.559705" xlink:href="#m72bae57e88" y="241.549259"/>
     <use style="fill:#ff0000;stroke:#ff0000;" x="104.864373" xlink:href="#m72bae57e88" y="241.544507"/>
     <use style="fill:#ff0000;stroke:#ff0000;" x="105.169042" xlink:href="#m72bae57e88" y="241.531145"/>
     <use style="fill:#ff0000;stroke:#ff0000;" x="105.47371" xlink:href="#m72bae57e88" y="241.512772"/>
     <use style="fill:#ff0000;stroke:#ff0000;" x="105.778378" xlink:href="#m72bae57e88" y="241.530208"/>
     <use style="fill:#ff0000;stroke:#ff0000;" x="106.083047" xlink:href="#m72bae57e88" y="241.512999"/>
     <use style="fill:#ff0000;stroke:#ff0000;" x="106.387715" xlink:href="#m72bae57e88" y="241.510775"/>
     <use style="fill:#ff0000;stroke:#ff0000;" x="106.692383" xlink:href="#m72bae57e88" y="241.486412"/>
     <use style="fill:#ff0000;stroke:#ff0000;" x="106.997052" xlink:href="#m72bae57e88" y="241.484912"/>
     <use style="fill:#ff0000;stroke:#ff0000;" x="107.30172" xlink:href="#m72bae57e88" y="241.462702"/>
     <use style="fill:#ff0000;stroke:#ff0000;" x="107.606388" xlink:href="#m72bae57e88" y="241.437587"/>
     <use style="fill:#ff0000;stroke:#ff0000;" x="107.911057" xlink:href="#m72bae57e88" y="241.450038"/>
     <use style="fill:#ff0000;stroke:#ff0000;" x="108.215725" xlink:href="#m72bae57e88" y="241.385219"/>
     <use style="fill:#ff0000;stroke:#ff0000;" x="108.520393" xlink:href="#m72bae57e88" y="241.404514"/>
     <use style="fill:#ff0000;stroke:#ff0000;" x="108.825061" xlink:href="#m72bae57e88" y="241.417088"/>
     <use style="fill:#ff0000;stroke:#ff0000;" x="109.12973" xlink:href="#m72bae57e88" y="241.400818"/>
     <use style="fill:#ff0000;stroke:#ff0000;" x="109.434398" xlink:href="#m72bae57e88" y="241.379739"/>
     <use style="fill:#ff0000;stroke:#ff0000;" x="109.739066" xlink:href="#m72bae57e88" y="241.378523"/>
     <use style="fill:#ff0000;stroke:#ff0000;" x="110.043735" xlink:href="#m72bae57e88" y="241.361527"/>
     <use style="fill:#ff0000;stroke:#ff0000;" x="110.348403" xlink:href="#m72bae57e88" y="241.34952"/>
     <use style="fill:#ff0000;stroke:#ff0000;" x="110.653071" xlink:href="#m72bae57e88" y="241.264653"/>
     <use style="fill:#ff0000;stroke:#ff0000;" x="110.95774" xlink:href="#m72bae57e88" y="241.330344"/>
     <use style="fill:#ff0000;stroke:#ff0000;" x="111.262408" xlink:href="#m72bae57e88" y="241.316571"/>
     <use style="fill:#ff0000;stroke:#ff0000;" x="111.567076" xlink:href="#m72bae57e88" y="241.28596"/>
     <use style="fill:#ff0000;stroke:#ff0000;" x="111.871744" xlink:href="#m72bae57e88" y="241.294726"/>
     <use style="fill:#ff0000;stroke:#ff0000;" x="112.176413" xlink:href="#m72bae57e88" y="241.279895"/>
     <use style="fill:#ff0000;stroke:#ff0000;" x="112.481081" xlink:href="#m72bae57e88" y="241.264292"/>
     <use style="fill:#ff0000;stroke:#ff0000;" x="112.785749" xlink:href="#m72bae57e88" y="241.242793"/>
     <use style="fill:#ff0000;stroke:#ff0000;" x="113.090418" xlink:href="#m72bae57e88" y="241.229367"/>
     <use style="fill:#ff0000;stroke:#ff0000;" x="113.395086" xlink:href="#m72bae57e88" y="241.196928"/>
     <use style="fill:#ff0000;stroke:#ff0000;" x="113.699754" xlink:href="#m72bae57e88" y="241.20138"/>
     <use style="fill:#ff0000;stroke:#ff0000;" x="114.004423" xlink:href="#m72bae57e88" y="241.193754"/>
     <use style="fill:#ff0000;stroke:#ff0000;" x="114.309091" xlink:href="#m72bae57e88" y="241.159338"/>
     <use style="fill:#ff0000;stroke:#ff0000;" x="114.613759" xlink:href="#m72bae57e88" y="241.153488"/>
     <use style="fill:#ff0000;stroke:#ff0000;" x="114.918428" xlink:href="#m72bae57e88" y="241.12282"/>
     <use style="fill:#ff0000;stroke:#ff0000;" x="115.223096" xlink:href="#m72bae57e88" y="241.128074"/>
     <use style="fill:#ff0000;stroke:#ff0000;" x="115.527764" xlink:href="#m72bae57e88" y="241.099876"/>
     <use style="fill:#ff0000;stroke:#ff0000;" x="115.832432" xlink:href="#m72bae57e88" y="241.095565"/>
     <use style="fill:#ff0000;stroke:#ff0000;" x="116.137101" xlink:href="#m72bae57e88" y="241.085518"/>
     <use style="fill:#ff0000;stroke:#ff0000;" x="116.441769" xlink:href="#m72bae57e88" y="241.054229"/>
     <use style="fill:#ff0000;stroke:#ff0000;" x="116.746437" xlink:href="#m72bae57e88" y="241.032746"/>
     <use style="fill:#ff0000;stroke:#ff0000;" x="117.051106" xlink:href="#m72bae57e88" y="241.039226"/>
     <use style="fill:#ff0000;stroke:#ff0000;" x="117.355774" xlink:href="#m72bae57e88" y="241.013496"/>
     <use style="fill:#ff0000;stroke:#ff0000;" x="117.660442" xlink:href="#m72bae57e88" y="240.989721"/>
     <use style="fill:#ff0000;stroke:#ff0000;" x="117.965111" xlink:href="#m72bae57e88" y="240.987591"/>
     <use style="fill:#ff0000;stroke:#ff0000;" x="118.269779" xlink:href="#m72bae57e88" y="240.945607"/>
     <use style="fill:#ff0000;stroke:#ff0000;" x="118.574447" xlink:href="#m72bae57e88" y="240.933719"/>
     <use style="fill:#ff0000;stroke:#ff0000;" x="118.879115" xlink:href="#m72bae57e88" y="240.926373"/>
     <use style="fill:#ff0000;stroke:#ff0000;" x="119.183784" xlink:href="#m72bae57e88" y="240.910422"/>
     <use style="fill:#ff0000;stroke:#ff0000;" x="119.488452" xlink:href="#m72bae57e88" y="240.880793"/>
     <use style="fill:#ff0000;stroke:#ff0000;" x="119.79312" xlink:href="#m72bae57e88" y="240.873056"/>
     <use style="fill:#ff0000;stroke:#ff0000;" x="120.097789" xlink:href="#m72bae57e88" y="240.855382"/>
     <use style="fill:#ff0000;stroke:#ff0000;" x="120.402457" xlink:href="#m72bae57e88" y="240.837952"/>
     <use style="fill:#ff0000;stroke:#ff0000;" x="120.707125" xlink:href="#m72bae57e88" y="240.829963"/>
     <use style="fill:#ff0000;stroke:#ff0000;" x="121.011794" xlink:href="#m72bae57e88" y="240.801991"/>
     <use style="fill:#ff0000;stroke:#ff0000;" x="121.316462" xlink:href="#m72bae57e88" y="240.772888"/>
     <use style="fill:#ff0000;stroke:#ff0000;" x="121.62113" xlink:href="#m72bae57e88" y="240.770149"/>
     <use style="fill:#ff0000;stroke:#ff0000;" x="121.925799" xlink:href="#m72bae57e88" y="240.741436"/>
     <use style="fill:#ff0000;stroke:#ff0000;" x="122.230467" xlink:href="#m72bae57e88" y="240.729123"/>
     <use style="fill:#ff0000;stroke:#ff0000;" x="122.535135" xlink:href="#m72bae57e88" y="240.70724"/>
     <use style="fill:#ff0000;stroke:#ff0000;" x="122.839803" xlink:href="#m72bae57e88" y="240.705061"/>
     <use style="fill:#ff0000;stroke:#ff0000;" x="123.144472" xlink:href="#m72bae57e88" y="240.649406"/>
     <use style="fill:#ff0000;stroke:#ff0000;" x="123.44914" xlink:href="#m72bae57e88" y="240.627235"/>
     <use style="fill:#ff0000;stroke:#ff0000;" x="123.753808" xlink:href="#m72bae57e88" y="240.630831"/>
     <use style="fill:#ff0000;stroke:#ff0000;" x="124.058477" xlink:href="#m72bae57e88" y="240.573605"/>
     <use style="fill:#ff0000;stroke:#ff0000;" x="124.363145" xlink:href="#m72bae57e88" y="240.582978"/>
     <use style="fill:#ff0000;stroke:#ff0000;" x="124.667813" xlink:href="#m72bae57e88" y="240.551857"/>
     <use style="fill:#ff0000;stroke:#ff0000;" x="124.972482" xlink:href="#m72bae57e88" y="240.556625"/>
     <use style="fill:#ff0000;stroke:#ff0000;" x="125.27715" xlink:href="#m72bae57e88" y="240.509477"/>
     <use style="fill:#ff0000;stroke:#ff0000;" x="125.581818" xlink:href="#m72bae57e88" y="240.489361"/>
     <use style="fill:#ff0000;stroke:#ff0000;" x="125.886486" xlink:href="#m72bae57e88" y="240.483234"/>
     <use style="fill:#ff0000;stroke:#ff0000;" x="126.191155" xlink:href="#m72bae57e88" y="240.457912"/>
     <use style="fill:#ff0000;stroke:#ff0000;" x="126.495823" xlink:href="#m72bae57e88" y="240.44808"/>
     <use style="fill:#ff0000;stroke:#ff0000;" x="126.800491" xlink:href="#m72bae57e88" y="240.392622"/>
     <use style="fill:#ff0000;stroke:#ff0000;" x="127.10516" xlink:href="#m72bae57e88" y="240.382103"/>
     <use style="fill:#ff0000;stroke:#ff0000;" x="127.409828" xlink:href="#m72bae57e88" y="240.321429"/>
     <use style="fill:#ff0000;stroke:#ff0000;" x="127.714496" xlink:href="#m72bae57e88" y="240.29569"/>
     <use style="fill:#ff0000;stroke:#ff0000;" x="128.019165" xlink:href="#m72bae57e88" y="240.30836"/>
     <use style="fill:#ff0000;stroke:#ff0000;" x="128.323833" xlink:href="#m72bae57e88" y="240.281675"/>
     <use style="fill:#ff0000;stroke:#ff0000;" x="128.628501" xlink:href="#m72bae57e88" y="240.237102"/>
     <use style="fill:#ff0000;stroke:#ff0000;" x="128.93317" xlink:href="#m72bae57e88" y="240.131452"/>
     <use style="fill:#ff0000;stroke:#ff0000;" x="129.237838" xlink:href="#m72bae57e88" y="240.22018"/>
     <use style="fill:#ff0000;stroke:#ff0000;" x="129.542506" xlink:href="#m72bae57e88" y="240.170513"/>
     <use style="fill:#ff0000;stroke:#ff0000;" x="129.847174" xlink:href="#m72bae57e88" y="240.139243"/>
     <use style="fill:#ff0000;stroke:#ff0000;" x="131.370516" xlink:href="#m72bae57e88" y="240.03088"/>
     <use style="fill:#ff0000;stroke:#ff0000;" x="132.893857" xlink:href="#m72bae57e88" y="239.910395"/>
     <use style="fill:#ff0000;stroke:#ff0000;" x="134.417199" xlink:href="#m72bae57e88" y="239.713895"/>
     <use style="fill:#ff0000;stroke:#ff0000;" x="135.940541" xlink:href="#m72bae57e88" y="239.603659"/>
     <use style="fill:#ff0000;stroke:#ff0000;" x="137.463882" xlink:href="#m72bae57e88" y="239.446661"/>
     <use style="fill:#ff0000;stroke:#ff0000;" x="138.987224" xlink:href="#m72bae57e88" y="239.322754"/>
     <use style="fill:#ff0000;stroke:#ff0000;" x="140.510565" xlink:href="#m72bae57e88" y="239.095997"/>
     <use style="fill:#ff0000;stroke:#ff0000;" x="142.033907" xlink:href="#m72bae57e88" y="238.952937"/>
     <use style="fill:#ff0000;stroke:#ff0000;" x="143.557248" xlink:href="#m72bae57e88" y="238.691449"/>
     <use style="fill:#ff0000;stroke:#ff0000;" x="145.08059" xlink:href="#m72bae57e88" y="238.658048"/>
     <use style="fill:#ff0000;stroke:#ff0000;" x="146.603931" xlink:href="#m72bae57e88" y="238.35334"/>
     <use style="fill:#ff0000;stroke:#ff0000;" x="148.127273" xlink:href="#m72bae57e88" y="238.248116"/>
     <use style="fill:#ff0000;stroke:#ff0000;" x="149.650614" xlink:href="#m72bae57e88" y="238.044613"/>
     <use style="fill:#ff0000;stroke:#ff0000;" x="151.173956" xlink:href="#m72bae57e88" y="237.828922"/>
     <use style="fill:#ff0000;stroke:#ff0000;" x="152.697297" xlink:href="#m72bae57e88" y="237.564479"/>
     <use style="fill:#ff0000;stroke:#ff0000;" x="154.220639" xlink:href="#m72bae57e88" y="237.471956"/>
     <use style="fill:#ff0000;stroke:#ff0000;" x="155.74398" xlink:href="#m72bae57e88" y="237.203047"/>
     <use style="fill:#ff0000;stroke:#ff0000;" x="157.267322" xlink:href="#m72bae57e88" y="236.92008"/>
     <use style="fill:#ff0000;stroke:#ff0000;" x="158.790663" xlink:href="#m72bae57e88" y="236.686504"/>
     <use style="fill:#ff0000;stroke:#ff0000;" x="160.314005" xlink:href="#m72bae57e88" y="236.394432"/>
     <use style="fill:#ff0000;stroke:#ff0000;" x="167.930713" xlink:href="#m72bae57e88" y="235.13999"/>
     <use style="fill:#ff0000;stroke:#ff0000;" x="175.54742" xlink:href="#m72bae57e88" y="233.430699"/>
     <use style="fill:#ff0000;stroke:#ff0000;" x="183.164128" xlink:href="#m72bae57e88" y="231.693735"/>
     <use style="fill:#ff0000;stroke:#ff0000;" x="190.780835" xlink:href="#m72bae57e88" y="229.641303"/>
     <use style="fill:#ff0000;stroke:#ff0000;" x="198.397543" xlink:href="#m72bae57e88" y="227.307195"/>
     <use style="fill:#ff0000;stroke:#ff0000;" x="206.014251" xlink:href="#m72bae57e88" y="224.630649"/>
     <use style="fill:#ff0000;stroke:#ff0000;" x="213.630958" xlink:href="#m72bae57e88" y="221.352717"/>
     <use style="fill:#ff0000;stroke:#ff0000;" x="221.247666" xlink:href="#m72bae57e88" y="217.502559"/>
     <use style="fill:#ff0000;stroke:#ff0000;" x="251.714496" xlink:href="#m72bae57e88" y="199.11557"/>
     <use style="fill:#ff0000;stroke:#ff0000;" x="282.181327" xlink:href="#m72bae57e88" y="174.461002"/>
     <use style="fill:#ff0000;stroke:#ff0000;" x="312.648157" xlink:href="#m72bae57e88" y="138.120502"/>
     <use style="fill:#ff0000;stroke:#ff0000;" x="343.114988" xlink:href="#m72bae57e88" y="98.763122"/>
     <use style="fill:#ff0000;stroke:#ff0000;" x="373.581818" xlink:href="#m72bae57e88" y="44.956748"/>
    </g>
   </g>
   <g id="line2d_15">
    <path clip-path="url(#p7b014fe3e2)" d="M 69.218182 242.116364 
L 96.638329 241.783105 
L 110.043735 241.383158 
L 121.011794 240.842003 
L 129.847174 240.224865 
L 138.987224 239.382586 
L 148.127273 238.300875 
L 155.74398 237.193121 
L 160.314005 236.430015 
L 167.930713 234.98105 
L 175.54742 233.294397 
L 183.164128 231.351261 
L 190.780835 229.132848 
L 198.397543 226.620365 
L 206.014251 223.795017 
L 213.630958 220.63801 
L 221.247666 217.130551 
L 251.714496 199.22031 
L 282.181327 174.199312 
L 312.648157 140.864743 
L 343.114988 98.013789 
L 373.581818 44.443636 
L 373.581818 44.443636 
" style="fill:none;stroke:#1f77b4;stroke-linecap:square;stroke-width:1.5;"/>
   </g>
   <g id="patch_3">
    <path d="M 54 252 
L 54 34.56 
" style="fill:none;stroke:#000000;stroke-linecap:square;stroke-linejoin:miter;stroke-width:0.8;"/>
   </g>
   <g id="patch_4">
    <path d="M 388.8 252 
L 388.8 34.56 
" style="fill:none;stroke:#000000;stroke-linecap:square;stroke-linejoin:miter;stroke-width:0.8;"/>
   </g>
   <g id="patch_5">
    <path d="M 54 252 
L 388.8 252 
" style="fill:none;stroke:#000000;stroke-linecap:square;stroke-linejoin:miter;stroke-width:0.8;"/>
   </g>
   <g id="patch_6">
    <path d="M 54 34.56 
L 388.8 34.56 
" style="fill:none;stroke:#000000;stroke-linecap:square;stroke-linejoin:miter;stroke-width:0.8;"/>
   </g>
   <g id="text_14">
    <!-- $f(n)= 6.50104373868797 \cdot 10^{-7} n^{3} - 1.72076648922976 \cdot 10^{-5} n^{2} + 0.00814789069721292 n - 0.057522030348437$ -->
    <defs>
     <path d="M 47.796875 75.984375 
L 46.390625 68.5 
L 37.796875 68.5 
Q 32.90625 68.5 30.6875 66.578125 
Q 28.46875 64.65625 27.390625 59.515625 
L 26.421875 54.6875 
L 41.21875 54.6875 
L 39.890625 47.703125 
L 25.09375 47.703125 
L 15.828125 0 
L 6.78125 0 
L 16.109375 47.703125 
L 7.515625 47.703125 
L 8.796875 54.6875 
L 17.390625 54.6875 
L 18.109375 58.5 
Q 19.96875 68.171875 24.625 72.078125 
Q 29.296875 75.984375 39.3125 75.984375 
z
" id="DejaVuSans-Oblique-102"/>
     <path d="M 31 75.875 
Q 24.46875 64.65625 21.28125 53.65625 
Q 18.109375 42.671875 18.109375 31.390625 
Q 18.109375 20.125 21.3125 9.0625 
Q 24.515625 -2 31 -13.1875 
L 23.1875 -13.1875 
Q 15.875 -1.703125 12.234375 9.375 
Q 8.59375 20.453125 8.59375 31.390625 
Q 8.59375 42.28125 12.203125 53.3125 
Q 15.828125 64.359375 23.1875 75.875 
z
" id="DejaVuSans-40"/>
     <path d="M 55.71875 33.015625 
L 49.3125 0 
L 40.28125 0 
L 46.6875 32.671875 
Q 47.125 34.96875 47.359375 36.71875 
Q 47.609375 38.484375 47.609375 39.5 
Q 47.609375 43.609375 45.015625 45.890625 
Q 42.4375 48.1875 37.796875 48.1875 
Q 30.5625 48.1875 25.34375 43.375 
Q 20.125 38.578125 18.5 30.328125 
L 12.5 0 
L 3.515625 0 
L 14.109375 54.6875 
L 23.09375 54.6875 
L 21.296875 46.09375 
Q 25.046875 50.828125 30.3125 53.40625 
Q 35.59375 56 41.40625 56 
Q 48.640625 56 52.609375 52.09375 
Q 56.59375 48.1875 56.59375 41.109375 
Q 56.59375 39.359375 56.375 37.359375 
Q 56.15625 35.359375 55.71875 33.015625 
z
" id="DejaVuSans-Oblique-110"/>
     <path d="M 8.015625 75.875 
L 15.828125 75.875 
Q 23.140625 64.359375 26.78125 53.3125 
Q 30.421875 42.28125 30.421875 31.390625 
Q 30.421875 20.453125 26.78125 9.375 
Q 23.140625 -1.703125 15.828125 -13.1875 
L 8.015625 -13.1875 
Q 14.5 -2 17.703125 9.0625 
Q 20.90625 20.125 20.90625 31.390625 
Q 20.90625 42.671875 17.703125 53.65625 
Q 14.5 64.65625 8.015625 75.875 
z
" id="DejaVuSans-41"/>
     <path d="M 10.59375 45.40625 
L 73.1875 45.40625 
L 73.1875 37.203125 
L 10.59375 37.203125 
z
M 10.59375 25.484375 
L 73.1875 25.484375 
L 73.1875 17.1875 
L 10.59375 17.1875 
z
" id="DejaVuSans-61"/>
     <path d="M 10.6875 12.40625 
L 21 12.40625 
L 21 0 
L 10.6875 0 
z
" id="DejaVuSans-46"/>
     <path d="M 8.203125 72.90625 
L 55.078125 72.90625 
L 55.078125 68.703125 
L 28.609375 0 
L 18.3125 0 
L 43.21875 64.59375 
L 8.203125 64.59375 
z
" id="DejaVuSans-55"/>
     <path d="M 10.984375 1.515625 
L 10.984375 10.5 
Q 14.703125 8.734375 18.5 7.8125 
Q 22.3125 6.890625 25.984375 6.890625 
Q 35.75 6.890625 40.890625 13.453125 
Q 46.046875 20.015625 46.78125 33.40625 
Q 43.953125 29.203125 39.59375 26.953125 
Q 35.25 24.703125 29.984375 24.703125 
Q 19.046875 24.703125 12.671875 31.3125 
Q 6.296875 37.9375 6.296875 49.421875 
Q 6.296875 60.640625 12.9375 67.421875 
Q 19.578125 74.21875 30.609375 74.21875 
Q 43.265625 74.21875 49.921875 64.515625 
Q 56.59375 54.828125 56.59375 36.375 
Q 56.59375 19.140625 48.40625 8.859375 
Q 40.234375 -1.421875 26.421875 -1.421875 
Q 22.703125 -1.421875 18.890625 -0.6875 
Q 15.09375 0.046875 10.984375 1.515625 
z
M 30.609375 32.421875 
Q 37.25 32.421875 41.125 36.953125 
Q 45.015625 41.5 45.015625 49.421875 
Q 45.015625 57.28125 41.125 61.84375 
Q 37.25 66.40625 30.609375 66.40625 
Q 23.96875 66.40625 20.09375 61.84375 
Q 16.21875 57.28125 16.21875 49.421875 
Q 16.21875 41.5 20.09375 36.953125 
Q 23.96875 32.421875 30.609375 32.421875 
z
" id="DejaVuSans-57"/>
     <path d="M 10.6875 40.921875 
L 21 40.921875 
L 21 28.515625 
L 10.6875 28.515625 
z
" id="DejaVuSans-8901"/>
     <path d="M 10.59375 35.5 
L 73.1875 35.5 
L 73.1875 27.203125 
L 10.59375 27.203125 
z
" id="DejaVuSans-8722"/>
     <path d="M 46 62.703125 
L 46 35.5 
L 73.1875 35.5 
L 73.1875 27.203125 
L 46 27.203125 
L 46 0 
L 37.796875 0 
L 37.796875 27.203125 
L 10.59375 27.203125 
L 10.59375 35.5 
L 37.796875 35.5 
L 37.796875 62.703125 
z
" id="DejaVuSans-43"/>
    </defs>
    <g transform="translate(-240.28 28.56)scale(0.16 -0.16)">
     <use transform="translate(0 0.765625)" xlink:href="#DejaVuSans-Oblique-102"/>
     <use transform="translate(35.205078 0.765625)" xlink:href="#DejaVuSans-40"/>
     <use transform="translate(74.21875 0.765625)" xlink:href="#DejaVuSans-Oblique-110"/>
     <use transform="translate(137.597656 0.765625)" xlink:href="#DejaVuSans-41"/>
     <use transform="translate(196.09375 0.765625)" xlink:href="#DejaVuSans-61"/>
     <use transform="translate(299.365234 0.765625)" xlink:href="#DejaVuSans-54"/>
     <use transform="translate(362.988281 0.765625)" xlink:href="#DejaVuSans-46"/>
     <use transform="translate(394.775391 0.765625)" xlink:href="#DejaVuSans-53"/>
     <use transform="translate(458.398438 0.765625)" xlink:href="#DejaVuSans-48"/>
     <use transform="translate(522.021484 0.765625)" xlink:href="#DejaVuSans-49"/>
     <use transform="translate(585.644531 0.765625)" xlink:href="#DejaVuSans-48"/>
     <use transform="translate(649.267578 0.765625)" xlink:href="#DejaVuSans-52"/>
     <use transform="translate(712.890625 0.765625)" xlink:href="#DejaVuSans-51"/>
     <use transform="translate(776.513672 0.765625)" xlink:href="#DejaVuSans-55"/>
     <use transform="translate(840.136719 0.765625)" xlink:href="#DejaVuSans-51"/>
     <use transform="translate(903.759766 0.765625)" xlink:href="#DejaVuSans-56"/>
     <use transform="translate(967.382812 0.765625)" xlink:href="#DejaVuSans-54"/>
     <use transform="translate(1031.005859 0.765625)" xlink:href="#DejaVuSans-56"/>
     <use transform="translate(1094.628906 0.765625)" xlink:href="#DejaVuSans-55"/>
     <use transform="translate(1158.251953 0.765625)" xlink:href="#DejaVuSans-57"/>
     <use transform="translate(1221.875 0.765625)" xlink:href="#DejaVuSans-55"/>
     <use transform="translate(1304.980469 0.765625)" xlink:href="#DejaVuSans-8901"/>
     <use transform="translate(1356.25 0.765625)" xlink:href="#DejaVuSans-49"/>
     <use transform="translate(1419.873047 0.765625)" xlink:href="#DejaVuSans-48"/>
     <use transform="translate(1484.453125 39.046875)scale(0.7)" xlink:href="#DejaVuSans-8722"/>
     <use transform="translate(1543.105469 39.046875)scale(0.7)" xlink:href="#DejaVuSans-55"/>
     <use transform="translate(1590.375977 0.765625)" xlink:href="#DejaVuSans-Oblique-110"/>
     <use transform="translate(1658.404779 39.046875)scale(0.7)" xlink:href="#DejaVuSans-51"/>
     <use transform="translate(1725.157708 0.765625)" xlink:href="#DejaVuSans-8722"/>
     <use transform="translate(1828.429193 0.765625)" xlink:href="#DejaVuSans-49"/>
     <use transform="translate(1892.05224 0.765625)" xlink:href="#DejaVuSans-46"/>
     <use transform="translate(1923.729974 0.765625)" xlink:href="#DejaVuSans-55"/>
     <use transform="translate(1987.353021 0.765625)" xlink:href="#DejaVuSans-50"/>
     <use transform="translate(2050.976068 0.765625)" xlink:href="#DejaVuSans-48"/>
     <use transform="translate(2114.599115 0.765625)" xlink:href="#DejaVuSans-55"/>
     <use transform="translate(2178.222161 0.765625)" xlink:href="#DejaVuSans-54"/>
     <use transform="translate(2241.845208 0.765625)" xlink:href="#DejaVuSans-54"/>
     <use transform="translate(2305.468255 0.765625)" xlink:href="#DejaVuSans-52"/>
     <use transform="translate(2369.091302 0.765625)" xlink:href="#DejaVuSans-56"/>
     <use transform="translate(2432.714349 0.765625)" xlink:href="#DejaVuSans-57"/>
     <use transform="translate(2496.321771 0.765625)" xlink:href="#DejaVuSans-50"/>
     <use transform="translate(2559.944818 0.765625)" xlink:href="#DejaVuSans-50"/>
     <use transform="translate(2623.55224 0.765625)" xlink:href="#DejaVuSans-57"/>
     <use transform="translate(2687.175286 0.765625)" xlink:href="#DejaVuSans-55"/>
     <use transform="translate(2750.798333 0.765625)" xlink:href="#DejaVuSans-54"/>
     <use transform="translate(2833.903802 0.765625)" xlink:href="#DejaVuSans-8901"/>
     <use transform="translate(2885.173333 0.765625)" xlink:href="#DejaVuSans-49"/>
     <use transform="translate(2948.79638 0.765625)" xlink:href="#DejaVuSans-48"/>
     <use transform="translate(3013.376458 39.046875)scale(0.7)" xlink:href="#DejaVuSans-8722"/>
     <use transform="translate(3072.028802 39.046875)scale(0.7)" xlink:href="#DejaVuSans-53"/>
     <use transform="translate(3119.29931 0.765625)" xlink:href="#DejaVuSans-Oblique-110"/>
     <use transform="translate(3187.328112 39.046875)scale(0.7)" xlink:href="#DejaVuSans-50"/>
     <use transform="translate(3254.081042 0.765625)" xlink:href="#DejaVuSans-43"/>
     <use transform="translate(3357.352526 0.765625)" xlink:href="#DejaVuSans-48"/>
     <use transform="translate(3420.975573 0.765625)" xlink:href="#DejaVuSans-46"/>
     <use transform="translate(3452.762682 0.765625)" xlink:href="#DejaVuSans-48"/>
     <use transform="translate(3516.385729 0.765625)" xlink:href="#DejaVuSans-48"/>
     <use transform="translate(3580.008776 0.765625)" xlink:href="#DejaVuSans-56"/>
     <use transform="translate(3643.631823 0.765625)" xlink:href="#DejaVuSans-49"/>
     <use transform="translate(3707.25487 0.765625)" xlink:href="#DejaVuSans-52"/>
     <use transform="translate(3770.877917 0.765625)" xlink:href="#DejaVuSans-55"/>
     <use transform="translate(3834.500964 0.765625)" xlink:href="#DejaVuSans-56"/>
     <use transform="translate(3898.12401 0.765625)" xlink:href="#DejaVuSans-57"/>
     <use transform="translate(3961.747057 0.765625)" xlink:href="#DejaVuSans-48"/>
     <use transform="translate(4025.370104 0.765625)" xlink:href="#DejaVuSans-54"/>
     <use transform="translate(4088.993151 0.765625)" xlink:href="#DejaVuSans-57"/>
     <use transform="translate(4152.616198 0.765625)" xlink:href="#DejaVuSans-55"/>
     <use transform="translate(4216.239245 0.765625)" xlink:href="#DejaVuSans-50"/>
     <use transform="translate(4279.862292 0.765625)" xlink:href="#DejaVuSans-49"/>
     <use transform="translate(4343.485339 0.765625)" xlink:href="#DejaVuSans-50"/>
     <use transform="translate(4407.09276 0.765625)" xlink:href="#DejaVuSans-57"/>
     <use transform="translate(4470.700182 0.765625)" xlink:href="#DejaVuSans-50"/>
     <use transform="translate(4534.323229 0.765625)" xlink:href="#DejaVuSans-Oblique-110"/>
     <use transform="translate(4617.184557 0.765625)" xlink:href="#DejaVuSans-8722"/>
     <use transform="translate(4720.456042 0.765625)" xlink:href="#DejaVuSans-48"/>
     <use transform="translate(4784.079089 0.765625)" xlink:href="#DejaVuSans-46"/>
     <use transform="translate(4815.866198 0.765625)" xlink:href="#DejaVuSans-48"/>
     <use transform="translate(4879.489245 0.765625)" xlink:href="#DejaVuSans-53"/>
     <use transform="translate(4943.002917 0.765625)" xlink:href="#DejaVuSans-55"/>
     <use transform="translate(5006.625964 0.765625)" xlink:href="#DejaVuSans-53"/>
     <use transform="translate(5070.24901 0.765625)" xlink:href="#DejaVuSans-50"/>
     <use transform="translate(5133.872057 0.765625)" xlink:href="#DejaVuSans-50"/>
     <use transform="translate(5197.495104 0.765625)" xlink:href="#DejaVuSans-48"/>
     <use transform="translate(5261.118151 0.765625)" xlink:href="#DejaVuSans-51"/>
     <use transform="translate(5324.741198 0.765625)" xlink:href="#DejaVuSans-48"/>
     <use transform="translate(5388.364245 0.765625)" xlink:href="#DejaVuSans-51"/>
     <use transform="translate(5451.987292 0.765625)" xlink:href="#DejaVuSans-52"/>
     <use transform="translate(5515.610339 0.765625)" xlink:href="#DejaVuSans-56"/>
     <use transform="translate(5579.233385 0.765625)" xlink:href="#DejaVuSans-52"/>
     <use transform="translate(5642.856432 0.765625)" xlink:href="#DejaVuSans-51"/>
     <use transform="translate(5706.479479 0.765625)" xlink:href="#DejaVuSans-55"/>
    </g>
   </g>
   <g id="legend_1">
    <g id="patch_7">
     <path d="M 61 71.91625 
L 159.185938 71.91625 
Q 161.185938 71.91625 161.185938 69.91625 
L 161.185938 41.56 
Q 161.185938 39.56 159.185938 39.56 
L 61 39.56 
Q 59 39.56 59 41.56 
L 59 69.91625 
Q 59 71.91625 61 71.91625 
z
" style="fill:#ffffff;opacity:0.8;stroke:#cccccc;stroke-linejoin:miter;"/>
    </g>
    <g id="line2d_16"/>
    <g id="line2d_17">
     <g>
      <use style="fill:#ff0000;stroke:#ff0000;" x="73" xlink:href="#m72bae57e88" y="47.658437"/>
     </g>
    </g>
    <g id="text_15">
     <!-- Original Data -->
     <defs>
      <path d="M 39.40625 66.21875 
Q 28.65625 66.21875 22.328125 58.203125 
Q 16.015625 50.203125 16.015625 36.375 
Q 16.015625 22.609375 22.328125 14.59375 
Q 28.65625 6.59375 39.40625 6.59375 
Q 50.140625 6.59375 56.421875 14.59375 
Q 62.703125 22.609375 62.703125 36.375 
Q 62.703125 50.203125 56.421875 58.203125 
Q 50.140625 66.21875 39.40625 66.21875 
z
M 39.40625 74.21875 
Q 54.734375 74.21875 63.90625 63.9375 
Q 73.09375 53.65625 73.09375 36.375 
Q 73.09375 19.140625 63.90625 8.859375 
Q 54.734375 -1.421875 39.40625 -1.421875 
Q 24.03125 -1.421875 14.8125 8.828125 
Q 5.609375 19.09375 5.609375 36.375 
Q 5.609375 53.65625 14.8125 63.9375 
Q 24.03125 74.21875 39.40625 74.21875 
z
" id="DejaVuSans-79"/>
      <path d="M 41.109375 46.296875 
Q 39.59375 47.171875 37.8125 47.578125 
Q 36.03125 48 33.890625 48 
Q 26.265625 48 22.1875 43.046875 
Q 18.109375 38.09375 18.109375 28.8125 
L 18.109375 0 
L 9.078125 0 
L 9.078125 54.6875 
L 18.109375 54.6875 
L 18.109375 46.1875 
Q 20.953125 51.171875 25.484375 53.578125 
Q 30.03125 56 36.53125 56 
Q 37.453125 56 38.578125 55.875 
Q 39.703125 55.765625 41.0625 55.515625 
z
" id="DejaVuSans-114"/>
      <path d="M 9.421875 54.6875 
L 18.40625 54.6875 
L 18.40625 0 
L 9.421875 0 
z
M 9.421875 75.984375 
L 18.40625 75.984375 
L 18.40625 64.59375 
L 9.421875 64.59375 
z
" id="DejaVuSans-105"/>
      <path d="M 45.40625 27.984375 
Q 45.40625 37.75 41.375 43.109375 
Q 37.359375 48.484375 30.078125 48.484375 
Q 22.859375 48.484375 18.828125 43.109375 
Q 14.796875 37.75 14.796875 27.984375 
Q 14.796875 18.265625 18.828125 12.890625 
Q 22.859375 7.515625 30.078125 7.515625 
Q 37.359375 7.515625 41.375 12.890625 
Q 45.40625 18.265625 45.40625 27.984375 
z
M 54.390625 6.78125 
Q 54.390625 -7.171875 48.1875 -13.984375 
Q 42 -20.796875 29.203125 -20.796875 
Q 24.46875 -20.796875 20.265625 -20.09375 
Q 16.0625 -19.390625 12.109375 -17.921875 
L 12.109375 -9.1875 
Q 16.0625 -11.328125 19.921875 -12.34375 
Q 23.78125 -13.375 27.78125 -13.375 
Q 36.625 -13.375 41.015625 -8.765625 
Q 45.40625 -4.15625 45.40625 5.171875 
L 45.40625 9.625 
Q 42.625 4.78125 38.28125 2.390625 
Q 33.9375 0 27.875 0 
Q 17.828125 0 11.671875 7.65625 
Q 5.515625 15.328125 5.515625 27.984375 
Q 5.515625 40.671875 11.671875 48.328125 
Q 17.828125 56 27.875 56 
Q 33.9375 56 38.28125 53.609375 
Q 42.625 51.21875 45.40625 46.390625 
L 45.40625 54.6875 
L 54.390625 54.6875 
z
" id="DejaVuSans-103"/>
      <path d="M 54.890625 33.015625 
L 54.890625 0 
L 45.90625 0 
L 45.90625 32.71875 
Q 45.90625 40.484375 42.875 44.328125 
Q 39.84375 48.1875 33.796875 48.1875 
Q 26.515625 48.1875 22.3125 43.546875 
Q 18.109375 38.921875 18.109375 30.90625 
L 18.109375 0 
L 9.078125 0 
L 9.078125 54.6875 
L 18.109375 54.6875 
L 18.109375 46.1875 
Q 21.34375 51.125 25.703125 53.5625 
Q 30.078125 56 35.796875 56 
Q 45.21875 56 50.046875 50.171875 
Q 54.890625 44.34375 54.890625 33.015625 
z
" id="DejaVuSans-110"/>
      <path d="M 34.28125 27.484375 
Q 23.390625 27.484375 19.1875 25 
Q 14.984375 22.515625 14.984375 16.5 
Q 14.984375 11.71875 18.140625 8.90625 
Q 21.296875 6.109375 26.703125 6.109375 
Q 34.1875 6.109375 38.703125 11.40625 
Q 43.21875 16.703125 43.21875 25.484375 
L 43.21875 27.484375 
z
M 52.203125 31.203125 
L 52.203125 0 
L 43.21875 0 
L 43.21875 8.296875 
Q 40.140625 3.328125 35.546875 0.953125 
Q 30.953125 -1.421875 24.3125 -1.421875 
Q 15.921875 -1.421875 10.953125 3.296875 
Q 6 8.015625 6 15.921875 
Q 6 25.140625 12.171875 29.828125 
Q 18.359375 34.515625 30.609375 34.515625 
L 43.21875 34.515625 
L 43.21875 35.40625 
Q 43.21875 41.609375 39.140625 45 
Q 35.0625 48.390625 27.6875 48.390625 
Q 23 48.390625 18.546875 47.265625 
Q 14.109375 46.140625 10.015625 43.890625 
L 10.015625 52.203125 
Q 14.9375 54.109375 19.578125 55.046875 
Q 24.21875 56 28.609375 56 
Q 40.484375 56 46.34375 49.84375 
Q 52.203125 43.703125 52.203125 31.203125 
z
" id="DejaVuSans-97"/>
      <path d="M 9.421875 75.984375 
L 18.40625 75.984375 
L 18.40625 0 
L 9.421875 0 
z
" id="DejaVuSans-108"/>
      <path id="DejaVuSans-32"/>
      <path d="M 19.671875 64.796875 
L 19.671875 8.109375 
L 31.59375 8.109375 
Q 46.6875 8.109375 53.6875 14.9375 
Q 60.6875 21.78125 60.6875 36.53125 
Q 60.6875 51.171875 53.6875 57.984375 
Q 46.6875 64.796875 31.59375 64.796875 
z
M 9.8125 72.90625 
L 30.078125 72.90625 
Q 51.265625 72.90625 61.171875 64.09375 
Q 71.09375 55.28125 71.09375 36.53125 
Q 71.09375 17.671875 61.125 8.828125 
Q 51.171875 0 30.078125 0 
L 9.8125 0 
z
" id="DejaVuSans-68"/>
      <path d="M 18.3125 70.21875 
L 18.3125 54.6875 
L 36.8125 54.6875 
L 36.8125 47.703125 
L 18.3125 47.703125 
L 18.3125 18.015625 
Q 18.3125 11.328125 20.140625 9.421875 
Q 21.96875 7.515625 27.59375 7.515625 
L 36.8125 7.515625 
L 36.8125 0 
L 27.59375 0 
Q 17.1875 0 13.234375 3.875 
Q 9.28125 7.765625 9.28125 18.015625 
L 9.28125 47.703125 
L 2.6875 47.703125 
L 2.6875 54.6875 
L 9.28125 54.6875 
L 9.28125 70.21875 
z
" id="DejaVuSans-116"/>
     </defs>
     <g transform="translate(91 51.158437)scale(0.1 -0.1)">
      <use xlink:href="#DejaVuSans-79"/>
      <use x="78.710938" xlink:href="#DejaVuSans-114"/>
      <use x="119.824219" xlink:href="#DejaVuSans-105"/>
      <use x="147.607422" xlink:href="#DejaVuSans-103"/>
      <use x="211.083984" xlink:href="#DejaVuSans-105"/>
      <use x="238.867188" xlink:href="#DejaVuSans-110"/>
      <use x="302.246094" xlink:href="#DejaVuSans-97"/>
      <use x="363.525391" xlink:href="#DejaVuSans-108"/>
      <use x="391.308594" xlink:href="#DejaVuSans-32"/>
      <use x="423.095703" xlink:href="#DejaVuSans-68"/>
      <use x="500.097656" xlink:href="#DejaVuSans-97"/>
      <use x="561.376953" xlink:href="#DejaVuSans-116"/>
      <use x="600.585938" xlink:href="#DejaVuSans-97"/>
     </g>
    </g>
    <g id="line2d_18">
     <path d="M 63 62.336562 
L 83 62.336562 
" style="fill:none;stroke:#1f77b4;stroke-linecap:square;stroke-width:1.5;"/>
    </g>
    <g id="line2d_19"/>
    <g id="text_16">
     <!-- Fitted Curve -->
     <defs>
      <path d="M 9.8125 72.90625 
L 51.703125 72.90625 
L 51.703125 64.59375 
L 19.671875 64.59375 
L 19.671875 43.109375 
L 48.578125 43.109375 
L 48.578125 34.8125 
L 19.671875 34.8125 
L 19.671875 0 
L 9.8125 0 
z
" id="DejaVuSans-70"/>
      <path d="M 56.203125 29.59375 
L 56.203125 25.203125 
L 14.890625 25.203125 
Q 15.484375 15.921875 20.484375 11.0625 
Q 25.484375 6.203125 34.421875 6.203125 
Q 39.59375 6.203125 44.453125 7.46875 
Q 49.3125 8.734375 54.109375 11.28125 
L 54.109375 2.78125 
Q 49.265625 0.734375 44.1875 -0.34375 
Q 39.109375 -1.421875 33.890625 -1.421875 
Q 20.796875 -1.421875 13.15625 6.1875 
Q 5.515625 13.8125 5.515625 26.8125 
Q 5.515625 40.234375 12.765625 48.109375 
Q 20.015625 56 32.328125 56 
Q 43.359375 56 49.78125 48.890625 
Q 56.203125 41.796875 56.203125 29.59375 
z
M 47.21875 32.234375 
Q 47.125 39.59375 43.09375 43.984375 
Q 39.0625 48.390625 32.421875 48.390625 
Q 24.90625 48.390625 20.390625 44.140625 
Q 15.875 39.890625 15.1875 32.171875 
z
" id="DejaVuSans-101"/>
      <path d="M 45.40625 46.390625 
L 45.40625 75.984375 
L 54.390625 75.984375 
L 54.390625 0 
L 45.40625 0 
L 45.40625 8.203125 
Q 42.578125 3.328125 38.25 0.953125 
Q 33.9375 -1.421875 27.875 -1.421875 
Q 17.96875 -1.421875 11.734375 6.484375 
Q 5.515625 14.40625 5.515625 27.296875 
Q 5.515625 40.1875 11.734375 48.09375 
Q 17.96875 56 27.875 56 
Q 33.9375 56 38.25 53.625 
Q 42.578125 51.265625 45.40625 46.390625 
z
M 14.796875 27.296875 
Q 14.796875 17.390625 18.875 11.75 
Q 22.953125 6.109375 30.078125 6.109375 
Q 37.203125 6.109375 41.296875 11.75 
Q 45.40625 17.390625 45.40625 27.296875 
Q 45.40625 37.203125 41.296875 42.84375 
Q 37.203125 48.484375 30.078125 48.484375 
Q 22.953125 48.484375 18.875 42.84375 
Q 14.796875 37.203125 14.796875 27.296875 
z
" id="DejaVuSans-100"/>
      <path d="M 64.40625 67.28125 
L 64.40625 56.890625 
Q 59.421875 61.53125 53.78125 63.8125 
Q 48.140625 66.109375 41.796875 66.109375 
Q 29.296875 66.109375 22.65625 58.46875 
Q 16.015625 50.828125 16.015625 36.375 
Q 16.015625 21.96875 22.65625 14.328125 
Q 29.296875 6.6875 41.796875 6.6875 
Q 48.140625 6.6875 53.78125 8.984375 
Q 59.421875 11.28125 64.40625 15.921875 
L 64.40625 5.609375 
Q 59.234375 2.09375 53.4375 0.328125 
Q 47.65625 -1.421875 41.21875 -1.421875 
Q 24.65625 -1.421875 15.125 8.703125 
Q 5.609375 18.84375 5.609375 36.375 
Q 5.609375 53.953125 15.125 64.078125 
Q 24.65625 74.21875 41.21875 74.21875 
Q 47.75 74.21875 53.53125 72.484375 
Q 59.328125 70.75 64.40625 67.28125 
z
" id="DejaVuSans-67"/>
      <path d="M 8.5 21.578125 
L 8.5 54.6875 
L 17.484375 54.6875 
L 17.484375 21.921875 
Q 17.484375 14.15625 20.5 10.265625 
Q 23.53125 6.390625 29.59375 6.390625 
Q 36.859375 6.390625 41.078125 11.03125 
Q 45.3125 15.671875 45.3125 23.6875 
L 45.3125 54.6875 
L 54.296875 54.6875 
L 54.296875 0 
L 45.3125 0 
L 45.3125 8.40625 
Q 42.046875 3.421875 37.71875 1 
Q 33.40625 -1.421875 27.6875 -1.421875 
Q 18.265625 -1.421875 13.375 4.4375 
Q 8.5 10.296875 8.5 21.578125 
z
M 31.109375 56 
z
" id="DejaVuSans-117"/>
      <path d="M 2.984375 54.6875 
L 12.5 54.6875 
L 29.59375 8.796875 
L 46.6875 54.6875 
L 56.203125 54.6875 
L 35.6875 0 
L 23.484375 0 
z
" id="DejaVuSans-118"/>
     </defs>
     <g transform="translate(91 65.836562)scale(0.1 -0.1)">
      <use xlink:href="#DejaVuSans-70"/>
      <use x="57.410156" xlink:href="#DejaVuSans-105"/>
      <use x="85.193359" xlink:href="#DejaVuSans-116"/>
      <use x="124.402344" xlink:href="#DejaVuSans-116"/>
      <use x="163.611328" xlink:href="#DejaVuSans-101"/>
      <use x="225.134766" xlink:href="#DejaVuSans-100"/>
      <use x="288.611328" xlink:href="#DejaVuSans-32"/>
      <use x="320.398438" xlink:href="#DejaVuSans-67"/>
      <use x="390.222656" xlink:href="#DejaVuSans-117"/>
      <use x="453.601562" xlink:href="#DejaVuSans-114"/>
      <use x="494.714844" xlink:href="#DejaVuSans-118"/>
      <use x="553.894531" xlink:href="#DejaVuSans-101"/>
     </g>
    </g>
   </g>
  </g>
 </g>
 <defs>
  <clipPath id="p7b014fe3e2">
   <rect height="217.44" width="334.8" x="54" y="34.56"/>
  </clipPath>
 </defs>
</svg>
