<?xml version="1.0" encoding="utf-8" standalone="no"?>
<!DOCTYPE svg PUBLIC "-//W3C//DTD SVG 1.1//EN"
  "http://www.w3.org/Graphics/SVG/1.1/DTD/svg11.dtd">
<!-- Created with matplotlib (https://matplotlib.org/) -->
<svg height="288pt" version="1.1" viewBox="0 0 432 288" width="432pt" xmlns="http://www.w3.org/2000/svg" xmlns:xlink="http://www.w3.org/1999/xlink">
 <defs>
  <style type="text/css">
*{stroke-linecap:butt;stroke-linejoin:round;}
  </style>
 </defs>
 <g id="figure_1">
  <g id="patch_1">
   <path d="M 0 288 
L 432 288 
L 432 0 
L 0 0 
z
" style="fill:#ffffff;"/>
  </g>
  <g id="axes_1">
   <g id="patch_2">
    <path d="M 54 252 
L 388.8 252 
L 388.8 34.56 
L 54 34.56 
z
" style="fill:#ffffff;"/>
   </g>
   <g id="matplotlib.axis_1">
    <g id="xtick_1">
     <g id="line2d_1">
      <defs>
       <path d="M 0 0 
L 0 3.5 
" id="m33a5c14bef" style="stroke:#000000;stroke-width:0.8;"/>
      </defs>
      <g>
       <use style="stroke:#000000;stroke-width:0.8;" x="68.608235" xlink:href="#m33a5c14bef" y="252"/>
      </g>
     </g>
     <g id="text_1">
      <!-- 0 -->
      <defs>
       <path d="M 31.78125 66.40625 
Q 24.171875 66.40625 20.328125 58.90625 
Q 16.5 51.421875 16.5 36.375 
Q 16.5 21.390625 20.328125 13.890625 
Q 24.171875 6.390625 31.78125 6.390625 
Q 39.453125 6.390625 43.28125 13.890625 
Q 47.125 21.390625 47.125 36.375 
Q 47.125 51.421875 43.28125 58.90625 
Q 39.453125 66.40625 31.78125 66.40625 
z
M 31.78125 74.21875 
Q 44.046875 74.21875 50.515625 64.515625 
Q 56.984375 54.828125 56.984375 36.375 
Q 56.984375 17.96875 50.515625 8.265625 
Q 44.046875 -1.421875 31.78125 -1.421875 
Q 19.53125 -1.421875 13.0625 8.265625 
Q 6.59375 17.96875 6.59375 36.375 
Q 6.59375 54.828125 13.0625 64.515625 
Q 19.53125 74.21875 31.78125 74.21875 
z
" id="DejaVuSans-48"/>
      </defs>
      <g transform="translate(65.426985 266.598437)scale(0.1 -0.1)">
       <use xlink:href="#DejaVuSans-48"/>
      </g>
     </g>
    </g>
    <g id="xtick_2">
     <g id="line2d_2">
      <g>
       <use style="stroke:#000000;stroke-width:0.8;" x="129.602951" xlink:href="#m33a5c14bef" y="252"/>
      </g>
     </g>
     <g id="text_2">
      <!-- 100 -->
      <defs>
       <path d="M 12.40625 8.296875 
L 28.515625 8.296875 
L 28.515625 63.921875 
L 10.984375 60.40625 
L 10.984375 69.390625 
L 28.421875 72.90625 
L 38.28125 72.90625 
L 38.28125 8.296875 
L 54.390625 8.296875 
L 54.390625 0 
L 12.40625 0 
z
" id="DejaVuSans-49"/>
      </defs>
      <g transform="translate(120.059201 266.598437)scale(0.1 -0.1)">
       <use xlink:href="#DejaVuSans-49"/>
       <use x="63.623047" xlink:href="#DejaVuSans-48"/>
       <use x="127.246094" xlink:href="#DejaVuSans-48"/>
      </g>
     </g>
    </g>
    <g id="xtick_3">
     <g id="line2d_3">
      <g>
       <use style="stroke:#000000;stroke-width:0.8;" x="190.597668" xlink:href="#m33a5c14bef" y="252"/>
      </g>
     </g>
     <g id="text_3">
      <!-- 200 -->
      <defs>
       <path d="M 19.1875 8.296875 
L 53.609375 8.296875 
L 53.609375 0 
L 7.328125 0 
L 7.328125 8.296875 
Q 12.9375 14.109375 22.625 23.890625 
Q 32.328125 33.6875 34.8125 36.53125 
Q 39.546875 41.84375 41.421875 45.53125 
Q 43.3125 49.21875 43.3125 52.78125 
Q 43.3125 58.59375 39.234375 62.25 
Q 35.15625 65.921875 28.609375 65.921875 
Q 23.96875 65.921875 18.8125 64.3125 
Q 13.671875 62.703125 7.8125 59.421875 
L 7.8125 69.390625 
Q 13.765625 71.78125 18.9375 73 
Q 24.125 74.21875 28.421875 74.21875 
Q 39.75 74.21875 46.484375 68.546875 
Q 53.21875 62.890625 53.21875 53.421875 
Q 53.21875 48.921875 51.53125 44.890625 
Q 49.859375 40.875 45.40625 35.40625 
Q 44.1875 33.984375 37.640625 27.21875 
Q 31.109375 20.453125 19.1875 8.296875 
z
" id="DejaVuSans-50"/>
      </defs>
      <g transform="translate(181.053918 266.598437)scale(0.1 -0.1)">
       <use xlink:href="#DejaVuSans-50"/>
       <use x="63.623047" xlink:href="#DejaVuSans-48"/>
       <use x="127.246094" xlink:href="#DejaVuSans-48"/>
      </g>
     </g>
    </g>
    <g id="xtick_4">
     <g id="line2d_4">
      <g>
       <use style="stroke:#000000;stroke-width:0.8;" x="251.592385" xlink:href="#m33a5c14bef" y="252"/>
      </g>
     </g>
     <g id="text_4">
      <!-- 300 -->
      <defs>
       <path d="M 40.578125 39.3125 
Q 47.65625 37.796875 51.625 33 
Q 55.609375 28.21875 55.609375 21.1875 
Q 55.609375 10.40625 48.1875 4.484375 
Q 40.765625 -1.421875 27.09375 -1.421875 
Q 22.515625 -1.421875 17.65625 -0.515625 
Q 12.796875 0.390625 7.625 2.203125 
L 7.625 11.71875 
Q 11.71875 9.328125 16.59375 8.109375 
Q 21.484375 6.890625 26.8125 6.890625 
Q 36.078125 6.890625 40.9375 10.546875 
Q 45.796875 14.203125 45.796875 21.1875 
Q 45.796875 27.640625 41.28125 31.265625 
Q 36.765625 34.90625 28.71875 34.90625 
L 20.21875 34.90625 
L 20.21875 43.015625 
L 29.109375 43.015625 
Q 36.375 43.015625 40.234375 45.921875 
Q 44.09375 48.828125 44.09375 54.296875 
Q 44.09375 59.90625 40.109375 62.90625 
Q 36.140625 65.921875 28.71875 65.921875 
Q 24.65625 65.921875 20.015625 65.03125 
Q 15.375 64.15625 9.8125 62.3125 
L 9.8125 71.09375 
Q 15.4375 72.65625 20.34375 73.4375 
Q 25.25 74.21875 29.59375 74.21875 
Q 40.828125 74.21875 47.359375 69.109375 
Q 53.90625 64.015625 53.90625 55.328125 
Q 53.90625 49.265625 50.4375 45.09375 
Q 46.96875 40.921875 40.578125 39.3125 
z
" id="DejaVuSans-51"/>
      </defs>
      <g transform="translate(242.048635 266.598437)scale(0.1 -0.1)">
       <use xlink:href="#DejaVuSans-51"/>
       <use x="63.623047" xlink:href="#DejaVuSans-48"/>
       <use x="127.246094" xlink:href="#DejaVuSans-48"/>
      </g>
     </g>
    </g>
    <g id="xtick_5">
     <g id="line2d_5">
      <g>
       <use style="stroke:#000000;stroke-width:0.8;" x="312.587101" xlink:href="#m33a5c14bef" y="252"/>
      </g>
     </g>
     <g id="text_5">
      <!-- 400 -->
      <defs>
       <path d="M 37.796875 64.3125 
L 12.890625 25.390625 
L 37.796875 25.390625 
z
M 35.203125 72.90625 
L 47.609375 72.90625 
L 47.609375 25.390625 
L 58.015625 25.390625 
L 58.015625 17.1875 
L 47.609375 17.1875 
L 47.609375 0 
L 37.796875 0 
L 37.796875 17.1875 
L 4.890625 17.1875 
L 4.890625 26.703125 
z
" id="DejaVuSans-52"/>
      </defs>
      <g transform="translate(303.043351 266.598437)scale(0.1 -0.1)">
       <use xlink:href="#DejaVuSans-52"/>
       <use x="63.623047" xlink:href="#DejaVuSans-48"/>
       <use x="127.246094" xlink:href="#DejaVuSans-48"/>
      </g>
     </g>
    </g>
    <g id="xtick_6">
     <g id="line2d_6">
      <g>
       <use style="stroke:#000000;stroke-width:0.8;" x="373.581818" xlink:href="#m33a5c14bef" y="252"/>
      </g>
     </g>
     <g id="text_6">
      <!-- 500 -->
      <defs>
       <path d="M 10.796875 72.90625 
L 49.515625 72.90625 
L 49.515625 64.59375 
L 19.828125 64.59375 
L 19.828125 46.734375 
Q 21.96875 47.46875 24.109375 47.828125 
Q 26.265625 48.1875 28.421875 48.1875 
Q 40.625 48.1875 47.75 41.5 
Q 54.890625 34.8125 54.890625 23.390625 
Q 54.890625 11.625 47.5625 5.09375 
Q 40.234375 -1.421875 26.90625 -1.421875 
Q 22.3125 -1.421875 17.546875 -0.640625 
Q 12.796875 0.140625 7.71875 1.703125 
L 7.71875 11.625 
Q 12.109375 9.234375 16.796875 8.0625 
Q 21.484375 6.890625 26.703125 6.890625 
Q 35.15625 6.890625 40.078125 11.328125 
Q 45.015625 15.765625 45.015625 23.390625 
Q 45.015625 31 40.078125 35.4375 
Q 35.15625 39.890625 26.703125 39.890625 
Q 22.75 39.890625 18.8125 39.015625 
Q 14.890625 38.140625 10.796875 36.28125 
z
" id="DejaVuSans-53"/>
      </defs>
      <g transform="translate(364.038068 266.598437)scale(0.1 -0.1)">
       <use xlink:href="#DejaVuSans-53"/>
       <use x="63.623047" xlink:href="#DejaVuSans-48"/>
       <use x="127.246094" xlink:href="#DejaVuSans-48"/>
      </g>
     </g>
    </g>
   </g>
   <g id="matplotlib.axis_2">
    <g id="ytick_1">
     <g id="line2d_7">
      <defs>
       <path d="M 0 0 
L -3.5 0 
" id="mde87e3f06f" style="stroke:#000000;stroke-width:0.8;"/>
      </defs>
      <g>
       <use style="stroke:#000000;stroke-width:0.8;" x="54" xlink:href="#mde87e3f06f" y="242.190974"/>
      </g>
     </g>
     <g id="text_7">
      <!-- 0 -->
      <g transform="translate(40.6375 245.990193)scale(0.1 -0.1)">
       <use xlink:href="#DejaVuSans-48"/>
      </g>
     </g>
    </g>
    <g id="ytick_2">
     <g id="line2d_8">
      <g>
       <use style="stroke:#000000;stroke-width:0.8;" x="54" xlink:href="#mde87e3f06f" y="217.59914"/>
      </g>
     </g>
     <g id="text_8">
      <!-- 10 -->
      <g transform="translate(34.275 221.398359)scale(0.1 -0.1)">
       <use xlink:href="#DejaVuSans-49"/>
       <use x="63.623047" xlink:href="#DejaVuSans-48"/>
      </g>
     </g>
    </g>
    <g id="ytick_3">
     <g id="line2d_9">
      <g>
       <use style="stroke:#000000;stroke-width:0.8;" x="54" xlink:href="#mde87e3f06f" y="193.007306"/>
      </g>
     </g>
     <g id="text_9">
      <!-- 20 -->
      <g transform="translate(34.275 196.806525)scale(0.1 -0.1)">
       <use xlink:href="#DejaVuSans-50"/>
       <use x="63.623047" xlink:href="#DejaVuSans-48"/>
      </g>
     </g>
    </g>
    <g id="ytick_4">
     <g id="line2d_10">
      <g>
       <use style="stroke:#000000;stroke-width:0.8;" x="54" xlink:href="#mde87e3f06f" y="168.415473"/>
      </g>
     </g>
     <g id="text_10">
      <!-- 30 -->
      <g transform="translate(34.275 172.214691)scale(0.1 -0.1)">
       <use xlink:href="#DejaVuSans-51"/>
       <use x="63.623047" xlink:href="#DejaVuSans-48"/>
      </g>
     </g>
    </g>
    <g id="ytick_5">
     <g id="line2d_11">
      <g>
       <use style="stroke:#000000;stroke-width:0.8;" x="54" xlink:href="#mde87e3f06f" y="143.823639"/>
      </g>
     </g>
     <g id="text_11">
      <!-- 40 -->
      <g transform="translate(34.275 147.622858)scale(0.1 -0.1)">
       <use xlink:href="#DejaVuSans-52"/>
       <use x="63.623047" xlink:href="#DejaVuSans-48"/>
      </g>
     </g>
    </g>
    <g id="ytick_6">
     <g id="line2d_12">
      <g>
       <use style="stroke:#000000;stroke-width:0.8;" x="54" xlink:href="#mde87e3f06f" y="119.231805"/>
      </g>
     </g>
     <g id="text_12">
      <!-- 50 -->
      <g transform="translate(34.275 123.031024)scale(0.1 -0.1)">
       <use xlink:href="#DejaVuSans-53"/>
       <use x="63.623047" xlink:href="#DejaVuSans-48"/>
      </g>
     </g>
    </g>
    <g id="ytick_7">
     <g id="line2d_13">
      <g>
       <use style="stroke:#000000;stroke-width:0.8;" x="54" xlink:href="#mde87e3f06f" y="94.639971"/>
      </g>
     </g>
     <g id="text_13">
      <!-- 60 -->
      <defs>
       <path d="M 33.015625 40.375 
Q 26.375 40.375 22.484375 35.828125 
Q 18.609375 31.296875 18.609375 23.390625 
Q 18.609375 15.53125 22.484375 10.953125 
Q 26.375 6.390625 33.015625 6.390625 
Q 39.65625 6.390625 43.53125 10.953125 
Q 47.40625 15.53125 47.40625 23.390625 
Q 47.40625 31.296875 43.53125 35.828125 
Q 39.65625 40.375 33.015625 40.375 
z
M 52.59375 71.296875 
L 52.59375 62.3125 
Q 48.875 64.0625 45.09375 64.984375 
Q 41.3125 65.921875 37.59375 65.921875 
Q 27.828125 65.921875 22.671875 59.328125 
Q 17.53125 52.734375 16.796875 39.40625 
Q 19.671875 43.65625 24.015625 45.921875 
Q 28.375 48.1875 33.59375 48.1875 
Q 44.578125 48.1875 50.953125 41.515625 
Q 57.328125 34.859375 57.328125 23.390625 
Q 57.328125 12.15625 50.6875 5.359375 
Q 44.046875 -1.421875 33.015625 -1.421875 
Q 20.359375 -1.421875 13.671875 8.265625 
Q 6.984375 17.96875 6.984375 36.375 
Q 6.984375 53.65625 15.1875 63.9375 
Q 23.390625 74.21875 37.203125 74.21875 
Q 40.921875 74.21875 44.703125 73.484375 
Q 48.484375 72.75 52.59375 71.296875 
z
" id="DejaVuSans-54"/>
      </defs>
      <g transform="translate(34.275 98.43919)scale(0.1 -0.1)">
       <use xlink:href="#DejaVuSans-54"/>
       <use x="63.623047" xlink:href="#DejaVuSans-48"/>
      </g>
     </g>
    </g>
    <g id="ytick_8">
     <g id="line2d_14">
      <g>
       <use style="stroke:#000000;stroke-width:0.8;" x="54" xlink:href="#mde87e3f06f" y="70.048137"/>
      </g>
     </g>
     <g id="text_14">
      <!-- 70 -->
      <defs>
       <path d="M 8.203125 72.90625 
L 55.078125 72.90625 
L 55.078125 68.703125 
L 28.609375 0 
L 18.3125 0 
L 43.21875 64.59375 
L 8.203125 64.59375 
z
" id="DejaVuSans-55"/>
      </defs>
      <g transform="translate(34.275 73.847356)scale(0.1 -0.1)">
       <use xlink:href="#DejaVuSans-55"/>
       <use x="63.623047" xlink:href="#DejaVuSans-48"/>
      </g>
     </g>
    </g>
    <g id="ytick_9">
     <g id="line2d_15">
      <g>
       <use style="stroke:#000000;stroke-width:0.8;" x="54" xlink:href="#mde87e3f06f" y="45.456304"/>
      </g>
     </g>
     <g id="text_15">
      <!-- 80 -->
      <defs>
       <path d="M 31.78125 34.625 
Q 24.75 34.625 20.71875 30.859375 
Q 16.703125 27.09375 16.703125 20.515625 
Q 16.703125 13.921875 20.71875 10.15625 
Q 24.75 6.390625 31.78125 6.390625 
Q 38.8125 6.390625 42.859375 10.171875 
Q 46.921875 13.96875 46.921875 20.515625 
Q 46.921875 27.09375 42.890625 30.859375 
Q 38.875 34.625 31.78125 34.625 
z
M 21.921875 38.8125 
Q 15.578125 40.375 12.03125 44.71875 
Q 8.5 49.078125 8.5 55.328125 
Q 8.5 64.0625 14.71875 69.140625 
Q 20.953125 74.21875 31.78125 74.21875 
Q 42.671875 74.21875 48.875 69.140625 
Q 55.078125 64.0625 55.078125 55.328125 
Q 55.078125 49.078125 51.53125 44.71875 
Q 48 40.375 41.703125 38.8125 
Q 48.828125 37.15625 52.796875 32.3125 
Q 56.78125 27.484375 56.78125 20.515625 
Q 56.78125 9.90625 50.3125 4.234375 
Q 43.84375 -1.421875 31.78125 -1.421875 
Q 19.734375 -1.421875 13.25 4.234375 
Q 6.78125 9.90625 6.78125 20.515625 
Q 6.78125 27.484375 10.78125 32.3125 
Q 14.796875 37.15625 21.921875 38.8125 
z
M 18.3125 54.390625 
Q 18.3125 48.734375 21.84375 45.5625 
Q 25.390625 42.390625 31.78125 42.390625 
Q 38.140625 42.390625 41.71875 45.5625 
Q 45.3125 48.734375 45.3125 54.390625 
Q 45.3125 60.0625 41.71875 63.234375 
Q 38.140625 66.40625 31.78125 66.40625 
Q 25.390625 66.40625 21.84375 63.234375 
Q 18.3125 60.0625 18.3125 54.390625 
z
" id="DejaVuSans-56"/>
      </defs>
      <g transform="translate(34.275 49.255522)scale(0.1 -0.1)">
       <use xlink:href="#DejaVuSans-56"/>
       <use x="63.623047" xlink:href="#DejaVuSans-48"/>
      </g>
     </g>
    </g>
   </g>
   <g id="line2d_16">
    <defs>
     <path d="M 0 3 
C 0.795609 3 1.55874 2.683901 2.12132 2.12132 
C 2.683901 1.55874 3 0.795609 3 0 
C 3 -0.795609 2.683901 -1.55874 2.12132 -2.12132 
C 1.55874 -2.683901 0.795609 -3 0 -3 
C -0.795609 -3 -1.55874 -2.683901 -2.12132 -2.12132 
C -2.683901 -1.55874 -3 -0.795609 -3 0 
C -3 0.795609 -2.683901 1.55874 -2.12132 2.12132 
C -1.55874 2.683901 -0.795609 3 0 3 
z
" id="me557162438" style="stroke:#ff0000;"/>
    </defs>
    <g clip-path="url(#pf26641c0c5)">
     <use style="fill:#ff0000;stroke:#ff0000;" x="69.218182" xlink:href="#me557162438" y="242.085217"/>
     <use style="fill:#ff0000;stroke:#ff0000;" x="69.828129" xlink:href="#me557162438" y="242.116364"/>
     <use style="fill:#ff0000;stroke:#ff0000;" x="70.438076" xlink:href="#me557162438" y="242.107488"/>
     <use style="fill:#ff0000;stroke:#ff0000;" x="71.048023" xlink:href="#me557162438" y="242.108285"/>
     <use style="fill:#ff0000;stroke:#ff0000;" x="71.65797" xlink:href="#me557162438" y="242.108993"/>
     <use style="fill:#ff0000;stroke:#ff0000;" x="72.267918" xlink:href="#me557162438" y="242.107486"/>
     <use style="fill:#ff0000;stroke:#ff0000;" x="72.877865" xlink:href="#me557162438" y="242.104038"/>
     <use style="fill:#ff0000;stroke:#ff0000;" x="73.487812" xlink:href="#me557162438" y="242.10442"/>
     <use style="fill:#ff0000;stroke:#ff0000;" x="74.097759" xlink:href="#me557162438" y="242.101824"/>
     <use style="fill:#ff0000;stroke:#ff0000;" x="74.707706" xlink:href="#me557162438" y="242.101172"/>
     <use style="fill:#ff0000;stroke:#ff0000;" x="75.317653" xlink:href="#me557162438" y="242.096874"/>
     <use style="fill:#ff0000;stroke:#ff0000;" x="75.927601" xlink:href="#me557162438" y="242.097236"/>
     <use style="fill:#ff0000;stroke:#ff0000;" x="76.537548" xlink:href="#me557162438" y="242.092449"/>
     <use style="fill:#ff0000;stroke:#ff0000;" x="77.147495" xlink:href="#me557162438" y="242.088438"/>
     <use style="fill:#ff0000;stroke:#ff0000;" x="77.757442" xlink:href="#me557162438" y="242.088159"/>
     <use style="fill:#ff0000;stroke:#ff0000;" x="78.367389" xlink:href="#me557162438" y="242.086447"/>
     <use style="fill:#ff0000;stroke:#ff0000;" x="78.977336" xlink:href="#me557162438" y="242.082634"/>
     <use style="fill:#ff0000;stroke:#ff0000;" x="79.587284" xlink:href="#me557162438" y="242.077722"/>
     <use style="fill:#ff0000;stroke:#ff0000;" x="80.197231" xlink:href="#me557162438" y="242.071304"/>
     <use style="fill:#ff0000;stroke:#ff0000;" x="80.807178" xlink:href="#me557162438" y="242.069727"/>
     <use style="fill:#ff0000;stroke:#ff0000;" x="81.417125" xlink:href="#me557162438" y="242.06836"/>
     <use style="fill:#ff0000;stroke:#ff0000;" x="82.027072" xlink:href="#me557162438" y="242.065042"/>
     <use style="fill:#ff0000;stroke:#ff0000;" x="82.637019" xlink:href="#me557162438" y="242.05402"/>
     <use style="fill:#ff0000;stroke:#ff0000;" x="83.246967" xlink:href="#me557162438" y="242.053669"/>
     <use style="fill:#ff0000;stroke:#ff0000;" x="83.856914" xlink:href="#me557162438" y="242.043127"/>
     <use style="fill:#ff0000;stroke:#ff0000;" x="84.466861" xlink:href="#me557162438" y="242.032946"/>
     <use style="fill:#ff0000;stroke:#ff0000;" x="85.076808" xlink:href="#me557162438" y="242.037936"/>
     <use style="fill:#ff0000;stroke:#ff0000;" x="85.686755" xlink:href="#me557162438" y="242.032431"/>
     <use style="fill:#ff0000;stroke:#ff0000;" x="86.296702" xlink:href="#me557162438" y="242.030365"/>
     <use style="fill:#ff0000;stroke:#ff0000;" x="86.90665" xlink:href="#me557162438" y="242.024177"/>
     <use style="fill:#ff0000;stroke:#ff0000;" x="87.516597" xlink:href="#me557162438" y="242.019737"/>
     <use style="fill:#ff0000;stroke:#ff0000;" x="88.126544" xlink:href="#me557162438" y="242.016264"/>
     <use style="fill:#ff0000;stroke:#ff0000;" x="88.736491" xlink:href="#me557162438" y="242.003203"/>
     <use style="fill:#ff0000;stroke:#ff0000;" x="89.346438" xlink:href="#me557162438" y="241.996134"/>
     <use style="fill:#ff0000;stroke:#ff0000;" x="89.956385" xlink:href="#me557162438" y="241.987682"/>
     <use style="fill:#ff0000;stroke:#ff0000;" x="90.566333" xlink:href="#me557162438" y="241.98296"/>
     <use style="fill:#ff0000;stroke:#ff0000;" x="91.17628" xlink:href="#me557162438" y="241.976282"/>
     <use style="fill:#ff0000;stroke:#ff0000;" x="91.786227" xlink:href="#me557162438" y="241.965068"/>
     <use style="fill:#ff0000;stroke:#ff0000;" x="92.396174" xlink:href="#me557162438" y="241.958643"/>
     <use style="fill:#ff0000;stroke:#ff0000;" x="93.006121" xlink:href="#me557162438" y="241.946158"/>
     <use style="fill:#ff0000;stroke:#ff0000;" x="93.616069" xlink:href="#me557162438" y="241.936893"/>
     <use style="fill:#ff0000;stroke:#ff0000;" x="94.226016" xlink:href="#me557162438" y="241.92841"/>
     <use style="fill:#ff0000;stroke:#ff0000;" x="94.835963" xlink:href="#me557162438" y="241.914822"/>
     <use style="fill:#ff0000;stroke:#ff0000;" x="95.44591" xlink:href="#me557162438" y="241.904991"/>
     <use style="fill:#ff0000;stroke:#ff0000;" x="96.055857" xlink:href="#me557162438" y="241.895837"/>
     <use style="fill:#ff0000;stroke:#ff0000;" x="96.665804" xlink:href="#me557162438" y="241.881502"/>
     <use style="fill:#ff0000;stroke:#ff0000;" x="97.275752" xlink:href="#me557162438" y="241.871271"/>
     <use style="fill:#ff0000;stroke:#ff0000;" x="97.885699" xlink:href="#me557162438" y="241.859477"/>
     <use style="fill:#ff0000;stroke:#ff0000;" x="98.495646" xlink:href="#me557162438" y="241.847045"/>
     <use style="fill:#ff0000;stroke:#ff0000;" x="99.105593" xlink:href="#me557162438" y="241.83265"/>
     <use style="fill:#ff0000;stroke:#ff0000;" x="99.71554" xlink:href="#me557162438" y="241.819327"/>
     <use style="fill:#ff0000;stroke:#ff0000;" x="100.325487" xlink:href="#me557162438" y="241.800359"/>
     <use style="fill:#ff0000;stroke:#ff0000;" x="100.935435" xlink:href="#me557162438" y="241.790137"/>
     <use style="fill:#ff0000;stroke:#ff0000;" x="101.545382" xlink:href="#me557162438" y="241.77228"/>
     <use style="fill:#ff0000;stroke:#ff0000;" x="102.155329" xlink:href="#me557162438" y="241.758497"/>
     <use style="fill:#ff0000;stroke:#ff0000;" x="102.765276" xlink:href="#me557162438" y="241.74235"/>
     <use style="fill:#ff0000;stroke:#ff0000;" x="103.375223" xlink:href="#me557162438" y="241.726011"/>
     <use style="fill:#ff0000;stroke:#ff0000;" x="103.98517" xlink:href="#me557162438" y="241.70109"/>
     <use style="fill:#ff0000;stroke:#ff0000;" x="104.595118" xlink:href="#me557162438" y="241.688733"/>
     <use style="fill:#ff0000;stroke:#ff0000;" x="105.205065" xlink:href="#me557162438" y="241.671696"/>
     <use style="fill:#ff0000;stroke:#ff0000;" x="105.815012" xlink:href="#me557162438" y="241.649326"/>
     <use style="fill:#ff0000;stroke:#ff0000;" x="106.424959" xlink:href="#me557162438" y="241.629102"/>
     <use style="fill:#ff0000;stroke:#ff0000;" x="107.034906" xlink:href="#me557162438" y="241.613135"/>
     <use style="fill:#ff0000;stroke:#ff0000;" x="107.644853" xlink:href="#me557162438" y="241.587936"/>
     <use style="fill:#ff0000;stroke:#ff0000;" x="108.254801" xlink:href="#me557162438" y="241.567126"/>
     <use style="fill:#ff0000;stroke:#ff0000;" x="108.864748" xlink:href="#me557162438" y="241.547937"/>
     <use style="fill:#ff0000;stroke:#ff0000;" x="109.474695" xlink:href="#me557162438" y="241.531237"/>
     <use style="fill:#ff0000;stroke:#ff0000;" x="110.084642" xlink:href="#me557162438" y="241.500355"/>
     <use style="fill:#ff0000;stroke:#ff0000;" x="110.694589" xlink:href="#me557162438" y="241.462143"/>
     <use style="fill:#ff0000;stroke:#ff0000;" x="111.304536" xlink:href="#me557162438" y="241.441934"/>
     <use style="fill:#ff0000;stroke:#ff0000;" x="111.914484" xlink:href="#me557162438" y="241.399456"/>
     <use style="fill:#ff0000;stroke:#ff0000;" x="112.524431" xlink:href="#me557162438" y="241.375352"/>
     <use style="fill:#ff0000;stroke:#ff0000;" x="113.134378" xlink:href="#me557162438" y="241.377348"/>
     <use style="fill:#ff0000;stroke:#ff0000;" x="113.744325" xlink:href="#me557162438" y="241.357975"/>
     <use style="fill:#ff0000;stroke:#ff0000;" x="114.354272" xlink:href="#me557162438" y="241.310267"/>
     <use style="fill:#ff0000;stroke:#ff0000;" x="114.964219" xlink:href="#me557162438" y="241.280189"/>
     <use style="fill:#ff0000;stroke:#ff0000;" x="115.574167" xlink:href="#me557162438" y="241.264403"/>
     <use style="fill:#ff0000;stroke:#ff0000;" x="116.184114" xlink:href="#me557162438" y="240.737128"/>
     <use style="fill:#ff0000;stroke:#ff0000;" x="116.794061" xlink:href="#me557162438" y="241.217629"/>
     <use style="fill:#ff0000;stroke:#ff0000;" x="117.404008" xlink:href="#me557162438" y="241.176228"/>
     <use style="fill:#ff0000;stroke:#ff0000;" x="118.013955" xlink:href="#me557162438" y="241.146219"/>
     <use style="fill:#ff0000;stroke:#ff0000;" x="118.623902" xlink:href="#me557162438" y="241.111289"/>
     <use style="fill:#ff0000;stroke:#ff0000;" x="119.23385" xlink:href="#me557162438" y="241.080261"/>
     <use style="fill:#ff0000;stroke:#ff0000;" x="119.843797" xlink:href="#me557162438" y="241.054913"/>
     <use style="fill:#ff0000;stroke:#ff0000;" x="120.453744" xlink:href="#me557162438" y="241.021422"/>
     <use style="fill:#ff0000;stroke:#ff0000;" x="121.063691" xlink:href="#me557162438" y="240.985079"/>
     <use style="fill:#ff0000;stroke:#ff0000;" x="121.673638" xlink:href="#me557162438" y="240.952328"/>
     <use style="fill:#ff0000;stroke:#ff0000;" x="122.283585" xlink:href="#me557162438" y="240.904863"/>
     <use style="fill:#ff0000;stroke:#ff0000;" x="122.893533" xlink:href="#me557162438" y="240.865471"/>
     <use style="fill:#ff0000;stroke:#ff0000;" x="123.50348" xlink:href="#me557162438" y="240.82995"/>
     <use style="fill:#ff0000;stroke:#ff0000;" x="124.113427" xlink:href="#me557162438" y="240.786327"/>
     <use style="fill:#ff0000;stroke:#ff0000;" x="124.723374" xlink:href="#me557162438" y="240.724902"/>
     <use style="fill:#ff0000;stroke:#ff0000;" x="125.333321" xlink:href="#me557162438" y="240.725191"/>
     <use style="fill:#ff0000;stroke:#ff0000;" x="125.943268" xlink:href="#me557162438" y="240.669022"/>
     <use style="fill:#ff0000;stroke:#ff0000;" x="126.553216" xlink:href="#me557162438" y="240.600369"/>
     <use style="fill:#ff0000;stroke:#ff0000;" x="127.163163" xlink:href="#me557162438" y="240.567468"/>
     <use style="fill:#ff0000;stroke:#ff0000;" x="127.77311" xlink:href="#me557162438" y="240.556302"/>
     <use style="fill:#ff0000;stroke:#ff0000;" x="128.383057" xlink:href="#me557162438" y="240.515675"/>
     <use style="fill:#ff0000;stroke:#ff0000;" x="128.993004" xlink:href="#me557162438" y="240.439604"/>
     <use style="fill:#ff0000;stroke:#ff0000;" x="129.602951" xlink:href="#me557162438" y="240.398248"/>
     <use style="fill:#ff0000;stroke:#ff0000;" x="190.597668" xlink:href="#me557162438" y="230.113106"/>
     <use style="fill:#ff0000;stroke:#ff0000;" x="193.647404" xlink:href="#me557162438" y="229.361598"/>
     <use style="fill:#ff0000;stroke:#ff0000;" x="196.69714" xlink:href="#me557162438" y="228.322701"/>
     <use style="fill:#ff0000;stroke:#ff0000;" x="199.746876" xlink:href="#me557162438" y="227.379843"/>
     <use style="fill:#ff0000;stroke:#ff0000;" x="202.796611" xlink:href="#me557162438" y="226.351769"/>
     <use style="fill:#ff0000;stroke:#ff0000;" x="205.846347" xlink:href="#me557162438" y="225.337489"/>
     <use style="fill:#ff0000;stroke:#ff0000;" x="208.896083" xlink:href="#me557162438" y="223.947432"/>
     <use style="fill:#ff0000;stroke:#ff0000;" x="211.945819" xlink:href="#me557162438" y="222.971774"/>
     <use style="fill:#ff0000;stroke:#ff0000;" x="214.995555" xlink:href="#me557162438" y="221.626234"/>
     <use style="fill:#ff0000;stroke:#ff0000;" x="218.045291" xlink:href="#me557162438" y="200.868973"/>
     <use style="fill:#ff0000;stroke:#ff0000;" x="221.095026" xlink:href="#me557162438" y="218.80566"/>
     <use style="fill:#ff0000;stroke:#ff0000;" x="224.144762" xlink:href="#me557162438" y="217.052103"/>
     <use style="fill:#ff0000;stroke:#ff0000;" x="227.194498" xlink:href="#me557162438" y="215.88696"/>
     <use style="fill:#ff0000;stroke:#ff0000;" x="230.244234" xlink:href="#me557162438" y="214.532025"/>
     <use style="fill:#ff0000;stroke:#ff0000;" x="233.29397" xlink:href="#me557162438" y="213.334485"/>
     <use style="fill:#ff0000;stroke:#ff0000;" x="236.343706" xlink:href="#me557162438" y="211.49983"/>
     <use style="fill:#ff0000;stroke:#ff0000;" x="239.393441" xlink:href="#me557162438" y="209.876987"/>
     <use style="fill:#ff0000;stroke:#ff0000;" x="242.443177" xlink:href="#me557162438" y="208.144591"/>
     <use style="fill:#ff0000;stroke:#ff0000;" x="245.492913" xlink:href="#me557162438" y="205.908741"/>
     <use style="fill:#ff0000;stroke:#ff0000;" x="248.542649" xlink:href="#me557162438" y="204.60044"/>
     <use style="fill:#ff0000;stroke:#ff0000;" x="251.592385" xlink:href="#me557162438" y="202.458196"/>
     <use style="fill:#ff0000;stroke:#ff0000;" x="266.841064" xlink:href="#me557162438" y="191.336116"/>
     <use style="fill:#ff0000;stroke:#ff0000;" x="282.089743" xlink:href="#me557162438" y="179.105889"/>
     <use style="fill:#ff0000;stroke:#ff0000;" x="297.338422" xlink:href="#me557162438" y="165.881388"/>
     <use style="fill:#ff0000;stroke:#ff0000;" x="312.587101" xlink:href="#me557162438" y="149.172636"/>
     <use style="fill:#ff0000;stroke:#ff0000;" x="327.835781" xlink:href="#me557162438" y="130.52555"/>
     <use style="fill:#ff0000;stroke:#ff0000;" x="343.08446" xlink:href="#me557162438" y="110.89269"/>
     <use style="fill:#ff0000;stroke:#ff0000;" x="358.333139" xlink:href="#me557162438" y="89.477908"/>
     <use style="fill:#ff0000;stroke:#ff0000;" x="373.581818" xlink:href="#me557162438" y="64.055032"/>
    </g>
   </g>
   <g id="line2d_17">
    <path clip-path="url(#pf26641c0c5)" d="M 69.218182 241.842647 
L 88.736491 241.03618 
L 105.815012 240.118147 
L 121.063691 239.083847 
L 129.602951 238.397216 
L 190.597668 230.041781 
L 199.746876 228.027536 
L 208.896083 225.72921 
L 218.045291 223.106738 
L 224.144762 221.156022 
L 230.244234 219.025953 
L 236.343706 216.700041 
L 242.443177 214.16028 
L 248.542649 211.387008 
L 251.592385 209.906172 
L 266.841064 201.441384 
L 282.089743 190.894723 
L 297.338422 177.754162 
L 312.587101 161.381745 
L 327.835781 140.982611 
L 343.08446 115.56641 
L 358.333139 83.899219 
L 373.581818 44.443636 
L 373.581818 44.443636 
" style="fill:none;stroke:#1f77b4;stroke-linecap:square;stroke-width:1.5;"/>
   </g>
   <g id="patch_3">
    <path d="M 54 252 
L 54 34.56 
" style="fill:none;stroke:#000000;stroke-linecap:square;stroke-linejoin:miter;stroke-width:0.8;"/>
   </g>
   <g id="patch_4">
    <path d="M 388.8 252 
L 388.8 34.56 
" style="fill:none;stroke:#000000;stroke-linecap:square;stroke-linejoin:miter;stroke-width:0.8;"/>
   </g>
   <g id="patch_5">
    <path d="M 54 252 
L 388.8 252 
" style="fill:none;stroke:#000000;stroke-linecap:square;stroke-linejoin:miter;stroke-width:0.8;"/>
   </g>
   <g id="patch_6">
    <path d="M 54 34.56 
L 388.8 34.56 
" style="fill:none;stroke:#000000;stroke-linecap:square;stroke-linejoin:miter;stroke-width:0.8;"/>
   </g>
   <g id="text_16">
    <!-- $f(n)= 1.00883457139737^{n} - 0.867191340499128$ -->
    <defs>
     <path d="M 47.796875 75.984375 
L 46.390625 68.5 
L 37.796875 68.5 
Q 32.90625 68.5 30.6875 66.578125 
Q 28.46875 64.65625 27.390625 59.515625 
L 26.421875 54.6875 
L 41.21875 54.6875 
L 39.890625 47.703125 
L 25.09375 47.703125 
L 15.828125 0 
L 6.78125 0 
L 16.109375 47.703125 
L 7.515625 47.703125 
L 8.796875 54.6875 
L 17.390625 54.6875 
L 18.109375 58.5 
Q 19.96875 68.171875 24.625 72.078125 
Q 29.296875 75.984375 39.3125 75.984375 
z
" id="DejaVuSans-Oblique-102"/>
     <path d="M 31 75.875 
Q 24.46875 64.65625 21.28125 53.65625 
Q 18.109375 42.671875 18.109375 31.390625 
Q 18.109375 20.125 21.3125 9.0625 
Q 24.515625 -2 31 -13.1875 
L 23.1875 -13.1875 
Q 15.875 -1.703125 12.234375 9.375 
Q 8.59375 20.453125 8.59375 31.390625 
Q 8.59375 42.28125 12.203125 53.3125 
Q 15.828125 64.359375 23.1875 75.875 
z
" id="DejaVuSans-40"/>
     <path d="M 55.71875 33.015625 
L 49.3125 0 
L 40.28125 0 
L 46.6875 32.671875 
Q 47.125 34.96875 47.359375 36.71875 
Q 47.609375 38.484375 47.609375 39.5 
Q 47.609375 43.609375 45.015625 45.890625 
Q 42.4375 48.1875 37.796875 48.1875 
Q 30.5625 48.1875 25.34375 43.375 
Q 20.125 38.578125 18.5 30.328125 
L 12.5 0 
L 3.515625 0 
L 14.109375 54.6875 
L 23.09375 54.6875 
L 21.296875 46.09375 
Q 25.046875 50.828125 30.3125 53.40625 
Q 35.59375 56 41.40625 56 
Q 48.640625 56 52.609375 52.09375 
Q 56.59375 48.1875 56.59375 41.109375 
Q 56.59375 39.359375 56.375 37.359375 
Q 56.15625 35.359375 55.71875 33.015625 
z
" id="DejaVuSans-Oblique-110"/>
     <path d="M 8.015625 75.875 
L 15.828125 75.875 
Q 23.140625 64.359375 26.78125 53.3125 
Q 30.421875 42.28125 30.421875 31.390625 
Q 30.421875 20.453125 26.78125 9.375 
Q 23.140625 -1.703125 15.828125 -13.1875 
L 8.015625 -13.1875 
Q 14.5 -2 17.703125 9.0625 
Q 20.90625 20.125 20.90625 31.390625 
Q 20.90625 42.671875 17.703125 53.65625 
Q 14.5 64.65625 8.015625 75.875 
z
" id="DejaVuSans-41"/>
     <path d="M 10.59375 45.40625 
L 73.1875 45.40625 
L 73.1875 37.203125 
L 10.59375 37.203125 
z
M 10.59375 25.484375 
L 73.1875 25.484375 
L 73.1875 17.1875 
L 10.59375 17.1875 
z
" id="DejaVuSans-61"/>
     <path d="M 10.6875 12.40625 
L 21 12.40625 
L 21 0 
L 10.6875 0 
z
" id="DejaVuSans-46"/>
     <path d="M 10.984375 1.515625 
L 10.984375 10.5 
Q 14.703125 8.734375 18.5 7.8125 
Q 22.3125 6.890625 25.984375 6.890625 
Q 35.75 6.890625 40.890625 13.453125 
Q 46.046875 20.015625 46.78125 33.40625 
Q 43.953125 29.203125 39.59375 26.953125 
Q 35.25 24.703125 29.984375 24.703125 
Q 19.046875 24.703125 12.671875 31.3125 
Q 6.296875 37.9375 6.296875 49.421875 
Q 6.296875 60.640625 12.9375 67.421875 
Q 19.578125 74.21875 30.609375 74.21875 
Q 43.265625 74.21875 49.921875 64.515625 
Q 56.59375 54.828125 56.59375 36.375 
Q 56.59375 19.140625 48.40625 8.859375 
Q 40.234375 -1.421875 26.421875 -1.421875 
Q 22.703125 -1.421875 18.890625 -0.6875 
Q 15.09375 0.046875 10.984375 1.515625 
z
M 30.609375 32.421875 
Q 37.25 32.421875 41.125 36.953125 
Q 45.015625 41.5 45.015625 49.421875 
Q 45.015625 57.28125 41.125 61.84375 
Q 37.25 66.40625 30.609375 66.40625 
Q 23.96875 66.40625 20.09375 61.84375 
Q 16.21875 57.28125 16.21875 49.421875 
Q 16.21875 41.5 20.09375 36.953125 
Q 23.96875 32.421875 30.609375 32.421875 
z
" id="DejaVuSans-57"/>
     <path d="M 10.59375 35.5 
L 73.1875 35.5 
L 73.1875 27.203125 
L 10.59375 27.203125 
z
" id="DejaVuSans-8722"/>
    </defs>
    <g transform="translate(20.92 28.56)scale(0.16 -0.16)">
     <use transform="translate(0 0.51875)" xlink:href="#DejaVuSans-Oblique-102"/>
     <use transform="translate(35.205078 0.51875)" xlink:href="#DejaVuSans-40"/>
     <use transform="translate(74.21875 0.51875)" xlink:href="#DejaVuSans-Oblique-110"/>
     <use transform="translate(137.597656 0.51875)" xlink:href="#DejaVuSans-41"/>
     <use transform="translate(196.09375 0.51875)" xlink:href="#DejaVuSans-61"/>
     <use transform="translate(299.365234 0.51875)" xlink:href="#DejaVuSans-49"/>
     <use transform="translate(362.988281 0.51875)" xlink:href="#DejaVuSans-46"/>
     <use transform="translate(394.775391 0.51875)" xlink:href="#DejaVuSans-48"/>
     <use transform="translate(458.398438 0.51875)" xlink:href="#DejaVuSans-48"/>
     <use transform="translate(522.021484 0.51875)" xlink:href="#DejaVuSans-56"/>
     <use transform="translate(585.644531 0.51875)" xlink:href="#DejaVuSans-56"/>
     <use transform="translate(649.267578 0.51875)" xlink:href="#DejaVuSans-51"/>
     <use transform="translate(712.890625 0.51875)" xlink:href="#DejaVuSans-52"/>
     <use transform="translate(776.513672 0.51875)" xlink:href="#DejaVuSans-53"/>
     <use transform="translate(840.027344 0.51875)" xlink:href="#DejaVuSans-55"/>
     <use transform="translate(903.650391 0.51875)" xlink:href="#DejaVuSans-49"/>
     <use transform="translate(967.273438 0.51875)" xlink:href="#DejaVuSans-51"/>
     <use transform="translate(1030.896484 0.51875)" xlink:href="#DejaVuSans-57"/>
     <use transform="translate(1094.519531 0.51875)" xlink:href="#DejaVuSans-55"/>
     <use transform="translate(1158.142578 0.51875)" xlink:href="#DejaVuSans-51"/>
     <use transform="translate(1221.765625 0.51875)" xlink:href="#DejaVuSans-55"/>
     <use transform="translate(1286.345703 38.8)scale(0.7)" xlink:href="#DejaVuSans-Oblique-110"/>
     <use transform="translate(1352.927734 0.51875)" xlink:href="#DejaVuSans-8722"/>
     <use transform="translate(1456.199219 0.51875)" xlink:href="#DejaVuSans-48"/>
     <use transform="translate(1519.822266 0.51875)" xlink:href="#DejaVuSans-46"/>
     <use transform="translate(1551.578125 0.51875)" xlink:href="#DejaVuSans-56"/>
     <use transform="translate(1615.201172 0.51875)" xlink:href="#DejaVuSans-54"/>
     <use transform="translate(1678.824219 0.51875)" xlink:href="#DejaVuSans-55"/>
     <use transform="translate(1742.447266 0.51875)" xlink:href="#DejaVuSans-49"/>
     <use transform="translate(1806.070312 0.51875)" xlink:href="#DejaVuSans-57"/>
     <use transform="translate(1869.693359 0.51875)" xlink:href="#DejaVuSans-49"/>
     <use transform="translate(1933.316406 0.51875)" xlink:href="#DejaVuSans-51"/>
     <use transform="translate(1996.939453 0.51875)" xlink:href="#DejaVuSans-52"/>
     <use transform="translate(2060.5625 0.51875)" xlink:href="#DejaVuSans-48"/>
     <use transform="translate(2124.185547 0.51875)" xlink:href="#DejaVuSans-52"/>
     <use transform="translate(2187.808594 0.51875)" xlink:href="#DejaVuSans-57"/>
     <use transform="translate(2251.431641 0.51875)" xlink:href="#DejaVuSans-57"/>
     <use transform="translate(2315.054688 0.51875)" xlink:href="#DejaVuSans-49"/>
     <use transform="translate(2378.677734 0.51875)" xlink:href="#DejaVuSans-50"/>
     <use transform="translate(2442.300781 0.51875)" xlink:href="#DejaVuSans-56"/>
    </g>
   </g>
   <g id="legend_1">
    <g id="patch_7">
     <path d="M 61 71.91625 
L 159.185938 71.91625 
Q 161.185938 71.91625 161.185938 69.91625 
L 161.185938 41.56 
Q 161.185938 39.56 159.185938 39.56 
L 61 39.56 
Q 59 39.56 59 41.56 
L 59 69.91625 
Q 59 71.91625 61 71.91625 
z
" style="fill:#ffffff;opacity:0.8;stroke:#cccccc;stroke-linejoin:miter;"/>
    </g>
    <g id="line2d_18"/>
    <g id="line2d_19">
     <g>
      <use style="fill:#ff0000;stroke:#ff0000;" x="73" xlink:href="#me557162438" y="47.658437"/>
     </g>
    </g>
    <g id="text_17">
     <!-- Original Data -->
     <defs>
      <path d="M 39.40625 66.21875 
Q 28.65625 66.21875 22.328125 58.203125 
Q 16.015625 50.203125 16.015625 36.375 
Q 16.015625 22.609375 22.328125 14.59375 
Q 28.65625 6.59375 39.40625 6.59375 
Q 50.140625 6.59375 56.421875 14.59375 
Q 62.703125 22.609375 62.703125 36.375 
Q 62.703125 50.203125 56.421875 58.203125 
Q 50.140625 66.21875 39.40625 66.21875 
z
M 39.40625 74.21875 
Q 54.734375 74.21875 63.90625 63.9375 
Q 73.09375 53.65625 73.09375 36.375 
Q 73.09375 19.140625 63.90625 8.859375 
Q 54.734375 -1.421875 39.40625 -1.421875 
Q 24.03125 -1.421875 14.8125 8.828125 
Q 5.609375 19.09375 5.609375 36.375 
Q 5.609375 53.65625 14.8125 63.9375 
Q 24.03125 74.21875 39.40625 74.21875 
z
" id="DejaVuSans-79"/>
      <path d="M 41.109375 46.296875 
Q 39.59375 47.171875 37.8125 47.578125 
Q 36.03125 48 33.890625 48 
Q 26.265625 48 22.1875 43.046875 
Q 18.109375 38.09375 18.109375 28.8125 
L 18.109375 0 
L 9.078125 0 
L 9.078125 54.6875 
L 18.109375 54.6875 
L 18.109375 46.1875 
Q 20.953125 51.171875 25.484375 53.578125 
Q 30.03125 56 36.53125 56 
Q 37.453125 56 38.578125 55.875 
Q 39.703125 55.765625 41.0625 55.515625 
z
" id="DejaVuSans-114"/>
      <path d="M 9.421875 54.6875 
L 18.40625 54.6875 
L 18.40625 0 
L 9.421875 0 
z
M 9.421875 75.984375 
L 18.40625 75.984375 
L 18.40625 64.59375 
L 9.421875 64.59375 
z
" id="DejaVuSans-105"/>
      <path d="M 45.40625 27.984375 
Q 45.40625 37.75 41.375 43.109375 
Q 37.359375 48.484375 30.078125 48.484375 
Q 22.859375 48.484375 18.828125 43.109375 
Q 14.796875 37.75 14.796875 27.984375 
Q 14.796875 18.265625 18.828125 12.890625 
Q 22.859375 7.515625 30.078125 7.515625 
Q 37.359375 7.515625 41.375 12.890625 
Q 45.40625 18.265625 45.40625 27.984375 
z
M 54.390625 6.78125 
Q 54.390625 -7.171875 48.1875 -13.984375 
Q 42 -20.796875 29.203125 -20.796875 
Q 24.46875 -20.796875 20.265625 -20.09375 
Q 16.0625 -19.390625 12.109375 -17.921875 
L 12.109375 -9.1875 
Q 16.0625 -11.328125 19.921875 -12.34375 
Q 23.78125 -13.375 27.78125 -13.375 
Q 36.625 -13.375 41.015625 -8.765625 
Q 45.40625 -4.15625 45.40625 5.171875 
L 45.40625 9.625 
Q 42.625 4.78125 38.28125 2.390625 
Q 33.9375 0 27.875 0 
Q 17.828125 0 11.671875 7.65625 
Q 5.515625 15.328125 5.515625 27.984375 
Q 5.515625 40.671875 11.671875 48.328125 
Q 17.828125 56 27.875 56 
Q 33.9375 56 38.28125 53.609375 
Q 42.625 51.21875 45.40625 46.390625 
L 45.40625 54.6875 
L 54.390625 54.6875 
z
" id="DejaVuSans-103"/>
      <path d="M 54.890625 33.015625 
L 54.890625 0 
L 45.90625 0 
L 45.90625 32.71875 
Q 45.90625 40.484375 42.875 44.328125 
Q 39.84375 48.1875 33.796875 48.1875 
Q 26.515625 48.1875 22.3125 43.546875 
Q 18.109375 38.921875 18.109375 30.90625 
L 18.109375 0 
L 9.078125 0 
L 9.078125 54.6875 
L 18.109375 54.6875 
L 18.109375 46.1875 
Q 21.34375 51.125 25.703125 53.5625 
Q 30.078125 56 35.796875 56 
Q 45.21875 56 50.046875 50.171875 
Q 54.890625 44.34375 54.890625 33.015625 
z
" id="DejaVuSans-110"/>
      <path d="M 34.28125 27.484375 
Q 23.390625 27.484375 19.1875 25 
Q 14.984375 22.515625 14.984375 16.5 
Q 14.984375 11.71875 18.140625 8.90625 
Q 21.296875 6.109375 26.703125 6.109375 
Q 34.1875 6.109375 38.703125 11.40625 
Q 43.21875 16.703125 43.21875 25.484375 
L 43.21875 27.484375 
z
M 52.203125 31.203125 
L 52.203125 0 
L 43.21875 0 
L 43.21875 8.296875 
Q 40.140625 3.328125 35.546875 0.953125 
Q 30.953125 -1.421875 24.3125 -1.421875 
Q 15.921875 -1.421875 10.953125 3.296875 
Q 6 8.015625 6 15.921875 
Q 6 25.140625 12.171875 29.828125 
Q 18.359375 34.515625 30.609375 34.515625 
L 43.21875 34.515625 
L 43.21875 35.40625 
Q 43.21875 41.609375 39.140625 45 
Q 35.0625 48.390625 27.6875 48.390625 
Q 23 48.390625 18.546875 47.265625 
Q 14.109375 46.140625 10.015625 43.890625 
L 10.015625 52.203125 
Q 14.9375 54.109375 19.578125 55.046875 
Q 24.21875 56 28.609375 56 
Q 40.484375 56 46.34375 49.84375 
Q 52.203125 43.703125 52.203125 31.203125 
z
" id="DejaVuSans-97"/>
      <path d="M 9.421875 75.984375 
L 18.40625 75.984375 
L 18.40625 0 
L 9.421875 0 
z
" id="DejaVuSans-108"/>
      <path id="DejaVuSans-32"/>
      <path d="M 19.671875 64.796875 
L 19.671875 8.109375 
L 31.59375 8.109375 
Q 46.6875 8.109375 53.6875 14.9375 
Q 60.6875 21.78125 60.6875 36.53125 
Q 60.6875 51.171875 53.6875 57.984375 
Q 46.6875 64.796875 31.59375 64.796875 
z
M 9.8125 72.90625 
L 30.078125 72.90625 
Q 51.265625 72.90625 61.171875 64.09375 
Q 71.09375 55.28125 71.09375 36.53125 
Q 71.09375 17.671875 61.125 8.828125 
Q 51.171875 0 30.078125 0 
L 9.8125 0 
z
" id="DejaVuSans-68"/>
      <path d="M 18.3125 70.21875 
L 18.3125 54.6875 
L 36.8125 54.6875 
L 36.8125 47.703125 
L 18.3125 47.703125 
L 18.3125 18.015625 
Q 18.3125 11.328125 20.140625 9.421875 
Q 21.96875 7.515625 27.59375 7.515625 
L 36.8125 7.515625 
L 36.8125 0 
L 27.59375 0 
Q 17.1875 0 13.234375 3.875 
Q 9.28125 7.765625 9.28125 18.015625 
L 9.28125 47.703125 
L 2.6875 47.703125 
L 2.6875 54.6875 
L 9.28125 54.6875 
L 9.28125 70.21875 
z
" id="DejaVuSans-116"/>
     </defs>
     <g transform="translate(91 51.158437)scale(0.1 -0.1)">
      <use xlink:href="#DejaVuSans-79"/>
      <use x="78.710938" xlink:href="#DejaVuSans-114"/>
      <use x="119.824219" xlink:href="#DejaVuSans-105"/>
      <use x="147.607422" xlink:href="#DejaVuSans-103"/>
      <use x="211.083984" xlink:href="#DejaVuSans-105"/>
      <use x="238.867188" xlink:href="#DejaVuSans-110"/>
      <use x="302.246094" xlink:href="#DejaVuSans-97"/>
      <use x="363.525391" xlink:href="#DejaVuSans-108"/>
      <use x="391.308594" xlink:href="#DejaVuSans-32"/>
      <use x="423.095703" xlink:href="#DejaVuSans-68"/>
      <use x="500.097656" xlink:href="#DejaVuSans-97"/>
      <use x="561.376953" xlink:href="#DejaVuSans-116"/>
      <use x="600.585938" xlink:href="#DejaVuSans-97"/>
     </g>
    </g>
    <g id="line2d_20">
     <path d="M 63 62.336562 
L 83 62.336562 
" style="fill:none;stroke:#1f77b4;stroke-linecap:square;stroke-width:1.5;"/>
    </g>
    <g id="line2d_21"/>
    <g id="text_18">
     <!-- Fitted Curve -->
     <defs>
      <path d="M 9.8125 72.90625 
L 51.703125 72.90625 
L 51.703125 64.59375 
L 19.671875 64.59375 
L 19.671875 43.109375 
L 48.578125 43.109375 
L 48.578125 34.8125 
L 19.671875 34.8125 
L 19.671875 0 
L 9.8125 0 
z
" id="DejaVuSans-70"/>
      <path d="M 56.203125 29.59375 
L 56.203125 25.203125 
L 14.890625 25.203125 
Q 15.484375 15.921875 20.484375 11.0625 
Q 25.484375 6.203125 34.421875 6.203125 
Q 39.59375 6.203125 44.453125 7.46875 
Q 49.3125 8.734375 54.109375 11.28125 
L 54.109375 2.78125 
Q 49.265625 0.734375 44.1875 -0.34375 
Q 39.109375 -1.421875 33.890625 -1.421875 
Q 20.796875 -1.421875 13.15625 6.1875 
Q 5.515625 13.8125 5.515625 26.8125 
Q 5.515625 40.234375 12.765625 48.109375 
Q 20.015625 56 32.328125 56 
Q 43.359375 56 49.78125 48.890625 
Q 56.203125 41.796875 56.203125 29.59375 
z
M 47.21875 32.234375 
Q 47.125 39.59375 43.09375 43.984375 
Q 39.0625 48.390625 32.421875 48.390625 
Q 24.90625 48.390625 20.390625 44.140625 
Q 15.875 39.890625 15.1875 32.171875 
z
" id="DejaVuSans-101"/>
      <path d="M 45.40625 46.390625 
L 45.40625 75.984375 
L 54.390625 75.984375 
L 54.390625 0 
L 45.40625 0 
L 45.40625 8.203125 
Q 42.578125 3.328125 38.25 0.953125 
Q 33.9375 -1.421875 27.875 -1.421875 
Q 17.96875 -1.421875 11.734375 6.484375 
Q 5.515625 14.40625 5.515625 27.296875 
Q 5.515625 40.1875 11.734375 48.09375 
Q 17.96875 56 27.875 56 
Q 33.9375 56 38.25 53.625 
Q 42.578125 51.265625 45.40625 46.390625 
z
M 14.796875 27.296875 
Q 14.796875 17.390625 18.875 11.75 
Q 22.953125 6.109375 30.078125 6.109375 
Q 37.203125 6.109375 41.296875 11.75 
Q 45.40625 17.390625 45.40625 27.296875 
Q 45.40625 37.203125 41.296875 42.84375 
Q 37.203125 48.484375 30.078125 48.484375 
Q 22.953125 48.484375 18.875 42.84375 
Q 14.796875 37.203125 14.796875 27.296875 
z
" id="DejaVuSans-100"/>
      <path d="M 64.40625 67.28125 
L 64.40625 56.890625 
Q 59.421875 61.53125 53.78125 63.8125 
Q 48.140625 66.109375 41.796875 66.109375 
Q 29.296875 66.109375 22.65625 58.46875 
Q 16.015625 50.828125 16.015625 36.375 
Q 16.015625 21.96875 22.65625 14.328125 
Q 29.296875 6.6875 41.796875 6.6875 
Q 48.140625 6.6875 53.78125 8.984375 
Q 59.421875 11.28125 64.40625 15.921875 
L 64.40625 5.609375 
Q 59.234375 2.09375 53.4375 0.328125 
Q 47.65625 -1.421875 41.21875 -1.421875 
Q 24.65625 -1.421875 15.125 8.703125 
Q 5.609375 18.84375 5.609375 36.375 
Q 5.609375 53.953125 15.125 64.078125 
Q 24.65625 74.21875 41.21875 74.21875 
Q 47.75 74.21875 53.53125 72.484375 
Q 59.328125 70.75 64.40625 67.28125 
z
" id="DejaVuSans-67"/>
      <path d="M 8.5 21.578125 
L 8.5 54.6875 
L 17.484375 54.6875 
L 17.484375 21.921875 
Q 17.484375 14.15625 20.5 10.265625 
Q 23.53125 6.390625 29.59375 6.390625 
Q 36.859375 6.390625 41.078125 11.03125 
Q 45.3125 15.671875 45.3125 23.6875 
L 45.3125 54.6875 
L 54.296875 54.6875 
L 54.296875 0 
L 45.3125 0 
L 45.3125 8.40625 
Q 42.046875 3.421875 37.71875 1 
Q 33.40625 -1.421875 27.6875 -1.421875 
Q 18.265625 -1.421875 13.375 4.4375 
Q 8.5 10.296875 8.5 21.578125 
z
M 31.109375 56 
z
" id="DejaVuSans-117"/>
      <path d="M 2.984375 54.6875 
L 12.5 54.6875 
L 29.59375 8.796875 
L 46.6875 54.6875 
L 56.203125 54.6875 
L 35.6875 0 
L 23.484375 0 
z
" id="DejaVuSans-118"/>
     </defs>
     <g transform="translate(91 65.836562)scale(0.1 -0.1)">
      <use xlink:href="#DejaVuSans-70"/>
      <use x="57.410156" xlink:href="#DejaVuSans-105"/>
      <use x="85.193359" xlink:href="#DejaVuSans-116"/>
      <use x="124.402344" xlink:href="#DejaVuSans-116"/>
      <use x="163.611328" xlink:href="#DejaVuSans-101"/>
      <use x="225.134766" xlink:href="#DejaVuSans-100"/>
      <use x="288.611328" xlink:href="#DejaVuSans-32"/>
      <use x="320.398438" xlink:href="#DejaVuSans-67"/>
      <use x="390.222656" xlink:href="#DejaVuSans-117"/>
      <use x="453.601562" xlink:href="#DejaVuSans-114"/>
      <use x="494.714844" xlink:href="#DejaVuSans-118"/>
      <use x="553.894531" xlink:href="#DejaVuSans-101"/>
     </g>
    </g>
   </g>
  </g>
 </g>
 <defs>
  <clipPath id="pf26641c0c5">
   <rect height="217.44" width="334.8" x="54" y="34.56"/>
  </clipPath>
 </defs>
</svg>
