<?xml version="1.0" encoding="utf-8" standalone="no"?>
<!DOCTYPE svg PUBLIC "-//W3C//DTD SVG 1.1//EN"
  "http://www.w3.org/Graphics/SVG/1.1/DTD/svg11.dtd">
<!-- Created with matplotlib (https://matplotlib.org/) -->
<svg height="288pt" version="1.1" viewBox="0 0 432 288" width="432pt" xmlns="http://www.w3.org/2000/svg" xmlns:xlink="http://www.w3.org/1999/xlink">
 <defs>
  <style type="text/css">
*{stroke-linecap:butt;stroke-linejoin:round;}
  </style>
 </defs>
 <g id="figure_1">
  <g id="patch_1">
   <path d="M 0 288 
L 432 288 
L 432 0 
L 0 0 
z
" style="fill:#ffffff;"/>
  </g>
  <g id="axes_1">
   <g id="patch_2">
    <path d="M 54 252 
L 388.8 252 
L 388.8 34.56 
L 54 34.56 
z
" style="fill:#ffffff;"/>
   </g>
   <g id="matplotlib.axis_1">
    <g id="xtick_1">
     <g id="line2d_1">
      <defs>
       <path d="M 0 0 
L 0 3.5 
" id="mab795fb2c2" style="stroke:#000000;stroke-width:0.8;"/>
      </defs>
      <g>
       <use style="stroke:#000000;stroke-width:0.8;" x="68.913514" xlink:href="#mab795fb2c2" y="252"/>
      </g>
     </g>
     <g id="text_1">
      <!-- 0 -->
      <defs>
       <path d="M 31.78125 66.40625 
Q 24.171875 66.40625 20.328125 58.90625 
Q 16.5 51.421875 16.5 36.375 
Q 16.5 21.390625 20.328125 13.890625 
Q 24.171875 6.390625 31.78125 6.390625 
Q 39.453125 6.390625 43.28125 13.890625 
Q 47.125 21.390625 47.125 36.375 
Q 47.125 51.421875 43.28125 58.90625 
Q 39.453125 66.40625 31.78125 66.40625 
z
M 31.78125 74.21875 
Q 44.046875 74.21875 50.515625 64.515625 
Q 56.984375 54.828125 56.984375 36.375 
Q 56.984375 17.96875 50.515625 8.265625 
Q 44.046875 -1.421875 31.78125 -1.421875 
Q 19.53125 -1.421875 13.0625 8.265625 
Q 6.59375 17.96875 6.59375 36.375 
Q 6.59375 54.828125 13.0625 64.515625 
Q 19.53125 74.21875 31.78125 74.21875 
z
" id="DejaVuSans-48"/>
      </defs>
      <g transform="translate(65.732264 266.598437)scale(0.1 -0.1)">
       <use xlink:href="#DejaVuSans-48"/>
      </g>
     </g>
    </g>
    <g id="xtick_2">
     <g id="line2d_2">
      <g>
       <use style="stroke:#000000;stroke-width:0.8;" x="129.847174" xlink:href="#mab795fb2c2" y="252"/>
      </g>
     </g>
     <g id="text_2">
      <!-- 200 -->
      <defs>
       <path d="M 19.1875 8.296875 
L 53.609375 8.296875 
L 53.609375 0 
L 7.328125 0 
L 7.328125 8.296875 
Q 12.9375 14.109375 22.625 23.890625 
Q 32.328125 33.6875 34.8125 36.53125 
Q 39.546875 41.84375 41.421875 45.53125 
Q 43.3125 49.21875 43.3125 52.78125 
Q 43.3125 58.59375 39.234375 62.25 
Q 35.15625 65.921875 28.609375 65.921875 
Q 23.96875 65.921875 18.8125 64.3125 
Q 13.671875 62.703125 7.8125 59.421875 
L 7.8125 69.390625 
Q 13.765625 71.78125 18.9375 73 
Q 24.125 74.21875 28.421875 74.21875 
Q 39.75 74.21875 46.484375 68.546875 
Q 53.21875 62.890625 53.21875 53.421875 
Q 53.21875 48.921875 51.53125 44.890625 
Q 49.859375 40.875 45.40625 35.40625 
Q 44.1875 33.984375 37.640625 27.21875 
Q 31.109375 20.453125 19.1875 8.296875 
z
" id="DejaVuSans-50"/>
      </defs>
      <g transform="translate(120.303424 266.598437)scale(0.1 -0.1)">
       <use xlink:href="#DejaVuSans-50"/>
       <use x="63.623047" xlink:href="#DejaVuSans-48"/>
       <use x="127.246094" xlink:href="#DejaVuSans-48"/>
      </g>
     </g>
    </g>
    <g id="xtick_3">
     <g id="line2d_3">
      <g>
       <use style="stroke:#000000;stroke-width:0.8;" x="190.780835" xlink:href="#mab795fb2c2" y="252"/>
      </g>
     </g>
     <g id="text_3">
      <!-- 400 -->
      <defs>
       <path d="M 37.796875 64.3125 
L 12.890625 25.390625 
L 37.796875 25.390625 
z
M 35.203125 72.90625 
L 47.609375 72.90625 
L 47.609375 25.390625 
L 58.015625 25.390625 
L 58.015625 17.1875 
L 47.609375 17.1875 
L 47.609375 0 
L 37.796875 0 
L 37.796875 17.1875 
L 4.890625 17.1875 
L 4.890625 26.703125 
z
" id="DejaVuSans-52"/>
      </defs>
      <g transform="translate(181.237085 266.598437)scale(0.1 -0.1)">
       <use xlink:href="#DejaVuSans-52"/>
       <use x="63.623047" xlink:href="#DejaVuSans-48"/>
       <use x="127.246094" xlink:href="#DejaVuSans-48"/>
      </g>
     </g>
    </g>
    <g id="xtick_4">
     <g id="line2d_4">
      <g>
       <use style="stroke:#000000;stroke-width:0.8;" x="251.714496" xlink:href="#mab795fb2c2" y="252"/>
      </g>
     </g>
     <g id="text_4">
      <!-- 600 -->
      <defs>
       <path d="M 33.015625 40.375 
Q 26.375 40.375 22.484375 35.828125 
Q 18.609375 31.296875 18.609375 23.390625 
Q 18.609375 15.53125 22.484375 10.953125 
Q 26.375 6.390625 33.015625 6.390625 
Q 39.65625 6.390625 43.53125 10.953125 
Q 47.40625 15.53125 47.40625 23.390625 
Q 47.40625 31.296875 43.53125 35.828125 
Q 39.65625 40.375 33.015625 40.375 
z
M 52.59375 71.296875 
L 52.59375 62.3125 
Q 48.875 64.0625 45.09375 64.984375 
Q 41.3125 65.921875 37.59375 65.921875 
Q 27.828125 65.921875 22.671875 59.328125 
Q 17.53125 52.734375 16.796875 39.40625 
Q 19.671875 43.65625 24.015625 45.921875 
Q 28.375 48.1875 33.59375 48.1875 
Q 44.578125 48.1875 50.953125 41.515625 
Q 57.328125 34.859375 57.328125 23.390625 
Q 57.328125 12.15625 50.6875 5.359375 
Q 44.046875 -1.421875 33.015625 -1.421875 
Q 20.359375 -1.421875 13.671875 8.265625 
Q 6.984375 17.96875 6.984375 36.375 
Q 6.984375 53.65625 15.1875 63.9375 
Q 23.390625 74.21875 37.203125 74.21875 
Q 40.921875 74.21875 44.703125 73.484375 
Q 48.484375 72.75 52.59375 71.296875 
z
" id="DejaVuSans-54"/>
      </defs>
      <g transform="translate(242.170746 266.598437)scale(0.1 -0.1)">
       <use xlink:href="#DejaVuSans-54"/>
       <use x="63.623047" xlink:href="#DejaVuSans-48"/>
       <use x="127.246094" xlink:href="#DejaVuSans-48"/>
      </g>
     </g>
    </g>
    <g id="xtick_5">
     <g id="line2d_5">
      <g>
       <use style="stroke:#000000;stroke-width:0.8;" x="312.648157" xlink:href="#mab795fb2c2" y="252"/>
      </g>
     </g>
     <g id="text_5">
      <!-- 800 -->
      <defs>
       <path d="M 31.78125 34.625 
Q 24.75 34.625 20.71875 30.859375 
Q 16.703125 27.09375 16.703125 20.515625 
Q 16.703125 13.921875 20.71875 10.15625 
Q 24.75 6.390625 31.78125 6.390625 
Q 38.8125 6.390625 42.859375 10.171875 
Q 46.921875 13.96875 46.921875 20.515625 
Q 46.921875 27.09375 42.890625 30.859375 
Q 38.875 34.625 31.78125 34.625 
z
M 21.921875 38.8125 
Q 15.578125 40.375 12.03125 44.71875 
Q 8.5 49.078125 8.5 55.328125 
Q 8.5 64.0625 14.71875 69.140625 
Q 20.953125 74.21875 31.78125 74.21875 
Q 42.671875 74.21875 48.875 69.140625 
Q 55.078125 64.0625 55.078125 55.328125 
Q 55.078125 49.078125 51.53125 44.71875 
Q 48 40.375 41.703125 38.8125 
Q 48.828125 37.15625 52.796875 32.3125 
Q 56.78125 27.484375 56.78125 20.515625 
Q 56.78125 9.90625 50.3125 4.234375 
Q 43.84375 -1.421875 31.78125 -1.421875 
Q 19.734375 -1.421875 13.25 4.234375 
Q 6.78125 9.90625 6.78125 20.515625 
Q 6.78125 27.484375 10.78125 32.3125 
Q 14.796875 37.15625 21.921875 38.8125 
z
M 18.3125 54.390625 
Q 18.3125 48.734375 21.84375 45.5625 
Q 25.390625 42.390625 31.78125 42.390625 
Q 38.140625 42.390625 41.71875 45.5625 
Q 45.3125 48.734375 45.3125 54.390625 
Q 45.3125 60.0625 41.71875 63.234375 
Q 38.140625 66.40625 31.78125 66.40625 
Q 25.390625 66.40625 21.84375 63.234375 
Q 18.3125 60.0625 18.3125 54.390625 
z
" id="DejaVuSans-56"/>
      </defs>
      <g transform="translate(303.104407 266.598437)scale(0.1 -0.1)">
       <use xlink:href="#DejaVuSans-56"/>
       <use x="63.623047" xlink:href="#DejaVuSans-48"/>
       <use x="127.246094" xlink:href="#DejaVuSans-48"/>
      </g>
     </g>
    </g>
    <g id="xtick_6">
     <g id="line2d_6">
      <g>
       <use style="stroke:#000000;stroke-width:0.8;" x="373.581818" xlink:href="#mab795fb2c2" y="252"/>
      </g>
     </g>
     <g id="text_6">
      <!-- 1000 -->
      <defs>
       <path d="M 12.40625 8.296875 
L 28.515625 8.296875 
L 28.515625 63.921875 
L 10.984375 60.40625 
L 10.984375 69.390625 
L 28.421875 72.90625 
L 38.28125 72.90625 
L 38.28125 8.296875 
L 54.390625 8.296875 
L 54.390625 0 
L 12.40625 0 
z
" id="DejaVuSans-49"/>
      </defs>
      <g transform="translate(360.856818 266.598437)scale(0.1 -0.1)">
       <use xlink:href="#DejaVuSans-49"/>
       <use x="63.623047" xlink:href="#DejaVuSans-48"/>
       <use x="127.246094" xlink:href="#DejaVuSans-48"/>
       <use x="190.869141" xlink:href="#DejaVuSans-48"/>
      </g>
     </g>
    </g>
   </g>
   <g id="matplotlib.axis_2">
    <g id="ytick_1">
     <g id="line2d_7">
      <defs>
       <path d="M 0 0 
L -3.5 0 
" id="m92c43f26bc" style="stroke:#000000;stroke-width:0.8;"/>
      </defs>
      <g>
       <use style="stroke:#000000;stroke-width:0.8;" x="54" xlink:href="#m92c43f26bc" y="242.124235"/>
      </g>
     </g>
     <g id="text_7">
      <!-- 0 -->
      <g transform="translate(40.6375 245.923454)scale(0.1 -0.1)">
       <use xlink:href="#DejaVuSans-48"/>
      </g>
     </g>
    </g>
    <g id="ytick_2">
     <g id="line2d_8">
      <g>
       <use style="stroke:#000000;stroke-width:0.8;" x="54" xlink:href="#m92c43f26bc" y="214.947641"/>
      </g>
     </g>
     <g id="text_8">
      <!-- 100 -->
      <g transform="translate(27.9125 218.74686)scale(0.1 -0.1)">
       <use xlink:href="#DejaVuSans-49"/>
       <use x="63.623047" xlink:href="#DejaVuSans-48"/>
       <use x="127.246094" xlink:href="#DejaVuSans-48"/>
      </g>
     </g>
    </g>
    <g id="ytick_3">
     <g id="line2d_9">
      <g>
       <use style="stroke:#000000;stroke-width:0.8;" x="54" xlink:href="#m92c43f26bc" y="187.771047"/>
      </g>
     </g>
     <g id="text_9">
      <!-- 200 -->
      <g transform="translate(27.9125 191.570266)scale(0.1 -0.1)">
       <use xlink:href="#DejaVuSans-50"/>
       <use x="63.623047" xlink:href="#DejaVuSans-48"/>
       <use x="127.246094" xlink:href="#DejaVuSans-48"/>
      </g>
     </g>
    </g>
    <g id="ytick_4">
     <g id="line2d_10">
      <g>
       <use style="stroke:#000000;stroke-width:0.8;" x="54" xlink:href="#m92c43f26bc" y="160.594453"/>
      </g>
     </g>
     <g id="text_10">
      <!-- 300 -->
      <defs>
       <path d="M 40.578125 39.3125 
Q 47.65625 37.796875 51.625 33 
Q 55.609375 28.21875 55.609375 21.1875 
Q 55.609375 10.40625 48.1875 4.484375 
Q 40.765625 -1.421875 27.09375 -1.421875 
Q 22.515625 -1.421875 17.65625 -0.515625 
Q 12.796875 0.390625 7.625 2.203125 
L 7.625 11.71875 
Q 11.71875 9.328125 16.59375 8.109375 
Q 21.484375 6.890625 26.8125 6.890625 
Q 36.078125 6.890625 40.9375 10.546875 
Q 45.796875 14.203125 45.796875 21.1875 
Q 45.796875 27.640625 41.28125 31.265625 
Q 36.765625 34.90625 28.71875 34.90625 
L 20.21875 34.90625 
L 20.21875 43.015625 
L 29.109375 43.015625 
Q 36.375 43.015625 40.234375 45.921875 
Q 44.09375 48.828125 44.09375 54.296875 
Q 44.09375 59.90625 40.109375 62.90625 
Q 36.140625 65.921875 28.71875 65.921875 
Q 24.65625 65.921875 20.015625 65.03125 
Q 15.375 64.15625 9.8125 62.3125 
L 9.8125 71.09375 
Q 15.4375 72.65625 20.34375 73.4375 
Q 25.25 74.21875 29.59375 74.21875 
Q 40.828125 74.21875 47.359375 69.109375 
Q 53.90625 64.015625 53.90625 55.328125 
Q 53.90625 49.265625 50.4375 45.09375 
Q 46.96875 40.921875 40.578125 39.3125 
z
" id="DejaVuSans-51"/>
      </defs>
      <g transform="translate(27.9125 164.393672)scale(0.1 -0.1)">
       <use xlink:href="#DejaVuSans-51"/>
       <use x="63.623047" xlink:href="#DejaVuSans-48"/>
       <use x="127.246094" xlink:href="#DejaVuSans-48"/>
      </g>
     </g>
    </g>
    <g id="ytick_5">
     <g id="line2d_11">
      <g>
       <use style="stroke:#000000;stroke-width:0.8;" x="54" xlink:href="#m92c43f26bc" y="133.417859"/>
      </g>
     </g>
     <g id="text_11">
      <!-- 400 -->
      <g transform="translate(27.9125 137.217078)scale(0.1 -0.1)">
       <use xlink:href="#DejaVuSans-52"/>
       <use x="63.623047" xlink:href="#DejaVuSans-48"/>
       <use x="127.246094" xlink:href="#DejaVuSans-48"/>
      </g>
     </g>
    </g>
    <g id="ytick_6">
     <g id="line2d_12">
      <g>
       <use style="stroke:#000000;stroke-width:0.8;" x="54" xlink:href="#m92c43f26bc" y="106.241265"/>
      </g>
     </g>
     <g id="text_12">
      <!-- 500 -->
      <defs>
       <path d="M 10.796875 72.90625 
L 49.515625 72.90625 
L 49.515625 64.59375 
L 19.828125 64.59375 
L 19.828125 46.734375 
Q 21.96875 47.46875 24.109375 47.828125 
Q 26.265625 48.1875 28.421875 48.1875 
Q 40.625 48.1875 47.75 41.5 
Q 54.890625 34.8125 54.890625 23.390625 
Q 54.890625 11.625 47.5625 5.09375 
Q 40.234375 -1.421875 26.90625 -1.421875 
Q 22.3125 -1.421875 17.546875 -0.640625 
Q 12.796875 0.140625 7.71875 1.703125 
L 7.71875 11.625 
Q 12.109375 9.234375 16.796875 8.0625 
Q 21.484375 6.890625 26.703125 6.890625 
Q 35.15625 6.890625 40.078125 11.328125 
Q 45.015625 15.765625 45.015625 23.390625 
Q 45.015625 31 40.078125 35.4375 
Q 35.15625 39.890625 26.703125 39.890625 
Q 22.75 39.890625 18.8125 39.015625 
Q 14.890625 38.140625 10.796875 36.28125 
z
" id="DejaVuSans-53"/>
      </defs>
      <g transform="translate(27.9125 110.040484)scale(0.1 -0.1)">
       <use xlink:href="#DejaVuSans-53"/>
       <use x="63.623047" xlink:href="#DejaVuSans-48"/>
       <use x="127.246094" xlink:href="#DejaVuSans-48"/>
      </g>
     </g>
    </g>
    <g id="ytick_7">
     <g id="line2d_13">
      <g>
       <use style="stroke:#000000;stroke-width:0.8;" x="54" xlink:href="#m92c43f26bc" y="79.064671"/>
      </g>
     </g>
     <g id="text_13">
      <!-- 600 -->
      <g transform="translate(27.9125 82.86389)scale(0.1 -0.1)">
       <use xlink:href="#DejaVuSans-54"/>
       <use x="63.623047" xlink:href="#DejaVuSans-48"/>
       <use x="127.246094" xlink:href="#DejaVuSans-48"/>
      </g>
     </g>
    </g>
    <g id="ytick_8">
     <g id="line2d_14">
      <g>
       <use style="stroke:#000000;stroke-width:0.8;" x="54" xlink:href="#m92c43f26bc" y="51.888077"/>
      </g>
     </g>
     <g id="text_14">
      <!-- 700 -->
      <defs>
       <path d="M 8.203125 72.90625 
L 55.078125 72.90625 
L 55.078125 68.703125 
L 28.609375 0 
L 18.3125 0 
L 43.21875 64.59375 
L 8.203125 64.59375 
z
" id="DejaVuSans-55"/>
      </defs>
      <g transform="translate(27.9125 55.687296)scale(0.1 -0.1)">
       <use xlink:href="#DejaVuSans-55"/>
       <use x="63.623047" xlink:href="#DejaVuSans-48"/>
       <use x="127.246094" xlink:href="#DejaVuSans-48"/>
      </g>
     </g>
    </g>
   </g>
   <g id="line2d_15">
    <defs>
     <path d="M 0 3 
C 0.795609 3 1.55874 2.683901 2.12132 2.12132 
C 2.683901 1.55874 3 0.795609 3 0 
C 3 -0.795609 2.683901 -1.55874 2.12132 -2.12132 
C 1.55874 -2.683901 0.795609 -3 0 -3 
C -0.795609 -3 -1.55874 -2.683901 -2.12132 -2.12132 
C -2.683901 -1.55874 -3 -0.795609 -3 0 
C -3 0.795609 -2.683901 1.55874 -2.12132 2.12132 
C -1.55874 2.683901 -0.795609 3 0 3 
z
" id="m6afd31a3e0" style="stroke:#ff0000;"/>
    </defs>
    <g clip-path="url(#p3056844a53)">
     <use style="fill:#ff0000;stroke:#ff0000;" x="69.218182" xlink:href="#m6afd31a3e0" y="242.102071"/>
     <use style="fill:#ff0000;stroke:#ff0000;" x="69.52285" xlink:href="#m6afd31a3e0" y="242.116364"/>
     <use style="fill:#ff0000;stroke:#ff0000;" x="69.827518" xlink:href="#m6afd31a3e0" y="242.115833"/>
     <use style="fill:#ff0000;stroke:#ff0000;" x="70.132187" xlink:href="#m6afd31a3e0" y="242.11565"/>
     <use style="fill:#ff0000;stroke:#ff0000;" x="70.436855" xlink:href="#m6afd31a3e0" y="242.114685"/>
     <use style="fill:#ff0000;stroke:#ff0000;" x="70.741523" xlink:href="#m6afd31a3e0" y="242.114893"/>
     <use style="fill:#ff0000;stroke:#ff0000;" x="71.046192" xlink:href="#m6afd31a3e0" y="242.114406"/>
     <use style="fill:#ff0000;stroke:#ff0000;" x="71.35086" xlink:href="#m6afd31a3e0" y="242.114213"/>
     <use style="fill:#ff0000;stroke:#ff0000;" x="71.655528" xlink:href="#m6afd31a3e0" y="242.113504"/>
     <use style="fill:#ff0000;stroke:#ff0000;" x="71.960197" xlink:href="#m6afd31a3e0" y="242.113099"/>
     <use style="fill:#ff0000;stroke:#ff0000;" x="72.264865" xlink:href="#m6afd31a3e0" y="242.112469"/>
     <use style="fill:#ff0000;stroke:#ff0000;" x="72.569533" xlink:href="#m6afd31a3e0" y="242.111773"/>
     <use style="fill:#ff0000;stroke:#ff0000;" x="72.874201" xlink:href="#m6afd31a3e0" y="242.110853"/>
     <use style="fill:#ff0000;stroke:#ff0000;" x="73.17887" xlink:href="#m6afd31a3e0" y="242.110508"/>
     <use style="fill:#ff0000;stroke:#ff0000;" x="73.483538" xlink:href="#m6afd31a3e0" y="242.109875"/>
     <use style="fill:#ff0000;stroke:#ff0000;" x="73.788206" xlink:href="#m6afd31a3e0" y="242.109182"/>
     <use style="fill:#ff0000;stroke:#ff0000;" x="74.092875" xlink:href="#m6afd31a3e0" y="242.10834"/>
     <use style="fill:#ff0000;stroke:#ff0000;" x="74.397543" xlink:href="#m6afd31a3e0" y="242.107338"/>
     <use style="fill:#ff0000;stroke:#ff0000;" x="74.702211" xlink:href="#m6afd31a3e0" y="242.106453"/>
     <use style="fill:#ff0000;stroke:#ff0000;" x="75.00688" xlink:href="#m6afd31a3e0" y="242.105376"/>
     <use style="fill:#ff0000;stroke:#ff0000;" x="75.311548" xlink:href="#m6afd31a3e0" y="242.103953"/>
     <use style="fill:#ff0000;stroke:#ff0000;" x="75.616216" xlink:href="#m6afd31a3e0" y="242.10283"/>
     <use style="fill:#ff0000;stroke:#ff0000;" x="75.920885" xlink:href="#m6afd31a3e0" y="242.1018"/>
     <use style="fill:#ff0000;stroke:#ff0000;" x="76.225553" xlink:href="#m6afd31a3e0" y="242.099725"/>
     <use style="fill:#ff0000;stroke:#ff0000;" x="76.530221" xlink:href="#m6afd31a3e0" y="242.099128"/>
     <use style="fill:#ff0000;stroke:#ff0000;" x="76.834889" xlink:href="#m6afd31a3e0" y="242.097879"/>
     <use style="fill:#ff0000;stroke:#ff0000;" x="77.139558" xlink:href="#m6afd31a3e0" y="242.09622"/>
     <use style="fill:#ff0000;stroke:#ff0000;" x="77.444226" xlink:href="#m6afd31a3e0" y="242.094806"/>
     <use style="fill:#ff0000;stroke:#ff0000;" x="77.748894" xlink:href="#m6afd31a3e0" y="242.093026"/>
     <use style="fill:#ff0000;stroke:#ff0000;" x="78.053563" xlink:href="#m6afd31a3e0" y="242.091941"/>
     <use style="fill:#ff0000;stroke:#ff0000;" x="78.358231" xlink:href="#m6afd31a3e0" y="242.090173"/>
     <use style="fill:#ff0000;stroke:#ff0000;" x="78.662899" xlink:href="#m6afd31a3e0" y="242.088443"/>
     <use style="fill:#ff0000;stroke:#ff0000;" x="78.967568" xlink:href="#m6afd31a3e0" y="242.086499"/>
     <use style="fill:#ff0000;stroke:#ff0000;" x="79.272236" xlink:href="#m6afd31a3e0" y="242.085583"/>
     <use style="fill:#ff0000;stroke:#ff0000;" x="79.576904" xlink:href="#m6afd31a3e0" y="242.083307"/>
     <use style="fill:#ff0000;stroke:#ff0000;" x="79.881572" xlink:href="#m6afd31a3e0" y="242.080867"/>
     <use style="fill:#ff0000;stroke:#ff0000;" x="80.186241" xlink:href="#m6afd31a3e0" y="242.079452"/>
     <use style="fill:#ff0000;stroke:#ff0000;" x="80.490909" xlink:href="#m6afd31a3e0" y="242.077811"/>
     <use style="fill:#ff0000;stroke:#ff0000;" x="80.795577" xlink:href="#m6afd31a3e0" y="242.075614"/>
     <use style="fill:#ff0000;stroke:#ff0000;" x="81.100246" xlink:href="#m6afd31a3e0" y="242.074148"/>
     <use style="fill:#ff0000;stroke:#ff0000;" x="81.404914" xlink:href="#m6afd31a3e0" y="242.071231"/>
     <use style="fill:#ff0000;stroke:#ff0000;" x="81.709582" xlink:href="#m6afd31a3e0" y="242.06892"/>
     <use style="fill:#ff0000;stroke:#ff0000;" x="82.014251" xlink:href="#m6afd31a3e0" y="242.067118"/>
     <use style="fill:#ff0000;stroke:#ff0000;" x="82.318919" xlink:href="#m6afd31a3e0" y="242.065083"/>
     <use style="fill:#ff0000;stroke:#ff0000;" x="82.623587" xlink:href="#m6afd31a3e0" y="242.062864"/>
     <use style="fill:#ff0000;stroke:#ff0000;" x="82.928256" xlink:href="#m6afd31a3e0" y="242.059927"/>
     <use style="fill:#ff0000;stroke:#ff0000;" x="83.232924" xlink:href="#m6afd31a3e0" y="242.056807"/>
     <use style="fill:#ff0000;stroke:#ff0000;" x="83.537592" xlink:href="#m6afd31a3e0" y="242.054407"/>
     <use style="fill:#ff0000;stroke:#ff0000;" x="83.84226" xlink:href="#m6afd31a3e0" y="242.052233"/>
     <use style="fill:#ff0000;stroke:#ff0000;" x="84.146929" xlink:href="#m6afd31a3e0" y="242.04864"/>
     <use style="fill:#ff0000;stroke:#ff0000;" x="84.451597" xlink:href="#m6afd31a3e0" y="242.044544"/>
     <use style="fill:#ff0000;stroke:#ff0000;" x="84.756265" xlink:href="#m6afd31a3e0" y="242.043499"/>
     <use style="fill:#ff0000;stroke:#ff0000;" x="85.060934" xlink:href="#m6afd31a3e0" y="242.040586"/>
     <use style="fill:#ff0000;stroke:#ff0000;" x="85.365602" xlink:href="#m6afd31a3e0" y="242.037506"/>
     <use style="fill:#ff0000;stroke:#ff0000;" x="85.67027" xlink:href="#m6afd31a3e0" y="242.034617"/>
     <use style="fill:#ff0000;stroke:#ff0000;" x="85.974939" xlink:href="#m6afd31a3e0" y="242.03079"/>
     <use style="fill:#ff0000;stroke:#ff0000;" x="86.279607" xlink:href="#m6afd31a3e0" y="242.026088"/>
     <use style="fill:#ff0000;stroke:#ff0000;" x="86.584275" xlink:href="#m6afd31a3e0" y="242.023883"/>
     <use style="fill:#ff0000;stroke:#ff0000;" x="86.888943" xlink:href="#m6afd31a3e0" y="242.01954"/>
     <use style="fill:#ff0000;stroke:#ff0000;" x="87.193612" xlink:href="#m6afd31a3e0" y="242.016046"/>
     <use style="fill:#ff0000;stroke:#ff0000;" x="87.49828" xlink:href="#m6afd31a3e0" y="242.012477"/>
     <use style="fill:#ff0000;stroke:#ff0000;" x="87.802948" xlink:href="#m6afd31a3e0" y="242.008318"/>
     <use style="fill:#ff0000;stroke:#ff0000;" x="88.107617" xlink:href="#m6afd31a3e0" y="242.005421"/>
     <use style="fill:#ff0000;stroke:#ff0000;" x="88.412285" xlink:href="#m6afd31a3e0" y="242.00091"/>
     <use style="fill:#ff0000;stroke:#ff0000;" x="88.716953" xlink:href="#m6afd31a3e0" y="241.997671"/>
     <use style="fill:#ff0000;stroke:#ff0000;" x="89.021622" xlink:href="#m6afd31a3e0" y="241.993385"/>
     <use style="fill:#ff0000;stroke:#ff0000;" x="89.32629" xlink:href="#m6afd31a3e0" y="241.989979"/>
     <use style="fill:#ff0000;stroke:#ff0000;" x="89.630958" xlink:href="#m6afd31a3e0" y="241.986069"/>
     <use style="fill:#ff0000;stroke:#ff0000;" x="89.935627" xlink:href="#m6afd31a3e0" y="241.982084"/>
     <use style="fill:#ff0000;stroke:#ff0000;" x="90.240295" xlink:href="#m6afd31a3e0" y="241.976858"/>
     <use style="fill:#ff0000;stroke:#ff0000;" x="90.544963" xlink:href="#m6afd31a3e0" y="241.972966"/>
     <use style="fill:#ff0000;stroke:#ff0000;" x="90.849631" xlink:href="#m6afd31a3e0" y="241.966947"/>
     <use style="fill:#ff0000;stroke:#ff0000;" x="91.1543" xlink:href="#m6afd31a3e0" y="241.964526"/>
     <use style="fill:#ff0000;stroke:#ff0000;" x="91.458968" xlink:href="#m6afd31a3e0" y="241.96019"/>
     <use style="fill:#ff0000;stroke:#ff0000;" x="91.763636" xlink:href="#m6afd31a3e0" y="241.955392"/>
     <use style="fill:#ff0000;stroke:#ff0000;" x="92.068305" xlink:href="#m6afd31a3e0" y="241.950437"/>
     <use style="fill:#ff0000;stroke:#ff0000;" x="92.372973" xlink:href="#m6afd31a3e0" y="241.945024"/>
     <use style="fill:#ff0000;stroke:#ff0000;" x="92.677641" xlink:href="#m6afd31a3e0" y="241.941137"/>
     <use style="fill:#ff0000;stroke:#ff0000;" x="92.98231" xlink:href="#m6afd31a3e0" y="241.936215"/>
     <use style="fill:#ff0000;stroke:#ff0000;" x="93.286978" xlink:href="#m6afd31a3e0" y="241.93009"/>
     <use style="fill:#ff0000;stroke:#ff0000;" x="93.591646" xlink:href="#m6afd31a3e0" y="241.924591"/>
     <use style="fill:#ff0000;stroke:#ff0000;" x="93.896314" xlink:href="#m6afd31a3e0" y="241.921336"/>
     <use style="fill:#ff0000;stroke:#ff0000;" x="94.200983" xlink:href="#m6afd31a3e0" y="241.914591"/>
     <use style="fill:#ff0000;stroke:#ff0000;" x="94.505651" xlink:href="#m6afd31a3e0" y="241.909081"/>
     <use style="fill:#ff0000;stroke:#ff0000;" x="94.810319" xlink:href="#m6afd31a3e0" y="241.904143"/>
     <use style="fill:#ff0000;stroke:#ff0000;" x="95.114988" xlink:href="#m6afd31a3e0" y="241.894344"/>
     <use style="fill:#ff0000;stroke:#ff0000;" x="95.419656" xlink:href="#m6afd31a3e0" y="241.891415"/>
     <use style="fill:#ff0000;stroke:#ff0000;" x="95.724324" xlink:href="#m6afd31a3e0" y="241.88494"/>
     <use style="fill:#ff0000;stroke:#ff0000;" x="96.028993" xlink:href="#m6afd31a3e0" y="241.879575"/>
     <use style="fill:#ff0000;stroke:#ff0000;" x="96.333661" xlink:href="#m6afd31a3e0" y="241.87364"/>
     <use style="fill:#ff0000;stroke:#ff0000;" x="96.638329" xlink:href="#m6afd31a3e0" y="241.864119"/>
     <use style="fill:#ff0000;stroke:#ff0000;" x="96.942998" xlink:href="#m6afd31a3e0" y="241.861603"/>
     <use style="fill:#ff0000;stroke:#ff0000;" x="97.247666" xlink:href="#m6afd31a3e0" y="241.851753"/>
     <use style="fill:#ff0000;stroke:#ff0000;" x="97.552334" xlink:href="#m6afd31a3e0" y="241.846335"/>
     <use style="fill:#ff0000;stroke:#ff0000;" x="97.857002" xlink:href="#m6afd31a3e0" y="241.838944"/>
     <use style="fill:#ff0000;stroke:#ff0000;" x="98.161671" xlink:href="#m6afd31a3e0" y="241.831738"/>
     <use style="fill:#ff0000;stroke:#ff0000;" x="98.466339" xlink:href="#m6afd31a3e0" y="241.828995"/>
     <use style="fill:#ff0000;stroke:#ff0000;" x="98.771007" xlink:href="#m6afd31a3e0" y="241.819228"/>
     <use style="fill:#ff0000;stroke:#ff0000;" x="99.075676" xlink:href="#m6afd31a3e0" y="241.813851"/>
     <use style="fill:#ff0000;stroke:#ff0000;" x="99.380344" xlink:href="#m6afd31a3e0" y="241.804923"/>
     <use style="fill:#ff0000;stroke:#ff0000;" x="99.685012" xlink:href="#m6afd31a3e0" y="241.796593"/>
     <use style="fill:#ff0000;stroke:#ff0000;" x="99.989681" xlink:href="#m6afd31a3e0" y="241.792371"/>
     <use style="fill:#ff0000;stroke:#ff0000;" x="100.294349" xlink:href="#m6afd31a3e0" y="241.786351"/>
     <use style="fill:#ff0000;stroke:#ff0000;" x="100.599017" xlink:href="#m6afd31a3e0" y="241.777972"/>
     <use style="fill:#ff0000;stroke:#ff0000;" x="100.903686" xlink:href="#m6afd31a3e0" y="241.770904"/>
     <use style="fill:#ff0000;stroke:#ff0000;" x="101.208354" xlink:href="#m6afd31a3e0" y="241.763461"/>
     <use style="fill:#ff0000;stroke:#ff0000;" x="101.513022" xlink:href="#m6afd31a3e0" y="241.748467"/>
     <use style="fill:#ff0000;stroke:#ff0000;" x="101.81769" xlink:href="#m6afd31a3e0" y="241.74869"/>
     <use style="fill:#ff0000;stroke:#ff0000;" x="102.122359" xlink:href="#m6afd31a3e0" y="241.735136"/>
     <use style="fill:#ff0000;stroke:#ff0000;" x="102.427027" xlink:href="#m6afd31a3e0" y="241.725005"/>
     <use style="fill:#ff0000;stroke:#ff0000;" x="102.731695" xlink:href="#m6afd31a3e0" y="241.714196"/>
     <use style="fill:#ff0000;stroke:#ff0000;" x="103.036364" xlink:href="#m6afd31a3e0" y="241.699471"/>
     <use style="fill:#ff0000;stroke:#ff0000;" x="103.341032" xlink:href="#m6afd31a3e0" y="241.694098"/>
     <use style="fill:#ff0000;stroke:#ff0000;" x="103.6457" xlink:href="#m6afd31a3e0" y="241.6903"/>
     <use style="fill:#ff0000;stroke:#ff0000;" x="103.950369" xlink:href="#m6afd31a3e0" y="241.679445"/>
     <use style="fill:#ff0000;stroke:#ff0000;" x="104.255037" xlink:href="#m6afd31a3e0" y="241.659593"/>
     <use style="fill:#ff0000;stroke:#ff0000;" x="104.559705" xlink:href="#m6afd31a3e0" y="241.637861"/>
     <use style="fill:#ff0000;stroke:#ff0000;" x="104.864373" xlink:href="#m6afd31a3e0" y="241.633672"/>
     <use style="fill:#ff0000;stroke:#ff0000;" x="105.169042" xlink:href="#m6afd31a3e0" y="241.621897"/>
     <use style="fill:#ff0000;stroke:#ff0000;" x="105.47371" xlink:href="#m6afd31a3e0" y="241.605704"/>
     <use style="fill:#ff0000;stroke:#ff0000;" x="105.778378" xlink:href="#m6afd31a3e0" y="241.62107"/>
     <use style="fill:#ff0000;stroke:#ff0000;" x="106.083047" xlink:href="#m6afd31a3e0" y="241.605904"/>
     <use style="fill:#ff0000;stroke:#ff0000;" x="106.387715" xlink:href="#m6afd31a3e0" y="241.603944"/>
     <use style="fill:#ff0000;stroke:#ff0000;" x="106.692383" xlink:href="#m6afd31a3e0" y="241.582472"/>
     <use style="fill:#ff0000;stroke:#ff0000;" x="106.997052" xlink:href="#m6afd31a3e0" y="241.581151"/>
     <use style="fill:#ff0000;stroke:#ff0000;" x="107.30172" xlink:href="#m6afd31a3e0" y="241.561576"/>
     <use style="fill:#ff0000;stroke:#ff0000;" x="107.606388" xlink:href="#m6afd31a3e0" y="241.539442"/>
     <use style="fill:#ff0000;stroke:#ff0000;" x="107.911057" xlink:href="#m6afd31a3e0" y="241.550416"/>
     <use style="fill:#ff0000;stroke:#ff0000;" x="108.215725" xlink:href="#m6afd31a3e0" y="241.49329"/>
     <use style="fill:#ff0000;stroke:#ff0000;" x="108.520393" xlink:href="#m6afd31a3e0" y="241.510295"/>
     <use style="fill:#ff0000;stroke:#ff0000;" x="108.825061" xlink:href="#m6afd31a3e0" y="241.521376"/>
     <use style="fill:#ff0000;stroke:#ff0000;" x="109.12973" xlink:href="#m6afd31a3e0" y="241.507037"/>
     <use style="fill:#ff0000;stroke:#ff0000;" x="109.434398" xlink:href="#m6afd31a3e0" y="241.48846"/>
     <use style="fill:#ff0000;stroke:#ff0000;" x="109.739066" xlink:href="#m6afd31a3e0" y="241.487388"/>
     <use style="fill:#ff0000;stroke:#ff0000;" x="110.043735" xlink:href="#m6afd31a3e0" y="241.47241"/>
     <use style="fill:#ff0000;stroke:#ff0000;" x="110.348403" xlink:href="#m6afd31a3e0" y="241.461827"/>
     <use style="fill:#ff0000;stroke:#ff0000;" x="110.653071" xlink:href="#m6afd31a3e0" y="241.387033"/>
     <use style="fill:#ff0000;stroke:#ff0000;" x="110.95774" xlink:href="#m6afd31a3e0" y="241.444927"/>
     <use style="fill:#ff0000;stroke:#ff0000;" x="111.262408" xlink:href="#m6afd31a3e0" y="241.432789"/>
     <use style="fill:#ff0000;stroke:#ff0000;" x="111.567076" xlink:href="#m6afd31a3e0" y="241.405811"/>
     <use style="fill:#ff0000;stroke:#ff0000;" x="111.871744" xlink:href="#m6afd31a3e0" y="241.413537"/>
     <use style="fill:#ff0000;stroke:#ff0000;" x="112.176413" xlink:href="#m6afd31a3e0" y="241.400466"/>
     <use style="fill:#ff0000;stroke:#ff0000;" x="112.481081" xlink:href="#m6afd31a3e0" y="241.386715"/>
     <use style="fill:#ff0000;stroke:#ff0000;" x="112.785749" xlink:href="#m6afd31a3e0" y="241.367767"/>
     <use style="fill:#ff0000;stroke:#ff0000;" x="113.090418" xlink:href="#m6afd31a3e0" y="241.355935"/>
     <use style="fill:#ff0000;stroke:#ff0000;" x="113.395086" xlink:href="#m6afd31a3e0" y="241.327346"/>
     <use style="fill:#ff0000;stroke:#ff0000;" x="113.699754" xlink:href="#m6afd31a3e0" y="241.331269"/>
     <use style="fill:#ff0000;stroke:#ff0000;" x="114.004423" xlink:href="#m6afd31a3e0" y="241.324549"/>
     <use style="fill:#ff0000;stroke:#ff0000;" x="114.309091" xlink:href="#m6afd31a3e0" y="241.294217"/>
     <use style="fill:#ff0000;stroke:#ff0000;" x="114.613759" xlink:href="#m6afd31a3e0" y="241.289061"/>
     <use style="fill:#ff0000;stroke:#ff0000;" x="114.918428" xlink:href="#m6afd31a3e0" y="241.262033"/>
     <use style="fill:#ff0000;stroke:#ff0000;" x="115.223096" xlink:href="#m6afd31a3e0" y="241.266664"/>
     <use style="fill:#ff0000;stroke:#ff0000;" x="115.527764" xlink:href="#m6afd31a3e0" y="241.241813"/>
     <use style="fill:#ff0000;stroke:#ff0000;" x="115.832432" xlink:href="#m6afd31a3e0" y="241.238013"/>
     <use style="fill:#ff0000;stroke:#ff0000;" x="116.137101" xlink:href="#m6afd31a3e0" y="241.229158"/>
     <use style="fill:#ff0000;stroke:#ff0000;" x="116.441769" xlink:href="#m6afd31a3e0" y="241.201583"/>
     <use style="fill:#ff0000;stroke:#ff0000;" x="116.746437" xlink:href="#m6afd31a3e0" y="241.18265"/>
     <use style="fill:#ff0000;stroke:#ff0000;" x="117.051106" xlink:href="#m6afd31a3e0" y="241.188361"/>
     <use style="fill:#ff0000;stroke:#ff0000;" x="117.355774" xlink:href="#m6afd31a3e0" y="241.165685"/>
     <use style="fill:#ff0000;stroke:#ff0000;" x="117.660442" xlink:href="#m6afd31a3e0" y="241.144731"/>
     <use style="fill:#ff0000;stroke:#ff0000;" x="117.965111" xlink:href="#m6afd31a3e0" y="241.142854"/>
     <use style="fill:#ff0000;stroke:#ff0000;" x="118.269779" xlink:href="#m6afd31a3e0" y="241.105853"/>
     <use style="fill:#ff0000;stroke:#ff0000;" x="118.574447" xlink:href="#m6afd31a3e0" y="241.095376"/>
     <use style="fill:#ff0000;stroke:#ff0000;" x="118.879115" xlink:href="#m6afd31a3e0" y="241.088902"/>
     <use style="fill:#ff0000;stroke:#ff0000;" x="119.183784" xlink:href="#m6afd31a3e0" y="241.074844"/>
     <use style="fill:#ff0000;stroke:#ff0000;" x="119.488452" xlink:href="#m6afd31a3e0" y="241.048732"/>
     <use style="fill:#ff0000;stroke:#ff0000;" x="119.79312" xlink:href="#m6afd31a3e0" y="241.041913"/>
     <use style="fill:#ff0000;stroke:#ff0000;" x="120.097789" xlink:href="#m6afd31a3e0" y="241.026337"/>
     <use style="fill:#ff0000;stroke:#ff0000;" x="120.402457" xlink:href="#m6afd31a3e0" y="241.010975"/>
     <use style="fill:#ff0000;stroke:#ff0000;" x="120.707125" xlink:href="#m6afd31a3e0" y="241.003934"/>
     <use style="fill:#ff0000;stroke:#ff0000;" x="121.011794" xlink:href="#m6afd31a3e0" y="240.979282"/>
     <use style="fill:#ff0000;stroke:#ff0000;" x="121.316462" xlink:href="#m6afd31a3e0" y="240.953633"/>
     <use style="fill:#ff0000;stroke:#ff0000;" x="121.62113" xlink:href="#m6afd31a3e0" y="240.951219"/>
     <use style="fill:#ff0000;stroke:#ff0000;" x="121.925799" xlink:href="#m6afd31a3e0" y="240.925914"/>
     <use style="fill:#ff0000;stroke:#ff0000;" x="122.230467" xlink:href="#m6afd31a3e0" y="240.915062"/>
     <use style="fill:#ff0000;stroke:#ff0000;" x="122.535135" xlink:href="#m6afd31a3e0" y="240.895776"/>
     <use style="fill:#ff0000;stroke:#ff0000;" x="122.839803" xlink:href="#m6afd31a3e0" y="240.893857"/>
     <use style="fill:#ff0000;stroke:#ff0000;" x="123.144472" xlink:href="#m6afd31a3e0" y="240.844806"/>
     <use style="fill:#ff0000;stroke:#ff0000;" x="123.44914" xlink:href="#m6afd31a3e0" y="240.825267"/>
     <use style="fill:#ff0000;stroke:#ff0000;" x="123.753808" xlink:href="#m6afd31a3e0" y="240.828436"/>
     <use style="fill:#ff0000;stroke:#ff0000;" x="124.058477" xlink:href="#m6afd31a3e0" y="240.778002"/>
     <use style="fill:#ff0000;stroke:#ff0000;" x="124.363145" xlink:href="#m6afd31a3e0" y="240.786263"/>
     <use style="fill:#ff0000;stroke:#ff0000;" x="124.667813" xlink:href="#m6afd31a3e0" y="240.758835"/>
     <use style="fill:#ff0000;stroke:#ff0000;" x="124.972482" xlink:href="#m6afd31a3e0" y="240.763038"/>
     <use style="fill:#ff0000;stroke:#ff0000;" x="125.27715" xlink:href="#m6afd31a3e0" y="240.721485"/>
     <use style="fill:#ff0000;stroke:#ff0000;" x="125.581818" xlink:href="#m6afd31a3e0" y="240.703757"/>
     <use style="fill:#ff0000;stroke:#ff0000;" x="125.886486" xlink:href="#m6afd31a3e0" y="240.698357"/>
     <use style="fill:#ff0000;stroke:#ff0000;" x="126.191155" xlink:href="#m6afd31a3e0" y="240.67604"/>
     <use style="fill:#ff0000;stroke:#ff0000;" x="126.495823" xlink:href="#m6afd31a3e0" y="240.667375"/>
     <use style="fill:#ff0000;stroke:#ff0000;" x="126.800491" xlink:href="#m6afd31a3e0" y="240.618499"/>
     <use style="fill:#ff0000;stroke:#ff0000;" x="127.10516" xlink:href="#m6afd31a3e0" y="240.609229"/>
     <use style="fill:#ff0000;stroke:#ff0000;" x="127.409828" xlink:href="#m6afd31a3e0" y="240.555756"/>
     <use style="fill:#ff0000;stroke:#ff0000;" x="127.714496" xlink:href="#m6afd31a3e0" y="240.533072"/>
     <use style="fill:#ff0000;stroke:#ff0000;" x="128.019165" xlink:href="#m6afd31a3e0" y="240.544237"/>
     <use style="fill:#ff0000;stroke:#ff0000;" x="128.323833" xlink:href="#m6afd31a3e0" y="240.52072"/>
     <use style="fill:#ff0000;stroke:#ff0000;" x="128.628501" xlink:href="#m6afd31a3e0" y="240.481437"/>
     <use style="fill:#ff0000;stroke:#ff0000;" x="128.93317" xlink:href="#m6afd31a3e0" y="240.388327"/>
     <use style="fill:#ff0000;stroke:#ff0000;" x="129.237838" xlink:href="#m6afd31a3e0" y="240.466524"/>
     <use style="fill:#ff0000;stroke:#ff0000;" x="129.542506" xlink:href="#m6afd31a3e0" y="240.422751"/>
     <use style="fill:#ff0000;stroke:#ff0000;" x="129.847174" xlink:href="#m6afd31a3e0" y="240.395193"/>
     <use style="fill:#ff0000;stroke:#ff0000;" x="131.370516" xlink:href="#m6afd31a3e0" y="240.299691"/>
     <use style="fill:#ff0000;stroke:#ff0000;" x="132.893857" xlink:href="#m6afd31a3e0" y="240.193505"/>
     <use style="fill:#ff0000;stroke:#ff0000;" x="134.417199" xlink:href="#m6afd31a3e0" y="240.020327"/>
     <use style="fill:#ff0000;stroke:#ff0000;" x="135.940541" xlink:href="#m6afd31a3e0" y="239.923174"/>
     <use style="fill:#ff0000;stroke:#ff0000;" x="137.463882" xlink:href="#m6afd31a3e0" y="239.78481"/>
     <use style="fill:#ff0000;stroke:#ff0000;" x="138.987224" xlink:href="#m6afd31a3e0" y="239.675609"/>
     <use style="fill:#ff0000;stroke:#ff0000;" x="140.510565" xlink:href="#m6afd31a3e0" y="239.475765"/>
     <use style="fill:#ff0000;stroke:#ff0000;" x="142.033907" xlink:href="#m6afd31a3e0" y="239.349684"/>
     <use style="fill:#ff0000;stroke:#ff0000;" x="143.557248" xlink:href="#m6afd31a3e0" y="239.119231"/>
     <use style="fill:#ff0000;stroke:#ff0000;" x="145.08059" xlink:href="#m6afd31a3e0" y="239.089794"/>
     <use style="fill:#ff0000;stroke:#ff0000;" x="146.603931" xlink:href="#m6afd31a3e0" y="238.82125"/>
     <use style="fill:#ff0000;stroke:#ff0000;" x="148.127273" xlink:href="#m6afd31a3e0" y="238.728514"/>
     <use style="fill:#ff0000;stroke:#ff0000;" x="149.650614" xlink:href="#m6afd31a3e0" y="238.549165"/>
     <use style="fill:#ff0000;stroke:#ff0000;" x="151.173956" xlink:href="#m6afd31a3e0" y="238.359072"/>
     <use style="fill:#ff0000;stroke:#ff0000;" x="152.697297" xlink:href="#m6afd31a3e0" y="238.126015"/>
     <use style="fill:#ff0000;stroke:#ff0000;" x="154.220639" xlink:href="#m6afd31a3e0" y="238.044473"/>
     <use style="fill:#ff0000;stroke:#ff0000;" x="155.74398" xlink:href="#m6afd31a3e0" y="237.80748"/>
     <use style="fill:#ff0000;stroke:#ff0000;" x="157.267322" xlink:href="#m6afd31a3e0" y="237.558097"/>
     <use style="fill:#ff0000;stroke:#ff0000;" x="158.790663" xlink:href="#m6afd31a3e0" y="237.352243"/>
     <use style="fill:#ff0000;stroke:#ff0000;" x="160.314005" xlink:href="#m6afd31a3e0" y="237.094836"/>
     <use style="fill:#ff0000;stroke:#ff0000;" x="167.930713" xlink:href="#m6afd31a3e0" y="235.989278"/>
     <use style="fill:#ff0000;stroke:#ff0000;" x="175.54742" xlink:href="#m6afd31a3e0" y="234.482854"/>
     <use style="fill:#ff0000;stroke:#ff0000;" x="183.164128" xlink:href="#m6afd31a3e0" y="232.952042"/>
     <use style="fill:#ff0000;stroke:#ff0000;" x="190.780835" xlink:href="#m6afd31a3e0" y="231.143204"/>
     <use style="fill:#ff0000;stroke:#ff0000;" x="198.397543" xlink:href="#m6afd31a3e0" y="229.08612"/>
     <use style="fill:#ff0000;stroke:#ff0000;" x="206.014251" xlink:href="#m6afd31a3e0" y="226.727241"/>
     <use style="fill:#ff0000;stroke:#ff0000;" x="213.630958" xlink:href="#m6afd31a3e0" y="223.838352"/>
     <use style="fill:#ff0000;stroke:#ff0000;" x="221.247666" xlink:href="#m6afd31a3e0" y="220.44515"/>
     <use style="fill:#ff0000;stroke:#ff0000;" x="251.714496" xlink:href="#m6afd31a3e0" y="204.240427"/>
     <use style="fill:#ff0000;stroke:#ff0000;" x="282.181327" xlink:href="#m6afd31a3e0" y="182.511994"/>
     <use style="fill:#ff0000;stroke:#ff0000;" x="312.648157" xlink:href="#m6afd31a3e0" y="150.484578"/>
     <use style="fill:#ff0000;stroke:#ff0000;" x="343.114988" xlink:href="#m6afd31a3e0" y="115.79834"/>
     <use style="fill:#ff0000;stroke:#ff0000;" x="373.581818" xlink:href="#m6afd31a3e0" y="68.377992"/>
    </g>
   </g>
   <g id="line2d_16">
    <path clip-path="url(#p3056844a53)" d="M 69.218182 241.047018 
L 105.47371 240.721624 
L 129.847174 240.306213 
L 149.650614 239.764274 
L 160.314005 239.360856 
L 175.54742 238.596656 
L 190.780835 237.534455 
L 198.397543 236.85688 
L 206.014251 236.058045 
L 213.630958 235.116249 
L 221.247666 234.005906 
L 251.714496 227.188863 
L 282.181327 214.018552 
L 312.648157 188.573929 
L 343.114988 139.415725 
L 373.581818 44.443636 
L 373.581818 44.443636 
" style="fill:none;stroke:#1f77b4;stroke-linecap:square;stroke-width:1.5;"/>
   </g>
   <g id="patch_3">
    <path d="M 54 252 
L 54 34.56 
" style="fill:none;stroke:#000000;stroke-linecap:square;stroke-linejoin:miter;stroke-width:0.8;"/>
   </g>
   <g id="patch_4">
    <path d="M 388.8 252 
L 388.8 34.56 
" style="fill:none;stroke:#000000;stroke-linecap:square;stroke-linejoin:miter;stroke-width:0.8;"/>
   </g>
   <g id="patch_5">
    <path d="M 54 252 
L 388.8 252 
" style="fill:none;stroke:#000000;stroke-linecap:square;stroke-linejoin:miter;stroke-width:0.8;"/>
   </g>
   <g id="patch_6">
    <path d="M 54 34.56 
L 388.8 34.56 
" style="fill:none;stroke:#000000;stroke-linecap:square;stroke-linejoin:miter;stroke-width:0.8;"/>
   </g>
   <g id="text_15">
    <!-- $f(n)= 1.00660712435614^{n} + 2.95716043262471$ -->
    <defs>
     <path d="M 47.796875 75.984375 
L 46.390625 68.5 
L 37.796875 68.5 
Q 32.90625 68.5 30.6875 66.578125 
Q 28.46875 64.65625 27.390625 59.515625 
L 26.421875 54.6875 
L 41.21875 54.6875 
L 39.890625 47.703125 
L 25.09375 47.703125 
L 15.828125 0 
L 6.78125 0 
L 16.109375 47.703125 
L 7.515625 47.703125 
L 8.796875 54.6875 
L 17.390625 54.6875 
L 18.109375 58.5 
Q 19.96875 68.171875 24.625 72.078125 
Q 29.296875 75.984375 39.3125 75.984375 
z
" id="DejaVuSans-Oblique-102"/>
     <path d="M 31 75.875 
Q 24.46875 64.65625 21.28125 53.65625 
Q 18.109375 42.671875 18.109375 31.390625 
Q 18.109375 20.125 21.3125 9.0625 
Q 24.515625 -2 31 -13.1875 
L 23.1875 -13.1875 
Q 15.875 -1.703125 12.234375 9.375 
Q 8.59375 20.453125 8.59375 31.390625 
Q 8.59375 42.28125 12.203125 53.3125 
Q 15.828125 64.359375 23.1875 75.875 
z
" id="DejaVuSans-40"/>
     <path d="M 55.71875 33.015625 
L 49.3125 0 
L 40.28125 0 
L 46.6875 32.671875 
Q 47.125 34.96875 47.359375 36.71875 
Q 47.609375 38.484375 47.609375 39.5 
Q 47.609375 43.609375 45.015625 45.890625 
Q 42.4375 48.1875 37.796875 48.1875 
Q 30.5625 48.1875 25.34375 43.375 
Q 20.125 38.578125 18.5 30.328125 
L 12.5 0 
L 3.515625 0 
L 14.109375 54.6875 
L 23.09375 54.6875 
L 21.296875 46.09375 
Q 25.046875 50.828125 30.3125 53.40625 
Q 35.59375 56 41.40625 56 
Q 48.640625 56 52.609375 52.09375 
Q 56.59375 48.1875 56.59375 41.109375 
Q 56.59375 39.359375 56.375 37.359375 
Q 56.15625 35.359375 55.71875 33.015625 
z
" id="DejaVuSans-Oblique-110"/>
     <path d="M 8.015625 75.875 
L 15.828125 75.875 
Q 23.140625 64.359375 26.78125 53.3125 
Q 30.421875 42.28125 30.421875 31.390625 
Q 30.421875 20.453125 26.78125 9.375 
Q 23.140625 -1.703125 15.828125 -13.1875 
L 8.015625 -13.1875 
Q 14.5 -2 17.703125 9.0625 
Q 20.90625 20.125 20.90625 31.390625 
Q 20.90625 42.671875 17.703125 53.65625 
Q 14.5 64.65625 8.015625 75.875 
z
" id="DejaVuSans-41"/>
     <path d="M 10.59375 45.40625 
L 73.1875 45.40625 
L 73.1875 37.203125 
L 10.59375 37.203125 
z
M 10.59375 25.484375 
L 73.1875 25.484375 
L 73.1875 17.1875 
L 10.59375 17.1875 
z
" id="DejaVuSans-61"/>
     <path d="M 10.6875 12.40625 
L 21 12.40625 
L 21 0 
L 10.6875 0 
z
" id="DejaVuSans-46"/>
     <path d="M 46 62.703125 
L 46 35.5 
L 73.1875 35.5 
L 73.1875 27.203125 
L 46 27.203125 
L 46 0 
L 37.796875 0 
L 37.796875 27.203125 
L 10.59375 27.203125 
L 10.59375 35.5 
L 37.796875 35.5 
L 37.796875 62.703125 
z
" id="DejaVuSans-43"/>
     <path d="M 10.984375 1.515625 
L 10.984375 10.5 
Q 14.703125 8.734375 18.5 7.8125 
Q 22.3125 6.890625 25.984375 6.890625 
Q 35.75 6.890625 40.890625 13.453125 
Q 46.046875 20.015625 46.78125 33.40625 
Q 43.953125 29.203125 39.59375 26.953125 
Q 35.25 24.703125 29.984375 24.703125 
Q 19.046875 24.703125 12.671875 31.3125 
Q 6.296875 37.9375 6.296875 49.421875 
Q 6.296875 60.640625 12.9375 67.421875 
Q 19.578125 74.21875 30.609375 74.21875 
Q 43.265625 74.21875 49.921875 64.515625 
Q 56.59375 54.828125 56.59375 36.375 
Q 56.59375 19.140625 48.40625 8.859375 
Q 40.234375 -1.421875 26.421875 -1.421875 
Q 22.703125 -1.421875 18.890625 -0.6875 
Q 15.09375 0.046875 10.984375 1.515625 
z
M 30.609375 32.421875 
Q 37.25 32.421875 41.125 36.953125 
Q 45.015625 41.5 45.015625 49.421875 
Q 45.015625 57.28125 41.125 61.84375 
Q 37.25 66.40625 30.609375 66.40625 
Q 23.96875 66.40625 20.09375 61.84375 
Q 16.21875 57.28125 16.21875 49.421875 
Q 16.21875 41.5 20.09375 36.953125 
Q 23.96875 32.421875 30.609375 32.421875 
z
" id="DejaVuSans-57"/>
    </defs>
    <g transform="translate(25.96 28.56)scale(0.16 -0.16)">
     <use transform="translate(0 0.51875)" xlink:href="#DejaVuSans-Oblique-102"/>
     <use transform="translate(35.205078 0.51875)" xlink:href="#DejaVuSans-40"/>
     <use transform="translate(74.21875 0.51875)" xlink:href="#DejaVuSans-Oblique-110"/>
     <use transform="translate(137.597656 0.51875)" xlink:href="#DejaVuSans-41"/>
     <use transform="translate(196.09375 0.51875)" xlink:href="#DejaVuSans-61"/>
     <use transform="translate(299.365234 0.51875)" xlink:href="#DejaVuSans-49"/>
     <use transform="translate(362.988281 0.51875)" xlink:href="#DejaVuSans-46"/>
     <use transform="translate(394.775391 0.51875)" xlink:href="#DejaVuSans-48"/>
     <use transform="translate(458.398438 0.51875)" xlink:href="#DejaVuSans-48"/>
     <use transform="translate(522.021484 0.51875)" xlink:href="#DejaVuSans-54"/>
     <use transform="translate(585.644531 0.51875)" xlink:href="#DejaVuSans-54"/>
     <use transform="translate(649.267578 0.51875)" xlink:href="#DejaVuSans-48"/>
     <use transform="translate(712.890625 0.51875)" xlink:href="#DejaVuSans-55"/>
     <use transform="translate(776.513672 0.51875)" xlink:href="#DejaVuSans-49"/>
     <use transform="translate(840.136719 0.51875)" xlink:href="#DejaVuSans-50"/>
     <use transform="translate(903.759766 0.51875)" xlink:href="#DejaVuSans-52"/>
     <use transform="translate(967.382812 0.51875)" xlink:href="#DejaVuSans-51"/>
     <use transform="translate(1031.005859 0.51875)" xlink:href="#DejaVuSans-53"/>
     <use transform="translate(1094.628906 0.51875)" xlink:href="#DejaVuSans-54"/>
     <use transform="translate(1158.251953 0.51875)" xlink:href="#DejaVuSans-49"/>
     <use transform="translate(1221.875 0.51875)" xlink:href="#DejaVuSans-52"/>
     <use transform="translate(1286.455078 38.8)scale(0.7)" xlink:href="#DejaVuSans-Oblique-110"/>
     <use transform="translate(1353.037109 0.51875)" xlink:href="#DejaVuSans-43"/>
     <use transform="translate(1456.308594 0.51875)" xlink:href="#DejaVuSans-50"/>
     <use transform="translate(1519.931641 0.51875)" xlink:href="#DejaVuSans-46"/>
     <use transform="translate(1551.71875 0.51875)" xlink:href="#DejaVuSans-57"/>
     <use transform="translate(1615.341797 0.51875)" xlink:href="#DejaVuSans-53"/>
     <use transform="translate(1678.855469 0.51875)" xlink:href="#DejaVuSans-55"/>
     <use transform="translate(1742.478516 0.51875)" xlink:href="#DejaVuSans-49"/>
     <use transform="translate(1806.101562 0.51875)" xlink:href="#DejaVuSans-54"/>
     <use transform="translate(1869.724609 0.51875)" xlink:href="#DejaVuSans-48"/>
     <use transform="translate(1933.347656 0.51875)" xlink:href="#DejaVuSans-52"/>
     <use transform="translate(1996.970703 0.51875)" xlink:href="#DejaVuSans-51"/>
     <use transform="translate(2060.59375 0.51875)" xlink:href="#DejaVuSans-50"/>
     <use transform="translate(2124.216797 0.51875)" xlink:href="#DejaVuSans-54"/>
     <use transform="translate(2187.839844 0.51875)" xlink:href="#DejaVuSans-50"/>
     <use transform="translate(2251.462891 0.51875)" xlink:href="#DejaVuSans-52"/>
     <use transform="translate(2315.085938 0.51875)" xlink:href="#DejaVuSans-55"/>
     <use transform="translate(2378.708984 0.51875)" xlink:href="#DejaVuSans-49"/>
    </g>
   </g>
   <g id="legend_1">
    <g id="patch_7">
     <path d="M 61 71.91625 
L 159.185938 71.91625 
Q 161.185938 71.91625 161.185938 69.91625 
L 161.185938 41.56 
Q 161.185938 39.56 159.185938 39.56 
L 61 39.56 
Q 59 39.56 59 41.56 
L 59 69.91625 
Q 59 71.91625 61 71.91625 
z
" style="fill:#ffffff;opacity:0.8;stroke:#cccccc;stroke-linejoin:miter;"/>
    </g>
    <g id="line2d_17"/>
    <g id="line2d_18">
     <g>
      <use style="fill:#ff0000;stroke:#ff0000;" x="73" xlink:href="#m6afd31a3e0" y="47.658437"/>
     </g>
    </g>
    <g id="text_16">
     <!-- Original Data -->
     <defs>
      <path d="M 39.40625 66.21875 
Q 28.65625 66.21875 22.328125 58.203125 
Q 16.015625 50.203125 16.015625 36.375 
Q 16.015625 22.609375 22.328125 14.59375 
Q 28.65625 6.59375 39.40625 6.59375 
Q 50.140625 6.59375 56.421875 14.59375 
Q 62.703125 22.609375 62.703125 36.375 
Q 62.703125 50.203125 56.421875 58.203125 
Q 50.140625 66.21875 39.40625 66.21875 
z
M 39.40625 74.21875 
Q 54.734375 74.21875 63.90625 63.9375 
Q 73.09375 53.65625 73.09375 36.375 
Q 73.09375 19.140625 63.90625 8.859375 
Q 54.734375 -1.421875 39.40625 -1.421875 
Q 24.03125 -1.421875 14.8125 8.828125 
Q 5.609375 19.09375 5.609375 36.375 
Q 5.609375 53.65625 14.8125 63.9375 
Q 24.03125 74.21875 39.40625 74.21875 
z
" id="DejaVuSans-79"/>
      <path d="M 41.109375 46.296875 
Q 39.59375 47.171875 37.8125 47.578125 
Q 36.03125 48 33.890625 48 
Q 26.265625 48 22.1875 43.046875 
Q 18.109375 38.09375 18.109375 28.8125 
L 18.109375 0 
L 9.078125 0 
L 9.078125 54.6875 
L 18.109375 54.6875 
L 18.109375 46.1875 
Q 20.953125 51.171875 25.484375 53.578125 
Q 30.03125 56 36.53125 56 
Q 37.453125 56 38.578125 55.875 
Q 39.703125 55.765625 41.0625 55.515625 
z
" id="DejaVuSans-114"/>
      <path d="M 9.421875 54.6875 
L 18.40625 54.6875 
L 18.40625 0 
L 9.421875 0 
z
M 9.421875 75.984375 
L 18.40625 75.984375 
L 18.40625 64.59375 
L 9.421875 64.59375 
z
" id="DejaVuSans-105"/>
      <path d="M 45.40625 27.984375 
Q 45.40625 37.75 41.375 43.109375 
Q 37.359375 48.484375 30.078125 48.484375 
Q 22.859375 48.484375 18.828125 43.109375 
Q 14.796875 37.75 14.796875 27.984375 
Q 14.796875 18.265625 18.828125 12.890625 
Q 22.859375 7.515625 30.078125 7.515625 
Q 37.359375 7.515625 41.375 12.890625 
Q 45.40625 18.265625 45.40625 27.984375 
z
M 54.390625 6.78125 
Q 54.390625 -7.171875 48.1875 -13.984375 
Q 42 -20.796875 29.203125 -20.796875 
Q 24.46875 -20.796875 20.265625 -20.09375 
Q 16.0625 -19.390625 12.109375 -17.921875 
L 12.109375 -9.1875 
Q 16.0625 -11.328125 19.921875 -12.34375 
Q 23.78125 -13.375 27.78125 -13.375 
Q 36.625 -13.375 41.015625 -8.765625 
Q 45.40625 -4.15625 45.40625 5.171875 
L 45.40625 9.625 
Q 42.625 4.78125 38.28125 2.390625 
Q 33.9375 0 27.875 0 
Q 17.828125 0 11.671875 7.65625 
Q 5.515625 15.328125 5.515625 27.984375 
Q 5.515625 40.671875 11.671875 48.328125 
Q 17.828125 56 27.875 56 
Q 33.9375 56 38.28125 53.609375 
Q 42.625 51.21875 45.40625 46.390625 
L 45.40625 54.6875 
L 54.390625 54.6875 
z
" id="DejaVuSans-103"/>
      <path d="M 54.890625 33.015625 
L 54.890625 0 
L 45.90625 0 
L 45.90625 32.71875 
Q 45.90625 40.484375 42.875 44.328125 
Q 39.84375 48.1875 33.796875 48.1875 
Q 26.515625 48.1875 22.3125 43.546875 
Q 18.109375 38.921875 18.109375 30.90625 
L 18.109375 0 
L 9.078125 0 
L 9.078125 54.6875 
L 18.109375 54.6875 
L 18.109375 46.1875 
Q 21.34375 51.125 25.703125 53.5625 
Q 30.078125 56 35.796875 56 
Q 45.21875 56 50.046875 50.171875 
Q 54.890625 44.34375 54.890625 33.015625 
z
" id="DejaVuSans-110"/>
      <path d="M 34.28125 27.484375 
Q 23.390625 27.484375 19.1875 25 
Q 14.984375 22.515625 14.984375 16.5 
Q 14.984375 11.71875 18.140625 8.90625 
Q 21.296875 6.109375 26.703125 6.109375 
Q 34.1875 6.109375 38.703125 11.40625 
Q 43.21875 16.703125 43.21875 25.484375 
L 43.21875 27.484375 
z
M 52.203125 31.203125 
L 52.203125 0 
L 43.21875 0 
L 43.21875 8.296875 
Q 40.140625 3.328125 35.546875 0.953125 
Q 30.953125 -1.421875 24.3125 -1.421875 
Q 15.921875 -1.421875 10.953125 3.296875 
Q 6 8.015625 6 15.921875 
Q 6 25.140625 12.171875 29.828125 
Q 18.359375 34.515625 30.609375 34.515625 
L 43.21875 34.515625 
L 43.21875 35.40625 
Q 43.21875 41.609375 39.140625 45 
Q 35.0625 48.390625 27.6875 48.390625 
Q 23 48.390625 18.546875 47.265625 
Q 14.109375 46.140625 10.015625 43.890625 
L 10.015625 52.203125 
Q 14.9375 54.109375 19.578125 55.046875 
Q 24.21875 56 28.609375 56 
Q 40.484375 56 46.34375 49.84375 
Q 52.203125 43.703125 52.203125 31.203125 
z
" id="DejaVuSans-97"/>
      <path d="M 9.421875 75.984375 
L 18.40625 75.984375 
L 18.40625 0 
L 9.421875 0 
z
" id="DejaVuSans-108"/>
      <path id="DejaVuSans-32"/>
      <path d="M 19.671875 64.796875 
L 19.671875 8.109375 
L 31.59375 8.109375 
Q 46.6875 8.109375 53.6875 14.9375 
Q 60.6875 21.78125 60.6875 36.53125 
Q 60.6875 51.171875 53.6875 57.984375 
Q 46.6875 64.796875 31.59375 64.796875 
z
M 9.8125 72.90625 
L 30.078125 72.90625 
Q 51.265625 72.90625 61.171875 64.09375 
Q 71.09375 55.28125 71.09375 36.53125 
Q 71.09375 17.671875 61.125 8.828125 
Q 51.171875 0 30.078125 0 
L 9.8125 0 
z
" id="DejaVuSans-68"/>
      <path d="M 18.3125 70.21875 
L 18.3125 54.6875 
L 36.8125 54.6875 
L 36.8125 47.703125 
L 18.3125 47.703125 
L 18.3125 18.015625 
Q 18.3125 11.328125 20.140625 9.421875 
Q 21.96875 7.515625 27.59375 7.515625 
L 36.8125 7.515625 
L 36.8125 0 
L 27.59375 0 
Q 17.1875 0 13.234375 3.875 
Q 9.28125 7.765625 9.28125 18.015625 
L 9.28125 47.703125 
L 2.6875 47.703125 
L 2.6875 54.6875 
L 9.28125 54.6875 
L 9.28125 70.21875 
z
" id="DejaVuSans-116"/>
     </defs>
     <g transform="translate(91 51.158437)scale(0.1 -0.1)">
      <use xlink:href="#DejaVuSans-79"/>
      <use x="78.710938" xlink:href="#DejaVuSans-114"/>
      <use x="119.824219" xlink:href="#DejaVuSans-105"/>
      <use x="147.607422" xlink:href="#DejaVuSans-103"/>
      <use x="211.083984" xlink:href="#DejaVuSans-105"/>
      <use x="238.867188" xlink:href="#DejaVuSans-110"/>
      <use x="302.246094" xlink:href="#DejaVuSans-97"/>
      <use x="363.525391" xlink:href="#DejaVuSans-108"/>
      <use x="391.308594" xlink:href="#DejaVuSans-32"/>
      <use x="423.095703" xlink:href="#DejaVuSans-68"/>
      <use x="500.097656" xlink:href="#DejaVuSans-97"/>
      <use x="561.376953" xlink:href="#DejaVuSans-116"/>
      <use x="600.585938" xlink:href="#DejaVuSans-97"/>
     </g>
    </g>
    <g id="line2d_19">
     <path d="M 63 62.336562 
L 83 62.336562 
" style="fill:none;stroke:#1f77b4;stroke-linecap:square;stroke-width:1.5;"/>
    </g>
    <g id="line2d_20"/>
    <g id="text_17">
     <!-- Fitted Curve -->
     <defs>
      <path d="M 9.8125 72.90625 
L 51.703125 72.90625 
L 51.703125 64.59375 
L 19.671875 64.59375 
L 19.671875 43.109375 
L 48.578125 43.109375 
L 48.578125 34.8125 
L 19.671875 34.8125 
L 19.671875 0 
L 9.8125 0 
z
" id="DejaVuSans-70"/>
      <path d="M 56.203125 29.59375 
L 56.203125 25.203125 
L 14.890625 25.203125 
Q 15.484375 15.921875 20.484375 11.0625 
Q 25.484375 6.203125 34.421875 6.203125 
Q 39.59375 6.203125 44.453125 7.46875 
Q 49.3125 8.734375 54.109375 11.28125 
L 54.109375 2.78125 
Q 49.265625 0.734375 44.1875 -0.34375 
Q 39.109375 -1.421875 33.890625 -1.421875 
Q 20.796875 -1.421875 13.15625 6.1875 
Q 5.515625 13.8125 5.515625 26.8125 
Q 5.515625 40.234375 12.765625 48.109375 
Q 20.015625 56 32.328125 56 
Q 43.359375 56 49.78125 48.890625 
Q 56.203125 41.796875 56.203125 29.59375 
z
M 47.21875 32.234375 
Q 47.125 39.59375 43.09375 43.984375 
Q 39.0625 48.390625 32.421875 48.390625 
Q 24.90625 48.390625 20.390625 44.140625 
Q 15.875 39.890625 15.1875 32.171875 
z
" id="DejaVuSans-101"/>
      <path d="M 45.40625 46.390625 
L 45.40625 75.984375 
L 54.390625 75.984375 
L 54.390625 0 
L 45.40625 0 
L 45.40625 8.203125 
Q 42.578125 3.328125 38.25 0.953125 
Q 33.9375 -1.421875 27.875 -1.421875 
Q 17.96875 -1.421875 11.734375 6.484375 
Q 5.515625 14.40625 5.515625 27.296875 
Q 5.515625 40.1875 11.734375 48.09375 
Q 17.96875 56 27.875 56 
Q 33.9375 56 38.25 53.625 
Q 42.578125 51.265625 45.40625 46.390625 
z
M 14.796875 27.296875 
Q 14.796875 17.390625 18.875 11.75 
Q 22.953125 6.109375 30.078125 6.109375 
Q 37.203125 6.109375 41.296875 11.75 
Q 45.40625 17.390625 45.40625 27.296875 
Q 45.40625 37.203125 41.296875 42.84375 
Q 37.203125 48.484375 30.078125 48.484375 
Q 22.953125 48.484375 18.875 42.84375 
Q 14.796875 37.203125 14.796875 27.296875 
z
" id="DejaVuSans-100"/>
      <path d="M 64.40625 67.28125 
L 64.40625 56.890625 
Q 59.421875 61.53125 53.78125 63.8125 
Q 48.140625 66.109375 41.796875 66.109375 
Q 29.296875 66.109375 22.65625 58.46875 
Q 16.015625 50.828125 16.015625 36.375 
Q 16.015625 21.96875 22.65625 14.328125 
Q 29.296875 6.6875 41.796875 6.6875 
Q 48.140625 6.6875 53.78125 8.984375 
Q 59.421875 11.28125 64.40625 15.921875 
L 64.40625 5.609375 
Q 59.234375 2.09375 53.4375 0.328125 
Q 47.65625 -1.421875 41.21875 -1.421875 
Q 24.65625 -1.421875 15.125 8.703125 
Q 5.609375 18.84375 5.609375 36.375 
Q 5.609375 53.953125 15.125 64.078125 
Q 24.65625 74.21875 41.21875 74.21875 
Q 47.75 74.21875 53.53125 72.484375 
Q 59.328125 70.75 64.40625 67.28125 
z
" id="DejaVuSans-67"/>
      <path d="M 8.5 21.578125 
L 8.5 54.6875 
L 17.484375 54.6875 
L 17.484375 21.921875 
Q 17.484375 14.15625 20.5 10.265625 
Q 23.53125 6.390625 29.59375 6.390625 
Q 36.859375 6.390625 41.078125 11.03125 
Q 45.3125 15.671875 45.3125 23.6875 
L 45.3125 54.6875 
L 54.296875 54.6875 
L 54.296875 0 
L 45.3125 0 
L 45.3125 8.40625 
Q 42.046875 3.421875 37.71875 1 
Q 33.40625 -1.421875 27.6875 -1.421875 
Q 18.265625 -1.421875 13.375 4.4375 
Q 8.5 10.296875 8.5 21.578125 
z
M 31.109375 56 
z
" id="DejaVuSans-117"/>
      <path d="M 2.984375 54.6875 
L 12.5 54.6875 
L 29.59375 8.796875 
L 46.6875 54.6875 
L 56.203125 54.6875 
L 35.6875 0 
L 23.484375 0 
z
" id="DejaVuSans-118"/>
     </defs>
     <g transform="translate(91 65.836562)scale(0.1 -0.1)">
      <use xlink:href="#DejaVuSans-70"/>
      <use x="57.410156" xlink:href="#DejaVuSans-105"/>
      <use x="85.193359" xlink:href="#DejaVuSans-116"/>
      <use x="124.402344" xlink:href="#DejaVuSans-116"/>
      <use x="163.611328" xlink:href="#DejaVuSans-101"/>
      <use x="225.134766" xlink:href="#DejaVuSans-100"/>
      <use x="288.611328" xlink:href="#DejaVuSans-32"/>
      <use x="320.398438" xlink:href="#DejaVuSans-67"/>
      <use x="390.222656" xlink:href="#DejaVuSans-117"/>
      <use x="453.601562" xlink:href="#DejaVuSans-114"/>
      <use x="494.714844" xlink:href="#DejaVuSans-118"/>
      <use x="553.894531" xlink:href="#DejaVuSans-101"/>
     </g>
    </g>
   </g>
  </g>
 </g>
 <defs>
  <clipPath id="p3056844a53">
   <rect height="217.44" width="334.8" x="54" y="34.56"/>
  </clipPath>
 </defs>
</svg>
